<?xml version="1.0" encoding="UTF-8" standalone="no"?>
<!DOCTYPE svg PUBLIC "-//W3C//DTD SVG 1.1//EN" "http://www.w3.org/Graphics/SVG/1.1/DTD/svg11.dtd">
<!-- Created with Vectornator (http://vectornator.io/) -->
<svg height="100%" stroke-miterlimit="10" style="fill-rule:nonzero;clip-rule:evenodd;stroke-linecap:round;stroke-linejoin:round;" version="1.1" viewBox="0 0 14400 14400" width="100%" xml:space="preserve" xmlns="http://www.w3.org/2000/svg" xmlns:vectornator="http://vectornator.io" xmlns:xlink="http://www.w3.org/1999/xlink">
<defs/>
<g id="무제" vectornator:layerName="무제">
<path d="M6817.42 7252.52C6817.14 7253.53 6816.83 7254.55 6816.58 7255.55L6815.87 7258.55L6814.45 7264.53C6814.01 7266.51 6813.74 7268.45 6813.36 7270.41L6812.82 7273.34C6812.64 7274.32 6812.42 7275.31 6812.38 7276.24C6812.02 7280.51 6811.09 7285.07 6811.07 7289.16L6810.89 7292.09C6810.84 7293.06 6810.69 7294.08 6810.75 7294.98C6810.79 7296.83 6810.84 7298.68 6810.97 7300.51L6811.07 7302.04C6811.1 7302.55 6811.13 7303.07 6811.22 7303.53L6811.69 7306.39C6812.02 7308.28 6812.28 7310.24 6812.7 7312.08C6813.58 7315.73 6814.76 7319.34 6816.74 7323.14C6817.55 7324.68 6818.56 7326.22 6819.57 7327.79C6820.1 7328.56 6820.57 7329.38 6821.17 7330.1L6822.93 7332.24C6825.26 7335.06 6827.74 7337.3 6830.25 7339.4C6830.86 7339.94 6831.56 7340.4 6832.24 7340.88L6834.28 7342.31L6838.37 7345.18L6839.39 7345.9C6839.73 7346.14 6840.14 7346.31 6840.52 7346.52L6842.82 7347.71L6847.42 7350.09C6853.83 7352.94 6860.73 7355.25 6868.19 7356.66L6870.96 7357.23C6871.89 7357.4 6872.85 7357.53 6873.79 7357.67C6875.69 7357.95 6877.6 7358.2 6879.52 7358.43C6883.31 7358.99 6887.37 7359.02 6891.34 7359.17C6892.98 7359.2 6894.6 7359.32 6896.27 7359.35C6897.96 7359.34 6899.65 7359.34 6901.35 7359.33L6906.42 7359.38C6907.27 7359.38 6908.09 7359.43 6908.96 7359.39L6911.56 7359.26C6914.47 7359.13 6917.38 7359.01 6920.29 7358.88C6921.73 7358.87 6923.25 7358.63 6924.74 7358.49L6929.22 7358C6935.15 7357.52 6941.31 7356.19 6947.36 7354.99C6949.17 7354.67 6951.02 7354.08 6952.84 7353.6C6954.66 7353.09 6956.48 7352.58 6958.29 7352.07C6960.1 7351.54 6961.9 7351.09 6963.71 7350.49L6969.14 7348.62C6970.95 7348.01 6972.76 7347.4 6974.58 7346.79C6975.49 7346.48 6976.4 7346.2 6977.31 7345.88C6978.22 7345.54 6979.14 7345.2 6980.05 7344.85C6983.72 7343.49 6987.44 7342.19 6991.25 7340.92L7001.91 7336.85L7004.58 7335.82C7005.47 7335.47 7006.38 7335.1 7007.14 7334.77L7010.94 7333.16C7013.21 7332.21 7015.47 7331.24 7017.66 7330.23C7019.85 7329.22 7022.12 7328.22 7024.24 7327.19L7036.87 7320.98C7041.13 7318.93 7045.13 7316.72 7049.26 7314.6C7052.5 7312.89 7055.82 7311.17 7058.96 7309.37C7062.12 7307.58 7065.28 7305.79 7068.47 7304.04C7070.01 7303.18 7071.56 7302.31 7073.11 7301.44C7074.63 7300.56 7076.15 7299.68 7077.66 7298.81C7080.7 7297.09 7083.75 7295.45 7086.82 7294.09C7092.59 7291.53 7097.39 7286.69 7103.88 7285.69C7106.5 7285.29 7110.69 7281.74 7114.17 7279.62L7113.98 7279.32C7111.12 7280.76 7108.26 7282.2 7104.77 7283.96C7116.76 7275.56 7135.18 7263.82 7141.1 7262.62C7136.76 7265.26 7133.28 7267.37 7129.8 7269.48L7130.05 7269.81L7144.19 7262.35L7144.45 7262.98C7142.04 7264.62 7139.62 7266.27 7137.21 7267.91C7134.79 7269.57 7132.36 7271.29 7130.02 7273.05C7128.69 7274.05 7128.23 7275.74 7127.37 7277.11C7128.42 7276.97 7129.74 7277.14 7130.48 7276.64C7138.58 7271.19 7148.04 7267.61 7154.22 7260.46C7154.73 7259.88 7155.55 7259.28 7156.31 7258.8L7161.57 7255.54C7162.38 7255.04 7163.62 7254.28 7163.5 7254.34C7163.71 7254.18 7163.79 7254.13 7163.89 7254.04L7165.15 7253.06C7166.02 7252.39 7166.94 7251.68 7167.95 7250.84C7169.06 7249.92 7170.3 7248.68 7172.08 7246.69C7173.02 7245.62 7173.75 7245.42 7174.19 7245.64C7174.64 7245.85 7174.83 7246.52 7174.97 7247.15C7174.18 7248.31 7173.76 7248.97 7173.42 7249.51C7173.82 7249.55 7174.12 7249.67 7174.5 7249.64C7174.88 7249.62 7175.24 7249.63 7175.57 7249.64C7175.89 7249.66 7176.24 7249.66 7176.55 7249.97C7176.87 7250.29 7176.94 7250.91 7176.9 7251.44C7176.86 7251.98 7176.76 7252.5 7176.69 7252.97C7176.33 7255.14 7175.33 7256.97 7174.43 7258.69C7173.98 7259.55 7173.54 7260.4 7173.17 7261.26C7173.08 7261.47 7172.99 7261.69 7172.91 7261.91L7172.8 7262.24L7172.77 7262.32L7172.76 7262.36L7172.62 7262.87L7171.96 7265.31L7171.63 7266.53L7171.47 7267.14L7171.3 7267.86L7170.61 7270.83L7170.27 7272.31L7170.1 7273.05L7169.89 7274.06C7169.61 7275.42 7169.31 7277.08 7169.03 7278.86C7168.49 7282.48 7167.97 7287.06 7168.07 7292.92C7168.09 7294.31 7168.18 7296.01 7168.3 7297.59C7168.35 7298.35 7168.46 7299.3 7168.56 7300.16C7168.67 7301.05 7168.78 7301.9 7168.91 7302.81C7169.52 7306.59 7170.38 7310.52 7171.9 7314.92C7172.23 7315.87 7172.55 7316.78 7172.93 7317.74C7173.32 7318.72 7173.73 7319.7 7174.16 7320.67C7174.99 7322.58 7176.01 7324.58 7177.1 7326.51C7178.16 7328.43 7179.41 7330.37 7180.71 7332.22C7182 7334.09 7183.4 7335.81 7184.86 7337.52C7190.66 7344.31 7198.09 7349.87 7204.84 7353.28C7211.58 7356.72 7217.62 7358.43 7222.68 7359.34C7224.99 7359.71 7227.49 7360.02 7229.38 7360.06C7230.37 7360.1 7231.42 7360.13 7232.31 7360.1C7233.18 7360.07 7234.04 7360.02 7234.88 7359.95C7235.19 7359.92 7235.56 7359.91 7235.97 7359.89C7236.36 7359.88 7236.76 7359.86 7237.19 7359.85C7238.08 7359.84 7239.05 7359.82 7240.07 7359.81C7241.02 7359.79 7242 7359.76 7242.98 7359.73C7243.87 7359.68 7244.74 7359.64 7245.54 7359.6C7248.23 7359.4 7250.62 7359.14 7252.59 7358.89L7256.25 7358.37C7266.97 7356.74 7277.51 7354.73 7287.96 7352.99C7298.29 7351.28 7308.59 7349.93 7318.7 7348.13C7322.35 7347.48 7325.9 7346.32 7329.48 7345.38L7329.18 7344.69C7321.76 7344.39 7314.49 7350 7305.87 7348.05C7324.19 7342.8 7341.26 7337.96 7359.38 7336.91C7356.67 7338.15 7353.97 7339.39 7350.67 7340.89C7352.24 7341.09 7352.86 7341.32 7353.35 7341.21C7362.82 7338.96 7373.33 7339.02 7381.58 7334.05C7382 7333.8 7382.82 7333.65 7383.45 7333.58C7389.04 7332.94 7394.69 7330.16 7400.28 7331.37C7401.06 7331.54 7402.43 7331.3 7403.48 7331.08L7430.65 7325.14C7439.77 7323.18 7449.34 7321.21 7454.8 7316.17C7458.28 7312.96 7463.09 7311.91 7468.03 7310.41C7468.5 7310.27 7468.81 7309.89 7469.86 7309.16C7456.52 7311.68 7444.11 7313.94 7431.73 7316.38C7414.01 7319.87 7395.91 7322.39 7379.25 7328.75C7378.14 7329.17 7376.69 7329.31 7375.4 7329.52C7359.26 7332.24 7343.14 7334.68 7326.78 7337.77C7310.64 7340.82 7294.42 7344.91 7277.67 7347.37C7272.02 7348.19 7266.36 7348.95 7260.64 7349.6C7257.79 7349.94 7254.91 7350.23 7252.04 7350.54L7250.59 7350.69L7248.76 7350.86C7247.51 7350.97 7246.08 7351.06 7244.58 7351.12C7241.56 7351.24 7238.03 7351.26 7233.67 7350.85C7229.33 7350.41 7224.12 7349.58 7217.87 7347.37C7217.09 7347.09 7216.32 7346.8 7215.55 7346.5C7214.72 7346.16 7213.87 7345.79 7213.04 7345.41C7212.21 7345.03 7211.38 7344.63 7210.56 7344.22C7209.71 7343.78 7208.81 7343.28 7207.96 7342.78C7207.1 7342.28 7206.24 7341.76 7205.4 7341.22C7204.55 7340.67 7203.65 7340.03 7202.8 7339.41C7201.08 7338.16 7199.43 7336.83 7197.8 7335.31C7194.54 7332.33 7191.69 7329.01 7189.18 7325.35C7186.64 7321.66 7184.68 7317.78 7183.17 7313.96C7180.2 7306.32 7179.33 7299.56 7179.12 7294.17C7178.94 7288.79 7179.41 7284.67 7179.91 7281.26C7180.04 7280.37 7180.17 7279.66 7180.32 7278.85L7180.74 7276.74C7181.04 7275.32 7181.25 7274.53 7181.49 7273.57C7181.96 7271.71 7182.45 7269.7 7182.9 7268.24L7183.59 7265.86L7183.76 7265.27L7183.81 7265.14L7183.91 7264.89C7184.41 7263.68 7185.61 7262.54 7186.63 7261.22L7187.29 7261.23C7187.33 7261.54 7187.52 7261.87 7187.39 7262.19C7187.01 7263.13 7186.66 7264.07 7186.37 7265.03L7186.15 7265.75L7185.47 7268.29L7185.08 7269.76L7184.89 7270.49L7184.69 7271.35L7183.91 7274.8C7183.68 7275.8 7183.34 7277.45 7183.04 7279.19C7182.73 7281.01 7182.44 7283.05 7182.24 7285.4C7182.04 7287.81 7181.92 7290.49 7182.03 7293.6C7182.16 7296.77 7182.53 7300.35 7183.42 7304.32C7184.33 7308.37 7185.82 7312.83 7188.08 7317.29C7188.66 7318.42 7189.27 7319.53 7189.92 7320.62C7190.58 7321.72 7191.3 7322.81 7192.03 7323.87C7193.5 7326 7195.15 7327.94 7196.88 7329.84C7198.63 7331.68 7200.55 7333.47 7202.5 7335.04C7203.47 7335.81 7204.47 7336.55 7205.48 7337.26C7205.98 7337.61 7206.51 7337.97 7207.01 7338.3L7208.5 7339.21C7209.5 7339.81 7210.51 7340.38 7211.54 7340.92C7212.54 7341.44 7213.47 7341.87 7214.45 7342.31L7215.92 7342.95C7216.42 7343.16 7216.91 7343.36 7217.34 7343.52C7218.24 7343.86 7219.15 7344.18 7220.07 7344.48L7221.44 7344.91L7222.69 7345.26C7223.52 7345.49 7224.36 7345.7 7225.2 7345.89C7226.05 7346.09 7226.74 7346.21 7227.51 7346.36C7228.26 7346.5 7229.05 7346.64 7229.77 7346.75L7231.82 7347.02C7232.49 7347.1 7233.23 7347.18 7233.81 7347.22L7235.66 7347.35L7236.58 7347.4L7237.42 7347.43C7241.97 7347.56 7245.57 7347.27 7248.58 7346.94C7249.38 7346.86 7250.01 7346.77 7250.72 7346.68L7252.16 7346.47L7254.79 7346.07L7260.03 7345.24C7267.01 7344.11 7273.92 7342.86 7280.76 7341.5C7292.11 7339.26 7303.52 7337.47 7314.69 7335.22C7318.73 7334.4 7322.79 7333.41 7326.6 7332.2C7335.75 7329.3 7344.97 7327.04 7354.52 7325.27C7373.09 7321.83 7391.6 7318.07 7410.11 7314.36C7429.79 7310.42 7449.61 7307.22 7468.99 7301.83C7480.13 7298.73 7492.02 7296.98 7503.59 7294.66C7505.02 7294.37 7506.51 7294.36 7507.98 7294.21L7508.15 7295.13C7479.91 7303.01 7450.22 7307.1 7421.9 7314.83C7462.37 7308.95 7502.3 7301.22 7540.49 7289.89C7532.6 7291.13 7524 7292.48 7514.3 7294.01C7515.66 7293.07 7516.27 7292.34 7517.01 7292.19C7523.34 7290.91 7529.69 7289.73 7536.03 7288.52L7548.25 7286.19C7548.44 7286.15 7548.61 7285.99 7548.81 7285.87C7547.69 7285.63 7546.62 7285.4 7545.17 7285.09C7548.38 7283.94 7551.03 7282.99 7553.64 7282.06C7552.93 7281.5 7552.43 7281.11 7551.54 7280.41C7558.64 7277.37 7565.41 7274.48 7572.18 7271.59C7559.34 7273.34 7546.43 7275.55 7533.54 7277.88C7516.4 7280.98 7499.25 7284.08 7482.14 7287.35C7472.84 7289.13 7463.63 7291.36 7454.34 7293.22C7446.99 7294.69 7439.58 7295.86 7432.21 7297.22C7429.35 7297.75 7426.37 7298.21 7423.7 7299.06C7420.13 7300.19 7416.8 7301.41 7412.91 7300.11L7459.64 7287.22L7459.4 7286.42C7446.15 7288.7 7432.87 7290.84 7419.65 7293.31C7407.24 7295.62 7394.9 7298.3 7382.51 7300.78L7328.37 7311.5C7326.9 7311.78 7325.36 7311.76 7323.85 7311.87L7323.84 7311.17C7327.36 7310.23 7330.83 7309.16 7334.38 7308.38C7352.45 7304.42 7370.38 7300.22 7388.51 7296.7C7408.28 7292.85 7427.96 7288.94 7446.99 7283.38C7446.25 7283.03 7445.43 7282.66 7444.39 7282.17C7459.39 7279.07 7473.65 7276.11 7487.91 7273.16C7486.26 7273.12 7484.68 7273.41 7483.1 7273.72L7421.28 7285.9C7407.76 7288.58 7394.25 7291.31 7380.75 7294.08C7374.35 7295.39 7367.97 7296.84 7361.59 7298.25C7352.04 7300.35 7342.54 7302.62 7332.92 7304.54C7326.18 7305.89 7319.32 7306.83 7312.49 7307.84C7307.59 7308.57 7302.68 7309.16 7297.76 7309.79C7300.52 7308.49 7303.49 7307.46 7306.55 7306.88C7321.11 7304.19 7335.58 7301.36 7350 7298.55L7393.27 7290.11C7397.1 7289.36 7400.87 7288.33 7404.65 7287.39C7409.35 7286.22 7413.98 7284.78 7418.73 7283.86L7485.14 7271.19C7491.76 7269.9 7498.28 7268.15 7504.85 7266.61L7504.71 7266.23L7475.05 7270.91L7474.92 7270.16C7476.39 7269.71 7477.83 7269.17 7479.34 7268.82C7491.69 7265.94 7504.16 7263.33 7516.39 7260.2C7536.11 7255.15 7555.94 7250.58 7576.1 7247.01C7578.76 7246.54 7581.46 7246.44 7584.15 7246.17L7584.25 7247.04C7576.53 7250.98 7566.07 7251.47 7558.19 7255.25C7568.34 7253.53 7578.38 7251.6 7588.43 7249.75C7595.49 7248.45 7602.57 7247.26 7610.88 7245.79C7609.36 7247.66 7608.66 7248.53 7607.66 7249.76C7617.74 7247.44 7627.24 7245.24 7636.74 7243.05C7637.83 7242.79 7639.05 7242.13 7639.68 7241.55C7641.19 7240.16 7642.39 7238.71 7643.64 7237.36C7641.58 7237.52 7638.97 7237.72 7636.09 7237.95C7636.52 7237.24 7636.86 7236.68 7637.31 7235.94C7623.67 7238.13 7610.33 7240.27 7596.99 7242.41C7602.64 7240.25 7608.46 7238.66 7613.91 7236.69C7619.45 7234.69 7625.67 7232.98 7629.67 7229.26C7624.05 7228.88 7618.81 7228.54 7613.47 7228.18C7613.49 7227.89 7613.53 7227.39 7613.57 7226.87C7596.09 7229.78 7579.09 7232.62 7562.08 7235.45L7561.29 7234.83C7562.23 7234.06 7562.94 7232.99 7564.16 7232.59C7567 7231.66 7570.09 7231.05 7573.08 7230.31L7601.83 7223.21C7599.81 7223.26 7597.89 7223.63 7595.96 7223.99L7473.8 7246.52C7461.26 7248.8 7448.66 7250.68 7436.08 7252.62C7433.06 7253.09 7430.02 7253.07 7426.98 7253.28L7427.09 7252.23C7434.53 7250.67 7441.99 7249.17 7449.4 7247.53L7505.28 7235.04C7515.98 7232.69 7526.79 7230.67 7537.49 7228.34C7541.15 7227.54 7544.67 7226.26 7548.25 7225.21L7547.88 7224.6L7544.15 7225.19L7500.11 7232.52C7483 7235.39 7465.87 7238.13 7448.8 7241.24C7433.97 7243.94 7419.22 7247.14 7404.4 7249.99C7400.74 7250.69 7396.76 7251.44 7393.52 7250.44C7426.99 7244.8 7459.36 7236.53 7491.53 7227.55C7484.99 7228.34 7478.44 7229.13 7471.15 7230.01C7472.2 7228.68 7472.63 7228.15 7473.1 7227.56C7470.13 7227.48 7467.12 7227.67 7464.71 7227.27C7459.42 7226.38 7454.01 7226.89 7448.01 7228.07C7430.58 7231.49 7413.11 7234.76 7395.64 7237.96C7392.23 7238.58 7388.25 7239.43 7385.72 7237.41C7395.1 7235.02 7404.07 7232.74 7413.31 7230.4C7412.17 7229.59 7411.12 7228.85 7410 7228.06C7411.41 7227.35 7412.52 7226.79 7413.64 7226.23C7405.72 7227.56 7397.99 7229.39 7390.2 7230.88C7380.88 7232.66 7371.48 7234.07 7362.15 7235.78C7346.08 7238.72 7329.92 7241.87 7314.06 7244.72C7310.62 7245.33 7307.13 7245.49 7303.68 7245.85C7312.66 7243.05 7322.06 7241.12 7331.52 7239.13C7340.98 7237.14 7350.44 7235.11 7359.45 7232.09C7347.95 7234.08 7336.46 7236.07 7324.99 7238.06C7313.58 7240.05 7302.32 7242.02 7291.16 7243.85C7290.08 7244.03 7288.98 7244.3 7287.97 7244.63C7281.74 7246.61 7275.71 7248.97 7269.34 7250.4C7264.2 7251.53 7259.01 7252.6 7253.84 7253.49C7251.24 7253.96 7248.66 7254.35 7246.07 7254.74L7242.19 7255.27L7240.25 7255.52L7239.79 7255.57C7239.66 7255.59 7239.66 7255.58 7239.6 7255.59L7239.55 7255.59C7239.54 7255.59 7239.55 7255.59 7239.55 7255.59L7239.55 7255.59L7239.55 7255.59L7239.55 7255.59L7239.56 7255.73C7239.7 7257.48 7239.82 7259.24 7239.9 7261.01L7240.03 7263.15L7240.13 7265.21L7240.24 7269.05C7240.27 7270.17 7240.28 7271.3 7240.26 7272.43C7240.24 7273.04 7240.26 7273.45 7240.25 7273.94L7240.22 7275.36C7240.12 7277.39 7240.09 7278.85 7239.91 7280.49C7239.68 7283.44 7239.16 7286.02 7238.71 7287.81C7238.39 7288.85 7238.25 7289.49 7237.9 7290.27C7237.78 7290.59 7237.68 7290.85 7237.54 7291.14L7237.32 7291.56C7237.28 7291.66 7237.23 7291.75 7237.18 7291.85C7237.09 7292.03 7236.93 7292.26 7236.84 7292.39C7236.78 7292.49 7236.71 7292.6 7236.62 7292.71L7236.5 7292.86C7236.49 7292.87 7236.38 7292.98 7236.47 7292.89C7236.51 7292.85 7236.56 7292.82 7236.59 7292.8L7236.6 7292.79L7236.6 7292.79C7236.65 7292.75 7236.15 7293.13 7236.36 7292.97L7236.37 7292.97L7236.39 7292.95L7236.43 7292.93C7236.41 7292.94 7236.58 7292.83 7236.65 7292.81C7236.7 7292.79 7236.9 7292.68 7237.06 7292.62C7237.74 7292.33 7238.96 7291.94 7240.81 7291.7C7242.67 7291.45 7245.05 7291.34 7248.41 7291.48L7249.72 7291.55L7251.11 7291.65C7251.95 7291.74 7253.17 7291.82 7254.24 7291.94L7257.93 7292.39L7262.38 7293.05L7264.93 7293.47L7266.2 7293.7L7267.91 7293.99L7271.34 7294.61L7273.05 7294.94L7273.88 7295.11L7273.88 7295.1L7273.89 7295.03L7273.99 7294.61L7274.36 7292.91C7274.52 7292.26 7274.75 7291.43 7274.94 7290.7L7275.09 7290.13L7275.17 7289.85L7275.21 7289.7L7275.31 7289.4L7276.13 7286.97L7276.95 7284.54C7277.21 7283.73 7277.5 7282.92 7277.84 7282.12L7279.78 7277.31C7280.44 7275.71 7281.18 7274.1 7281.88 7272.5C7287.6 7259.71 7294.1 7246.7 7299.01 7234.33C7300.32 7231.2 7301.39 7228.21 7302.56 7225.16C7303.58 7222.2 7304.69 7219.18 7305.57 7216.32C7306.55 7213.39 7307.33 7210.6 7308.17 7207.77L7309.28 7203.64C7309.66 7202.25 7309.99 7200.9 7310.31 7199.57C7312.84 7189.16 7314.04 7179.66 7314.44 7170.53C7314.63 7165.97 7314.44 7161.59 7314.07 7157.27C7313.67 7152.96 7312.93 7148.76 7311.98 7144.63C7311.71 7143.58 7311.55 7142.46 7311.42 7141.33C7311.3 7140.19 7311.1 7139.06 7310.9 7137.95L7311.96 7137.74C7312.67 7139.51 7313.2 7141.35 7313.79 7143.16C7316.6 7152.88 7317.73 7163.12 7317.28 7174.26C7316.86 7185.38 7315.24 7197.35 7311.69 7210.9C7311.21 7212.72 7310.87 7214.97 7311.08 7215.99C7311.18 7216.52 7312.96 7215.05 7313.44 7213.94C7314.08 7212.41 7314.84 7210.79 7315.43 7209.26C7316.06 7207.72 7316.68 7206.16 7317.28 7204.6C7317.87 7203.05 7318.33 7201.57 7318.79 7200.06C7319.01 7199.31 7319.23 7198.57 7319.42 7197.83C7319.59 7197.11 7319.73 7196.41 7319.86 7195.71C7320.98 7189.7 7321.65 7184.05 7322 7178.64C7322.1 7177.28 7322.18 7175.93 7322.21 7174.62C7322.24 7173.31 7322.31 7171.97 7322.31 7170.67L7322.32 7166.79L7322.16 7163C7321.86 7158 7321.21 7153.19 7320.22 7148.52C7319.2 7143.87 7317.8 7139.36 7316.05 7135C7314.58 7131.19 7312.47 7127.72 7310.51 7124.11C7308.86 7121.25 7306.96 7118.32 7304.53 7115.39C7303.32 7113.92 7301.99 7112.44 7300.52 7111.03C7299.06 7109.62 7297.49 7108.28 7295.97 7107.13C7292.87 7104.84 7290.28 7103.38 7287.89 7102.25C7287.29 7101.96 7286.69 7101.7 7286.1 7101.44C7285.52 7101.17 7284.78 7101.01 7284.13 7100.79L7280.06 7099.6C7277.8 7098.97 7275.51 7098.39 7273.2 7097.86L7269.72 7097.11L7269.28 7097.02L7268.74 7097.02L7267.66 7097.02L7265.51 7097.03C7259.77 7097.08 7254.09 7097.25 7248.62 7097.33C7248.69 7097.36 7249.46 7097.63 7250.24 7097.91C7249.76 7097.94 7249.28 7097.98 7248.81 7098.01L7248.1 7098.06C7247.84 7098.11 7247.54 7098.21 7247.27 7098.29C7246.15 7098.61 7245.05 7098.92 7243.96 7099.23C7241.79 7099.84 7239.67 7100.42 7237.6 7100.96C7233.46 7102.05 7229.5 7103.01 7225.57 7103.88C7224.71 7104.09 7223.89 7104.21 7222.99 7104.49L7220.19 7105.54L7214.6 7107.65L7203.42 7111.85L7197.84 7113.95C7197.37 7114.13 7196.92 7114.28 7196.44 7114.49L7195 7115.13L7192.13 7116.4L7180.64 7121.48L7169.16 7126.56L7157.55 7132.46L7145.95 7138.36L7143.05 7139.84L7141.6 7140.58L7140.16 7141.39L7134.4 7144.65C7126.8 7148.97 7119.22 7153.27 7111.68 7157.67L7106.93 7160.55L7103.73 7162.51C7101.59 7163.81 7099.45 7165.1 7097.29 7166.36L7048.83 7195.2C7048.47 7195.41 7047.97 7195.39 7047.23 7195.54C7047.87 7194.91 7048.12 7194.56 7048.47 7194.33L7065.57 7183.23L7074.27 7177.62C7077.17 7175.76 7080.09 7173.92 7083.09 7172.07L7095.03 7164.77L7107.68 7157.27L7110.29 7155.74L7113.03 7154.17L7118.53 7151.11L7129.52 7145L7140.51 7138.89C7144.18 7136.98 7147.87 7135.19 7151.54 7133.32C7154.98 7131.59 7158.42 7129.87 7161.79 7128.18C7163.47 7127.34 7165.14 7126.5 7166.77 7125.68C7167.59 7125.27 7168.4 7124.86 7169.2 7124.46C7169.99 7124.11 7170.78 7123.77 7171.55 7123.43C7177.75 7120.74 7183.35 7118.3 7187.75 7116.39C7187.35 7116.02 7187.12 7114.83 7185.41 7114.57C7184.19 7114.38 7180.46 7115.1 7178.78 7116.02C7174.26 7118.52 7171.7 7119.03 7169.18 7119.14C7165.1 7119.57 7160.28 7121.07 7154.97 7123.21C7152.31 7124.28 7149.52 7125.51 7146.63 7126.86C7145.18 7127.55 7143.71 7128.24 7142.21 7128.95C7140.71 7129.67 7139.18 7130.39 7137.64 7131.27C7129.29 7135.85 7121.11 7140.73 7112.94 7145.5L7106.8 7149.1C7105.13 7150.1 7103.46 7151.1 7101.79 7152.1C7099.6 7153.38 7097.36 7154.6 7095.02 7155.71C7093.48 7156.44 7091.94 7157.24 7090.42 7158.09C7088.93 7158.93 7087.44 7159.82 7085.97 7160.74C7083.01 7162.57 7080.09 7164.5 7077.18 7166.35C7072.04 7169.65 7067.05 7173.03 7062.34 7176.64C7057.22 7180.57 7052.77 7184.85 7047.69 7188.75C7044.28 7191.36 7040.29 7194.34 7036.67 7195.67C7035 7196.29 7033.36 7196.41 7031.75 7196.39C7030.15 7196.35 7028.56 7196.17 7026.97 7196.21C7026.47 7196.81 7025.64 7198.49 7024.26 7199.32C7021.84 7200.78 7019.37 7202.14 7016.9 7203.5C7014.44 7204.81 7011.98 7206.07 7009.55 7207.41C7006.59 7209.03 7003.74 7210.99 7000.82 7212.6C6998.81 7213.7 6996.05 7215.56 6994.78 7215.48C6991.23 7215.23 6988.8 7217.05 6986.26 7219.21C6983.03 7221.94 6979.69 7224.01 6975.39 7224.36C6974.87 7224.4 6974 7224.75 6973.22 7225.17C6972.47 7225.55 6971.8 7226.01 6971.63 7226.33C6969.9 7229.65 6967.67 7229.87 6965.05 7228.93C6964.57 7228.76 6963.88 7228.81 6962.71 7228.71C6964.62 7229.74 6965.46 7230.72 6965.19 7231.82C6965.06 7232.37 6964.65 7232.95 6963.96 7233.59C6963.73 7233.78 6963.73 7233.85 6963.68 7233.95C6963.63 7234.05 6963.57 7234.14 6963.5 7234.24C6963.49 7234.37 6963.47 7234.49 6963.43 7234.6C6963.31 7234.97 6963.09 7235.25 6962.84 7235.35C6962.51 7235.49 6962.32 7235.72 6962.12 7237.35C6961.98 7238.41 6961.51 7238.64 6961.11 7239.21C6960.28 7240.39 6959.29 7241.26 6957.98 7242.88C6956.61 7244.57 6956.06 7244.76 6956.3 7242.36C6956.38 7241.67 6956.12 7241.51 6955.99 7241.23C6955.86 7240.95 6955.67 7240.84 6955.51 7240.63C6955.37 7240.45 6955.26 7240.23 6955.11 7240.11C6954.9 7239.95 6954.43 7240.1 6954.46 7239.62C6954.52 7238.51 6954.73 7237.75 6952.82 7239.12C6951.9 7239.77 6951.87 7239.24 6951.49 7239.19C6950.99 7239.14 6951.92 7237.83 6947.85 7241.14C6946.85 7241.97 6945.43 7242.52 6944.93 7242.47C6944.25 7242.42 6944.58 7241.57 6945.43 7240.51C6946.27 7239.45 6947.57 7238.22 6948.57 7237.3C6949.69 7236.26 6950.3 7235.77 6949.2 7236.08C6948.5 7236.27 6948.87 7235.77 6948.97 7235.47C6949.25 7234.69 6950.25 7233.7 6949.91 7233.26C6949.59 7232.84 6948.56 7232.58 6947.79 7232.06C6947 7231.56 6946.5 7230.81 6947.01 7229.92C6947.7 7228.77 6947.21 7228.72 6943.06 7228.26C6942.18 7229.81 6941.29 7231.41 6940.67 7233.01C6939.98 7234.83 6939.69 7236.56 6939.22 7238.37C6938.88 7239.62 6938.31 7240.92 6935.44 7243.62C6934.84 7241.01 6935.62 7237.52 6936.95 7234.18C6938.29 7230.81 6940.11 7227.57 6941.91 7224.41C6940.05 7225.99 6938.62 7227.88 6937.36 7229.85C6936.85 7230.63 6936.58 7231.38 6933.87 7232.09C6934.35 7230.57 6934.77 7229.12 6935.46 7227.68C6936.78 7224.91 6938.44 7222.19 6940.18 7219.5C6940.39 7219.18 6940.28 7218.69 6940.21 7218.25C6940.09 7217.52 6939.58 7216.59 6939.91 7216C6940.5 7214.93 6941.55 7214.08 6942.51 7213.29C6943.06 7212.9 6944.62 7211.34 6945.6 7209.95C6946.64 7208.51 6947.48 7206.93 6947.86 7204.91C6945.86 7206.6 6943.96 7208.19 6942.2 7209.83C6941.22 7210.74 6940.63 7211.19 6940.19 7211.53C6939.71 7211.91 6939.23 7212.3 6938.76 7212.68L6938.25 7212.2L6943.65 7206.66L6947.32 7203.11L6951.1 7199.69C6955.93 7195.48 6961.07 7191.71 6966.18 7187.95C6970.67 7184.65 6975.51 7181.77 6979.52 7176.6C6977.2 7177.42 6975.73 7178.03 6974.21 7178.63C6972.69 7179.22 6971.24 7180 6969.22 7180.93C6969.84 7179.86 6970.02 7179.16 6970.43 7178.9C6972.47 7177.55 6973.77 7176.32 6974.56 7174.94C6975.36 7173.57 6975.69 7172.13 6975.93 7170.65C6976.26 7168.17 6983.91 7162.2 6987.24 7161.82C6987.62 7161.76 6988.05 7161.72 6988.3 7161.82C6991.16 7162.96 6991.85 7161.06 6992.9 7159.4C6992.03 7158.99 6990.54 7158.82 6990.63 7158.28C6991.2 7154.77 6989.92 7151.26 6995.86 7147.36C6998.13 7145.89 6997.99 7144.27 6995.67 7144.05C6994.87 7143.98 6993.89 7144.18 6993 7144.26C6994.24 7142.44 6996.85 7141.27 6999.24 7139.9C7001.64 7138.55 7003.9 7137.17 7004.52 7134.77C7002.23 7135.87 7000.79 7136.65 6999.28 7137.25C6998.33 7137.65 6997.25 7137.76 6996.22 7138C6996.88 7137.4 6997.42 7136.68 6998.23 7136.21C7000.18 7135.1 7002.29 7134.21 7005 7132.9C7003.77 7132.16 7003.06 7130.99 7001.81 7131.14C6997.54 7131.59 6992.99 7132.22 6988.73 7133.83C6980.3 7136.99 6972.31 7141.55 6964.35 7145.75C6957.69 7149.22 6951.19 7153.02 6944.84 7157.09C6938.5 7161.18 6932.28 7165.51 6926.35 7170.27C6924.35 7171.84 6922.42 7173.47 6920.43 7175.06C6918.49 7176.69 6916.57 7178.36 6914.63 7180.02L6914.04 7179.44C6920.48 7171.71 6927.42 7164.34 6934.95 7157.51C6937 7155.67 6939.14 7153.9 6941.34 7152.22C6942.43 7151.36 6943.52 7150.51 6944.6 7149.65C6945.7 7148.82 6946.78 7147.97 6947.84 7147.1C6950.23 7145.07 6952.16 7142.93 6954.2 7140.74C6955.22 7139.64 6956.34 7138.63 6957.55 7137.63C6958.78 7136.65 6960.11 7135.66 6961.72 7134.89C6964.33 7133.59 6966.75 7131.67 6969.34 7130.17L6969.24 7129.41C6965.76 7129.79 6962.34 7131.44 6958.94 7133.31C6957.28 7134.32 6955.6 7135.33 6953.93 7136.34C6952.25 7137.33 6950.65 7138.39 6948.99 7139.25C6941.95 7143 6935.26 7147.91 6928.76 7152.81L6928.54 7152.29C6933.71 7147.47 6939.1 7142.86 6944.69 7138.46C6950.33 7134.12 6956.12 7129.94 6962.16 7126.08C6961.15 7125.66 6960.52 7125.7 6959.98 7125.98C6941.45 7135.42 6923.76 7146.74 6908.66 7161.81C6907.35 7163.07 6906.12 7164.4 6904.85 7165.7C6903.59 7167.01 6902.31 7168.29 6901.1 7169.65L6897.24 7173.86L6892.98 7178.82C6887.36 7185.48 6881.99 7192.37 6877.15 7199.55L6875.3 7202.23C6874.69 7203.13 6874.13 7204.04 6873.55 7204.95L6870.08 7210.41C6867.93 7214.1 6865.67 7217.78 6863.72 7221.54C6861.64 7225.27 6859.84 7229.07 6857.96 7232.86C6857.07 7234.76 6856.25 7236.67 6855.39 7238.58C6854.97 7239.54 6854.53 7240.49 6854.12 7241.45L6852.96 7244.33C6849.86 7251.8 6847.14 7259.39 6844.96 7266.91L6843.48 7272.53C6843.05 7274.39 6842.73 7276.21 6842.35 7278.06L6841.81 7280.83L6841.45 7283.53C6841.22 7285.32 6840.95 7287.14 6840.77 7288.92C6840.59 7291.72 6839.85 7294.73 6839.53 7297.6L6838.76 7297.46C6838.65 7289.54 6839.27 7281.2 6840.83 7272.54L6842.08 7266.46C6842.6 7264.41 6843.2 7262.34 6843.76 7260.28C6844.28 7258.22 6844.99 7256.14 6845.67 7254.07C6846.36 7251.99 6846.98 7249.92 6847.78 7247.84C6850.64 7239.53 6854.24 7231.21 6858.2 7222.94C6862.34 7214.25 6867.02 7205.59 6872.45 7197.13C6873.64 7195.33 6875.21 7193.64 6876.51 7191.9L6879.68 7187.47C6880.21 7186.73 6880.72 7185.98 6881.28 7185.26L6882.96 7183.1L6886.32 7178.77C6887.44 7177.32 6888.66 7175.95 6889.82 7174.54L6893.36 7170.33L6896.52 7166.82C6898.46 7164.62 6900.53 7162.53 6902.56 7160.4C6910.74 7151.96 6919.56 7144.12 6928.89 7136.91C6930.2 7135.93 6931.25 7134.63 6933.38 7132.7C6930.68 7134.42 6928.35 7136.04 6926.12 7137.52C6923.95 7139.07 6921.92 7140.52 6919.9 7141.97L6919.28 7141.66C6920.42 7140.43 6921.47 7139.13 6922.74 7137.97C6927.03 7134.05 6931.52 7130.32 6936.21 7126.78C6938.55 7125.04 6940.25 7123.45 6938.59 7122.93C6937.71 7122.66 6935.02 7123.44 6933.51 7124.48C6930.61 7126.41 6927.74 7128.42 6924.98 7130.56C6922.17 7132.64 6919.48 7134.87 6916.74 7137.03C6915.01 7138.39 6913.14 7139.57 6911.33 7140.84L6910.82 7140.18C6912.97 7138.08 6915.24 7136.02 6917.32 7133.95C6918.73 7132.52 6920.47 7130.55 6920.7 7129.56C6920.87 7128.79 6918.98 7128.67 6917.61 7129.02C6916.21 7129.36 6914.24 7130.34 6912.64 7131.45C6904.07 7137.5 6895.89 7143.82 6888.52 7152.13C6887.31 7153.46 6886.13 7154.81 6884.95 7156.17L6883.15 7158.21C6882.4 7159.05 6881.67 7159.84 6880.84 7160.84C6879.23 7162.75 6877.62 7164.66 6876 7166.57C6875.2 7167.53 6874.36 7168.46 6873.57 7169.44L6871.25 7172.38C6869.71 7174.34 6868.11 7176.29 6866.58 7178.27L6862.15 7184.3C6861.42 7185.31 6860.65 7186.3 6859.95 7187.33L6857.88 7190.41C6856.51 7192.47 6855.1 7194.51 6853.77 7196.58C6848.02 7205.72 6842.34 7214.88 6837.44 7224.32C6837.27 7224.63 6837 7224.87 6836.53 7225.47C6836.65 7224.33 6836.87 7223.29 6837.04 7222.24C6835.99 7223.38 6834.92 7224.52 6833.14 7226.66C6833.98 7224.58 6834.98 7222.52 6835.93 7220.48C6836.89 7218.44 6837.83 7216.43 6838.77 7214.43C6839.81 7212.44 6840.84 7210.47 6841.87 7208.51C6842.91 7206.55 6843.86 7204.6 6845.02 7202.69C6847.28 7198.87 6849.32 7195.05 6851.79 7191.36C6852.98 7189.51 6854.16 7187.66 6855.34 7185.81C6856.54 7183.97 6857.87 7182.18 6859.12 7180.37C6862.37 7175.57 6865.81 7171.14 6865.54 7168.31C6865.29 7165.7 6863.75 7164.82 6858.41 7169.25C6857.83 7170.4 6857.26 7171.51 6856.73 7172.64C6856.23 7173.78 6855.74 7174.91 6855.25 7176.04C6854.26 7178.3 6853.24 7180.55 6852.06 7182.86C6850.84 7185.46 6848.7 7189.18 6846.83 7191.45C6845.45 7193.1 6844.2 7194.78 6842.93 7196.45L6839.08 7201.44C6837.75 7203.09 6836.57 7204.76 6835.35 7206.42C6834.13 7208.07 6832.91 7209.71 6831.69 7211.35C6829.91 7213.66 6828.13 7214.81 6826.51 7216.03C6825.18 7217.05 6824.1 7216.42 6822.85 7218.09C6818.81 7223.32 6815.23 7229.46 6812.34 7234.09C6812.21 7237.03 6812.28 7239.1 6812.25 7241.17C6810.85 7242.34 6809.3 7244.07 6808.09 7244.61C6807.38 7244.93 6806.76 7244.98 6806.09 7245.61C6805.4 7246.25 6804.73 7247.47 6803.96 7250.11C6803.08 7253.19 6802.09 7256.29 6801.36 7259.12C6800.65 7261.94 6800 7264.54 6799.46 7266.69C6800.03 7267.48 6800.54 7268.23 6801.12 7268.92C6801.71 7269.6 6802.29 7270.25 6802.86 7270.9C6803.99 7272.18 6805.06 7273.39 6806.08 7274.67C6808.46 7277.62 6808.88 7277.1 6811.32 7268.32C6811.97 7265.71 6813 7263 6813.86 7260.35L6815.2 7256.36C6815.63 7255.04 6816.19 7253.68 6816.68 7252.35L6817.42 7252.52ZM7382.72 7308.41L7333.19 7320.68C7326.05 7322.42 7318.9 7324.27 7311.61 7325.71C7295.41 7328.9 7278.85 7331.36 7262.3 7334.25C7259.84 7334.67 7257.38 7335.07 7254.91 7335.42C7253.68 7335.59 7252.44 7335.75 7251.21 7335.92L7249.18 7336.17C7248.32 7336.27 7247.34 7336.37 7246.37 7336.45C7244.35 7336.61 7242.09 7336.72 7239.54 7336.68C7236.95 7336.63 7233.98 7336.43 7230.58 7335.83C7227.22 7335.24 7223.14 7334.16 7218.75 7332.12C7214.38 7330.1 7209.61 7326.95 7205.61 7322.74C7203.66 7320.65 7201.87 7318.42 7200.34 7315.97C7199.55 7314.75 7198.91 7313.52 7198.26 7312.26C7197.63 7311.01 7197.12 7309.78 7196.61 7308.51C7194.7 7303.52 7194 7298.97 7193.76 7295.18C7193.53 7291.37 7193.77 7288.24 7194.1 7285.58C7194.44 7282.92 7194.9 7280.72 7195.34 7278.87L7195.42 7278.52L7195.49 7278.24L7195.64 7277.68L7195.94 7276.57L7196.54 7274.35C7196.74 7273.57 7196.95 7272.96 7197.15 7272.3L7197.76 7270.35L7198.07 7269.38L7198.14 7269.16L7198.18 7269.06L7198.26 7268.86L7198.6 7268.04C7198.82 7267.49 7199.07 7266.95 7199.32 7266.4C7201.17 7262.25 7203.14 7258.01 7205.09 7253.86C7207.06 7249.72 7209.04 7245.56 7211.01 7241.42C7211.48 7240.43 7211.89 7239.48 7213.15 7238C7213.04 7238.64 7212.98 7239.26 7212.77 7239.95C7212.07 7242.28 7211.22 7244.68 7210.37 7247.13C7210.32 7247.28 7210.35 7247.44 7210.21 7247.57C7208.51 7249.29 7207.72 7250.71 7207.19 7252.11C7206.67 7253.5 7206.41 7254.87 7205.88 7256.26C7205.14 7258.2 7204.18 7260.22 7203.44 7262.24C7202.69 7264.27 7202.19 7266.32 7202.26 7268.6C7202.27 7268.91 7202.26 7269.22 7202.23 7269.54L7202.17 7270.02L7202.12 7270.29L7202.01 7270.78C7201.72 7272.11 7201.36 7273.42 7200.98 7274.83C7200.59 7276.35 7200.2 7277.9 7199.81 7279.44C7199.38 7281.29 7198.94 7283.48 7198.67 7286.03C7198.34 7289.34 7198.12 7293.46 7198.96 7298.67C7199.37 7301.24 7200.15 7304.18 7201.34 7307.13C7202.53 7310.1 7204.27 7313.18 7206.35 7315.91C7207.41 7317.25 7208.5 7318.57 7209.73 7319.76C7210.95 7320.95 7212.25 7322.12 7213.57 7323.09C7214.23 7323.59 7214.91 7324.07 7215.6 7324.54C7216.27 7324.98 7216.93 7325.37 7217.62 7325.77C7218.29 7326.15 7219.02 7326.56 7219.66 7326.87C7220.31 7327.19 7220.97 7327.49 7221.64 7327.78C7226.92 7330.04 7231.44 7330.78 7235.12 7331.11C7243.59 7331.76 7249.37 7330.53 7252.54 7330.15C7256.37 7329.62 7260.17 7329.04 7263.97 7328.46C7271.57 7327.28 7279.12 7326.02 7286.62 7324.67C7301.62 7321.99 7316.45 7319.05 7331.15 7316.04C7345.35 7313.12 7359.32 7309.87 7373.46 7307.13C7383.31 7305.22 7393.28 7303.91 7403.2 7302.33L7403.32 7303.33L7382.72 7308.41ZM6861.74 7214.82L6860.48 7217.11L6859.32 7219.41L6857 7224.02C6855.48 7227.1 6854.13 7230.19 6852.69 7233.28C6851.42 7236.38 6850.09 7239.47 6848.89 7242.57L6847.16 7247.22C6846.58 7248.77 6846 7250.32 6845.51 7251.87C6844.51 7254.97 6843.38 7258.08 6842.59 7261.15L6841.29 7265.77C6840.89 7267.3 6840.63 7268.8 6840.3 7270.32C6840 7271.83 6839.63 7273.36 6839.38 7274.85L6838.77 7279.28C6838.27 7282.27 6838.17 7285.09 6837.95 7287.97C6837.9 7288.56 6837.85 7289.14 6837.8 7289.73C6837.77 7290.31 6837.73 7290.89 6837.7 7291.48C6837.63 7292.66 6837.53 7293.87 6837.43 7295.13C6837.19 7297.68 6837.01 7300.3 6837.22 7303.32C6836.17 7301.34 6835.69 7300.42 6834.79 7298.36C6834.68 7302.89 6834.86 7307.18 6836.29 7311.49C6836.65 7312.55 6837.12 7313.59 6837.64 7314.6C6838.17 7315.61 6838.72 7316.62 6839.41 7317.49C6840.77 7319.27 6842.28 7320.8 6843.93 7322.05C6845.2 7323.04 6846.52 7323.91 6847.85 7324.74C6849.19 7325.55 6850.64 7326.24 6852.03 7327L6856.24 7329.23C6856.91 7329.64 6857.73 7329.87 6858.47 7330.19L6860.75 7331.09L6865.31 7332.89C6866.87 7333.42 6868.54 7333.81 6870.15 7334.27L6875.02 7335.61C6876.69 7335.96 6878.41 7336.24 6880.1 7336.55C6893.71 7338.99 6908.14 7339.55 6923.14 7338.15L6926.2 7337.86C6927.22 7337.76 6928.24 7337.68 6929.29 7337.48C6931.37 7337.12 6933.45 7336.76 6935.53 7336.4C6939.67 7335.76 6943.89 7334.59 6948.06 7333.57L6951.19 7332.78L6954.33 7331.82L6960.58 7329.89C6962.66 7329.3 6964.73 7328.5 6966.79 7327.76L6972.97 7325.54C6974.12 7325.15 6975.27 7324.7 6976.42 7324.26C6977.57 7323.82 6978.73 7323.38 6979.89 7322.95C6982.2 7322.05 6984.54 7321.21 6986.8 7320.09C6984.03 7321.1 6981.22 7321.94 6978.44 7322.86L6974.28 7324.22L6970.11 7325.39L6970.2 7324.29L6973.54 7323.21C6974.65 7322.84 6975.75 7322.4 6976.86 7322L6983.49 7319.53L6985.15 7318.91L6986.79 7318.23L6990.07 7316.86L6996.63 7314.11L7002.06 7311.65C7003.7 7310.9 7005.35 7310.16 7006.95 7309.38C7010.18 7307.83 7013.45 7306.3 7016.57 7304.7C7022.86 7301.52 7029.3 7298.46 7035.57 7295.17C7038.73 7293.56 7041.92 7291.95 7045.13 7290.36C7048.3 7288.75 7051.49 7287.13 7054.69 7285.49C7052.93 7287.45 7051.84 7288.66 7050.09 7290.61C7056.53 7287.33 7062.27 7284.52 7068.56 7281.17C7067.81 7282.11 7067.6 7282.57 7067.22 7282.82C7063.19 7285.47 7059.02 7288.11 7054.79 7290.56L7047.38 7294.79L7039.83 7298.92L7032.27 7303.04L7024.55 7307.01L7016.82 7310.97C7014.24 7312.29 7011.5 7313.56 7008.85 7314.85C7007.53 7315.5 7006.15 7316.11 7004.79 7316.74L7000.49 7318.7C6999.65 7319.08 6998.68 7319.52 6997.72 7319.91L6994.86 7321.1L6989.13 7323.48C6981.46 7326.54 6973.71 7329.33 6965.93 7331.7L6963.01 7332.63L6960.1 7333.4L6954.27 7334.92L6951.35 7335.68C6950.38 7335.93 6949.42 7336.09 6948.45 7336.3L6942.65 7337.49C6927.21 7340.51 6912.16 7341.53 6897.85 7340.73C6878.05 7339.79 6859.19 7334.95 6845.04 7325.29C6843.31 7324.1 6841.62 7322.78 6840.03 7321.2C6839.25 7320.4 6838.49 7319.54 6837.76 7318.63C6837.02 7317.73 6836.43 7316.7 6835.86 7315.69C6834.71 7313.66 6833.88 7311.55 6833.37 7309.47C6832.82 7307.39 6832.54 7305.36 6832.36 7303.35C6832.27 7302.34 6832.21 7301.34 6832.17 7300.33L6832.16 7297.24L6832.16 7294.16L6832.17 7292.62L6832.28 7291.02L6832.76 7284.61L6833.75 7277.98L6833.96 7276.56C6834.05 7276.08 6834.17 7275.59 6834.28 7275.11L6834.94 7272.2L6835.61 7269.29C6835.73 7268.8 6835.82 7268.32 6835.96 7267.83L6836.41 7266.35L6838.23 7260.43C6838.51 7259.45 6838.89 7258.45 6839.25 7257.46L6840.33 7254.49C6841.7 7250.54 6843.42 7246.59 6845.02 7242.67C6845.86 7240.71 6846.79 7238.75 6847.68 7236.8L6849.02 7233.88C6849.48 7232.91 6850 7231.94 6850.49 7230.97C6851.51 7228.97 6852.55 7226.99 6853.6 7225.02L6857.04 7219.18C6857.62 7218.22 6858.17 7217.25 6858.79 7216.29L6860.65 7213.44C6861.9 7211.55 6863.08 7209.65 6864.37 7207.79L6865 7208.09C6863.85 7210.33 6862.98 7212.61 6861.74 7214.82ZM6834.3 7337.51C6831.77 7335.66 6829.39 7333.62 6827.05 7331.14C6825.93 7329.87 6824.77 7328.54 6823.7 7327.1C6822.72 7325.61 6821.76 7324.1 6820.9 7322.61C6819.23 7319.6 6818.12 7316.67 6817.26 7313.84C6816.83 7312.42 6816.45 7311.02 6816.13 7309.6C6815.83 7308.16 6815.6 7306.67 6815.33 7305.21C6815.09 7303.73 6814.77 7302.3 6814.6 7300.77L6814.23 7296.06C6813.85 7293 6814.06 7289.59 6814.11 7286.27L6814.17 7283.77L6814.49 7281.15L6815.14 7275.91C6815.27 7274.19 6815.8 7272.33 6816.17 7270.53L6817.38 7265.09C6819.76 7256.33 6823.1 7247.18 6827.35 7238.66C6828.25 7236.82 6829.35 7235.26 6830.83 7233.56C6832.33 7231.86 6834.08 7230.02 6836.11 7227.63C6835.35 7229.79 6834.63 7231.84 6833.94 7233.81C6833.36 7235.75 6832.8 7237.61 6832.27 7239.41C6831.75 7241.2 6831.15 7242.95 6830.69 7244.65C6830.22 7246.35 6829.72 7248.03 6829.18 7249.71L6828.1 7252.99L6827.09 7256.26C6826.4 7258.45 6825.7 7260.65 6825 7262.84C6824.44 7265.01 6823.88 7267.18 6823.32 7269.35C6823.07 7270.42 6822.73 7271.53 6822.59 7272.57L6822.17 7275.68C6821.95 7277.53 6821.71 7279.39 6821.53 7281.21L6821.44 7286.48L6821.4 7289.11C6821.39 7289.99 6821.51 7290.78 6821.56 7291.62L6821.95 7296.59C6821.99 7297.44 6822.12 7298.22 6822.26 7298.99L6822.64 7301.34C6822.91 7302.89 6823.11 7304.49 6823.42 7306.01C6824.06 7309.04 6824.84 7312.08 6826.15 7315.29C6827.76 7319.33 6830.68 7323.71 6833.96 7326.83C6835.61 7328.41 6837.29 7329.76 6839.02 7331.02L6840.32 7331.94L6841.71 7332.78L6844.49 7334.45L6847.26 7336.13L6848.65 7336.97C6849.12 7337.25 6849.65 7337.44 6850.15 7337.68L6856.25 7340.44L6857.78 7341.13C6858.27 7341.38 6858.86 7341.5 6859.4 7341.69L6862.7 7342.74L6866.01 7343.79C6867.11 7344.13 6868.2 7344.52 6869.38 7344.73C6870.62 7345.02 6871.87 7345.32 6873.12 7345.62C6875.05 7346.03 6876.97 7346.46 6878.92 7346.84L6884.87 7347.75L6887.86 7348.18C6888.85 7348.33 6889.86 7348.46 6890.89 7348.53L6897.04 7349.03C6905.26 7349.67 6913.82 7349.57 6922.56 7349.04C6923.22 7349.01 6923.87 7349 6924.52 7349C6925.17 7348.97 6925.83 7348.94 6926.49 7348.91C6927.81 7348.86 6929.13 7348.81 6930.44 7348.76L6930.21 7349.56L6924.35 7350.44L6918.61 7350.91L6918.53 7351.14C6928.41 7351.18 6938.87 7349.86 6949.46 7348.28L6949.75 7348.92C6946.36 7349.82 6942.93 7350.85 6939.51 7351.53C6922.85 7354.6 6906.67 7355.4 6891.58 7354.11L6888.26 7353.82L6886.61 7353.66C6886.07 7353.6 6885.54 7353.5 6885 7353.41C6882.87 7353.06 6880.76 7352.68 6878.66 7352.29L6875.52 7351.69C6874.49 7351.47 6873.47 7351.2 6872.45 7350.96L6866.34 7349.46C6864.34 7349.06 6862.57 7348.31 6860.71 7347.69L6855.19 7345.77C6854.24 7345.49 6853.44 7345.02 6852.59 7344.62L6850.06 7343.38L6845 7340.9C6841.97 7338.9 6838.89 7336.95 6835.92 7334.89C6834.5 7333.8 6833.11 7332.66 6831.76 7331.39C6831.08 7330.75 6830.41 7330.09 6829.74 7329.39C6829.1 7328.67 6828.46 7327.92 6827.82 7327.15C6826.5 7325.64 6825.44 7323.84 6824.43 7322.12C6823.92 7321.25 6823.46 7320.39 6823.04 7319.53C6822.65 7318.66 6822.28 7317.79 6821.96 7316.94C6820.67 7313.51 6819.9 7310.27 6819.35 7306.95L6818.67 7301.84C6818.57 7300.98 6818.43 7300.15 6818.35 7299.27L6818.24 7296.56L6818.02 7291.14L6818.31 7285.43L6817.43 7285.51C6817.19 7287.68 6816.74 7289.96 6816.74 7292.05C6816.98 7295.98 6816.99 7300.08 6817.69 7303.7L6818.1 7306.49C6818.23 7307.43 6818.37 7308.35 6818.57 7309.24C6818.96 7311.03 6819.41 7312.82 6819.98 7314.65C6820.57 7316.47 6821.27 7318.34 6822.18 7320.25C6823.12 7322.13 6824.3 7324.04 6825.52 7325.92C6826.17 7326.83 6826.89 7327.68 6827.59 7328.52C6828.29 7329.35 6828.99 7330.16 6829.73 7330.89C6831.2 7332.37 6832.7 7333.69 6834.23 7334.92C6835.38 7335.89 6836.55 7336.79 6837.68 7337.75C6838.81 7338.71 6839.91 7339.69 6841.06 7340.65L6839.77 7341.12L6834.3 7337.51ZM7258.79 7352.32C7256.84 7352.7 7254.88 7353.02 7252.91 7353.32C7252.15 7353.44 7250.41 7353.68 7248.54 7353.86C7247.67 7353.95 7246.59 7354.03 7245.6 7354.1L7243.96 7354.19L7242.26 7354.25L7240.41 7354.27L7239.48 7354.27L7238.45 7354.25L7236.4 7354.18C7235.68 7354.14 7234.89 7354.09 7234.14 7354.03C7232.7 7353.93 7230.92 7353.72 7229.24 7353.48C7228.45 7353.37 7227.41 7353.18 7226.49 7353.01L7225.08 7352.73C7224.61 7352.63 7224.17 7352.54 7223.62 7352.41C7221.5 7351.89 7219.57 7351.38 7217.19 7350.55C7216.03 7350.14 7214.97 7349.76 7213.76 7349.27C7212.53 7348.76 7211.31 7348.21 7210.11 7347.63C7208.95 7347.09 7207.62 7346.37 7206.36 7345.65C7205.08 7344.91 7203.89 7344.2 7202.6 7343.32C7200.03 7341.56 7197.59 7339.7 7195.21 7337.47C7192.83 7335.3 7190.68 7332.92 7188.68 7330.4C7186.71 7327.91 7184.84 7325.12 7183.33 7322.37C7180.23 7316.82 7178.21 7311.08 7177.07 7306.11C7175.92 7301.11 7175.51 7296.74 7175.38 7292.98C7175.35 7292.08 7175.33 7291.08 7175.34 7290.26L7175.39 7287.75L7175.51 7285.47C7175.56 7284.69 7175.61 7284.07 7175.67 7283.36C7175.91 7280.65 7176.23 7278.33 7176.53 7276.38C7176.76 7274.88 7177 7273.38 7177.23 7271.87C7177.42 7270.58 7177.61 7269.29 7177.79 7267.99C7177.95 7266.86 7178.1 7265.72 7178.23 7264.59C7178.38 7263.63 7178.25 7263.83 7178.23 7263.65C7178.2 7263.54 7178.18 7263.43 7178.17 7263.32C7178.15 7263.1 7178.2 7262.9 7178.26 7262.71C7179.03 7260.29 7180.03 7258.1 7181.29 7255.76C7182.35 7253.78 7183.49 7251.68 7184.35 7249.36C7184.77 7248.2 7185.14 7246.99 7185.36 7245.75C7185.47 7245.13 7185.56 7244.5 7185.59 7243.87C7185.64 7243.24 7185.63 7242.6 7185.49 7242C7185.33 7241.15 7184.57 7240.55 7183.7 7240.62C7182.85 7240.65 7182.08 7241 7181.44 7241.08C7179.17 7241.35 7176.92 7241.6 7174.28 7242.2L7171.64 7242.8C7171.4 7242.85 7171.18 7242.79 7170.94 7242.79L7171.18 7241.72C7176.06 7239.41 7181 7237.46 7185.99 7236.06C7186.61 7235.89 7187.27 7235.76 7187.92 7235.89C7188.57 7236.01 7189.13 7236.49 7189.42 7237.1C7190.03 7238.34 7189.94 7239.77 7189.88 7241.12C7189.71 7243.85 7188.93 7246.49 7187.94 7248.99C7185.93 7253.99 7183.06 7258.5 7181.35 7263.38C7181.24 7263.68 7181.14 7263.99 7181.04 7264.29L7180.97 7264.52L7180.89 7264.79L7180.71 7265.45L7180 7268.08L7179.65 7269.41L7179.28 7270.97L7178.56 7274.1L7178.38 7274.88L7178.16 7275.93L7177.72 7278.25C7177.42 7279.97 7177.14 7281.77 7176.91 7283.98C7176.8 7285.01 7176.7 7286.24 7176.63 7287.42C7176.59 7287.99 7176.57 7288.7 7176.55 7289.34C7176.53 7290.01 7176.51 7290.6 7176.51 7291.35C7176.51 7292.79 7176.54 7294.18 7176.65 7295.82C7176.74 7297.33 7176.92 7299.11 7177.16 7300.83C7178.14 7307.86 7180.75 7316.94 7186.31 7325.45C7187 7326.5 7187.71 7327.54 7188.45 7328.55C7189.2 7329.54 7189.97 7330.51 7190.77 7331.46C7192.36 7333.37 7194.08 7335.16 7195.92 7336.85C7196.83 7337.69 7197.78 7338.54 7198.72 7339.29C7199.66 7340.04 7200.62 7340.77 7201.59 7341.48C7203.59 7342.94 7205.47 7344.09 7207.44 7345.2C7211.35 7347.39 7215.07 7348.9 7218.52 7350.03L7219.83 7350.45L7221.03 7350.79C7221.83 7351.01 7222.64 7351.22 7223.45 7351.42C7224.29 7351.63 7224.99 7351.78 7225.72 7351.92L7227.91 7352.33C7233.55 7353.27 7237.99 7353.39 7241.73 7353.34C7245.46 7353.27 7248.52 7353 7251.06 7352.71L7256.01 7352.12L7260.68 7351.54C7266.9 7350.76 7273.06 7349.88 7279.2 7348.99L7279.04 7349.43C7272.35 7350.4 7265.44 7351.02 7258.79 7352.32ZM6967.74 7247.86C6966 7248.84 6964.16 7249.75 6962.26 7250.54C6959.1 7251.84 6955.83 7252.85 6952.37 7253.73C6951.74 7253.9 6950.89 7254.61 6950.08 7255.05C6949.76 7255.23 6949.33 7255.65 6949.11 7255.64C6947.08 7255.62 6944.78 7255.88 6942.68 7255.73C6940.62 7255.51 6938.76 7254.87 6938.42 7252.9C6938.4 7252.75 6938.51 7252.46 6938.75 7251.69C6939.54 7251.63 6940.23 7251.54 6940.83 7251.48C6941.44 7251.39 6941.98 7251.31 6942.45 7251.31C6943.62 7251.34 6944.79 7251.2 6945.94 7251.12C6947.09 7250.96 6948.22 7250.85 6949.33 7250.62C6951.54 7250.25 6953.63 7249.71 6955.64 7249.24C6959.4 7248.29 6963.02 7247.47 6966.78 7246.15C6967.13 7246.03 6967.66 7246.49 6968.43 7246.77C6968.1 7247.34 6967.97 7247.73 6967.74 7247.86ZM7407.94 7275.46L7407.64 7274.7C7411.38 7273.68 7415.07 7272.46 7418.87 7271.66C7446.38 7265.9 7473.89 7260.16 7501.44 7254.58C7505.02 7253.85 7508.82 7254.02 7512.51 7253.77L7512.48 7254.83C7478.02 7263.35 7443.17 7270.24 7407.94 7275.46ZM6861.56 7243.94C6857.91 7253.25 6854.81 7262.71 6852.86 7271.95C6852.39 7274.26 6851.85 7276.58 6851.55 7278.84C6851.21 7281.11 6850.77 7283.41 6850.58 7285.65C6850.1 7290.17 6849.41 7294.57 6850.15 7299.17C6850.37 7300.26 6850.38 7301.48 6851.29 7303.81C6849.15 7301.93 6848.58 7299.19 6848.48 7296.44C6848.43 7295.06 6848.51 7293.65 6848.56 7292.27C6848.61 7290.89 6848.7 7289.5 6848.56 7288.2C6848.32 7289.54 6848.07 7290.88 6847.86 7292.18C6847.67 7293.48 6847.52 7294.77 6847.43 7296.05C6847.25 7298.61 6847.34 7301.19 6847.95 7303.71C6848.58 7306.19 6849.76 7308.64 6851.44 7310.48C6853.06 7312.38 6854.99 7313.77 6856.92 7315L6856.2 7315.4C6854.64 7314.64 6853.13 7313.75 6851.71 7312.68C6850.33 7311.57 6848.97 7310.29 6847.99 7308.74C6845.91 7305.67 6845.13 7302.13 6844.93 7298.83C6844.82 7297.16 6844.85 7295.51 6844.94 7293.87C6845.05 7292.21 6845.23 7290.54 6845.38 7288.87L6845.63 7286.36C6845.73 7285.52 6845.89 7284.65 6846.01 7283.8L6846.84 7278.67L6848.02 7273.44C6848.23 7272.57 6848.41 7271.7 6848.64 7270.83L6849.42 7268.18C6849.95 7266.41 6850.43 7264.66 6851.02 7262.89L6852.94 7257.58C6855.62 7250.51 6858.67 7243.51 6862.1 7236.67L6863.19 7236.11C6862.91 7237.44 6862.75 7238.73 6862.53 7240.02C6862.33 7241.3 6862.09 7242.6 6861.56 7243.94ZM6857.12 7271.91C6856.9 7272.82 6856.67 7273.74 6856.45 7274.66C6856.27 7275.57 6856.08 7276.49 6855.9 7277.41C6855.55 7279.24 6855.1 7281.1 6854.85 7282.93C6854.56 7284.77 6854.27 7286.62 6853.98 7288.47C6853.73 7290.32 6853.55 7292.18 6853.54 7294.07C6853.54 7295.96 6853.71 7297.89 6854.29 7299.78C6854.58 7300.72 6854.95 7301.64 6855.45 7302.51C6855.94 7303.38 6856.51 7304.21 6857.21 7304.93C6858.58 7306.39 6860.24 7307.5 6861.97 7308.39C6863.71 7309.26 6865.49 7310 6867.35 7310.57C6868.15 7310.83 6868.91 7311.14 6869.71 7311.41C6880.41 7315.07 6892 7316.84 6903.73 7317.1C6915.47 7317.38 6927.35 7316.27 6939.24 7314.07C6951.34 7311.81 6963.44 7308.99 6975.69 7304.91C6976.01 7304.8 6976.33 7304.83 6977.02 7304.75C6976.57 7305.02 6975.57 7305.49 6974.08 7306.12C6973.33 7306.43 6972.47 7306.81 6971.49 7307.18C6970.5 7307.54 6969.4 7307.93 6968.19 7308.37C6965.77 7309.2 6962.96 7310.29 6959.75 7311.18C6956.55 7312.12 6953.01 7313.23 6949.17 7314.1C6941.5 7316.11 6932.71 7317.59 6923.47 7318.56C6921.17 7318.74 6918.83 7318.93 6916.46 7319.11C6914.11 7319.2 6911.74 7319.22 6909.36 7319.28C6906.97 7319.39 6904.6 7319.21 6902.21 7319.13L6898.64 7318.98C6897.45 7318.9 6896.27 7318.75 6895.09 7318.64L6891.56 7318.27L6889.8 7318.08C6889.22 7318.01 6888.65 7317.88 6888.07 7317.78C6885.78 7317.36 6883.49 7316.95 6881.23 7316.53C6876.84 7315.35 6872.46 7314.32 6868.5 7312.71C6864.47 7311.28 6860.58 7309.86 6857.45 7307.2C6855.9 7305.89 6854.64 7304.22 6853.87 7302.42C6853.06 7300.63 6852.72 7298.77 6852.58 7297C6852.35 7293.45 6852.83 7290.27 6853.36 7287.39C6853.9 7284.51 6854.3 7281.97 6854.88 7279.78C6855.41 7277.6 6855.85 7275.81 6856.22 7274.48C6856.63 7273.15 6856.94 7272.27 6857.12 7271.91ZM6943.15 7319.1L6943.27 7318.37C6943.89 7318.18 6944.52 7317.95 6945.13 7317.8L6952.36 7316C6954.77 7315.33 6957.17 7314.59 6959.57 7313.89C6960.77 7313.52 6961.97 7313.21 6963.17 7312.8L6966.75 7311.57L6970.32 7310.34C6971.51 7309.94 6972.7 7309.52 6973.88 7309.04L6980.95 7306.3C6983.3 7305.36 6985.61 7304.32 6987.94 7303.33L6991.42 7301.83L6994.63 7300.34C6996.59 7299.41 6998.57 7298.52 7000.5 7297.55C7002.98 7296.31 7005.49 7295.08 7007.93 7293.79L7015.18 7289.86L7022.41 7285.9L7029.51 7281.78C7034.93 7278.64 7039.61 7277.23 7044.41 7277.41C7040.79 7279.62 7037.08 7281.7 7033.36 7283.77C7031.5 7284.8 7029.65 7285.83 7027.79 7286.85C7025.93 7287.87 7024.08 7288.9 7022.18 7289.85C7018.39 7291.77 7014.6 7293.68 7010.82 7295.59C7008.94 7296.55 7007.01 7297.46 7005.06 7298.36C7003.11 7299.25 7001.2 7300.18 6999.22 7301.03L6993.12 7303.68C6990.77 7304.67 6988.38 7305.59 6986.02 7306.54L6982.47 7307.95L6978.89 7309.23C6976.5 7310.06 6974.13 7310.95 6971.74 7311.73C6962.17 7314.84 6952.61 7317.25 6943.15 7319.1ZM6920.18 7260.52C6921.78 7261.56 6923.7 7261.87 6925.5 7262.36C6926.4 7262.62 6927.32 7262.78 6928.24 7262.96C6929.15 7263.14 6930.05 7263.36 6930.95 7263.48C6934.55 7264.15 6937.99 7264.56 6941.35 7265.23C6943.16 7265.62 6945.37 7265.32 6947.48 7265.07C6952.28 7264.44 6957.1 7263.33 6961.88 7261.89L6965.46 7260.75L6969.03 7259.49L6972.6 7258.13L6973.49 7257.78L6974.72 7257.26L6978.08 7255.82C6979.37 7255.28 6980.76 7254.93 6982.24 7254.95C6979.87 7256.18 6977.49 7257.26 6975.11 7258.38C6974.07 7258.87 6973.55 7259.13 6972.88 7259.42L6970.91 7260.28C6968.28 7261.41 6965.6 7262.42 6962.9 7263.3C6957.51 7265.07 6952.05 7266.3 6946.71 7266.86C6941.37 7267.42 6936.15 7267.31 6931.23 7266.41C6930 7266.13 6928.79 7265.9 6927.6 7265.59C6926.42 7265.22 6925.24 7264.91 6924.1 7264.49C6922.97 7264.03 6921.84 7263.62 6920.75 7263.13C6919.67 7262.61 6918.6 7261.98 6917.84 7260.95L6918.94 7260.12C6919.34 7260.27 6919.88 7260.31 6920.18 7260.52ZM7196.79 7232.13C7196.33 7231.13 7195.63 7230.02 7194.24 7229.61C7193.56 7229.42 7192.78 7229.48 7192.05 7229.67C7191.31 7229.86 7190.61 7230.16 7189.92 7230.47C7187.19 7231.75 7184.64 7232.86 7182.28 7234.02C7177.52 7236.27 7173.39 7238.24 7169.2 7240.07C7169.66 7239.25 7171.5 7237.68 7174.31 7235.91C7175.7 7235.01 7177.31 7234.03 7179.08 7233.11C7179.96 7232.65 7180.87 7232.17 7181.78 7231.68C7182.71 7231.23 7183.66 7230.8 7184.61 7230.37C7185.56 7229.95 7186.5 7229.51 7187.44 7229.14C7188.38 7228.79 7189.3 7228.45 7190.19 7228.12C7191.96 7227.52 7193.59 7226.77 7195.04 7227.03C7195.75 7227.16 7196.33 7227.59 7196.67 7228.11C7197.02 7228.64 7197.17 7229.23 7197.23 7229.75C7197.34 7230.83 7197.11 7231.67 7196.79 7232.13ZM7386.29 7314.12C7384.81 7315.54 7384.32 7316.55 7383.33 7316.86C7379.4 7318.09 7375.37 7319.32 7371.27 7320.16C7362.25 7322.01 7353.2 7323.63 7344.11 7325.31C7343.02 7325.51 7341.89 7325.45 7340.78 7325.51L7340.6 7324.45L7374.89 7316.56L7374.69 7316.19C7369.29 7316.81 7363.88 7317.43 7358.04 7318.1C7361.54 7315.9 7409.29 7307.07 7412.94 7308.1C7403.04 7310.34 7393.86 7312.41 7386.29 7314.12ZM6868.64 7325.19C6869.49 7325.38 6870.34 7325.57 6871.18 7325.76C6871.61 7325.85 6872.01 7325.97 6872.45 7326.03L6873.76 7326.22C6875.51 7326.48 6877.23 7326.74 6878.94 7327.03L6881.49 7327.46C6882.34 7327.6 6883.22 7327.65 6884.09 7327.75C6885.82 7327.94 6887.54 7328.12 6889.26 7328.31C6890.12 7328.4 6890.97 7328.52 6891.83 7328.59L6894.41 7328.77L6899.55 7329.15C6901.25 7329.33 6902.99 7329.3 6904.71 7329.37L6909.87 7329.55C6910.72 7329.61 6911.6 7329.57 6912.47 7329.56L6915.09 7329.52L6920.33 7329.46C6923.86 7329.26 6927.42 7329.01 6930.99 7328.77C6934.6 7328.3 6938.23 7327.88 6941.89 7327.33C6945.57 7326.61 6949.26 7325.98 6952.97 7325.11C6949.19 7326.45 6945.39 7327.51 6941.59 7328.58C6937.8 7329.48 6934.02 7330.19 6930.26 7330.89C6926.54 7331.33 6922.83 7331.77 6919.16 7332.04L6913.74 7332.19L6911.05 7332.24C6910.15 7332.26 6909.26 7332.28 6908.39 7332.21L6903.14 7331.94C6901.4 7331.83 6899.65 7331.79 6897.96 7331.54L6892.87 7330.91L6890.34 7330.58C6889.5 7330.45 6888.68 7330.28 6887.85 7330.13L6882.9 7329.19C6882.08 7329.02 6881.24 7328.91 6880.45 7328.69L6878.07 7328.03L6873.29 7326.75L6872.09 7326.44C6871.69 7326.33 6871.33 7326.17 6870.94 7326.04L6868.64 7325.19ZM7030.98 7288.6C7029.3 7289.34 7027.64 7290.07 7025.98 7290.79C7024.3 7291.48 7022.62 7292.17 7020.94 7292.87L7020.63 7292.05L7024.56 7290.05C7025.86 7289.37 7027.14 7288.66 7028.43 7287.97L7036.17 7283.81C7037.71 7282.99 7039.24 7282.2 7040.78 7281.42C7042.3 7280.62 7043.82 7279.85 7045.34 7279.09C7048.39 7277.59 7051.47 7276.18 7054.59 7274.88C7060.82 7272.27 7067.1 7269.99 7073.78 7268.28C7066.32 7272.22 7059.19 7276.12 7051.84 7279.83C7048.18 7281.69 7044.57 7283.6 7040.84 7285.42C7037.11 7287.24 7033.35 7289.07 7029.54 7290.93C7030.43 7289.49 7030.74 7288.99 7030.98 7288.6ZM7019.47 7239.91L7020.02 7240.99C7014.91 7243.75 7009.78 7246.4 7004.67 7249.11L6989.25 7256.76L6981.63 7260.31L6977.82 7261.98C6976.4 7262.6 6975.66 7262.93 6974.88 7263.25C6971.75 7264.53 6968.62 7265.74 6965.45 7266.83L6965.33 7265.47C6968.38 7264.38 6971.38 7263.13 6974.35 7261.83L6980.99 7258.8L6988.54 7255.17C6993.64 7252.57 6998.76 7250.07 7003.92 7247.55C7009.05 7244.9 7014.23 7242.4 7019.47 7239.91ZM7157.95 7179.39C7150.3 7183.54 7142.85 7188.15 7135.39 7192.54C7133.53 7193.63 7131.66 7194.78 7129.86 7195.89L7124.99 7198.92C7121.8 7200.91 7118.58 7202.87 7115.43 7204.89C7112.95 7206.46 7110.4 7207.94 7107.46 7209.23C7108.59 7208.31 7109.63 7207.26 7110.86 7206.48C7116.41 7202.97 7122.05 7199.55 7127.68 7196.13L7132.4 7193.27L7137.37 7190.37L7147.33 7184.54L7150.38 7182.71L7153.45 7180.91L7159.62 7177.28L7159.96 7177.9C7159.28 7178.39 7158.64 7179 7157.95 7179.39ZM7201.99 7207.08L7201.32 7208.11C7199.73 7208.61 7198.2 7209.27 7196.64 7209.86L7191.99 7211.67C7188.94 7212.99 7185.87 7214.29 7182.85 7215.68L7183.37 7214.09C7186.79 7211.88 7190.09 7210.5 7193.12 7209.44C7194.66 7208.97 7196.15 7208.58 7197.61 7208.2C7199.07 7207.82 7200.49 7207.4 7201.99 7207.08ZM7191.96 7223.13C7190.21 7224.91 7187.2 7226.75 7184.56 7227.81C7181.93 7228.9 7179.54 7229.41 7178.78 7228.47C7181.07 7227.47 7183.25 7226.49 7185.43 7225.6C7186.53 7225.17 7187.61 7224.75 7188.69 7224.33C7189.78 7223.9 7190.86 7223.48 7191.96 7223.13ZM7020.1 7235.16C7016.88 7237.04 7013.65 7238.78 7010.42 7240.53C7007.18 7242.27 7003.95 7244.04 7000.69 7245.7C6999.69 7246.19 6998.48 7246.24 6997.37 7246.5C6998.18 7245.64 6998.85 7244.46 6999.83 7243.98L7011.07 7238.25C7012.95 7237.29 7014.83 7236.38 7016.71 7235.38L7022.35 7232.39L7022.84 7233.16C7021.93 7233.83 7021.08 7234.6 7020.1 7235.16ZM7290.21 7252.6C7299.3 7249.44 7308.78 7248.09 7318.51 7247.51C7309.23 7250.51 7299.8 7252.4 7290.21 7252.6ZM6944.91 7179.64C6943.87 7180.45 6942.37 7180.57 6941.09 7181.05C6941.41 7180.42 6941.66 7179.77 6941.96 7179.13C6942.27 7178.51 6942.62 7177.9 6943.12 7177.36C6944.51 7175.86 6946.24 7174.19 6947.97 7173.29C6949.3 7172.57 6950.64 7171.98 6951.98 7171.43C6953.34 7170.93 6954.7 7170.42 6956.05 7169.91L6956.13 7170.67L6953.27 7172.85L6950.48 7175.12C6948.62 7176.62 6946.76 7178.13 6944.91 7179.64ZM6866.72 7188.6C6868.5 7186.1 6870.31 7183.55 6872.16 7180.96C6874.12 7178.43 6876.1 7175.87 6878.11 7173.28C6880.15 7170.72 6882.35 7168.22 6884.48 7165.66C6885.02 7165.03 6885.55 7164.38 6886.1 7163.76L6887.64 7162.06L6890.18 7159.28L6890.67 7159.86C6890.15 7160.52 6889.64 7161.17 6889.13 7161.81C6888.87 7162.13 6888.62 7162.45 6888.37 7162.76C6888.06 7163.13 6887.76 7163.5 6887.45 7163.87C6887.13 7164.26 6886.82 7164.64 6886.51 7165.02C6886.19 7165.42 6885.88 7165.82 6885.57 7166.22C6884.94 7167.01 6884.32 7167.78 6883.72 7168.55C6882.5 7170.07 6881.31 7171.51 6880.16 7172.89C6879.04 7174.29 6877.98 7175.64 6876.96 7176.92C6875.93 7178.19 6874.93 7179.39 6873.97 7180.51C6872.99 7181.62 6872.17 7182.72 6871.31 7183.7C6869.62 7185.67 6868.08 7187.32 6866.72 7188.6ZM7062.37 7190.85L7062.65 7191.29C7052.92 7197.23 7043.33 7203.05 7033.79 7208.69L7033.44 7208.29C7043 7202.64 7052.62 7196.8 7062.37 7190.85ZM7256.17 7317.47C7259.9 7314.47 7268.32 7313.03 7276.37 7313.85C7269.35 7315.19 7263.13 7316.31 7256.17 7317.47ZM7212.65 7204.2L7212 7205.06C7210.39 7205.11 7208.83 7205.62 7207.32 7206.13L7202.75 7207.68L7203.29 7206.86L7207.91 7205.3C7209.45 7204.77 7211.02 7204.26 7212.65 7204.2ZM7334.52 7261.45C7334.57 7261.13 7334.57 7260.36 7334.69 7260.34C7337.63 7259.8 7340.59 7259.33 7343.55 7258.85L7343.65 7259.73C7340.76 7260.27 7337.86 7260.82 7334.52 7261.45Z" fill="#000000" fill-rule="nonzero" opacity="1" stroke="none" vectornator:layerName="path"/>
</g>
</svg>
