
<svg height="100%" stroke-miterlimit="10" style="fill-rule:nonzero;clip-rule:evenodd;stroke-linecap:round;stroke-linejoin:round;" version="1.1" viewBox="0 0 907.2 198.45" width="100%" xml:space="preserve" xmlns="http://www.w3.org/2000/svg" xmlns:vectornator="http://vectornator.io" xmlns:xlink="http://www.w3.org/1999/xlink">


<g opacity="1">
<path d="M844.094 4.28125C815.42 5.44374 786.708 6.56452 758.094 8.8125C739.663 10.2604 721.305 12.2193 703 14.8125C656.043 21.4648 609.75 31.8371 563.406 41.75C552.386 44.1073 541.362 46.4067 530.312 48.625C514.644 51.7707 498.923 54.6852 483.25 57.8125C440.552 66.3323 397.85 75.3497 354.5 79.9062C345.863 80.8141 337.208 81.4267 328.531 81.875C328.912 79.6815 329.358 77.5008 329.469 75.2812C329.578 73.1032 329.653 70.8961 329.531 68.7188C329.395 66.2795 329.162 63.84 328.719 61.4375C328.211 58.6836 327.56 55.9318 326.656 53.2812C325.607 50.2036 324.394 47.1873 322.875 44.3125C321.337 41.4033 319.537 38.6084 317.531 36C315.526 33.3931 313.29 30.9511 310.875 28.7188C308.494 26.5176 305.883 24.5518 303.188 22.75C300.865 21.1979 298.398 19.8869 295.875 18.6875C293.664 17.6363 291.357 16.7971 289.031 16.0312C286.943 15.3434 284.804 14.8137 282.656 14.3438C280.998 13.981 279.304 13.7769 277.625 13.5312C274.167 13.0253 270.639 12.7769 267.156 12.5C250.969 11.2131 234.706 11.2394 218.5 12.1562C191.526 13.6823 164.765 17.677 138.031 21.4062C129.64 22.5767 121.257 23.7493 112.844 24.75C104.733 25.7147 96.6468 26.6736 88.625 28.25C74.7517 30.9763 61.1407 34.8117 47.3438 37.875C17.5249 44.4728-1.2853 73.9936 5.3125 103.812C11.9103 133.631 41.4311 152.473 71.25 145.875C78.0301 144.38 84.7612 142.732 91.5 141.062C98.1079 139.425 104.736 137.746 111.438 136.531C116.205 135.667 121.004 135.221 125.812 134.656C132.721 133.845 139.638 132.964 146.531 132.031C164.151 129.648 181.719 126.942 199.406 125.094C199.843 125.048 200.282 125.014 200.719 124.969C202.024 135.663 205.683 145.942 211.781 155.156C214.278 158.928 217.158 162.449 220.312 165.688C235.331 181.106 256.464 188.785 277.281 192.375C290.564 194.666 304.047 195.109 317.5 194.969C330.244 194.836 342.981 194.269 355.688 193.281C403.579 189.559 450.819 180.74 497.969 171.875C516.1 168.466 534.285 165.273 552.406 161.812C563.967 159.605 575.499 157.292 587.031 154.938C608.077 150.641 629.088 146.247 650.156 142.062C673.057 137.515 696.055 133.295 719.188 130.094C762.104 124.155 805.41 122.624 848.656 121C880.889 119.741 905.977 92.6076 904.719 60.375C903.46 28.1424 876.326 3.02268 844.094 4.28125Z" fill="#eeeaeb" stroke="none"/>
</g>

</svg>
