
<svg height="100%" stroke-miterlimit="10" style="fill-rule:nonzero;clip-rule:evenodd;stroke-linecap:round;stroke-linejoin:round;" version="1.1" viewBox="0 0 907.2 198.45" width="100%" xml:space="preserve" xmlns="http://www.w3.org/2000/svg" xmlns:vectornator="http://vectornator.io" xmlns:xlink="http://www.w3.org/1999/xlink">

<clipPath id="ArtboardFrame">
<rect height="198.45" width="907.2" x="0" y="0"/>
</clipPath>

<g opacity="1">
<path d="M214.938 9.03125C212.239 9.01461 209.506 9.15309 206.812 9.3125C195.395 9.98824 183.99 12.1078 172.938 15C157.239 19.1081 142.027 24.7736 127.188 31.3125C117.136 35.7417 107.139 40.3943 97.8438 46.2812C84.3816 54.8072 72.1733 65.2985 61.3125 76.9375C51.9328 86.9893 43.4463 97.97 36.75 110C22.1231 136.162 31.4944 169.217 57.6562 183.844C83.8181 198.471 116.873 189.131 131.5 162.969C133.593 159.268 136.463 155.971 139.312 152.844C143.868 147.844 148.975 143.207 154.625 139.469C157.4 137.633 160.394 136.142 163.406 134.719C164.762 145.45 168.407 155.817 174.781 164.625C176.617 167.161 178.702 169.499 180.969 171.656C183.565 174.128 186.415 176.369 189.469 178.25C194.136 181.124 199.139 183.305 204.406 184.812C214.056 187.575 224.208 187.887 234.156 187.094C244.948 186.233 255.606 184.162 266.188 181.938C267.825 181.593 269.461 181.239 271.094 180.875C271.746 180.73 272.43 180.52 273.094 180.438C275.96 180.08 278.789 179.721 281.594 179C285.929 177.885 290.122 176.261 294.219 174.469C299.209 172.285 304.054 169.811 308.875 167.281C316.991 163.023 324.976 158.554 333 154.125C335.667 152.653 338.356 151.177 341.031 149.719C341.428 149.502 341.932 149.299 342.281 149C342.308 148.977 342.219 148.922 342.25 148.906C344.016 148.029 345.957 147.428 347.781 146.688C350.194 145.709 352.596 144.718 355 143.719C362.339 140.667 369.646 137.484 376.906 134.25C396.106 125.698 415.019 116.391 435.219 110.375C450.108 105.94 465.322 102.899 480.594 100.125C494.75 97.5537 508.96 95.2592 523.188 93.125C572.113 85.7861 621.346 80.8033 670.469 75.0312C682.312 73.6396 694.145 72.1764 705.969 70.625C710.648 70.0111 715.333 69.3545 720 68.6562C721.918 68.3693 723.845 68.1456 725.75 67.7812C731.258 66.728 736.282 64.2047 741.562 62.4375C742.483 62.1293 743.443 61.8387 744.406 61.6875C744.77 61.6304 745.043 61.6246 745.375 61.5312C745.447 61.5111 745.663 61.363 745.625 61.2812C745.587 61.2 745.534 61.1455 745.5 61.0625C745.496 61.0527 745.368 60.6443 745.469 60.6875C745.665 60.7718 745.747 61.3097 745.781 61.4688C745.912 62.0865 745.961 62.7131 745.969 63.3438C746.009 66.5331 745.599 69.7191 745.562 72.9062C745.488 79.3262 746.735 85.1501 751.594 89.625C752.674 90.6194 753.86 91.4761 755.125 92.2188C760.256 95.2309 766.314 96.0216 772.156 96.25C775.955 96.3985 779.771 96.4304 783.562 96.125C787.958 95.771 792.316 95.0093 796.625 94.0938C800.75 93.2173 804.849 92.1831 808.969 91.2812C818.594 89.1739 828.224 87.1624 837.781 84.75C849.866 81.6997 861.852 78.2821 873.812 74.7812C859.804 77.1016 845.759 79.2955 831.656 80.9688C821.818 82.136 811.942 82.8804 802.094 83.9375C796.277 84.5619 790.423 85.2095 784.562 85.0938C781.45 85.0323 778.391 84.6528 775.312 84.2188C771.591 83.694 767.607 83.1123 764.25 81.3125C763.725 81.0312 763.214 80.7183 762.75 80.3438C762.165 79.8715 761.653 79.2686 761.312 78.5938C761.253 78.4758 761.292 78.1309 761.281 78C761.263 77.7677 761.201 77.5451 761.188 77.3125C761.141 76.5201 761.263 75.7218 761.344 74.9375C761.417 74.2267 761.537 73.5171 761.656 72.8125C762.127 70.027 762.683 67.247 763 64.4375C763.394 60.9493 763.261 57.3172 762.031 54C759.717 47.7601 753.836 43.6434 747.375 42.6562C742.344 41.8876 737.31 42.9103 732.438 44.125C729.221 44.927 725.933 46.0776 722.594 46.2188C712.872 46.6297 703.104 46.6363 693.375 46.6875C678.753 46.7645 664.122 46.705 649.5 46.5938C601.188 46.226 552.868 45.0968 504.562 46.5C492.883 46.8393 481.199 47.3012 469.531 47.9375C451.697 48.9101 433.87 50.4337 416.281 53.625C407.007 55.3077 397.828 57.3939 388.719 59.8125C377.354 62.8298 366.083 66.262 354.781 69.5C347.208 71.6698 339.628 73.7803 332 75.75C329.083 76.5033 326.144 77.2159 323.219 77.9375C321.444 78.3754 319.684 78.8001 317.938 79.3438C312.828 80.9339 307.811 82.8458 302.812 84.75C297.717 86.6914 292.605 88.6461 287.5 90.5625C281.55 92.7959 275.57 94.959 269.469 96.75C270.053 94.9427 270.687 93.1504 271.188 91.3125C272.934 84.8996 274.312 78.2585 274.531 71.5938C274.942 59.1175 271.949 46.3686 265.219 35.7812C264.191 34.1647 263.124 32.5662 261.938 31.0625C260.587 29.3516 259.154 27.6787 257.625 26.125C256.057 24.5307 254.403 23.0221 252.656 21.625C250.829 20.1635 248.901 18.8168 246.906 17.5938C244.786 16.2938 242.608 15.1214 240.344 14.0938C238.2 13.1207 235.967 12.2926 233.719 11.5938C231.553 10.9206 229.356 10.3796 227.125 9.96875C224.938 9.56591 222.718 9.32468 220.5 9.15625C218.649 9.01568 216.794 9.04269 214.938 9.03125ZM169.938 69.375C170.12 69.4667 170.006 69.7727 170.062 69.9688C170.264 70.663 170.351 71.2985 170.375 72.0312C170.428 73.6326 170.152 75.2195 169.969 76.8125C169.922 76.5361 169.791 76.2772 169.75 76C169.498 74.2981 169.319 72.474 169.5 70.75C169.539 70.3758 169.655 70.1461 169.781 69.8125C169.837 69.6652 169.797 69.3042 169.938 69.375ZM228.938 96.8438C229.425 96.6755 230.184 96.8271 230.656 96.9062C231.023 96.9677 231.389 97.0356 231.75 97.125C232.393 97.2843 232.994 97.6029 233.625 97.8125C232.885 97.7501 232.142 97.7627 231.406 97.6562C230.646 97.5462 229.845 97.44 229.125 97.1562C229.093 97.1437 228.619 96.9536 228.938 96.8438Z" fill="#eeeaeb" stroke="none"/>
</g>

</svg>
