<?xml version="1.0" encoding="UTF-8" standalone="no"?>
<!DOCTYPE svg PUBLIC "-//W3C//DTD SVG 1.1//EN" "http://www.w3.org/Graphics/SVG/1.1/DTD/svg11.dtd">
<!-- Created with Vectornator (http://vectornator.io/) -->
<svg height="100%" stroke-miterlimit="10" style="fill-rule:nonzero;clip-rule:evenodd;stroke-linecap:round;stroke-linejoin:round;" version="1.1" viewBox="0 0 1920 1080" width="100%" xml:space="preserve" xmlns="http://www.w3.org/2000/svg" xmlns:vectornator="http://vectornator.io" xmlns:xlink="http://www.w3.org/1999/xlink">
<defs/>
<g id="무제" vectornator:layerName="무제">
<path d="M568.35 521.58C568.34 522.06 567.67 522.96 568.08 523.16C568.57 523.4 570.64 522.9 570.79 523.47C571.2 525.21 570.59 527.05 569.84 528.21C569.09 529.43 568.46 530.17 568.04 531.26C567.75 531.97 566.79 532.83 566.03 534.03C565.54 534.82 565.04 535.76 564.63 536.93L564.55 537.15L564.51 537.26L563.86 538.36L561.04 543.2L560.35 544.41C560.11 544.84 559.84 545.38 559.6 545.86L558.1 548.84C557.13 550.85 556.11 552.79 555.24 554.89C554.36 556.98 553.5 559.07 552.68 561.18L552.07 562.76L551.73 563.66L551.35 564.73C550.8 566.32 550.21 568.06 549.58 570.24C548.95 572.44 548.32 574.83 547.73 577.83L547.52 578.92L547.31 580.11L546.93 582.53C546.69 584.33 546.49 585.99 546.35 588.03C545.77 595.67 546.21 606.02 549.62 616.93C550.07 618.38 550.57 619.82 551.1 621.24C551.64 622.64 552.22 624.04 552.83 625.41C554.05 628.17 555.43 630.83 556.98 633.41C557.75 634.69 558.56 635.99 559.38 637.19C560.2 638.38 561.04 639.55 561.92 640.7L563.26 642.41C563.72 642.98 564.17 643.53 564.6 644.03C565.48 645.05 566.4 646.06 567.33 647.04C569.26 649.08 570.99 650.68 572.89 652.33L574.31 653.53L575.64 654.59C576.53 655.28 577.42 655.96 578.33 656.61L579.7 657.58L580.95 658.42C581.79 658.97 582.64 659.51 583.5 660.03L584.78 660.79L585.95 661.45C586.73 661.89 587.52 662.31 588.32 662.73C594.5 665.91 599.6 667.66 603.95 668.94C608.3 670.19 611.93 670.92 615.07 671.44C616 671.6 616.33 671.63 616.83 671.7L618.27 671.89L621.15 672.26L624.03 672.6L626.91 672.85C628.83 673 630.75 673.19 632.66 673.27L638.38 673.49C645.97 673.62 653.49 673.35 660.73 672.59C667.96 671.82 675.04 670.74 681.74 669.27C688.05 667.9 694.17 666.3 699.95 664.47C702.9 663.58 705.67 662.6 708.5 661.62C709.9 661.13 711.24 660.61 712.61 660.1C713.98 659.59 715.34 659.08 716.65 658.54C728.8 653.71 739.77 648.32 749.95 642.92C760.14 637.51 769.56 632.06 778.5 626.92C783.14 624.25 787.74 621.83 792.22 619.52C796.54 617.29 800.87 615.07 805.18 612.85L814.66 607.82C816.23 606.95 817.83 606.16 819.44 605.36L824.25 602.95C830.61 599.63 837.18 596.66 843.71 593.6C845.61 592.68 847.57 591.89 849.51 591.05C851.45 590.21 853.39 589.36 855.3 588.48L860.18 586.23L865.15 584.15C868.47 582.78 871.81 581.45 875.17 580.17C878.57 578.97 882 577.84 885.45 576.78C887.18 576.25 888.91 575.74 890.65 575.25C892.41 574.79 894.18 574.38 895.96 573.97C897.04 573.73 899.03 573.04 899.04 572.87C899.3 569.95 904.19 570.13 906.68 568.78C908.52 567.82 910.91 567.13 913.11 566.5L921.84 564.06L930.68 561.87L930.93 562.54L926.33 564.21C930.66 563.21 934.94 562.1 939.24 561.03C943.56 560 947.85 558.93 952.13 557.8C957.08 556.52 961.96 554.97 966.95 553.75C970.51 552.87 974.08 551.99 977.65 551.11C981.22 550.22 984.77 549.26 988.39 548.5C995.63 547.01 1002.94 545.76 1010.55 545.95C1014.3 546.03 1018.39 545.31 1022.35 545.05L1022.44 545.79C1018.06 546.54 1013.73 547.42 1009.41 548.21C1007.26 548.62 1005.1 549.01 1002.98 549.44C1000.86 549.88 998.76 550.32 996.68 550.75C999.22 550.46 1001.82 550.16 1004.45 549.86C1007.1 549.6 1009.78 549.33 1012.46 549.04L1020.91 548.1L1029.4 547.29L1037.89 546.46L1046.42 545.73C1064.12 544.17 1081.96 542.9 1099.92 542.11C1101.97 542.01 1104.02 542.11 1106.07 542C1111.8 541.74 1117.67 541.78 1123.22 541.04C1129.17 540.31 1135.08 539.85 1140.96 539.69C1146.86 539.59 1152.73 539.82 1158.58 540.41C1160.18 540.58 1161.51 541.23 1162.97 541.66L1162.27 542.22C1159.42 542.34 1156.59 542.5 1151.96 542.75C1157.12 544.38 1158.45 546.09 1155.62 548.13C1161.74 548.59 1167.53 549.12 1173.29 549.6L1173.02 550.55L1156.86 550.95L1156.6 551.67C1158.06 551.88 1159.49 552.15 1161 552.3C1167.17 552.94 1173.34 553.58 1179.51 554.23C1185.71 554.92 1191.89 555.49 1198.19 556C1205.45 556.57 1213.13 555.99 1221.54 556.01C1219.93 554.26 1218.79 553.03 1217.52 551.64C1221.43 550.63 1225.03 549.62 1228.79 548.77C1231.88 548.08 1233.45 547.28 1232.24 545.53C1231.88 545.01 1232.96 543.84 1234.01 543.62C1239.97 542.38 1238.21 540.69 1235.58 538.89C1234.49 538.14 1233.4 537.38 1232.12 536.7C1227.87 534.45 1224.17 532.17 1216.85 531.59C1211.36 531.14 1205.95 530.61 1200.55 529.99C1195.14 529.37 1189.76 528.77 1184.35 528.25C1182.33 528.06 1179.77 527.72 1178.18 528.11C1172.01 529.65 1165.86 529.17 1159.62 528.89C1154.45 528.72 1149.27 528.55 1144.1 528.38C1143.04 528.34 1142.05 528.05 1139.88 527.7C1165.23 526.36 1189.33 525.64 1213.55 525.22L1213.66 524.56C1212.69 524.32 1211.72 524.08 1209.36 523.5C1220.79 523.14 1230.85 522.86 1242.41 522.62C1240.08 521.81 1239.02 521.45 1237.76 521.02C1240.03 520.57 1241.85 520.21 1243.62 519.85C1240.45 515.96 1238.11 515.18 1230.31 515.13C1226.01 515.13 1221.71 515.21 1217.41 515.16C1209.34 515.04 1201.24 515.23 1193.26 514.83C1178.29 514.19 1163.38 513.27 1148.49 512.75C1147.94 512.73 1147.43 512.56 1146.8 512.44C1147.27 512.15 1147.5 511.92 1147.65 511.93C1158.31 512.33 1169.09 508.72 1179.78 511.39C1180.46 511.56 1181.54 511.44 1182.43 511.41C1191.5 511.13 1200.56 510.85 1209.62 510.57C1215.61 510.35 1221.74 510.22 1227.48 509.48C1230.31 509.11 1234.32 507.53 1234.38 506.44C1234.47 504.78 1230.48 503.95 1226.46 504.17C1225.4 504.23 1224.28 504.24 1223.23 504.16L1205.1 502.85L1205.22 502.14C1208.37 501.98 1211.52 501.77 1214.68 501.66C1228.36 501.14 1242.12 500.91 1255.78 500.3C1262.13 500 1268.46 499.59 1274.79 499.17C1281.11 498.73 1287.44 498.3 1293.76 497.86C1295.02 497.78 1297.03 497.31 1297.12 496.92C1297.62 494.74 1300.26 494.23 1304.52 494.57C1305.18 494.62 1305.96 494.27 1306.69 494.1C1309.26 493.5 1311.76 492.84 1314.41 492.33C1316.98 491.83 1319.94 491.66 1322.3 491.02C1326.55 489.88 1326.22 487.74 1321.79 486.51C1320.1 486.04 1318.1 485.46 1316.32 485.49C1310.58 485.58 1307.58 484.79 1309.97 481.66C1306.02 481.58 1302.72 481.52 1299.31 481.45C1300.08 479.47 1302.49 478.58 1305.89 479.28C1309.85 480.08 1312.51 479.53 1315.03 478.39C1316.15 477.89 1316.89 477.2 1317.8 476.6C1316.54 476.2 1315.38 475.66 1313.99 475.41C1307.95 474.34 1301.87 473.3 1295.74 472.37C1290.86 471.63 1285.89 471 1280.93 470.4C1278.05 470.05 1275.13 469.78 1272.22 469.48L1272.45 468.57C1278.97 466.73 1286.31 469.27 1294.54 468.07C1290.27 467.37 1287.23 466.88 1282.87 466.17C1288.77 465.67 1293.4 464.18 1296.73 467.19C1297 467.43 1299.2 467.29 1300.49 467.25C1301.33 467.22 1302.21 466.86 1302.93 466.94C1308.14 467.57 1313.27 468.38 1318.51 468.93C1325.06 469.63 1331.69 470.15 1338.29 470.75L1339.15 469.91C1337.23 468.63 1335.3 467.35 1332.88 465.73C1325.89 467.04 1318.47 466.32 1310.81 464.56C1306.78 463.63 1306.73 462.82 1307.72 461.67C1318.95 460.65 1328.25 458.87 1334.28 454.56C1337.61 452.17 1336.87 451.45 1330.52 450.78C1329.03 450.62 1327.63 450.18 1326.28 449.8C1325.11 449.47 1324.16 448.79 1322.97 448.69C1319.11 448.36 1317.55 447.55 1318.73 445.94C1321.46 445.69 1323.97 445.45 1327.75 445.1C1321.03 444.41 1316.92 441.86 1316.99 439.1C1318.85 439.33 1320.69 439.55 1322.54 439.78L1323.37 439.36C1321.08 438.04 1318.79 436.71 1316.23 435.24C1321.34 434.76 1326.41 436.83 1330.95 435C1328.33 433.98 1325.29 433.26 1323.84 432.13C1319.83 429.02 1313 429.06 1306.85 428.47C1304.95 428.29 1301.45 428.89 1300.73 429.6C1298.53 431.77 1295.45 431.09 1291.82 430.67C1288.28 430.26 1283.84 430.96 1282.74 429.22C1278.35 429.15 1274.33 429.36 1270.59 428.97C1266.35 428.53 1264.93 426.82 1267.31 425.83C1257.5 421.9 1257.4 421.84 1247.43 425.29C1243.36 426.71 1237.61 427.17 1232.27 426.75C1226.93 426.34 1221.99 425.11 1219.6 423.07C1216.42 420.36 1210.36 420.05 1204.77 421.94C1204.07 422.18 1203.09 422.5 1202.38 422.44C1196.3 421.94 1190.23 421.43 1184.15 420.93L1184.45 420.34C1188.84 419.67 1193.24 418.99 1198.34 418.26C1195.38 417.71 1193.16 417.3 1189.87 416.68C1192.42 416.26 1193.9 416.02 1195.27 415.79C1194.48 415.37 1193.62 414.9 1192.53 414.32C1195.56 413.89 1198.07 413.54 1200.58 413.18L1200.7 412.55C1192.27 411.68 1183.79 410.94 1173.88 410.02C1178.81 409.1 1182.38 408.44 1185.95 407.78C1182.04 407.49 1178.26 406.91 1174.46 406.61C1170.65 406.33 1166.8 406.33 1162.76 407.16C1160.95 407.53 1157.89 407.23 1155.99 406.78C1151.2 405.68 1146.72 404.35 1141.32 402.9C1144.83 402.69 1147.48 402.52 1150.68 402.33C1147.27 400.07 1142.09 399.85 1137.24 399.98C1117.66 400.61 1097.97 401.61 1078.24 403.2C1058.23 404.88 1038.2 407.43 1018.07 409.97C992.07 413.3 965.91 417.23 939.75 422.43C938.42 422.7 936.48 423.2 935.82 423.01C931.6 421.82 926.28 423.11 921.36 424.28L909.04 427.14C904.93 428.08 900.84 429.22 896.74 430.26L890.6 431.86C888.55 432.38 886.51 432.94 884.46 433.54L872.21 437.06C867.9 438.25 863.63 439.74 859.35 441.11L852.93 443.19L849.71 444.21L846.5 445.29L831.41 450.3L816.39 455.67L812.64 457.02L808.9 458.45L801.44 461.34L793.98 464.24L786.57 467.33C785.39 467.82 784.04 467.88 782.76 468.14L782.88 467.36C786.65 465.55 790.41 463.68 794.2 461.93L805.62 456.78C793.69 461.05 781.99 465.94 770.37 471.09C768.69 471.86 767.01 472.66 765.31 473.36C761.48 474.95 757.61 476.45 753.79 478.07C749.97 479.73 746.16 481.39 742.34 483.05L736.63 485.58L731.18 488.15C727.63 489.86 724.17 491.6 720.86 493.34C707.95 500.16 696.44 506.43 686.1 511.51C675.79 516.6 666.71 520.39 659.42 522.59C658.84 522.78 658.3 522.94 657.77 523.08L656.18 523.54C655.18 523.77 654.15 524.09 653.24 524.27C651.34 524.74 649.69 525.02 648.17 525.25C647.8 525.29 647.43 525.35 647.06 525.41C646.71 525.44 646.37 525.46 646.03 525.5L645.52 525.56L645.04 525.57C644.73 525.58 644.4 525.62 644.09 525.63C642.88 525.63 641.76 525.6 640.68 525.44L640.53 525.43L640.49 525.43L640.48 525.43C646.01 492.6 632.95 570.15 634.29 562.21L634.27 562.32L634.2 562.78L633.89 564.62L633.23 568.15C633.04 569.17 632.83 570.18 632.61 571.19C631.83 574.94 630.96 578.16 630.18 580.75C629.72 582.15 629.39 583.26 628.92 584.45C628.7 585.03 628.53 585.51 628.31 586.04L627.67 587.51C627.47 587.96 627.25 588.41 627.02 588.85C626.83 589.25 626.64 589.62 626.42 590L625.81 591.03C625.63 591.33 625.38 591.67 625.2 591.93C624.44 593.01 623.81 593.67 623.31 594.07C622.93 594.41 622.72 594.45 622.91 594.38L622.91 594.38L622.91 594.38C623.11 594.3 622.64 594.48 622.69 594.46L622.72 594.45L622.77 594.43L622.86 594.4C622.96 594.37 623.09 594.33 623.2 594.32C623.38 594.28 623.53 594.25 623.73 594.23C623.98 594.19 624.16 594.18 624.44 594.16C625.52 594.1 627.09 594.15 629.31 594.52C629.59 594.57 629.87 594.62 630.15 594.67L631.12 594.85L633.26 595.34L635.81 596.01L638.92 596.93L642.84 598.2L648.05 600.01L651.31 601.2L655.53 602.76L677.73 611.24C678.02 611.35 678.3 611.46 678.55 611.57L679.35 611.95C679.84 612.17 680.3 612.39 680.75 612.63L690.1 617.89L690.98 617.14L699.25 610.74L708.92 604.74C715.94 600.71 722.96 596.69 729.98 592.66C733.48 590.59 736.9 588.46 740.34 586.36L741.63 585.57L742.85 584.76L745.27 583.14L750.11 579.91C751.78 578.84 753.18 577.75 754.65 576.66L759.02 573.4C759.74 572.86 760.49 572.31 761.18 571.77L763.12 570.16L766.98 566.94C778.1 557.39 786.29 548.47 792.57 540.69L796.9 535.03L798.82 532.36L799.78 531.02C800.11 530.57 800.42 530.13 800.68 529.71L802.34 527.17C802.89 526.32 803.47 525.46 803.93 524.67L805.38 522.24L806.1 521.03L806.74 519.86C809.62 514.71 811.89 509.9 813.9 505.1C815.91 500.3 817.64 495.52 819.14 490.54C822.17 480.59 824.32 469.67 824.97 456.77C825.32 448.59 824.47 439.86 822.79 430.9C823.76 438.6 824 446.16 823.67 453.24C823.52 456.77 823.2 460.19 822.8 463.42C822.36 466.62 821.9 469.74 821.3 472.71C820.31 477.68 820.16 482.59 818.06 486.74C813.33 496.09 810.74 504.03 805.9 512.57C802.03 519.19 797.98 526.1 791.95 533.97C787.66 539.56 782.43 545.72 775.68 552.46C769.05 559.18 760.31 566.61 749.96 574C749.77 574.14 749.17 574.2 748.07 574.46C749.84 573.04 751.6 571.63 753.37 570.21C754.95 568.81 756.53 567.41 758.13 565.99C758.93 565.28 759.73 564.57 760.54 563.85C761.24 563.15 761.95 562.45 762.67 561.74C764.09 560.33 765.53 558.89 767.01 557.41C765.44 558.63 763.93 559.81 762.46 560.95C761.73 561.52 761 562.08 760.28 562.64C759.92 562.92 759.57 563.19 759.21 563.47C758.82 563.75 758.42 564.03 758.03 564.31C756.46 565.42 754.92 566.52 753.4 567.6C751.86 568.68 750.45 569.74 748.73 570.82L747.76 570.46C749.01 569.6 750.06 568.75 751.15 567.9L754.43 565.35C755.49 564.5 756.67 563.64 757.62 562.81L760.43 560.32C764.25 557.01 767.23 553.93 770.38 550.82L774.51 546.36L775.53 545.25L776.43 544.2L778.22 542.1L780.01 540L781.57 538.02L783.13 536.04L783.91 535.05L784.61 534.11L787.39 530.37L789.85 526.8C792.99 522.12 795.67 517.73 798.04 513.48C800.38 509.24 802.5 505.08 804.49 500.86C806.56 496.47 808.41 491.96 810.12 487.2C811.82 482.42 813.38 477.44 814.57 472C817.08 461.42 818.23 448.34 816.86 434.79C816.59 432.24 816.28 429.36 816.29 426.95C816.31 416.95 813.24 407.05 808.52 397.1C804.36 388.36 799.04 379.97 793.19 372.97C790.25 369.5 787.27 366.31 784.24 363.48L781.98 361.41L779.71 359.5C778.95 358.84 778.21 358.3 777.46 357.69L776.33 356.81L775.21 356C774.68 355.62 774.15 355.25 773.6 354.88C773.06 354.53 772.51 354.2 771.96 353.86C770.85 353.17 769.75 352.56 768.66 351.95L767.34 351.28C762.87 349.04 758.81 346.85 754.25 345.2C752.53 344.53 750.78 343.9 749.01 343.28L746.31 342.39L743.4 341.61C741.46 341.09 739.5 340.59 737.53 340.12L734.56 339.44C733.52 339.25 732.33 339.14 731.22 339C728.13 338.65 724.89 338.63 721.63 338.68C720.81 338.7 720.01 338.7 719.16 338.73L716.45 338.95C714.64 339.09 712.85 339.21 711.07 339.27C704.74 339.5 702.22 341 699.91 343.04C702.99 343.45 706.05 343.86 709.09 344.26L713.63 344.86C715.06 345.11 716.34 345.47 717.7 345.76C720.39 346.37 723.08 346.98 725.8 347.6C726.52 347.73 727.06 347.96 727.68 348.14C728.29 348.33 728.9 348.53 729.51 348.72C730.73 349.1 731.96 349.49 733.2 349.88C730.55 350.47 728.46 350.4 726.63 350.07C726.17 349.99 725.73 349.89 725.3 349.78L724.66 349.61L723.96 349.48C723.03 349.3 722.12 349.11 721.21 348.97L713.94 347.82L712.13 347.52C711.52 347.42 710.8 347.41 710.14 347.35L706.09 347.04L697.98 346.43L697.47 346.39L696.91 346.4L695.78 346.42L693.52 346.47L688.99 346.58C687.49 346.62 685.25 347.54 683.37 348.06C684.52 348.49 685.42 349.04 686.86 349.28C687.87 349.45 689.71 349.15 691.06 349.17L694.69 349.22C695.32 349.21 695.83 349.3 696.38 349.36L698.01 349.55L704.49 350.29L703.74 350.89L695.41 350.81L695.11 351.21L705.36 351.76L707.92 351.89C708.72 351.97 709.47 352.09 710.24 352.19L714.86 352.81C721.28 353.48 726.49 354.81 732.12 355.9L731.57 356.34L719.45 355.28L719.19 355.54L726 357.11C728.27 357.63 730.59 358.12 732.68 358.72L731.2 359.82C729.33 359.36 727.28 359 725.26 358.61L719.21 357.44L717.7 357.14L716.04 356.93L712.7 356.51L706.02 355.66C704.96 355.48 703.65 355.48 702.44 355.4L698.75 355.21L691.37 354.83C688.74 354.85 685.98 354.99 683.28 355.05C680.55 355.15 677.89 355.18 675.1 355.34L673.77 356.17C674.84 356.18 675.77 356.36 676.73 356.49L679.59 356.91C681.48 357.19 683.33 357.49 685.04 357.83C688.43 358.35 690.64 359.71 694.54 361.18L698.43 361.28C699.06 361.31 699.76 361.29 700.34 361.35L702.12 361.52L709.22 362.2L712.75 362.54L716 363.04L722.51 364.03C726.82 364.69 730.77 365.56 734.8 366.55C738.8 367.56 742.65 368.84 746.76 370.28C750.69 371.82 754.7 373.65 758.69 376.04C754.47 374.68 750.45 373.51 746.87 372.27C746.28 372.07 745.69 371.88 745.1 371.68C739.52 370.01 734.46 368.67 729.24 367.55C726.65 366.97 724.12 366.41 721.48 365.89C718.8 365.38 716.16 364.8 713.58 364.14C711.59 363.55 708.97 363.32 706.39 363.08C705.08 362.97 703.75 362.87 702.39 362.8C701.71 362.76 701.02 362.73 700.33 362.69C699.63 362.67 698.98 362.61 698.19 362.65C695.16 362.73 692.06 362.85 688.99 362.96C687.45 363.02 685.91 363.08 684.38 363.14C682.74 363.3 681.1 363.46 679.48 363.61C677.18 363.82 673.94 364.44 672.03 365.24C667.76 366.94 662.56 368.43 657.56 369.69C655.05 370.34 652.54 370.98 650.11 371.72C647.58 372.61 645.15 373.58 642.89 374.72C642.44 374.95 641.19 374.9 640.24 375.13C633.03 376.76 625.6 378.83 618.26 380.78L618.05 381.46L629.16 379.06C625.67 381.08 622.22 382.14 618.48 383.13C614.77 384.07 610.67 385.13 606.22 386.91C608.85 386.19 611.36 385.51 613.77 384.85C616.16 384.25 618.45 383.67 620.69 383.11C622.92 382.55 625.09 382.01 627.23 381.48C628.3 381.21 629.36 380.95 630.42 380.68C631.46 380.44 632.5 380.21 633.54 379.97L633.79 380.68C629.49 382.37 625.12 384.73 620.9 386.03C612.79 388.42 604.57 390.84 596.4 393.25C590.72 395.1 585.07 397.09 580.19 398.75C579.49 400.54 577.46 402.78 578.76 403.09C581.15 403.69 583.64 404.24 586.72 404.27C589.8 404.31 593.47 403.83 598.26 402.63C601.94 401.69 605.19 401.57 608.54 401.15C606.22 403.14 608.64 402.93 610.86 402.53C614.48 401.88 618.02 401.04 621.7 399.98C625.37 398.97 629.2 397.68 633.46 395.96C634.27 395.63 635.1 395.33 635.93 395.04C636.76 394.76 637.57 394.55 638.41 394.32C640.07 393.88 641.77 393.51 643.47 393.16C646.86 392.49 650.39 391.76 653.59 391.25L653.03 392.21L650.79 392.84C649.34 393.19 647.58 393.77 646.34 394.31C645.08 394.88 644.26 395.51 644.47 396.23C644.65 396.87 647.5 396.58 649.35 396.59C651.23 396.54 653.53 396.13 655.64 395.88C653.29 396.69 651.13 397.32 649.05 397.87C648.02 398.13 647 398.39 645.98 398.64C644.95 398.92 643.92 399.21 642.89 399.49L633.93 401.99L631.7 402.61L629.44 403.31L624.93 404.7C621.93 405.64 618.97 406.5 615.99 407.45L607.11 410.23L598.31 412.96C595.39 413.86 592.48 414.73 589.57 415.57C586.66 416.46 583.75 417.31 580.84 418.13C577.94 418.92 575.03 419.72 572.09 420.52C563.83 422.68 555.44 425.05 546.92 427.72C544.93 428.37 542.2 429.64 540.91 430.67C538.53 432.58 536.69 433.75 535.15 434.34C533.61 434.96 532.37 434.99 531.23 434.55C527.51 435.69 524.12 436.72 520.71 437.77C519.07 438.3 517.42 438.82 515.73 439.36C514.25 439.82 512.73 440.29 511.13 440.78C510.87 441.69 510.44 443.21 509.85 445.3C506.03 447.23 501.24 449.99 501.08 453.42C504.38 452.62 507.7 451.73 511.02 450.86C514.37 450 517.67 449.22 521.05 448.45C524.6 447.6 528.15 446.95 531.51 446.48C534.87 446.01 538.08 445.76 541.08 445.88C539.15 446.97 538.22 447.48 536.16 448.7C540.58 447.28 544.67 446.06 548.54 444.86C552.4 443.73 556.11 442.64 559.81 441.56C558.28 443 556.67 444.13 555.01 444.79C553.14 445.55 551.2 446.16 549.3 446.83C547.4 447.51 545.53 448.23 543.81 449.13C542.07 450.04 540.37 450.97 538.67 451.92C536.99 452.89 535.31 453.89 533.63 454.9C531.97 455.91 530.27 456.94 528.52 458.01C526.78 459.1 524.98 460.22 523.1 461.4C525.97 460.43 528.4 459.17 530.55 458.53C532.67 457.89 534.32 457.85 535.11 459.43C537.82 458.05 540.59 457.14 542.88 456.84C545.17 456.52 546.96 456.76 547.85 457.56C549.66 459.18 552.56 458.95 555.53 458.5C558.48 458.04 561.54 457.37 563.35 458.29C563.55 458.39 564.87 457.47 565.67 457.15C569.21 455.7 572.81 454.39 576.42 453.02C574.56 454.8 574.27 455.81 574.56 456.41C574.86 457.01 575.76 457.21 576.44 457.3C578.12 457.54 580.65 456.88 582.9 456.34C586.84 455.36 590.79 454.37 594.73 453.39L593.98 454.81C590.69 455.96 587.4 457.11 584.12 458.25C580.88 459.45 577.65 460.6 574.48 461.81C572.99 464.1 572.87 465.73 573.12 467.16C573.37 468.58 573.99 469.83 574.2 471.27C574.49 473.23 575.93 473.43 577.72 473.19C579.5 472.96 581.68 472.32 583.09 472.66C580.61 473.78 578.65 474.62 575.97 475.88C577.81 475.79 578.95 475.8 580.06 475.78L579.7 476.83C577.28 478.06 574.92 478.99 572.67 480.6C567.58 484.24 563.31 486.14 558.98 488.02C556.62 489.04 554.29 489.75 551.94 490.62L551.77 490.06C553.17 489.04 554.62 488.04 556.12 487C550.68 488.98 545.69 492.09 541.65 495.4L540.86 496.05C540.56 496.29 540.4 496.46 539.76 496.84L536.57 498.87C534.45 500.22 532.36 501.62 530.3 503.06C528.25 504.49 526.19 505.93 524.13 507.37C522.1 508.85 520.07 510.33 518.03 511.81C520.92 510.87 523.14 510.15 525.36 509.43C524.12 512.85 515.26 515.03 516.38 519.18C519.51 517.52 522.62 515.87 525.73 514.22C528.86 512.61 531.98 511.01 535.1 509.41C538.12 507.9 541.13 506.4 544.13 504.9L547.67 502.74C552.39 499.91 557.61 497.03 563.41 494.11C562.99 494.85 562.83 495.28 562.69 495.38C559.53 497.44 556.67 499.5 554.05 501.32C551.75 502.92 549.62 504.44 547.67 505.94L546.23 507.05C545.98 507.25 545.81 507.4 545.49 507.63L545.05 507.94L543.96 508.53C541 510.13 538.04 511.7 535.13 513.37C533.11 514.51 531.45 515.98 529.63 517.29L530.6 517.99C533.97 516.3 537.33 514.56 540.73 512.92L545.83 510.45C546.78 509.95 547.05 509.7 547.6 509.37C549.59 508.1 551.69 506.79 553.94 505.39C556.19 503.99 558.6 502.1 561.31 500.25C561.77 499.94 562.29 499.09 562.81 498.48L562.71 497.79C565.69 496.23 568.82 494.71 572.17 493.09C579.49 489.53 587.67 485.94 596.86 482.29C600.21 480.97 604 479.39 605.34 480.33C594.62 484.85 585.6 488.91 577.6 493.2C569.66 497.48 562.96 501.85 557.75 505.93C555.15 507.95 552.92 509.95 551.05 511.84C550.12 512.8 549.28 513.71 548.52 514.61C548.4 514.73 548.25 514.88 548.11 515L548.01 515.1C547.96 515.14 547.79 515.23 547.69 515.29L546.98 515.7L544.14 517.32C542.24 518.39 540.36 519.48 538.48 520.6L539.01 521.15C541.04 520.13 543.12 519.18 545.19 518.24L548.3 516.81L548.64 516.65L548.76 516.59L548.99 516.46C549.17 516.36 549.25 516.31 549.35 516.23C550.19 515.7 551.02 515.11 551.87 514.31C554.35 511.98 557.5 509.3 561.33 506.65C565.14 504.01 569.64 501.42 574.22 499.47C574.84 499.21 575.18 499.43 575.63 499.43L574.96 500.42C573.19 501.4 571.48 502.45 569.93 503.34C564.33 506.53 559.72 509.58 556.03 512.38C553.58 514.25 551.36 515.72 549.79 517.69C549.74 517.77 549.63 517.88 549.51 518L549.35 518.17C549.32 518.2 549.31 518.22 549.25 518.26L548.93 518.45L546.37 519.98C544.68 521.02 543.01 522.05 541.38 523.16C538.14 525.37 534.89 527.58 531.66 529.78C530.99 530.24 530.74 530.95 529.71 532.32C531.2 531.73 532.63 531.13 534.03 530.54C535.44 529.97 536.81 529.42 538.14 528.88C540.82 527.83 543.38 526.83 545.93 526.18C547.61 525.74 549.26 525.26 550.88 524.73L551.49 524.53L551.79 524.43C551.85 524.42 551.85 524.42 551.88 524.42C551.98 524.42 552.07 524.41 552.16 524.39C552.33 524.37 552.36 524.39 552.47 524.38C552.81 524.36 553.09 524.21 553.38 523.97C553.94 523.49 554.54 522.65 555.29 522C556.87 520.59 559.11 518.36 562.05 516.28C564.19 514.76 566.63 513.21 569.52 511.51C571.02 510.62 572.84 509.47 574.61 508.5C575.98 507.76 577.22 507.21 578.74 506.42C578.99 506.29 579.98 505.35 581.87 503.76C580.36 504.07 579.23 504.32 578.11 504.57L579.26 503.26C582.07 502.31 584.99 501.31 588.02 500.47C588.63 500.31 588.98 500.39 589.69 500.16C590.76 499.81 591.86 499.49 592.98 499.21C595.86 498.48 598.94 498.05 601.88 498.32C602.02 498.33 601.7 498.69 601.58 498.91C599.91 499.87 598.45 500.71 597.57 501.22C599.2 501.95 600.61 503.16 601.54 504.67C602.49 506.17 603 507.92 603.11 509.69C603.24 511.67 602.75 513.75 602.03 515.66L599.26 516.6C598.76 515.63 597.97 514.73 597.21 513.82C596.07 512.45 594.38 511.32 592.87 510.19C591.62 509.23 591.01 507.87 589.22 507.53C587.75 507.27 585.52 507.78 583.7 508.28C582 510.23 580.6 511.56 578.94 512.85C577.28 514.15 575.31 515.42 572.42 517.37C571.31 518.13 569.79 519.27 568.04 520.58C568.26 520.96 568.36 521.22 568.35 521.58ZM739.77 632.7C736.72 633.81 733.63 634.87 730.53 635.91L730.09 635.26C733.37 633.38 736.58 631.48 739.93 629.43C738.71 629.77 737.65 630.07 736.59 630.37L737.38 629.23C739.13 628.31 740.86 627.37 742.54 626.43C744.24 625.51 745.93 624.59 747.63 623.67C752.21 621.27 757.54 619.36 758.18 616.6C761.57 615.33 764.11 614.62 766.41 613.46C772.77 610.25 778.82 606.85 784.8 603.79C787.29 602.52 789.41 600.99 792.52 601C794.58 600.95 798.99 598.23 802.21 596.52L807.35 593.75L809.91 592.35L812.51 591.02C815.98 589.25 819.45 587.47 822.97 585.77C839.47 578.06 856.45 571.16 873.77 564.97C875.82 564.26 878.01 563.87 881.41 563.01C879.57 564.05 878.98 564.39 878.4 564.72C886.55 561.94 894.84 559.55 903.08 557.06L903.65 557.41C902.84 557.89 902.13 558.59 901.23 558.91C893.98 561.51 886.73 564.06 879.53 566.72C872.24 569.23 865.13 572.06 857.91 574.62C854.31 575.92 850.76 577.33 847.15 578.59C843.55 579.85 839.93 581.11 836.3 582.39C826.44 585.72 816.85 590.29 807.35 594.71C805.96 595.38 804.71 596.37 803.58 597.41L809.64 594.66C811.66 593.74 813.73 592.93 815.78 592.07L821.93 589.5C823.98 588.65 826.01 587.76 828.1 587L828.4 587.54C827.51 587.99 826.63 588.44 825.74 588.89C818.37 592.48 810.92 595.92 803.72 599.79C800.09 601.68 796.49 603.51 792.78 605.57L781.41 611.9C768.17 619.34 754.07 627.56 738.33 635.28C735.82 636.49 733.27 637.59 730.63 638.7L730.2 638.02C731.82 637.17 733.39 636.3 734.98 635.42C736.58 634.53 738.16 633.64 739.77 632.7ZM1127.11 534L1126.97 534.4C1134.58 535.05 1142.16 535.69 1149.78 536.45L1149.58 537.28C1129.88 537.51 1110.27 537.87 1090.82 538.56C1071.36 539.24 1052.02 540.16 1032.8 541.37L1032.48 540.5C1037.77 539.07 1043.14 537.85 1048.48 536.51L1049.18 537.21C1046.59 538.02 1044 538.82 1040.29 539.98C1058.9 537.45 1077.42 535.05 1095.94 533.42C1105.19 532.58 1114.47 532.07 1123.73 531.77C1133.02 531.58 1142.28 531.62 1151.58 532.21L1151.51 533.04L1139.29 533.46L1127.11 534ZM1285.65 488.98C1279.93 488.9 1274.18 488.93 1268.49 489.14C1257.83 489.56 1247.24 490.41 1236.57 490.66C1230.7 490.77 1224.71 489.92 1218.77 489.51C1215.93 489.32 1213.11 489.07 1210.42 488.46C1213.84 488.19 1217.27 487.92 1221 487.62C1211.59 486.67 1202.57 485.87 1193.53 485.04L1193.65 484.44C1195.07 484.39 1196.49 484.32 1197.91 484.31C1217.8 484.11 1237.75 483.94 1257.63 484.54C1268.2 484.84 1278.68 486.29 1289.15 487.36C1290.86 487.54 1292.34 488.26 1293.93 488.72L1293.21 489.77C1290.7 489.48 1288.18 489.01 1285.65 488.98ZM749.84 504.03C738 510.25 727.31 516.46 717.11 522.08C706.94 527.71 697.32 532.82 688.23 536.99C680.01 540.74 672.22 543.73 665.15 545.7C658.08 547.65 651.74 548.66 646.18 548.76C643.49 548.8 640.96 548.58 638.51 548.18L637.6 548L637.15 547.92L636.92 547.88L636.81 547.86L636.75 547.85L636.74 547.85L636.73 547.85L634.3 562.28L634.24 562.66C634.08 563.66 633.91 564.66 633.72 565.67L633.19 568.47C633.03 569.3 632.86 570.13 632.68 570.96L632.18 573.23C632.02 573.94 631.85 574.65 631.67 575.36L631.19 577.28C631.03 577.9 630.85 578.52 630.66 579.14C630.51 579.69 630.36 580.24 630.19 580.79C628.86 585.14 627.41 588.39 626.07 590.63C624.78 592.85 623.55 593.99 623.04 594.32L622.89 594.42L622.82 594.46L622.86 594.44L622.9 594.42L622.92 594.42L622.93 594.42L622.93 594.42C623.13 594.34 622.66 594.52 622.71 594.5L622.71 594.5L622.71 594.5L622.71 594.5L622.72 594.5L622.73 594.49C622.82 594.46 622.82 594.46 622.96 594.42C623.39 594.3 624.32 594.14 625.79 594.19C624.61 594.15 623.75 594.26 623.27 594.35C623.05 594.39 622.84 594.45 622.77 594.47L622.73 594.48L622.71 594.49L622.7 594.49L622.7 594.49L622.7 594.49C623.15 594.32 622.82 594.44 622.92 594.41L622.92 594.41L622.9 594.42L622.83 594.45C622.81 594.46 622.89 594.42 622.91 594.41L623.02 594.34C623.1 594.29 623.18 594.23 623.24 594.18L623.52 593.95C623.63 593.85 623.73 593.75 623.83 593.65C623.94 593.54 624.11 593.37 624.24 593.23L624.64 592.75C624.81 592.55 624.96 592.35 625.1 592.15C626.31 590.47 627.79 587.71 629.16 583.9C629.34 583.42 629.51 582.93 629.66 582.44L630.19 580.83C630.36 580.28 630.52 579.73 630.67 579.17C630.86 578.55 631.04 577.92 631.2 577.3L631.68 575.37C631.86 574.66 632.04 573.94 632.19 573.23L632.69 570.93C632.87 570.1 633.04 569.26 633.2 568.43L633.76 565.48C633.95 564.43 634.13 563.39 634.3 562.34L637.02 546.18L637.03 546.18L637.04 546.18L637.07 546.18L637.13 546.19L637.25 546.2L637.48 546.22L638.4 546.33C639.01 546.43 639.64 546.47 640.27 546.51C640.89 546.57 641.52 546.63 642.17 546.62C642.82 546.62 643.44 546.71 644.11 546.67C646.73 546.7 649.51 546.52 652.51 546.1C658.5 545.27 665.31 543.6 672.85 540.85C681.53 537.73 691.04 533.36 701.15 528.18C711.28 523.01 722.03 517.05 733.65 510.79C735.35 509.88 737.06 508.99 738.83 508.11C740.58 507.23 742.37 506.37 744.2 505.5C745.99 504.63 747.89 503.79 749.77 502.94C751.65 502.08 753.52 501.23 755.4 500.37L755.63 500.57C753.69 501.7 751.84 502.98 749.84 504.03ZM570.24 576.12L569.36 576.52C568.59 579.43 567.8 583.02 567.36 587.59C566.93 592.1 566.88 597.89 568.09 604.38C568.4 606.11 568.87 608.03 569.39 609.84C569.95 611.71 570.59 613.62 571.36 615.45C572.13 617.29 572.97 619.16 573.98 620.97C574.97 622.77 576.1 624.66 577.32 626.36C582.21 633.42 588.97 639.27 595.58 643.07C594.67 642.74 593.67 642.3 592.8 641.92C591.9 641.52 591.1 641.16 590.19 640.66C588.42 639.71 586.94 638.89 585.34 637.78C583.78 636.71 582.43 635.76 580.98 634.53C580.28 633.94 579.6 633.35 578.94 632.75L577.96 631.84L576.96 630.84C576.31 629.95 575.68 629.04 575.07 628.12C574.77 627.66 574.48 627.2 574.18 626.74C573.89 626.25 573.6 625.77 573.32 625.28C572.2 623.32 571.15 621.34 570.27 619.29C568.48 615.24 567.12 610.88 566.32 606.75C565.52 602.67 565.2 598.73 565.19 595.31C565.18 591.92 565.44 588.75 565.8 586.15C565.89 585.45 565.99 584.83 566.09 584.22L566.41 582.39C566.62 581.27 566.86 580.12 567.09 579.14C567.33 578.08 567.55 577.21 567.79 576.28C568.01 575.47 568.23 574.64 568.45 573.81C568.81 572.52 569.17 571.19 569.56 569.81C569.82 568.85 570.06 567.87 570.29 566.86C570.61 565.48 571.28 563.7 572.09 561.84C572.93 560.02 573.96 558.17 574.86 556.5L575.92 554.57L576.45 553.62L576.95 552.81L578.99 549.6L580.02 548L580.28 547.6C580.37 547.46 580.47 547.31 580.47 547.32L580.62 547.14L581.23 546.42C582.05 545.46 582.96 544.55 583.93 543.67C584.44 543.18 585.09 542.78 585.68 542.33L586.73 542.66C585.82 543.97 584.96 545.41 584.16 546.96L584.27 547.06C584.69 546.55 585.06 546.02 585.49 545.52C585.93 545.03 586.37 544.54 586.89 544.1C587.31 543.76 588.23 543.64 588.93 543.4C588.87 543.89 589.06 544.5 588.68 544.9C588.21 545.45 587.72 545.99 587.22 546.53L585.81 548.22L585.17 549.11L584.85 549.56L584.69 549.78L584.61 549.89L584.57 549.95L584.46 550.12C583.16 552.25 581.91 554.3 580.69 556.54C579.54 558.81 578.43 561.1 577.36 563.4C576.35 565.76 575.42 568.17 574.51 570.57C574.1 571.63 573.53 573.27 572.93 575.22C572.33 577.18 571.69 579.53 571.13 582.41C570.58 585.29 570.11 588.72 570.05 592.81C569.99 596.89 570.38 601.69 571.65 606.77C572.27 609.27 573.14 611.93 574.18 614.37C575.22 616.84 576.43 619.22 577.83 621.49C579.22 623.81 580.73 625.81 582.37 627.81C583.16 628.75 583.97 629.63 584.8 630.51L586.07 631.8L587.29 632.94C588.11 633.69 588.96 634.42 589.81 635.11C590.6 635.74 591.41 636.35 592.23 636.94L593.46 637.81L594.61 638.56C595.38 639.05 596.16 639.53 596.94 639.98C597.65 640.38 598.38 640.77 599.1 641.15L600.2 641.71L601.2 642.18C601.87 642.49 602.55 642.79 603.22 643.09L605.09 643.84C610.07 645.74 613.97 646.6 617.37 647.24C618.25 647.41 618.99 647.52 619.81 647.65L621.45 647.85L624.67 648.24C625.37 648.32 626.08 648.4 626.79 648.48L628.92 648.64C630.34 648.74 631.77 648.84 633.2 648.94C636.05 649.04 638.92 649.2 641.76 649.27C644.6 649.34 647.43 649.48 650.21 649.59C653.02 649.77 655.76 649.93 658.51 650.27C647.75 652.57 635.95 652.93 624.21 651.43L619.81 650.83L619.2 650.74L618.37 650.6C617.82 650.51 617.26 650.4 616.65 650.28C615.49 650.05 614.19 649.76 612.89 649.44C610.23 648.77 607.18 647.86 603.69 646.45C600.21 645.02 596.22 643.1 591.77 640.03C587.32 636.95 582.31 632.51 578.03 626.55C576.97 625.11 575.96 623.51 575.02 621.88C574.07 620.26 573.22 618.59 572.46 616.86C570.91 613.46 569.71 609.74 568.93 606.2C567.36 599.1 567.41 592.73 567.92 587.82C568.44 582.89 569.39 579.06 570.24 576.12ZM788.38 502.45C787.07 503.2 785.81 504.03 784.45 504.68C779.67 506.99 774.86 509.23 770.1 511.58L755.93 518.87C754.59 519.55 753.06 520.37 752.22 521.19C746.83 526.36 739.73 529.91 733.1 533.6C719.42 541.22 706.4 548.38 693.85 554.09C692.34 554.79 690.82 555.38 689.31 555.99L689 555.4C702.84 547.41 717.58 538.22 734.02 528.87C738.14 526.53 742.34 524.19 746.71 521.86C748.87 520.7 751.11 519.53 753.33 518.38C755.63 517.25 757.92 516.12 760.22 514.99C762.53 513.88 764.84 512.77 767.15 511.65L770.63 510L774.16 508.46C778.89 506.43 783.62 504.43 788.38 502.45ZM616.63 499.72C618.32 502.32 619.05 505.32 619.06 508.24C619.06 511.16 618.34 514.07 616.88 516.53C614.16 517.78 613.11 518.48 612.8 519.08C612.47 519.66 612.84 520.08 612.94 520.58C613.03 521.09 609.77 522.31 608.06 523.09L606.75 523.24C607.18 522.5 607.38 521.74 607.79 520.93C608.04 520.37 609.26 519.58 606.44 519.79C605.55 519.88 606.74 518.99 607.36 518.43C608.54 517.39 610.38 516.04 611.04 514.9C613.47 510.65 614.32 505.64 613.1 501.11C612.76 499.93 612.1 498.88 611.36 497.92L612.69 497.1C614.19 497.8 615.86 498.52 616.63 499.72ZM631.41 576.38C630.32 580.57 629.25 583.8 628.15 586.43C627.05 589.05 625.92 591.02 624.95 592.31C623.98 593.62 623.18 594.22 622.93 594.36C622.91 594.38 622.77 594.45 622.86 594.4L622.91 594.38L622.93 594.37L622.93 594.37C622.48 594.54 622.81 594.42 622.71 594.45L622.72 594.45L622.74 594.44L622.77 594.43C622.86 594.4 623.28 594.27 623.78 594.22C624.33 594.15 625.13 594.1 626.09 594.16C626.35 594.17 626.64 594.18 626.91 594.21L627.8 594.3C628.13 594.34 628.42 594.38 628.77 594.44C629.15 594.49 629.52 594.55 629.89 594.62L631.13 594.86L632.47 595.16C633.51 595.39 634.43 595.65 635.75 596L637.68 596.56C638.43 596.78 639.18 597.01 639.92 597.25L642.64 598.13L645.8 599.22C647.08 599.66 648.35 600.12 649.62 600.59L652.17 601.52L653.5 602.01L653.5 602.01C653.47 602.05 653.56 601.88 653.59 601.8L653.85 601.2C654.03 600.8 654.14 600.39 654.33 599.98C654.55 599.58 654.76 599.17 654.95 598.76C655.06 598.54 655.11 598.37 655.27 598.11L655.83 597.3C656.22 596.75 656.53 596.25 656.99 595.65L660.64 592.23L662.46 590.52C663.13 589.97 663.85 589.44 664.54 588.9L668.73 585.68C670.19 584.62 671.74 583.58 673.23 582.52C674.74 581.47 676.23 580.42 677.8 579.37C679.05 578.53 680.4 577.72 681.89 576.77C681.22 578.05 675.96 582.11 668.84 587.96C667.97 588.7 667.07 589.46 666.13 590.25C665.66 590.64 665.18 591.04 664.7 591.45C664.25 591.87 663.85 592.31 663.41 592.75C662.54 593.63 661.65 594.53 660.74 595.46C660.28 595.92 659.82 596.39 659.35 596.86C659.04 597.15 659.08 597.19 659 597.32L658.82 597.65C658.58 598.09 658.33 598.54 658.08 598.99C657.96 599.21 657.81 599.45 657.71 599.66L657.56 600.18C657.35 600.86 657.04 601.52 656.93 602.19C656.84 602.52 656.75 602.85 656.63 603.17C656.62 603.2 656.62 603.2 656.63 603.19L654.41 602.35L649.64 600.6C648.5 600.18 647.36 599.76 646.21 599.37L643.23 598.34C642.38 598.05 641.52 597.77 640.66 597.5L638.59 596.84L636.67 596.27C636.12 596.11 635.58 595.95 635.02 595.81L633.55 595.42C633.09 595.3 632.62 595.2 632.17 595.1C631.78 595 631.39 594.92 631 594.84L629.89 594.63C629.56 594.57 629.22 594.51 628.88 594.47L627.99 594.34C627.37 594.28 626.9 594.22 626.41 594.19C624.48 594.08 623.45 594.25 622.95 594.4L622.82 594.44L622.76 594.46L622.73 594.47L622.72 594.47C623.17 594.3 622.84 594.42 622.94 594.39L622.94 594.39C622.92 594.4 622.89 594.41 622.85 594.43C622.91 594.4 622.96 594.37 623.22 594.18C623.67 593.84 624.46 593.07 625.32 591.8C627.19 589.15 629.15 584.71 630.94 578.23C631.18 577.39 631.39 576.57 631.59 575.73C631.84 574.78 632.07 573.84 632.27 572.9C632.49 571.86 632.72 570.82 632.94 569.78C633.16 568.63 633.39 567.48 633.61 566.33C633.86 565.03 634.09 563.73 634.29 562.44L634.33 562.2C634.67 560.21 634.43 561.65 634.51 561.21L634.52 561.21L634.57 561.22L634.66 561.23L634.85 561.25C635.1 561.29 635.34 561.32 635.59 561.35C636.56 561.5 637.49 561.68 638.38 561.77C640.14 562.06 641.73 562.2 643 562.48L643.34 563.31C642.42 563.49 641.5 563.64 640.57 563.85C639.64 564.06 638.72 564.16 637.78 564.32C636.84 564.49 635.92 564.5 634.97 564.55L634.27 564.57L633.94 564.57L633.94 564.59L633.88 564.92L633.73 565.76L633.14 568.84C632.96 569.77 632.76 570.7 632.55 571.63L632.01 574.07L631.41 576.38ZM987.57 422.7C1010.88 418.97 1034.2 416.25 1057.34 413.77C1065.09 412.92 1072.62 412.01 1080.19 412.49C1080.81 412.54 1081.39 412.65 1082.3 412.78C1080.13 413.31 1073.2 414.23 1063.93 415.2C1059.3 415.66 1054.04 416.31 1048.51 416.88C1042.98 417.44 1037.14 418.12 1031.3 418.78C1007.95 421.38 984.52 424.5 980.19 424.31C983.46 423.56 985.49 423.01 987.57 422.7ZM728.03 451.9L726.76 452.55C725.66 446.96 723.48 441.5 720.02 436.83C716.58 432.16 711.82 428.39 706.36 426.11L705.71 426.49C706.56 427.02 707.31 427.71 708.1 428.36L707.34 428.82C703.86 426.67 699.99 425.2 696 424.32C692.01 423.44 687.9 423.13 683.82 423.18C681.83 423.2 679.83 423.31 677.84 423.48L678.4 422.96C680.41 422.78 682.42 422.67 684.43 422.65C685.59 422.63 686.76 422.63 687.92 422.7L689.19 421.81C688.43 421.54 687.87 421.11 686.84 421.11L686.27 421.11C681.88 421.12 677.16 421.83 673.11 422.2C668.28 422.65 663.54 423.34 658.75 424.02C653.95 424.66 649.15 425.45 644.26 426.23L644.55 425.94L655.57 423.61L666.59 421.46C673.93 420.09 681.35 418.99 688.8 419C693.5 419.02 698.22 419.5 702.77 420.76C707.3 422.04 711.6 424.18 715.33 427.1C719 430.09 722.05 433.88 724.12 438.18C725.17 440.32 726.02 442.56 726.67 444.86C727.31 447.16 727.76 449.52 728.03 451.9ZM748.9 548.84L747.19 548.59C751.39 544.48 755.37 540.49 758.67 536.89C762.14 533.2 765.11 529.86 767.99 526.55C773.59 520.02 778.35 514.03 782.79 507.93C787.22 501.84 791.21 495.59 794.84 488.69C798.47 481.81 801.52 474.18 803.85 465.71L804.49 465.77C802.59 474.13 799.95 481.72 796.65 488.56C793.37 495.43 789.67 501.7 785.4 507.83C781.12 513.98 776.42 520.03 770.66 526.64L768.42 529.16L767.3 530.42L766.08 531.73L763.63 534.35L761 537.09C757.53 540.71 753.34 544.73 748.9 548.84ZM801.12 414.33L800.35 415.3C799.58 413.76 798.68 412.35 797.94 410.7C796.08 406.5 794 402.26 791.49 398.29C791.13 397.73 790.58 396.81 790.37 396.72C788.17 395.8 786.49 393.9 784.88 391.73C783.26 389.56 781.71 387.12 779.88 385.08C775.61 380.38 770.93 376.43 766.24 373.27C761.53 370.15 756.8 367.79 752.18 365.84C750.58 365.21 749.06 364.68 747.51 364.11C746.31 363.7 745.16 363.2 744.05 362.76C742.93 362.3 741.83 361.83 740.66 361.46L741.18 361.13C745.29 362.1 749.24 363.36 753.46 364.76C758.06 366.49 762.74 368.64 767.42 371.48C768.59 372.17 769.75 372.99 770.91 373.74C772.07 374.57 773.24 375.4 774.39 376.28C776.67 378.11 778.95 380.05 781.13 382.22C782.23 383.28 783.28 384.44 784.35 385.57C785.37 386.77 786.4 387.95 787.38 389.2C789.35 391.69 791.21 394.31 792.88 397.06C796.27 402.55 798.99 408.41 801.12 414.33ZM985.32 547.58C984.36 548.25 981.46 549.24 977.44 550.36C975.43 550.92 973.14 551.51 970.68 552.11C968.23 552.74 965.61 553.42 962.92 554.06C960.22 554.71 957.46 555.34 954.71 555.93C951.98 556.55 949.29 557.18 946.72 557.72C941.58 558.8 936.94 559.58 933.65 560.01C950.23 554.09 967.05 548.01 985.32 547.58ZM575.37 530.97L573.58 531.01C574.73 529.7 575.37 528.61 575.19 527.41C575.1 526.82 574.81 526.21 574.23 525.62C573.66 525.03 572.82 524.49 571.81 524.11L574.91 522.78C575.9 523.33 576.67 524.02 577.15 524.75C577.64 525.48 577.81 526.21 577.78 526.9C577.72 528.32 576.78 529.54 575.37 530.97ZM707.55 551.12L703.99 554.22C702.8 555.25 701.45 556.34 700.19 557.4C697.7 559.51 694.84 561.73 692.12 563.92C686.43 568.34 680.36 572.82 674.27 577.31L671.99 578.99L669.77 580.68C668.3 581.81 666.78 582.93 665.34 584.08L661.21 587.56L660.17 588.43L659.65 588.87L659.2 589.33L657.4 591.17L655.6 593.01L654.7 593.93L654.47 594.16L654.4 594.28L654.26 594.52L653.17 596.43L652.9 596.9L652.77 597.29L652.5 598.05C652.33 598.55 652.06 599.03 651.98 599.54L650.75 599.22C650.8 598.97 650.83 598.71 650.89 598.45L651.13 597.69L651.58 596.11L652.52 594.18C652.69 593.85 652.8 593.55 653.03 593.19L654.65 591.42L657.87 587.88L661.57 584.54L663.4 582.88L665.38 581.26L669.31 578.03L677.32 571.66L681.27 568.51L685.08 565.39C687.66 563.31 689.96 561.29 692.34 559.27C693.55 558.25 694.58 557.29 695.7 556.31C696.78 555.34 697.94 554.34 698.94 553.4C701.82 552.63 703.98 552.07 707.55 551.12ZM714.38 537.62L715.14 538.53C706.99 544.49 698.49 549.39 690.01 553.27C681.53 557.16 673.12 559.92 665.21 561.79L665.09 561.02C680.32 556.3 696.83 547.85 714.38 537.62ZM627.28 594.27C628.86 594.43 630.85 594.75 633.61 595.44L635.86 596.04L638.54 596.83L641.79 597.87L643.67 598.5L645.89 599.27L648.41 600.16L651.29 601.21L654.96 602.57L663.01 605.64L663.13 605.4C663.2 605.24 663.27 605.08 663.33 604.91C663.4 604.74 663.41 604.57 663.51 604.4C663.61 604.23 663.7 604.06 663.79 603.88C663.88 603.7 663.95 603.52 664.02 603.34C664.05 603.29 664.04 603.26 664.09 603.19L664.25 602.97L664.57 602.53L665.21 601.66L665.53 601.22C665.52 601.21 665.65 601.1 665.77 601L666.11 600.7L666.79 600.1C668.62 598.51 670.36 596.9 672.26 595.34L678.54 590.85C680.69 589.36 683.04 587.9 685.27 586.43C694.43 580.55 703.95 574.54 712.45 568.5C720.97 562.46 728.24 556.55 734.53 551.02C735.06 550.56 735.77 550.11 736.88 549.68C730.6 555.68 723.03 562.25 713.82 568.98C704.7 575.7 694.1 582.38 684.15 588.89C682.92 589.71 681.62 590.52 680.43 591.35L676.96 593.84L673.48 596.33C672.45 597.2 671.47 598.09 670.46 598.97L667.45 601.61C666.77 602.18 666.87 602.18 666.72 602.36L666.38 602.82C665.95 603.42 665.35 604.15 665.34 604.4C665.26 604.58 665.17 604.75 665.07 604.92C665.02 605 664.96 605.09 664.92 605.17L664.84 605.42C664.78 605.58 664.71 605.74 664.63 605.9L664.5 606.13L664.48 606.16L664.47 606.17L664.47 606.18C670.09 608.33 656.84 603.27 658.09 603.75L657.84 603.65L653.83 602.12L647.14 599.68L642.36 598.03L638.7 596.85L635.76 595.99L633.33 595.35C630.38 594.62 628.32 594.31 626.72 594.19C625.13 594.07 624.06 594.16 623.41 594.27L623.01 594.35L622.77 594.42L622.72 594.44L622.71 594.44L622.7 594.44C622.8 594.4 622.47 594.53 622.92 594.36L622.91 594.36L622.88 594.37C622.87 594.37 622.79 594.41 622.83 594.39L622.9 594.35C622.88 594.37 622.77 594.42 622.84 594.38L622.88 594.36L622.9 594.35L622.91 594.35L622.91 594.35L622.91 594.35L622.91 594.35C622.46 594.52 622.79 594.4 622.69 594.43L622.69 594.43L622.69 594.43L622.69 594.43C622.78 594.39 622.8 594.39 622.92 594.36C623.07 594.32 623.13 594.31 623.35 594.26C624.09 594.17 625.35 594.07 627.28 594.27ZM664 548.58L663.8 547.88C667.34 546.92 671.06 545.73 674.92 544.32C678.79 542.88 682.81 541.24 686.94 539.4C695.19 535.75 703.95 531.29 713.11 526.42L713.56 527.02C712.24 528.3 702.53 533.87 692.02 538.77C686.76 541.22 681.28 543.49 676.39 545.18C671.47 546.89 667.17 548 664 548.58ZM681.21 612.9L681.95 613.34C676.89 610.48 688.85 617.24 687.62 616.54L687.62 616.54L687.62 616.54L687.63 616.53L687.65 616.51L687.68 616.48L687.74 616.42L687.87 616.3L688.39 615.81L688.45 615.75L688.48 615.72C688.51 615.7 688.45 615.74 688.6 615.63L689.79 614.7L692.18 612.84C693.79 611.6 695.33 610.35 696.99 609.13L702.59 605.65C704.48 604.49 706.24 603.33 708.33 602.18L720.53 595.22L726.72 591.68C728.79 590.5 730.77 589.26 732.8 588.05L738.83 584.4L744.55 580.67L747.41 578.81C747.88 578.5 748.38 578.19 748.82 577.88L750.13 576.94L755.35 573.18L757.96 571.3L760.3 569.44L764.98 565.73C765.46 565.34 766.03 564.95 766.54 564.57C767.03 564.2 767.55 563.82 768.08 563.45C769.14 562.71 770.24 561.97 771.27 561.22C770.55 562.31 770.22 563.37 769.02 564.52C768.41 565.14 767.56 565.79 766.82 566.43L764.53 568.36C762.97 569.65 761.52 570.94 759.84 572.24C758.08 573.55 756.32 574.85 754.57 576.16C752.79 577.46 751.06 578.77 749.01 580.05L743.8 583.42L741.19 585.11C740.31 585.67 739.36 586.21 738.45 586.76L732.93 590.05L730.17 591.7L727.35 593.3L716.1 599.64L710.56 602.75C709.65 603.27 708.68 603.78 707.82 604.3L705.26 605.86L700.15 608.98L698.87 609.76C698.66 609.89 698.43 610.02 698.24 610.15L697.69 610.57L695.51 612.24L691.15 615.58L689.77 616.64L689.53 616.83L689.06 617.21L689 617.26L688.97 617.28L688.96 617.29L681.94 613.32L681.61 613.12L680.93 612.74C680.47 612.49 679.98 612.25 679.47 612.02C679.15 611.88 679.11 611.85 678.97 611.78L678.58 611.6L678.45 611.54L678.92 611.76C679.09 611.84 679.13 611.88 679.51 612.04C680.1 612.3 680.67 612.59 681.21 612.9ZM559.73 557.84C559.8 557.41 560 556.63 560.36 555.58C560.74 554.55 561.27 553.24 561.94 551.7C562.28 550.93 562.66 550.09 563.05 549.2C563.26 548.76 563.47 548.3 563.68 547.83C563.89 547.38 564.14 546.82 564.35 546.45C565.2 544.81 566.17 543.01 567.24 541.08C567.51 540.6 567.78 540.11 568.06 539.61C568.14 539.44 568.11 539.45 568.14 539.36C568.18 539.22 568.21 539.09 568.25 538.94C568.32 538.65 568.43 538.38 568.53 538.11C568.74 537.56 569.02 537.03 569.33 536.54C570.58 534.58 572.43 533.32 573.94 533.02C572.91 534.04 571.8 535.25 570.76 536.76C570.24 537.52 569.75 538.36 569.31 539.28L568.99 539.99L566.18 544.83L565.39 546.2C565.12 546.68 564.88 547.06 564.59 547.66L562.9 551.01C561.81 553.28 560.67 555.45 559.73 557.84ZM604.65 529.82C607.58 527.88 610.5 525.98 613.18 523.81C613.43 523.6 614.52 523.29 615.21 523.01C615.62 523.07 616.46 523.05 616.33 523.2C614.78 524.9 613.21 526.52 610.54 528.17C608.45 529.47 605.2 530.77 602.57 532.03L601.74 532.03C602.74 531.27 603.55 530.54 604.65 529.82ZM663.45 558.52C663.02 559.63 658.87 561.8 654.38 563.17C649.88 564.59 645.09 565.1 643.09 564.6C645.83 562.03 648.86 561.09 652.31 560.5C655.74 559.91 659.64 559.59 663.45 558.52ZM580.59 501.16C583.19 499.53 585.37 498.5 587.25 497.88C589.14 497.24 590.72 496.95 592.31 496.79C590.18 498.34 586.88 499.93 584.42 500.9C581.95 501.84 580.19 502.18 580.59 501.16ZM658.92 663.17L659.3 664.21C652.59 664.97 645.6 665.22 638.58 665.16C631.54 665.07 624.4 664.46 617.3 663.5C614.6 663.09 611.42 662.5 607.72 661.51C604 660.51 599.7 659.13 594.54 656.72C589.42 654.29 583.29 650.79 576.79 644.92L575.6 643.82C575.21 643.45 574.82 643.08 574.4 642.65C573.57 641.81 572.76 640.96 571.97 640.08C570.42 638.39 568.81 636.39 567.34 634.36C565.87 632.37 564.46 630.13 563.17 627.87C561.87 625.62 560.74 623.25 559.71 620.84C555.47 611.05 554.09 600.52 554.27 592.76C554.3 590.7 554.41 588.96 554.57 587.13C554.73 585.48 554.94 583.73 555.18 582.29C555.42 580.73 555.68 579.41 555.97 578.06L556.39 576.2L556.83 574.46C557.43 572.18 558 570.38 558.55 568.74L559.31 566.54L559.63 565.67L559.93 564.9C560.73 562.85 561.55 560.81 562.4 558.78L563.68 558.53C562.83 560.55 562.01 562.58 561.21 564.62L560.62 566.15L560.29 567.04L559.92 568.08C559.41 569.55 558.83 571.33 558.26 573.34C557.67 575.44 557.08 577.81 556.57 580.59C556.05 583.45 555.62 586.62 555.43 590.35C555.26 594.13 555.33 598.3 555.95 602.94C556.57 607.6 557.72 612.56 559.55 617.51C560.45 619.94 561.5 622.3 562.65 624.62C563.81 626.91 565.12 629.14 566.52 631.29C567.91 633.38 569.39 635.36 570.96 637.28C572.47 639.08 574.05 640.78 575.7 642.42C582.14 648.68 588.39 652.47 593.6 655.08C598.87 657.68 603.23 659.13 607.01 660.21C610.78 661.26 613.98 661.89 616.77 662.34C617.6 662.48 617.87 662.5 618.35 662.56L619.68 662.73L622.34 663.05L625 663.36L627.66 663.57C629.43 663.7 631.2 663.85 632.97 663.93L638.25 664.09C645.24 664.16 652.21 663.91 658.92 663.17ZM983.32 532.73L983.16 531.9C997.85 529.45 1012.57 527.13 1027.45 525.34C1012.9 529.3 998.1 530.77 983.32 532.73ZM951.7 539.97C951.8 540.24 952.02 540.79 952.38 541.74C946.82 542.73 941.41 543.8 936.02 544.8C930.65 545.86 925.38 547.04 920.08 548.14L920.03 547.44C925.21 546.17 930.36 544.82 935.62 543.58C940.9 542.4 946.22 541.16 951.7 539.97ZM683.64 389.38L684.42 388.5C686.19 388.37 688.05 388.17 689.76 388.09L694.93 387.82L700.1 387.55C701.81 387.48 703.49 387.41 705.16 387.39C708.51 387.32 711.85 387.34 715.18 387.5C718.49 387.66 721.83 387.98 725.22 388.46L727.43 388.82C726.62 388.76 725.81 388.7 725 388.64C721.31 388.43 717.76 388.32 714.3 388.32C710.82 388.31 707.4 388.39 704.02 388.51C702.33 388.55 700.65 388.64 698.96 388.71L693.86 388.95L688.81 389.13C687.15 389.16 685.36 389.31 683.64 389.38ZM1172.13 522.11C1160.13 522.46 1148.15 522.76 1136.13 522.92C1140.56 521.62 1145.52 521.98 1150.25 521.73C1152.89 521.59 1155.53 521.51 1158.18 521.43C1160.83 521.37 1163.48 521.32 1166.13 521.21C1171.17 521 1176.18 520.6 1181.22 520.35L1181.73 521.17C1178.51 521.48 1175.33 521.99 1172.13 522.11ZM633.9 662.92L633.68 662.1C651.85 662.82 669.27 660.32 684.88 656.26L685.41 657.2C677.68 659.47 669.51 661.38 660.88 662.5C652.26 663.6 643.15 663.88 633.9 662.92ZM898.84 430.99L899.03 431.31L888.56 434.14L878.12 437.2C874.64 438.24 871.16 439.22 867.69 440.32L857.29 443.66L856.81 442.58L867.29 439.43C870.79 438.4 874.29 437.48 877.79 436.5L888.3 433.63L898.84 430.99ZM1229.01 492.33C1229.6 491.12 1245.11 491.67 1249.73 493.6C1242.8 494.07 1236.55 494.49 1229.93 494.94C1229.53 493.81 1229.31 493.17 1229.01 492.33ZM725.26 601.64L725.7 602.54C721.13 604.67 716.46 606.72 711.7 608.66C706.95 610.62 702.09 612.45 697.12 614.13L696.81 613.18C701.75 611.51 706.59 609.69 711.31 607.74C716.06 605.8 720.7 603.76 725.26 601.64ZM1055.39 544.4C1050.03 544.79 1044.88 545.17 1039.8 545.54C1034.72 545.92 1029.75 546.43 1024.66 546.87C1027.19 545.66 1033.26 544.53 1039.52 544.03C1045.8 543.55 1052.22 543.56 1055.39 544.4ZM618.41 521.44L615.84 521.89C618.22 519.52 620.18 516.82 621.32 513.75L623.79 513.07C622.71 516.21 620.79 519 618.41 521.44ZM803.15 424.99L804.2 424.68C806.84 438.61 806.39 452.51 803.84 464.59L803.5 464.67C805.79 452.64 806.01 438.81 803.15 424.99ZM627.51 506.29L625.15 507.17C624.81 503.67 623.41 500.08 620.74 497.14L623.24 495.74C625.92 498.86 627.25 502.62 627.51 506.29ZM899.25 549.25L899.16 548.16C902.9 547.27 906.67 546.46 910.42 545.61L916.05 544.34C917.93 543.93 919.83 543.58 921.72 543.19L921.78 544.36C919.91 544.93 918.01 545.37 916.14 545.83C914.27 546.29 912.4 546.69 910.52 547.06C906.77 547.84 902.98 548.43 899.25 549.25ZM851.14 450.34L851.58 451.5L838.76 455.71C836.63 456.43 834.48 457.09 832.36 457.85L825.99 460.13L825.68 459.44L832.02 457.04C834.13 456.24 836.26 455.54 838.39 454.78L851.14 450.34ZM590.66 493.93L589.36 495.36C586.28 496.71 583.36 498.05 580.62 499.39L581.92 497.59C584.69 496.37 587.61 495.15 590.66 493.93ZM656.14 624.02L655.81 622.99C665.49 621.96 674.8 619.83 683.74 617.19L684.12 618.04C675.18 620.74 665.85 622.91 656.14 624.02ZM710.33 505.53L710.59 505.73C704.09 509.4 697.92 512.85 692.07 515.94L691.54 515.08C697.47 512.22 703.74 508.99 710.33 505.53ZM591.83 489.17L592.89 487.82C594.65 487.02 596.56 486.06 598.28 485.42C600.08 484.75 601.66 484.34 603.36 483.82L602.19 484.99C598.58 486.39 595.13 487.77 591.83 489.17ZM744.87 594.71C738.87 598.18 732.75 601.61 726.31 604.98C726.61 603.96 729.21 602.11 732.74 600.14C736.27 598.18 740.74 596.11 744.87 594.71ZM604.13 525.39C606.53 525.43 606.63 525.88 606.01 526.39C605.39 526.91 604.08 527.5 603.46 528L602.05 528.12C602.87 527.19 603.57 526.3 604.13 525.39ZM1258.21 492.05C1263.61 490.11 1269.51 490.03 1274.74 492.26C1269.33 492.19 1263.91 492.12 1258.21 492.05ZM671.33 367.07L679.44 366.15L681.47 365.92L682.48 365.81C682.81 365.78 683.11 365.78 683.43 365.76L687.19 365.58L694.72 365.23L696.6 365.15C697.22 365.13 697.77 365.16 698.36 365.16L701.84 365.21C700.52 365.41 699.23 365.56 697.98 365.67C697.35 365.72 696.73 365.77 696.11 365.82C695.46 365.89 694.8 365.95 694.15 366.02C691.57 366.25 689.08 366.35 686.64 366.39C685.42 366.41 684.21 366.41 683 366.4L682.09 366.39L681.11 366.45L679.16 366.56C676.58 366.71 673.97 366.85 671.33 367.07ZM754.93 616.01C760.21 613.32 765.35 610.62 770.36 607.97L770.93 608.75C766.33 612.4 760.48 613.7 754.93 616.01ZM654.02 427.25L654.75 426.48C660.12 425.37 665.49 424.18 670.91 423.34L670.05 424.13C664.67 424.98 659.35 426.15 654.02 427.25ZM854.14 443.81L854.42 444.22L850.35 445.6L846.3 447.08L838.2 450.05L837.56 449.14L845.84 446.42L849.98 445.06L854.14 443.81ZM613.39 530.76C612.06 531.72 611.05 532.45 609.76 533.38C607.82 532.32 608.17 532.02 613.39 530.76ZM693.93 566.83L693.25 566.56L695.66 564.86L697.97 563.17C699.49 562.05 701.09 560.91 702.54 559.81C705.41 557.61 708.39 555.38 710.97 553.28L712.25 553.54C709.58 555.65 706.48 557.9 703.52 560.09L698.79 563.46L696.41 565.14L693.93 566.83Z" fill="#000000" fill-rule="nonzero" opacity="1" stroke="none" vectornator:layerName="path"/>
</g>
</svg>
