
<svg height="100%" stroke-miterlimit="10" style="fill-rule:nonzero;clip-rule:evenodd;stroke-linecap:round;stroke-linejoin:round;" version="1.1" viewBox="0 0 907.2 198.45" width="100%" xml:space="preserve" xmlns="http://www.w3.org/2000/svg" xmlns:vectornator="http://vectornator.io" xmlns:xlink="http://www.w3.org/1999/xlink">

<clipPath id="ArtboardFrame">
<rect height="198.45" width="907.2" x="0" y="0"/>
</clipPath>
<g clip-path="url(#ArtboardFrame)" id="레이어-1" vectornator:layerName="레이어 1">
<g opacity="1">
<path d="M785.438 11.7188C784.241 11.6903 783.382 11.9558 782.875 12.5625C727.187 17.0177 671.547 22.6776 616.219 30.4688C609.894 31.3594 603.567 32.3396 597.25 33.2812C590.931 34.2231 584.622 35.0924 578.312 36.0938C571.217 37.2198 564.147 38.4947 557.062 39.6875C520.127 45.9063 483.311 52.8438 446.375 59.0625C430.689 61.7035 414.963 64.2006 399.219 66.4688C384.683 68.5628 370.138 70.4953 355.594 72.5312C347.612 73.6486 339.633 74.845 331.656 76C331.23 75.6251 330.835 75.216 330.406 74.8438C325.253 70.3677 320.024 65.9663 314.656 61.75C308.206 56.6836 301.631 51.8157 294.969 47.0312C290.651 43.9303 286.204 40.9783 281.719 38.125C277.487 35.433 273.176 32.8483 268.812 30.375C266.223 28.9072 263.553 27.5815 260.875 26.2812C254.278 23.078 247.138 20.512 239.75 20.1562C231.26 19.7474 223.008 22.3203 215.219 25.4375C203.464 30.1417 192.325 36.6332 180.094 40.0938C156.837 46.6736 133.675 53.4945 110.688 60.9688C78.5046 71.4326 46.6976 82.9724 15.25 95.4688C11.2107 100.433 32.6374 124.56 63.0938 149.344C93.5501 174.128 121.523 190.183 125.562 185.219C164.779 169.629 204.529 155.722 244.812 143.281C248.469 146.235 252.048 149.269 255.781 152.125C261.419 156.437 267.242 160.515 273.094 164.531C277.056 167.251 281.125 169.794 285.219 172.312C289.523 174.96 293.942 177.39 298.469 179.625C303.327 182.023 308.41 184.056 313.75 185.062C317.865 185.838 322.073 185.94 326.25 185.906C331.36 185.865 336.356 185.518 341.375 184.5C348.2 183.116 354.815 180.915 361.562 179.219C364.427 178.499 367.316 177.91 370.219 177.375C404.538 171.051 439.096 166.132 473.656 161.344C485.027 159.768 496.419 158.263 507.781 156.625C523.597 154.345 539.368 151.811 555.125 149.156C592.449 142.868 629.645 135.851 666.969 129.562C673.631 128.44 680.296 127.247 686.969 126.188C693.248 125.19 699.555 124.313 705.844 123.375C712.134 122.437 718.42 121.45 724.719 120.562C779.832 112.798 835.247 107.194 890.719 102.75C894.777 97.8963 873.937 73.7732 844.156 48.875C818.098 27.0891 793.814 11.9177 785.438 11.7188Z" fill="#eeeaeb" stroke="none"/>
</g>
</g>
</svg>
