
<svg height="100%" stroke-miterlimit="10" style="fill-rule:nonzero;clip-rule:evenodd;stroke-linecap:round;stroke-linejoin:round;" version="1.1" viewBox="0 0 907.2 198.45" width="100%" xml:space="preserve" xmlns="http://www.w3.org/2000/svg" xmlns:vectornator="http://vectornator.io" xmlns:xlink="http://www.w3.org/1999/xlink">


<g opacity="1">
<path d="M609.438 5.65625C603 5.65177 596.589 5.85511 590.156 6.0625C586.888 6.16787 583.606 6.19963 580.344 6.4375C561.693 7.79749 543.15 10.0526 524.625 12.5625C517.15 13.5753 509.663 14.58 502.188 15.5938C498.564 16.0852 494.932 16.5105 491.312 17.0312C485.165 17.9155 479.065 18.9729 472.969 20.1562C463.959 21.9051 454.995 23.959 446.062 26.0625C431.614 29.4649 417.214 33.1078 402.906 37.0625C395.946 38.9863 389.012 40.9761 382.062 42.9375C369.863 46.3808 357.711 50.0888 345.594 53.8125C326.246 59.7584 306.973 66.0101 287.875 72.7188C276.358 76.7644 264.892 80.9683 253.594 85.5938C251.02 86.6477 248.419 87.6481 245.906 88.8438C245.528 89.0238 244.903 89.4411 244.5 89.625C243.508 90.0772 242.499 90.4397 241.5 90.875C240.905 91.134 240.318 91.4713 239.719 91.7188C239.667 91.7402 239.614 91.7599 239.562 91.7812C240.195 89.1481 240.673 86.4873 240.844 83.75C241.534 72.6659 237.483 61.8211 228.375 55.0938C219.787 48.7507 209.125 48.14 199.281 51.5938C196.74 52.4854 194.287 53.6194 191.875 54.8125C191.146 55.1729 190.402 55.5505 189.688 55.9375C189.385 56.1013 189.043 56.4074 188.719 56.5312C186.579 57.3474 184.334 57.9177 182.156 58.625C177.219 60.2284 172.314 61.8703 167.406 63.5625C146.356 70.8213 125.767 79.3707 105.812 89.25C91.1503 96.5093 76.799 104.678 63.2812 113.906C47.1913 124.89 33.1309 138.545 18.1562 150.938C34.3724 142.479 49.9967 132.727 66.8438 125.531C72.035 123.314 77.3562 121.352 82.6875 119.5C89.4725 117.143 96.3083 114.901 103.219 112.938C122.255 107.529 141.645 103.475 161.219 100.562C159.873 101.978 158.684 103.491 157.375 104.938C157.316 105.003 157.451 104.775 157.438 104.688C157.432 104.653 157.344 104.703 157.312 104.719C156.777 104.995 156.298 105.491 155.844 105.875C155.218 106.404 154.591 106.935 153.969 107.469C152.016 109.142 150.084 110.829 148.156 112.531C138.559 121.006 128.09 130.484 124.812 143.375C124.45 144.8 124.097 146.23 123.906 147.688C123.678 149.432 123.525 151.21 123.562 152.969C123.609 155.149 123.7 157.337 124.156 159.469C124.728 162.142 125.567 164.791 126.625 167.312C127.485 169.36 128.644 171.266 129.906 173.094C131.116 174.846 132.531 176.459 134 178C135.02 179.069 136.18 179.996 137.344 180.906C144.442 186.458 153.953 188.826 162.781 189.906C170.2 190.814 177.724 190.713 185.156 190.031C191.781 189.423 198.379 188.321 204.844 186.75C207.732 186.048 210.553 185.168 213.406 184.344C213.427 184.338 212.889 184.7 213.062 184.688C214.939 184.55 216.834 184.088 218.688 183.781C221.379 183.335 224.089 182.878 226.781 182.438C235.515 181.009 244.242 179.691 252.969 178.219C258.66 177.258 264.389 176.38 270.031 175.156C271.645 174.806 273.207 174.323 274.812 173.938C277.82 173.215 280.924 172.757 283.969 172.219C299.872 169.409 315.935 167.336 331.969 165.438C363.407 161.714 394.966 158.814 426.562 156.844C448.211 155.494 469.862 154.121 491.562 154.125C497.421 154.126 503.242 154.514 509.094 154.719C521.523 155.153 533.943 155.693 546.375 156.031C556.749 156.314 567.155 156.404 577.531 156.312C581.401 156.278 585.259 156.324 589.125 156.156C599.162 155.721 609.209 155.019 619.219 154.188C622.908 153.881 626.604 153.677 630.281 153.25C633.88 152.832 637.47 152.278 641.062 151.812C644.07 151.423 647.099 151.129 650.094 150.656C653.09 150.183 656.084 149.514 659.062 148.938C663.184 148.14 667.363 147.484 671.438 146.469C673.807 145.878 676.171 145.16 678.531 144.531C682.643 143.436 686.769 142.412 690.844 141.188C693.226 140.472 695.576 139.592 697.938 138.812C702.1 137.439 706.301 136.198 710.438 134.75C715.864 132.851 721.211 130.644 726.594 128.625C737.664 124.473 748.742 120.424 759.938 116.625C762.467 115.767 764.998 114.909 767.531 114.062C769.435 113.426 771.318 112.706 773.25 112.156C776.467 111.242 779.758 110.507 783 109.688C786.577 108.783 790.141 107.766 793.75 107C795.078 106.718 796.47 106.578 797.812 106.375C800.149 106.022 802.476 105.668 804.812 105.312C808.198 104.797 811.595 104.176 815 103.812C819.125 103.372 823.3 103.177 827.438 102.875C830.244 102.67 833.063 102.359 835.875 102.25C839.075 102.126 842.267 102.185 845.469 102.156C849.084 102.124 852.729 102.044 856.344 102.094C858.916 102.129 861.493 102.312 864.062 102.438C868.558 102.658 873.037 102.883 877.531 103.125C888.131 103.925 897.387 96.0059 898.188 85.4062C898.988 74.8066 891.037 65.5502 880.438 64.75C875.899 64.3088 871.353 63.8566 866.812 63.4375C864.215 63.1977 861.621 63.0346 859.031 62.7188C854.65 62.1843 850.251 61.5204 845.875 60.9375C843.364 60.603 840.845 60.3624 838.344 59.9688C834.802 59.4115 831.278 58.638 827.75 58C824.28 57.3726 820.796 56.8394 817.344 56.125C813.907 55.4138 810.511 54.4852 807.094 53.6875C803.409 52.8275 799.646 52.1076 796 51.0938C793.645 50.4388 791.33 49.6133 789 48.875C787.01 48.2443 785.022 47.6306 783.031 47C780.417 46.1715 777.748 45.4592 775.156 44.5625C771.219 43.2002 767.352 41.6157 763.438 40.1875C749.974 35.2752 736.606 30.1169 723.125 25.25C719.361 23.8911 715.628 22.4593 711.844 21.1562C708.084 19.8613 704.193 18.8568 700.375 17.75C696.633 16.6653 692.93 15.4373 689.156 14.4688C685.39 13.502 681.519 12.7954 677.719 11.9688C673.99 11.1574 670.274 10.1762 666.5 9.59375C662.713 9.00924 658.864 8.60717 655.062 8.125C651.927 7.72729 648.803 7.23605 645.656 6.9375C642.533 6.64116 639.382 6.55726 636.25 6.375C632.418 6.15206 628.586 5.89274 624.75 5.75C619.662 5.56064 614.529 5.65979 609.438 5.65625ZM210.406 93.3125C210.655 93.2814 210.993 93.1635 211.25 93.3125C211.421 93.4117 210.975 93.6139 210.781 93.6562C210.514 93.7148 210.242 93.7571 209.969 93.7812C209.348 93.8361 208.743 93.8046 208.125 93.75C208.886 93.5808 209.633 93.4092 210.406 93.3125ZM189.344 162.062C188.984 163.002 188.712 163.982 188.219 164.844C188.034 165.166 187.769 165.563 187.5 165.844C187.432 165.914 187.236 166.034 187.219 165.938C187.128 165.43 187.899 164.338 188.125 163.938C188.491 163.289 188.939 162.689 189.344 162.062Z" fill="#eeeaeb" stroke="none"/>
</g>

</svg>
