<?xml version="1.0" encoding="UTF-8" standalone="no"?>
<!DOCTYPE svg PUBLIC "-//W3C//DTD SVG 1.1//EN" "http://www.w3.org/Graphics/SVG/1.1/DTD/svg11.dtd">
<!-- Created with Vectornator (http://vectornator.io/) -->
<svg height="100%" stroke-miterlimit="10" style="fill-rule:nonzero;clip-rule:evenodd;stroke-linecap:round;stroke-linejoin:round;" version="1.1" viewBox="0 0 14400 14400" width="100%" xml:space="preserve" xmlns="http://www.w3.org/2000/svg" xmlns:vectornator="http://vectornator.io" xmlns:xlink="http://www.w3.org/1999/xlink">
<defs/>
<g id="무제" vectornator:layerName="무제">
<g opacity="1" vectornator:layerName="g">
<path d="M6728.37 7299.41C6727.01 7299.19 6725.65 7298.89 6724.31 7298.62C6722.99 7298.34 6721.75 7298.03 6720.85 7297.64C6713.94 7294.75 6706.93 7292.07 6699.97 7289.08C6693.07 7286.07 6686.4 7282.64 6680.61 7278.39C6675.88 7274.81 6671.08 7270.92 6666.78 7266.34C6662.46 7261.79 6658.57 7256.58 6655.51 7250.84C6651.18 7242.74 6648.32 7233.65 6647.06 7224.38C6645.8 7215.1 6646.07 7205.68 6647.6 7196.54C6650.65 7178.25 6658.66 7161.03 6670.18 7147.3L6671.63 7145.51C6672.12 7144.91 6672.65 7144.36 6673.16 7143.78L6676.25 7140.35C6678.44 7138.16 6680.54 7135.92 6682.88 7133.86C6685.11 7131.72 6687.57 7129.77 6689.96 7127.76L6693.7 7124.88C6694.33 7124.41 6694.94 7123.92 6695.58 7123.45L6697.53 7122.08C6702.66 7118.38 6708.18 7115 6713.93 7111.82L6718.28 7109.46L6722.78 7107.22C6724.26 7106.46 6725.82 7105.76 6727.37 7105.06C6728.93 7104.37 6730.43 7103.63 6732.04 7102.98C6734.68 7101.9 6737.24 7100.76 6739.96 7099.76L6743.99 7098.21C6745.34 7097.7 6746.73 7097.23 6748.1 7096.73C6749.48 7096.25 6750.82 7095.73 6752.24 7095.29L6756.47 7093.94L6764.91 7091.25L6773.53 7088.83C6776.41 7088.04 6779.26 7087.2 6782.17 7086.5C6787.96 7085.05 6793.81 7083.53 6799.39 7082.35C6801.1 7081.96 6802.88 7081.56 6804.71 7081.14C6805.61 7080.95 6806.53 7080.75 6807.45 7080.56C6808.17 7080.44 6808.9 7080.32 6809.63 7080.23C6812.56 7079.84 6815.55 7079.73 6818.46 7080.31C6816.01 7081.16 6813.56 7081.97 6811.11 7082.74C6809.82 7083.14 6808.53 7083.53 6807.24 7083.92C6805.68 7084.38 6804.13 7084.85 6802.57 7085.31C6799.45 7086.24 6796.4 7087.06 6793.25 7088.01C6790.1 7088.95 6786.96 7089.89 6783.83 7090.82C6771.42 7094.64 6759.25 7098.65 6748.79 7103.64C6750.32 7103.04 6751.91 7102.5 6753.46 7101.93C6755.02 7101.36 6756.58 7100.8 6758.19 7100.29C6761.39 7099.25 6764.58 7098.21 6767.76 7097.17C6770.95 7096.15 6774.24 7095.26 6777.47 7094.3L6782.33 7092.89L6787.23 7091.58C6790.48 7090.72 6793.78 7089.8 6796.98 7089C6800.17 7088.21 6803.37 7087.43 6806.55 7086.64L6808.89 7086.07L6810.82 7085.63L6814.68 7084.75C6817.25 7084.16 6819.82 7083.56 6822.4 7083.02C6826.49 7082.13 6830.56 7081.15 6834.64 7080.22L6840.75 7078.79L6846.88 7077.44L6849.32 7076.91C6850.14 7076.73 6850.87 7076.56 6852.01 7076.35L6858.3 7075.15L6864.62 7073.94L6871.02 7072.86L6877.44 7071.78C6879.58 7071.42 6881.73 7071.14 6883.88 7070.82C6888.18 7070.21 6892.5 7069.54 6896.8 7069.06C6900.06 7068.67 6903.34 7068.38 6906.6 7068.12C6909.84 7067.92 6913.07 7067.72 6916.32 7067.4L6918.94 7067.14L6920.25 7067.01L6921.51 7066.97L6926.57 7066.8L6931.65 7066.63C6932.49 7066.62 6933.37 7066.54 6934.17 7066.58L6936.56 7066.69L6946.15 7067.16C6949.21 7067.45 6952.18 7067.83 6955.21 7068.18C6961.16 7069.03 6966.82 7069.87 6972.52 7072.36C6975.35 7073.6 6978.14 7075.35 6980.67 7077.49C6983.19 7079.63 6985.43 7082.2 6987.22 7084.94C6989.84 7088.94 6991.63 7093.24 6992.89 7097.55C6994.15 7101.87 6994.88 7106.24 6995.29 7110.65C6995.7 7115.06 6995.75 7119.51 6995.51 7124.02L6995.41 7125.71L6995.35 7126.56C6995.34 7126.7 6995.34 7126.84 6995.31 7126.99L6995.19 7127.46L6994.26 7131.22L6992.4 7138.76C6988.76 7153.41 6985.12 7168.06 6981.48 7182.71L6975.95 7204.9L6974.56 7210.47L6973.87 7213.26L6973.53 7214.62L6973.3 7215.43C6972.69 7217.56 6972.41 7218.98 6972.34 7219.66C6972.33 7219.75 6972.32 7219.79 6972.28 7219.86C6972.26 7219.89 6972.23 7219.93 6972.22 7219.91L6972.03 7219.89C6970.73 7219.77 6969.42 7219.65 6968.11 7219.53C6967.52 7219.49 6966.93 7219.46 6966.33 7219.44C6966.05 7219.43 6965.7 7219.43 6965.47 7219.42L6964.75 7219.38L6965.59 7219.42L6966.63 7219.44C6967.32 7219.46 6968.01 7219.51 6968.69 7219.57L6969.7 7219.67L6970.92 7219.77L6971.53 7219.83L6971.51 7219.82L6971.46 7219.81C6971.38 7219.82 6971.37 7219.69 6971.32 7219.6C6971.27 7219.53 6971.27 7219.36 6971.25 7219.2C6971.21 7218.55 6971.37 7217.5 6971.7 7216.15C6971.92 7215.2 6972.2 7214.34 6972.69 7212.23L6974.02 7206.78L6976.69 7195.9C6978.46 7188.67 6980.21 7181.46 6981.84 7174.34C6984.25 7163.79 6986.52 7153.4 6988.78 7143.17L6990.47 7135.52L6991.32 7131.71L6991.75 7129.81L6991.96 7128.86C6992.03 7128.54 6992.12 7128.22 6992.11 7127.94C6992.41 7123.34 6992.44 7118.77 6992.14 7114.22C6991.8 7108.97 6991.03 7103.75 6989.49 7098.58C6988.72 7096 6987.75 7093.43 6986.51 7090.92C6985.25 7088.43 6983.73 7085.99 6981.87 7083.77C6980.01 7081.56 6977.84 7079.59 6975.5 7077.97C6973.15 7076.36 6970.66 7075.12 6968.15 7074.24C6963.12 7072.45 6958.11 7071.81 6952.87 7071.17L6948.22 7070.7C6944.66 7070.25 6940.69 7070.17 6936.85 7070.01L6933.96 7069.91C6932.98 7069.9 6932.07 7069.8 6931.02 7069.88C6928.98 7069.98 6926.94 7070.09 6924.91 7070.19L6919.22 7070.55C6917.31 7070.72 6915.32 7071.03 6913.39 7071.27C6909.49 7071.81 6905.66 7072.25 6901.78 7072.9C6897.94 7073.5 6894.1 7074.09 6890.26 7074.69C6886.43 7075.33 6882.62 7075.93 6878.82 7076.48C6873.74 7077.29 6868.66 7078.09 6863.57 7078.9L6856.01 7080.2L6852.23 7080.84C6851.54 7080.95 6851.12 7081.04 6850.59 7081.14L6849.06 7081.42C6844.99 7082.18 6840.9 7082.9 6836.84 7083.73L6830.74 7084.93L6824.66 7086.22C6821.67 7086.84 6818.69 7087.49 6815.72 7088.19L6811.26 7089.2L6810.14 7089.45L6808.93 7089.74L6806.24 7090.4C6802.64 7091.3 6799.08 7092.12 6795.44 7093.07L6784.48 7095.99L6773.63 7099.12C6771.81 7099.63 6770.03 7100.19 6768.26 7100.77L6762.94 7102.49C6755.81 7104.74 6748.95 7107.3 6742.32 7110.06C6727.99 7116.07 6715 7123.21 6703.7 7131.91C6702.57 7132.72 6701.57 7133.61 6700.63 7134.46C6699.7 7135.33 6698.82 7136.15 6698.14 7137.02C6696.79 7138.78 6695.89 7140.41 6695.95 7141.99C6709.37 7130.57 6725.26 7122.17 6742.39 7115.46C6750.98 7112.14 6759.85 7109.19 6768.98 7106.66C6771.25 7106.02 6773.5 7105.34 6775.79 7104.73L6782.67 7102.95C6787.23 7101.73 6791.87 7100.7 6796.46 7099.59C6796 7100.25 6795.97 7100.64 6795.61 7100.76C6780.83 7105.7 6766.64 7110.92 6753.61 7116.8C6740.56 7122.69 6728.61 7129.28 6717.92 7137.24L6718.35 7137.48C6721.43 7135.87 6724.59 7134.41 6728.17 7132.87C6726.57 7134.38 6720.12 7138.13 6712.24 7144.33C6710.23 7145.83 6708.25 7147.62 6706.12 7149.42C6705.1 7150.38 6704.06 7151.36 6703.01 7152.35C6701.93 7153.32 6700.96 7154.45 6699.91 7155.51C6699.4 7156.05 6698.86 7156.58 6698.35 7157.15C6697.86 7157.73 6697.36 7158.31 6696.86 7158.89C6695.86 7160.05 6694.83 7161.21 6693.89 7162.47C6691.98 7164.94 6690.2 7167.57 6688.58 7170.31C6685.36 7175.79 6682.8 7181.66 6681.01 7187.43C6680.12 7190.32 6679.41 7193.18 6678.87 7195.95C6678.36 7198.72 6677.98 7201.4 6677.77 7203.92C6676.9 7214.06 6678.45 7221.51 6678.42 7223.69C6677.67 7220.86 6677.15 7218.05 6676.81 7215.23C6676.48 7212.42 6676.38 7209.61 6676.41 7206.8C6676.52 7201.18 6677.29 7195.52 6678.81 7189.72C6678.16 7191.04 6677.26 7193.65 6676.44 7197.3C6675.65 7200.94 6674.96 7205.64 6675.02 7211.03C6675.08 7216.4 6675.84 7222.49 6677.91 7228.55C6679.96 7234.59 6683.28 7240.6 6687.78 7245.56C6692.18 7250.63 6697.63 7254.62 6703.2 7257.66C6708.77 7260.72 6714.48 7262.86 6719.75 7264.39C6730.33 7267.4 6739.16 7268.28 6743.12 7268.3C6733.44 7266.7 6724.32 7264.64 6715.76 7261.39C6711.48 7259.77 6707.36 7257.88 6703.46 7255.57C6699.57 7253.25 6695.92 7250.52 6692.65 7247.36L6693.55 7246.99C6696.83 7249.75 6700.57 7252.12 6704.15 7254.17C6709.06 7257.08 6714.28 7259.35 6719.65 7261.13C6725.03 7262.92 6730.53 7264.28 6736.13 7265.37C6741.72 7266.47 6747.41 7267.28 6753.18 7268C6758.95 7268.72 6764.8 7269.3 6770.73 7269.71C6790.66 7271.09 6811.16 7270.72 6831.26 7269.18L6835.78 7268.81L6840.13 7268.33L6844.39 7267.84L6848.63 7267.27C6850.19 7267.05 6851.7 7266.69 6853.23 7266.37L6853.02 7265.95L6845.06 7266.17C6842.4 7266.2 6839.74 7266.23 6837.08 7266.26C6845.1 7264.85 6852.9 7263.23 6860.83 7261.45C6868.74 7259.62 6876.74 7257.58 6885.05 7255.23C6881.89 7255.19 6880.68 7255.02 6879.45 7255.19C6874.66 7255.85 6871.4 7255.64 6871.39 7253.26C6871.39 7252.83 6868.64 7252.42 6867.12 7252.58C6859.44 7253.38 6851.72 7254.1 6844.01 7254.8L6837.88 7255.31C6835.81 7255.49 6834.06 7255.61 6832.17 7255.73C6828.45 7256 6824.72 7256.18 6820.99 7256.36C6813.53 7256.65 6806.06 7256.82 6798.62 7256.71C6795.99 7256.68 6793.57 7256.21 6791.09 7255.95L6791.72 7254.97C6804.49 7254.53 6816.86 7253.59 6828.8 7252.12L6828.88 7251.28C6824.22 7251.27 6819.65 7251.08 6815.07 7251.03C6796.66 7250.79 6778.71 7249.41 6761.58 7246.6C6755.05 7245.43 6748.76 7243.78 6742.99 7241.14C6742.25 7240.79 6742.35 7240.07 6742.11 7239.46C6748.26 7240.79 6753.11 7241.87 6758.21 7242.53C6765.3 7243.42 6772.15 7243.77 6778.69 7244.4C6785.24 7245.02 6791.51 7245.72 6797.76 7246.79C6801.51 7247.43 6805.81 7247.87 6811.38 7246.13C6802.89 7245.83 6795.64 7245.3 6788.52 7244.58L6789.5 7243.31C6798.24 7243.23 6806.77 7242.85 6815.23 7242.16C6819.46 7241.82 6823.67 7241.39 6827.87 7240.89C6829.95 7240.62 6832.05 7240.35 6834.17 7240.08C6836.91 7239.71 6839.68 7239.34 6842.47 7238.96C6840.93 7239.02 6839.4 7239.03 6837.91 7239.07C6837.16 7239.08 6836.42 7239.1 6835.68 7239.11C6835.1 7239.11 6834.52 7239.11 6833.95 7239.11C6831.88 7239.05 6829.87 7238.99 6827.89 7238.93C6823.97 7238.78 6820.27 7238.61 6816.55 7238.52C6806.3 7238.26 6797.69 7236.08 6792.65 7232.22C6792.31 7231.96 6792.39 7231.48 6792.27 7230.99C6796.25 7230.41 6799.71 7229.81 6803.22 7229.12C6802.97 7228.69 6802.98 7228.39 6802.75 7228.33C6799.43 7227.34 6796.11 7226.35 6792.78 7225.36C6789.5 7224.45 6786.19 7223.64 6782.44 7222.83C6778.75 7222.03 6775.38 7220.74 6772.43 7218.85C6770.78 7217.78 6769.21 7216.57 6767.86 7215.13C6766.52 7213.68 6765.34 7212.06 6764.44 7210.27C6762.64 7206.68 6762.04 7202.49 6762.5 7198.39C6763.09 7192.9 6765.44 7187.46 6769.58 7183.16C6771.36 7181.29 6773.26 7179.61 6775.18 7178.08C6776.16 7177.33 6777.12 7176.59 6778.12 7175.94L6779.59 7174.95L6781.07 7174.02C6783.03 7172.81 6784.95 7171.71 6786.83 7170.72C6788.7 7169.71 6790.53 7168.81 6792.3 7167.92C6794.95 7166.6 6797.84 7165.58 6800.74 7164.75C6801.76 7164.45 6803.08 7164.42 6804.83 7164.24C6804.53 7164.96 6804.62 7165.44 6804.27 7165.6C6801.01 7167.22 6798.32 7169.12 6795.1 7170.97C6792.91 7172.23 6790.6 7173.6 6788.39 7175.23C6786.19 7176.85 6784.08 7178.73 6782.5 7180.93C6779.81 7184.66 6778.02 7189.09 6777.59 7193.68C6777.38 7195.97 6777.56 7198.29 6778.16 7200.49C6778.76 7202.69 6779.84 7204.75 6781.34 7206.46C6782.87 7208.23 6784.92 7209.61 6787.2 7210.56C6789.48 7211.52 6791.95 7212.13 6794.42 7212.5C6795.73 7212.71 6797.98 7212.1 6799.92 7211.75C6801.69 7208.74 6799.87 7208.67 6797.57 7208.57C6795.29 7208.47 6792.88 7208.23 6790.88 7207.53C6788.89 7206.83 6787.34 7205.64 6787.01 7203.86C6786.75 7202.5 6786.22 7201.15 6785.58 7199.84C6784.19 7196.96 6783.73 7193.7 6783.97 7190.55C6784.22 7187.39 6785.15 7184.29 6786.69 7181.52C6786.81 7181.29 6786.83 7181.06 6787.02 7180.85C6788.54 7179.2 6790.12 7177.71 6792.22 7176.55C6794.68 7175.18 6798.06 7174.5 6800.05 7173.51C6803.86 7171.62 6807.28 7169.95 6811.19 7168.75C6812.05 7168.49 6813.34 7168.66 6814.37 7168.67L6814.75 7169.16C6814.32 7169.94 6813.94 7170.72 6813.59 7171.78C6817.49 7171.98 6819.56 7171.7 6821.53 7170.64C6822.4 7170.16 6823.36 7169.74 6824.4 7169.53L6824.79 7169.46L6825.31 7169.39C6825.67 7169.35 6826.03 7169.32 6826.39 7169.31C6826.75 7169.3 6827.12 7169.32 6827.49 7169.35C6827.67 7169.37 6827.86 7169.39 6828.04 7169.42L6828.18 7169.44L6828.57 7169.41L6829.35 7169.36L6828.39 7169.72C6828.18 7169.79 6828.22 7169.8 6828.15 7169.84L6828 7169.94L6827.41 7170.33C6827.02 7170.58 6826.63 7170.81 6826.25 7171.03L6825.67 7171.35C6825.46 7171.46 6825.39 7171.54 6825.24 7171.63L6824.49 7172.16C6821.5 7174.33 6819.37 7176.32 6818.5 7178.4C6818.39 7178.63 6819.43 7179.58 6820.4 7180.18C6821.28 7180.73 6822.89 7181.52 6823.67 7181.89C6824.52 7182.27 6825.04 7182.42 6825.26 7182.4C6826.69 7182.3 6827.86 7182.33 6828.83 7182.32C6829.07 7182.32 6829.33 7182.43 6829.56 7182.42C6829.85 7182.38 6830.12 7182.31 6830.37 7182.18C6830.5 7182.12 6830.62 7182.04 6830.73 7181.94C6830.79 7181.89 6830.84 7181.84 6830.9 7181.78C6831 7181.71 6830.87 7181.69 6831.35 7181.53C6834.44 7180.36 6837.58 7179.3 6840.77 7178.4C6843.97 7177.53 6847.19 7176.72 6850.44 7176.02C6853.69 7175.35 6856.95 7174.64 6860.22 7174.05L6865.11 7173.1L6866.33 7172.85L6866.94 7172.72C6867.02 7172.7 6867.2 7172.67 6867.19 7172.67L6867.23 7172.65C6867.32 7172.61 6867.42 7172.56 6867.51 7172.51C6867.75 7172.38 6868 7172.32 6868.25 7172.29C6868.46 7172.27 6868.64 7172.29 6868.83 7172.33C6869.2 7172.4 6869.54 7172.54 6869.88 7172.55C6871.09 7172.59 6872.2 7172.66 6873.24 7172.76L6873.52 7172.79C6873.83 7172.82 6873.66 7173.36 6874.63 7172.78C6875.95 7171.99 6877.5 7171.36 6878.94 7170.98C6880.39 7170.6 6881.78 7170.43 6882.99 7170.5C6883.26 7170.51 6883.85 7170.34 6884.37 7170.19C6885.95 7169.75 6886.79 7169.92 6886.99 7170.41C6887.09 7170.66 6887.03 7170.97 6886.82 7171.37C6886.6 7171.79 6886.25 7172.26 6885.78 7172.74C6884.91 7173.63 6883.83 7174.55 6882.46 7175.33C6881.09 7176.12 6879.43 7176.76 6877.38 7177.28C6876.89 7178.29 6877.21 7179.18 6877.16 7180.3C6877.14 7180.85 6877.03 7181.43 6876.73 7181.97C6876.58 7182.24 6876.38 7182.51 6876.11 7182.75C6875.98 7182.87 6875.83 7182.98 6875.67 7183.09C6875.59 7183.14 6875.5 7183.19 6875.41 7183.24C6875.29 7183.37 6875.32 7183.03 6874.92 7184.02L6875.02 7183.42L6875.04 7183.28L6875.03 7183.26L6875 7183.22L6874.89 7183.07L6874.69 7182.79C6874.56 7182.61 6874.45 7182.44 6874.35 7182.28C6874.16 7181.96 6874.02 7181.68 6873.92 7181.42C6873.73 7180.9 6873.72 7180.46 6873.76 7180.02C6873.83 7179.18 6874.15 7178.27 6873.37 7177.8L6872 7182.1L6871.17 7181.9C6870.87 7181.56 6870.55 7181.28 6870.32 7181.1C6870 7181.17 6869.66 7181.23 6869.33 7181.26L6868.85 7181.29C6868.41 7182.17 6867.65 7184.14 6867.01 7185.87C6865.38 7190.39 6863.33 7196.61 6862.18 7205.07C6861.67 7209.16 6861.26 7213.45 6861.25 7218.7C6861.25 7220.01 6861.25 7221.23 6861.3 7222.61C6861.36 7224.03 6861.44 7225.45 6861.55 7226.87L6861.73 7229L6862 7231.32C6862.2 7232.87 6862.42 7234.41 6862.68 7235.95C6862.95 7237.53 6863.31 7239.25 6863.68 7240.88C6864.07 7242.55 6864.43 7244.11 6864.96 7245.89C6865.98 7249.36 6867.09 7252.71 6868.59 7256.23C6869.32 7257.96 6870.07 7259.67 6870.91 7261.37C6871.76 7263.08 6872.66 7264.76 6873.6 7266.42C6875.46 7269.77 6877.6 7272.87 6879.85 7275.94C6882.07 7279 6884.61 7281.89 6887.25 7284.67C6889.91 7287.5 6892.65 7289.93 6895.53 7292.3C6898.47 7294.74 6901.26 7296.67 6904.2 7298.58L6906.42 7299.97L6907.53 7300.64L6908.57 7301.23C6909.97 7302.01 6911.38 7302.75 6912.8 7303.47L6914.95 7304.53L6916.03 7305.04L6917.02 7305.48C6918.34 7306.05 6919.67 7306.6 6921.01 7307.13L6923.02 7307.9C6923.69 7308.15 6924.39 7308.41 6924.97 7308.6C6926.19 7309 6927.41 7309.39 6928.64 7309.76C6929.86 7310.12 6931.13 7310.5 6932.31 7310.8C6933.42 7311.08 6934.53 7311.34 6935.65 7311.59C6936.77 7311.84 6937.89 7312.08 6939.01 7312.3C6940.06 7312.5 6941.04 7312.66 6942.06 7312.82C6950.8 7314.2 6957.41 7314.17 6962.92 7313.73C6968.38 7313.26 6972.63 7312.28 6976.23 7311.05C6972.19 7311.36 6967.8 7311.57 6962.85 7311.54C6957.83 7311.48 6952.27 7311.18 6945.94 7310.27C6939.49 7309.3 6932.03 7307.68 6923.6 7304.45C6921.4 7303.58 6919.3 7302.7 6917.11 7301.68C6914.78 7300.55 6912.49 7299.34 6910.24 7298.06C6909.16 7297.46 6907.89 7296.65 6906.73 7295.9C6905.55 7295.13 6904.38 7294.34 6903.22 7293.53C6900.96 7291.98 6898.57 7290.05 6896.31 7288.09C6897.92 7289.13 6899.41 7290.1 6900.82 7291.01C6902.35 7291.96 6903.88 7292.85 6905.49 7293.79C6907.08 7294.71 6908.79 7295.7 6910.42 7296.56C6912 7297.38 6913.63 7298.21 6915.29 7299.03C6918.2 7300.5 6920.68 7301.49 6923.34 7302.52C6926.09 7303.59 6928.37 7304.28 6930.82 7305C6933.36 7305.75 6935.45 7306.22 6937.67 7306.7L6939.33 7307.04L6940.16 7307.21L6940.91 7307.34L6943.91 7307.82C6951.85 7308.97 6958.34 7309.11 6964 7308.96C6968.61 7308.84 6972.51 7308.48 6976.16 7308.08L6978.7 7307.77L6980.41 7307.52L6983.83 7307.03C6988.4 7306.39 6992.95 7305.66 6997.5 7304.95C7006.6 7303.49 7015.67 7301.87 7024.72 7300.15C7049.29 7295.42 7073.51 7289.33 7097.65 7282.95C7111.35 7279.35 7125.44 7275.37 7138.22 7271.65C7151.04 7267.94 7163 7264.48 7174.02 7261.7C7191.09 7257.35 7206.14 7254.71 7218.37 7254.77C7220.2 7254.8 7221.94 7254.96 7223.72 7255.03C7225.4 7255.25 7227.03 7255.51 7228.68 7255.7C7230.22 7256.07 7231.75 7256.39 7233.29 7256.68L7235.58 7257.27L7238.05 7257.94C7240.59 7258.65 7243.6 7259.16 7246.78 7260L7247.05 7258.86C7242.32 7257.45 7238.24 7256.56 7234.74 7255.97L7233.44 7255.74L7232.13 7255.6C7231.26 7255.5 7230.39 7255.39 7229.52 7255.25C7228.68 7255.07 7227.71 7255.09 7226.8 7254.99C7225.88 7254.91 7224.96 7254.81 7224.04 7254.69C7216.39 7254.11 7207.42 7254.14 7197.3 7254.95C7187.53 7255.72 7176.72 7259.87 7165.12 7260.39C7166.72 7259.63 7168.37 7259.13 7170.03 7258.64C7179.91 7255.79 7189.22 7253.54 7197.77 7251.8C7205.9 7250.14 7213.4 7249.11 7220.25 7248.75L7222.79 7248.64L7224.06 7248.57C7224.47 7248.57 7224.87 7248.59 7225.27 7248.59L7227.69 7248.62C7228.49 7248.64 7229.33 7248.57 7230.08 7248.68C7231.62 7248.82 7233.17 7248.88 7234.72 7249L7237.05 7249.27L7239.52 7249.64C7246.58 7250.78 7255.27 7252.98 7265.45 7255.92C7266.6 7256.25 7267.84 7256.33 7269.08 7256.43C7270.31 7256.52 7271.52 7256.62 7272.77 7257.02L7287.01 7261.59C7289.48 7262.38 7292.13 7263.18 7294.73 7263.97L7302.7 7266.24L7306.69 7267.37L7310.7 7268.39L7318.72 7270.42L7326.77 7272.23L7330.79 7273.13L7334.83 7273.92C7349.53 7276.87 7364.3 7279.32 7379.05 7280.75C7392.73 7282.06 7406.37 7282.59 7420.08 7282.65C7419.65 7281.95 7419.31 7281.4 7418.58 7280.2C7435.92 7280.76 7452.43 7280.44 7468.79 7279.41C7472.84 7279.15 7476.89 7278.87 7480.91 7278.48C7484.94 7278.12 7488.97 7277.76 7492.97 7277.32C7506 7276.01 7519.12 7273.69 7531.67 7272.4C7535.76 7272.03 7539.42 7271.34 7542.81 7270.55C7546.2 7269.77 7549.26 7268.77 7552.09 7267.66C7557.76 7265.48 7562.44 7262.72 7566.8 7259.81C7572.72 7255.8 7573.68 7255.19 7581.35 7255.81C7582.94 7255.92 7587.24 7255.17 7591.48 7254.18C7595.69 7253.14 7599.83 7251.86 7601.1 7251.05C7605.9 7247.94 7610.6 7244.8 7614.8 7241.93C7610.89 7242.3 7605.51 7241.91 7600.32 7243.24C7590.11 7245.72 7579.82 7248.85 7569.63 7251.72C7561.49 7254.01 7554.88 7253.87 7547.76 7253.92C7561.9 7249.41 7576.34 7245.82 7590.82 7241.97C7605.28 7238.12 7619.76 7234.02 7633.71 7228.58C7632.34 7228.52 7631.35 7228.47 7629.85 7228.4C7633.83 7226.14 7637.47 7223.96 7641.43 7221.65C7633.71 7220.62 7641.96 7217.27 7645.78 7214.54C7644.46 7214.03 7643.4 7213.63 7642.57 7213.31C7643.73 7211.12 7647.47 7209.53 7651.05 7207.85C7654.63 7206.17 7658.09 7204.48 7658.7 7202.26C7654.14 7203.31 7650.1 7204.28 7646.03 7205.17L7646.2 7204.27C7647.26 7203.85 7648.38 7203.45 7649.35 7202.96C7651.62 7201.8 7653.81 7200.59 7656.02 7199.4L7649.36 7199.97C7649.19 7199.99 7648.97 7200.06 7648.79 7200.08C7646.19 7200.48 7643.56 7200.8 7640.95 7201.15C7642.02 7199.83 7643.09 7198.5 7644.52 7196.75C7643.85 7196.77 7642.57 7196.89 7641.51 7196.82C7636.33 7196.49 7636.68 7195.44 7642.59 7192.62C7644.61 7191.66 7646.45 7190.54 7648.36 7189.5L7648.12 7188.89C7644.14 7190.02 7640.14 7191.08 7636.13 7192.13C7632.14 7193.21 7628.12 7194.2 7624.11 7195.25C7620.08 7196.32 7615.63 7197.38 7614.87 7195.56C7614.55 7194.8 7617.84 7192.84 7620.02 7190.96C7620.83 7189.86 7622.08 7188.16 7623.3 7186.49C7620.08 7187.41 7616.61 7188.33 7613.02 7189.27C7609.43 7190.24 7605.71 7191.17 7601.99 7192.09L7601.86 7191.45C7603.88 7190.52 7605.89 7189.58 7607.98 7188.62C7610.05 7187.63 7612.2 7186.6 7614.48 7185.5C7610.52 7186.3 7607.47 7186.95 7604.39 7187.52L7604.28 7187.01C7607.36 7185.87 7610.41 7184.64 7613.5 7183.44C7616.59 7182.25 7619.67 7180.98 7622.81 7179.7C7615.82 7178.66 7616.27 7176.9 7624.35 7172.43C7623.23 7172.15 7622.14 7171.87 7620.84 7171.54C7623.27 7170.38 7625.56 7169.27 7627.84 7168.12C7630.12 7166.98 7632.42 7165.84 7634.86 7164.62C7631.81 7164.98 7629.35 7165.39 7627.33 7165.39C7625.17 7165.38 7623.43 7164.97 7621.42 7164.69C7619.74 7167.23 7614.68 7169.75 7608.99 7171.15C7603.31 7172.63 7597.03 7173.01 7593.03 7171.8C7604.55 7167.45 7617.2 7164.78 7628.75 7158.15C7625.67 7158.54 7624.02 7158.45 7622.71 7158.96L7614.99 7161.96C7612.43 7162.98 7609.88 7164 7607.33 7165.01C7601.91 7167.2 7596.64 7169.69 7591.07 7171.41C7587.76 7172.39 7584.39 7173.18 7581.01 7173.94C7577.62 7174.65 7574.23 7175.35 7570.87 7176.19C7565.5 7177.46 7560.2 7179.18 7554.85 7180.56L7554.97 7181.23C7556.73 7181.11 7558.72 7180.79 7560.21 7180.92C7561.94 7181.08 7563.22 7181.6 7564.71 7181.95C7563.02 7182.99 7561.5 7184.11 7559.54 7184.95C7558.14 7185.56 7556.16 7185.78 7554.45 7186.22C7538.8 7190.21 7523.01 7193.45 7507.22 7196.28C7491.12 7199.15 7475.03 7201.82 7458.76 7203.03C7449.35 7203.73 7439.81 7203.5 7430.4 7203.15C7426.14 7202.96 7421.95 7202.42 7417.96 7202C7421.25 7201.08 7424.05 7200.2 7426.82 7199.38L7425.89 7198.52L7429.55 7198.5L7433.21 7198.39C7435.65 7198.31 7438.09 7198.28 7440.53 7198.17C7450.2 7197.79 7459.87 7197.03 7469.53 7196.09C7479.19 7195.04 7488.85 7193.85 7498.5 7192.4C7513.94 7190.14 7529.46 7187.58 7544.86 7184.22C7546.38 7183.88 7547.82 7183.22 7549.3 7182.71C7534.48 7184.87 7520.19 7186.69 7505.93 7188.41C7497.26 7189.52 7488.58 7191.01 7479.87 7192.04C7465.27 7193.64 7450.65 7194.62 7436.08 7194.69C7434.01 7194.69 7431.94 7194.66 7429.86 7194.62C7427.79 7194.55 7425.73 7194.42 7423.66 7194.32C7419.52 7194.15 7415.42 7193.77 7411.3 7193.57C7399.88 7192.86 7388.53 7191.73 7377.3 7190.08C7374.5 7189.63 7371.68 7189.26 7368.9 7188.74L7360.55 7187.19L7352.27 7185.39C7349.51 7184.78 7346.79 7184.04 7344.06 7183.36C7341.86 7182.84 7339.69 7182.19 7337.53 7181.55C7335.37 7180.9 7333.19 7180.31 7331.05 7179.6C7326.76 7178.17 7322.52 7176.8 7318.2 7175.19C7309.51 7172.01 7300.27 7168.33 7290.21 7164.89C7282.91 7162.38 7275.14 7159.95 7266.92 7157.87C7264.89 7157.33 7262.75 7156.88 7260.66 7156.39C7258.54 7155.93 7256.38 7155.5 7254.22 7155.1L7250.92 7154.54L7249.27 7154.27L7247.61 7154.06L7240.97 7153.26C7239.87 7153.15 7238.75 7152.97 7237.65 7152.91L7234.35 7152.71L7227.75 7152.35C7225.57 7152.31 7223.4 7152.33 7221.23 7152.32C7219.06 7152.33 7216.87 7152.29 7214.75 7152.44C7210.48 7152.67 7206.18 7152.83 7202.03 7153.32C7199.94 7153.53 7197.84 7153.73 7195.76 7153.97L7189.62 7154.85C7178.32 7156.55 7167.66 7159.6 7157.34 7162.62C7154.08 7163.6 7150.83 7164.67 7147.55 7165.5C7137.83 7168.05 7128.37 7170.64 7119.14 7173.33C7109.9 7176.04 7100.99 7178.76 7092.17 7181.26L7091.79 7180.37C7104.94 7174.05 7121.13 7170.46 7136.79 7164.6C7120.11 7168.83 7104.71 7173.23 7089.97 7176.9L7089.67 7175.99C7091.43 7175.34 7093.15 7174.55 7094.97 7174.05C7107.96 7170.59 7121.52 7166.95 7135.6 7163.05C7149.16 7159.29 7163.38 7155.66 7178.44 7152.99C7193.47 7150.33 7209.41 7148.63 7225.97 7149.04L7227.63 7149.09L7229.31 7149.24C7230.43 7149.35 7231.55 7149.46 7232.67 7149.53C7233.98 7149.62 7235.3 7149.7 7236.62 7149.79L7238.6 7149.93C7239.27 7150.01 7239.93 7150.09 7240.6 7150.17C7243.28 7150.51 7245.99 7150.85 7248.78 7151.19C7254.35 7152.02 7260.09 7153.17 7266.08 7154.63C7262.72 7153.49 7261.33 7152.92 7259.77 7152.53L7255.55 7151.47L7251.23 7150.51C7248.34 7149.89 7245.41 7149.45 7242.49 7148.94C7241.03 7148.71 7239.56 7148.42 7238.1 7148.25L7233.73 7147.77C7230.82 7147.48 7227.86 7147.09 7224.99 7147L7217.39 7146.63C7214.87 7146.57 7212.4 7146.6 7209.89 7146.59L7206.14 7146.6L7202.46 7146.75L7195.1 7147.11L7187.89 7147.76C7186.69 7147.88 7185.47 7147.97 7184.29 7148.12L7180.77 7148.58C7178.43 7148.9 7176.04 7149.19 7173.74 7149.57L7166.86 7150.77C7147.11 7154.46 7128.85 7159.97 7111.67 7164.99L7099.92 7168.44C7096.11 7169.54 7092.25 7170.68 7088.51 7171.72C7080.98 7173.86 7073.42 7175.87 7065.83 7177.79C7061.21 7178.97 7055.98 7179.99 7052.18 7181.7C7044.03 7185.37 7035.15 7187.19 7026.16 7189.05C7023.99 7189.5 7020.98 7190.22 7019.99 7191.02C7016.56 7193.85 7011.4 7194.69 7006.09 7195.6C6994.5 7197.56 6982.84 7199.15 6971.16 7200.54L6966.79 7201.06L6965.32 7201.22C6964.89 7201.25 6964.39 7201.31 6964.01 7201.33C6962.38 7201.45 6961.18 7201.43 6960.87 7201.43C6960.85 7201.43 6960.75 7201.45 6960.78 7201.44C6960.78 7201.47 6960.8 7201.38 6960.78 7201.5L6960.67 7202.25C6960.59 7202.75 6960.51 7203.25 6960.42 7203.75C6960.33 7204.25 6960.23 7204.75 6960.12 7205.25C6960.02 7205.74 6959.97 7206.12 6959.88 7206.56C6959.72 7207.41 6959.52 7208.27 6959.28 7209.12C6959 7210.04 6958.89 7210.66 6958.67 7211.39C6958.47 7212.1 6958.23 7212.8 6957.95 7213.5C6957.74 7214.12 6957.58 7214.64 6957.34 7215.21C6957.22 7215.49 6957.1 7215.77 6956.97 7216.04L6956.77 7216.46L6956.64 7216.78C6956.46 7217.19 6956.26 7217.61 6956.02 7218.02L6955.66 7218.61C6955.59 7218.75 6955.51 7218.88 6955.43 7219.02C6955.27 7219.29 6955.08 7219.56 6954.86 7219.83C6954.69 7220.05 6954.66 7220.12 6954.52 7220.28L6954.33 7220.49L6954.22 7220.6C6954.2 7220.62 6954.21 7220.61 6954.21 7220.62C6954.2 7220.64 6954.18 7220.66 6954.14 7220.69C6954.13 7220.7 6954.08 7220.74 6954.1 7220.73L6954.25 7220.61C6954.35 7220.54 6954.44 7220.48 6954.52 7220.44L6954.54 7220.43L6954.55 7220.42L6954.56 7220.42L6954.56 7220.42C6954.92 7220.2 6954.08 7220.72 6954.16 7220.66L6954.18 7220.65L6954.2 7220.64C6954.22 7220.63 6954.19 7220.65 6954.24 7220.63C6954.35 7220.57 6954.46 7220.52 6954.57 7220.48L6954.72 7220.43L6955.01 7220.32C6955.22 7220.24 6955.43 7220.18 6955.63 7220.13L6955.79 7220.09L6956.03 7220.02L6956.51 7219.9C6956.85 7219.82 6957.09 7219.8 6957.5 7219.72C6957.94 7219.63 6958.37 7219.57 6958.79 7219.52L6959.43 7219.47L6960.25 7219.38C6960.8 7219.33 6961.35 7219.3 6961.89 7219.3C6962.13 7219.31 6962.49 7219.28 6962.83 7219.27L6963.85 7219.25C6964.55 7219.25 6965.14 7219.29 6965.92 7219.32C6966.75 7219.33 6967.57 7219.37 6968.39 7219.44L6969.61 7219.56L6971.06 7219.68L6972.55 7219.83L6973.29 7219.92C6973.49 7219.95 6973.92 7220 6973.8 7219.99C6973.78 7220.02 6973.8 7219.96 6973.8 7219.94C6973.79 7219.71 6973.97 7218.71 6974.37 7217.23L6974.72 7216.01L6974.93 7215.32L6975.04 7214.97L6975.19 7214.39L6976.47 7209.48C6979.89 7196.38 6983.4 7183.33 6986.96 7170.19C6988.33 7165.12 6990.05 7160.04 6991.61 7154.91C6991.88 7156.87 6991.73 7158.96 6991.21 7161.21C6989.32 7169.38 6987.3 7177.64 6985.32 7185.91L6979.46 7210.42L6978.05 7216.28C6977.72 7217.46 6977.53 7218.3 6977.36 7219.05C6977.23 7219.72 6977.16 7220.23 6977.18 7220.41C6977.17 7220.49 6977.21 7220.45 6977.21 7220.48L6977.21 7220.48L6976.78 7220.42L6975.68 7220.27C6974.88 7220.18 6974.36 7220.08 6973.75 7220C6972.56 7219.83 6971.35 7219.7 6970.14 7219.62C6969.81 7219.6 6969.58 7219.57 6969.34 7219.54L6968.6 7219.47C6968.11 7219.43 6967.61 7219.39 6967.11 7219.37C6961.29 7219.04 6957.66 7219.57 6955.73 7220.1C6955.55 7220.14 6955.36 7220.19 6955.17 7220.25L6954.66 7220.43C6954.57 7220.46 6954.48 7220.49 6954.38 7220.54L6954.23 7220.61C6954.17 7220.64 6954.21 7220.62 6954.2 7220.63C6954.2 7220.63 6954.19 7220.63 6954.17 7220.64L6954.16 7220.65L6954.15 7220.65L6954.15 7220.65L6954.15 7220.65C6954.06 7220.7 6954.9 7220.19 6954.55 7220.41L6954.54 7220.41L6954.45 7220.46C6954.39 7220.5 6954.32 7220.54 6954.25 7220.59L6954.14 7220.67C6954.11 7220.69 6954.04 7220.75 6954.08 7220.72C6953.93 7220.86 6955.09 7219.87 6956.33 7217.4C6957.61 7214.92 6958.96 7211.05 6960.01 7205.72C6960.29 7204.35 6960.6 7202.82 6960.78 7201.38L6960.91 7200.29C6960.94 7199.93 6961.03 7199.46 6961.09 7199.06L6961.26 7197.8C6961.3 7197.5 6961.29 7197.59 6961.29 7197.57L6961.29 7197.56C6961.29 7197.55 6961.3 7197.54 6961.3 7197.54L6961.42 7197.51C6961.52 7197.49 6961.55 7197.49 6961.72 7197.47C6962.22 7197.41 6963.19 7197.29 6964.32 7197.13L6975.61 7195.34C6987.25 7193.4 6998.73 7190.94 7010.24 7188.46C7018.49 7186.68 7026.2 7183.7 7035.06 7183.01C7038.15 7182.8 7041.67 7181.46 7044.98 7180.62C7049.56 7179.4 7054.1 7177.92 7058.69 7176.89C7070.26 7174.33 7081.81 7171.91 7093.28 7168.7C7103.15 7165.96 7113.27 7162.42 7123.91 7159.18C7139.54 7154.4 7156.27 7149.69 7174.18 7146.13C7188.48 7143.36 7203.69 7141.33 7219.66 7141.14C7223.68 7141.16 7227.64 7141.05 7231.74 7141.36L7237.85 7141.73L7239.38 7141.83L7240.92 7142.01L7244 7142.37L7250.15 7143.14C7252.2 7143.42 7254.23 7143.82 7256.26 7144.16C7258.27 7144.54 7260.23 7144.96 7262.22 7145.38L7268 7146.75C7273.37 7148.13 7278.48 7149.69 7283.39 7151.35C7288.25 7153.02 7292.89 7154.77 7297.36 7156.52C7301.78 7158.27 7306.03 7160.01 7310.14 7161.69C7314.21 7163.35 7318.14 7164.93 7321.95 7166.38C7325.98 7167.93 7329.94 7169.23 7333.94 7170.65C7335.94 7171.34 7337.97 7171.93 7339.99 7172.57C7342.01 7173.2 7344.03 7173.86 7346.09 7174.39L7352.24 7176.08C7354.29 7176.63 7356.38 7177.09 7358.45 7177.6C7362.58 7178.65 7366.8 7179.41 7370.99 7180.27C7384.71 7182.84 7398.79 7183.95 7412.9 7184.53C7416.33 7184.64 7419.74 7184.78 7423.18 7184.73C7426.61 7184.72 7430.04 7184.73 7433.49 7184.61L7433.53 7184.24C7429.51 7184.04 7425.53 7183.63 7421.53 7183.29C7419.53 7183.14 7417.54 7182.87 7415.54 7182.66C7413.54 7182.43 7411.54 7182.23 7409.53 7181.97C7410.4 7181.03 7411 7180.39 7411.75 7179.58C7388.52 7177.58 7366.22 7173.53 7344.82 7167.33L7344.93 7166.66C7346.02 7166.77 7347.14 7166.64 7348.23 7166.87C7370.34 7171.62 7393.1 7173.84 7416.14 7174.28C7419.58 7174.39 7423.07 7174.49 7426.56 7174.67C7430.04 7174.91 7433.56 7175.01 7437.04 7175.23C7441.39 7175.45 7445.73 7175.67 7450.07 7175.9C7454.43 7176.04 7458.79 7176.26 7463.2 7176.19C7465.14 7176.18 7467.07 7176.18 7469.02 7176.13L7474.87 7175.91C7478.77 7175.79 7482.69 7175.42 7486.6 7175.1C7488.82 7174.92 7491.43 7173.84 7493.13 7172.93C7495.89 7171.44 7498.03 7169.72 7500.8 7167.76C7497.32 7167.87 7493.4 7167.59 7489.42 7167.91C7480.03 7168.55 7470.64 7169.29 7461.33 7169.53C7460.47 7169.56 7459.6 7169.88 7458.72 7169.95C7448.03 7170.58 7437.37 7170.93 7426.81 7170.59C7423.66 7170.45 7420.51 7170.25 7417.41 7169.85C7414.3 7169.51 7411.19 7169.18 7408.08 7168.84C7405.84 7168.62 7403.56 7168.58 7401.3 7168.5C7399.04 7168.38 7396.78 7168.28 7394.53 7168.04C7392.45 7167.85 7390.41 7167.52 7388.35 7167.25C7386.3 7166.95 7384.23 7166.72 7382.2 7166.36C7378.13 7165.66 7374.04 7165.03 7370.03 7164.18C7361.94 7162.65 7354.01 7160.7 7346.12 7158.69L7339.19 7156.84L7332.33 7154.82C7327.77 7153.5 7323.05 7151.92 7317.88 7150.19C7307.59 7146.74 7295.94 7142.57 7282.54 7138.69C7274.78 7136.44 7266.41 7134.22 7257.41 7132.5C7252.9 7131.59 7248.32 7131.02 7243.75 7130.4L7240.32 7129.97L7236.93 7129.7L7230.14 7129.23C7229.47 7129.19 7228.79 7129.14 7228.13 7129.11L7226.15 7129.08L7222.2 7129.02L7218.24 7128.98L7216.27 7128.97L7214.34 7129.04L7206.62 7129.35L7204.69 7129.44L7202.81 7129.59L7199.05 7129.91L7195.29 7130.24L7193.41 7130.41L7191.59 7130.64L7184.31 7131.58L7182.49 7131.82L7180.72 7132.11L7177.19 7132.69C7174.86 7133.09 7172.44 7133.44 7170.19 7133.91C7151.84 7137.41 7134.88 7142.02 7119.28 7146.57C7108.93 7149.57 7099.2 7153.03 7089.86 7155.71C7082.19 7157.91 7074.86 7158.89 7067.6 7158.4C7070.56 7157.26 7073.19 7156.47 7075.12 7155.37C7076.51 7154.58 7078.07 7153.04 7077.67 7152.5C7075.95 7150.15 7063.23 7150.12 7057.25 7153.99C7051.91 7157.49 7050.73 7157.49 7046.37 7155.43C7042.43 7153.55 7038.18 7151.83 7033.94 7150.07C7033.06 7149.7 7031.41 7149.76 7030.12 7149.61C7029.53 7150.26 7028.79 7150.92 7028.38 7151.57C7027.58 7152.84 7026.95 7154.12 7026.23 7155.43C7018.45 7154.66 7016.98 7155.03 7015.35 7158.34C7018.11 7158.26 7020.88 7158.19 7023.99 7158.1C7022.62 7159.65 7021.72 7161.21 7019.84 7162.55C7018.78 7163.32 7015.47 7164.29 7014.26 7164.13C7006.16 7163.18 6998.44 7161.75 6990.58 7160.41C6989.14 7160.16 6987.25 7160.31 6984.44 7160.22C6985.4 7162.52 6986.7 7164.15 6986.71 7165.92C6986.72 7169.11 6981.05 7171.58 6976.57 7174C6975.62 7174.51 6972.61 7174.56 6970.84 7174.41C6970.09 7174.35 6969.44 7173.26 6969.89 7172.76C6971.76 7170.66 6969.1 7170.08 6966.44 7169.17C6965.6 7168.88 6964.8 7168.56 6964.04 7168.23L6963.48 7167.98L6963.2 7167.85C6963.14 7167.8 6963.12 7167.75 6963.08 7167.7L6962.66 7167.08C6962.35 7166.68 6962.24 7166.22 6962.07 7165.8C6961.98 7165.59 6961.91 7165.37 6961.91 7165.15L6961.88 7164.82L6961.87 7164.66L6961.87 7164.62L6961.88 7164.93L6961.91 7165.69C6961.98 7167.7 6962.06 7169.71 6962.13 7171.77C6962.19 7173.7 6962.21 7175.7 6962.19 7177.79C6962.22 7179.67 6962.23 7181.49 6962.18 7183.5C6962.16 7184.49 6962.11 7185.53 6962.06 7186.56C6962.05 7187.47 6962.02 7188.41 6961.97 7189.38C6961.92 7190.41 6961.85 7191.39 6961.77 7192.34C6961.73 7192.81 6961.68 7193.28 6961.64 7193.74C6961.61 7194.14 6961.59 7194.53 6961.57 7194.91C6961.46 7196.44 6961.3 7197.86 6961.1 7199.22C6961.06 7199.55 6960.99 7199.91 6960.96 7200.2C6960.93 7200.49 6960.9 7200.77 6960.86 7201.05C6960.79 7201.61 6960.71 7202.16 6960.63 7202.7C6960.54 7203.24 6960.45 7203.78 6960.34 7204.32C6960.24 7204.84 6960.09 7205.44 6960.03 7205.86C6959.91 7206.58 6959.76 7207.33 6959.56 7208.13C6959.46 7208.53 6959.36 7208.94 6959.24 7209.35L6959.06 7209.98L6958.93 7210.52C6958.75 7211.24 6958.53 7212 6958.25 7212.77C6958 7213.47 6957.75 7214.17 6957.5 7214.86C6957.37 7215.19 6957.23 7215.52 6957.08 7215.86C6956.92 7216.2 6956.74 7216.56 6956.66 7216.78C6956.44 7217.3 6956.17 7217.82 6955.83 7218.36L6955.7 7218.56L6955.63 7218.69L6955.48 7218.96C6955.37 7219.14 6955.25 7219.32 6955.12 7219.51L6954.91 7219.78L6954.81 7219.91L6954.76 7219.98C6954.7 7220.07 6954.62 7220.17 6954.54 7220.27C6954.46 7220.37 6954.36 7220.47 6954.26 7220.57C6954.2 7220.63 6954.23 7220.6 6954.2 7220.63L6954.14 7220.69C6954.14 7220.69 6954.09 7220.73 6954.11 7220.71L6954.22 7220.62C6954.29 7220.56 6954.36 7220.52 6954.43 7220.47L6954.53 7220.42L6954.58 7220.4L6954.58 7220.4L6954.58 7220.4C6954.67 7220.35 6953.83 7220.86 6954.18 7220.64L6954.18 7220.64L6954.18 7220.64L6954.19 7220.64C6954.21 7220.63 6954.23 7220.62 6954.23 7220.62L6954.23 7220.62L6954.36 7220.55C6954.98 7220.25 6957.35 7219.43 6961.79 7219.3L6962.25 7219.3L6962.81 7219.28C6963.18 7219.27 6963.55 7219.26 6963.91 7219.26C6964.27 7219.26 6964.63 7219.27 6964.98 7219.29C6965.33 7219.31 6965.66 7219.33 6966.13 7219.33C6966.99 7219.35 6967.83 7219.4 6968.65 7219.47L6969.87 7219.59L6971.34 7219.71C6972.31 7219.8 6973.25 7219.92 6974.17 7220.05L6974.86 7220.16L6975.68 7220.26L6977.35 7220.49C6978.45 7220.65 6979.53 7220.84 6980.59 7221.04L6981.41 7221.2L6982.4 7221.37C6983.05 7221.49 6983.71 7221.61 6984.36 7221.72C6985.57 7221.95 6986.79 7222.2 6988 7222.47C6988.3 7222.54 6988.61 7222.61 6988.91 7222.68L6989.44 7222.79L6990.03 7222.91C6990.83 7223.08 6991.62 7223.25 6992.4 7223.42C6993.98 7223.77 6995.55 7224.14 6997.12 7224.53C6997.94 7224.74 6998.74 7224.94 6999.54 7225.14C7000.63 7225.4 7001.71 7225.66 7002.77 7225.92C7004.92 7226.45 7007.05 7227 7009.17 7227.57C7009.7 7227.72 7010.23 7227.86 7010.75 7228C7011.13 7228.1 7010.99 7228.07 7011.02 7228.08L7011.03 7228.09C7011.04 7228.12 7011.07 7228.08 7011.08 7228.07C7011.15 7228.01 7011.17 7227.98 7011.19 7227.87C7011.22 7227.71 7011.22 7227.54 7011.18 7227.36C7011.16 7227.14 7011.13 7226.84 7011.05 7226.57L7010.98 7226.36C7010.96 7226.35 7010.96 7226.26 7010.96 7226.15L7010.96 7225.86C7010.95 7225.48 7010.93 7225.11 7010.9 7224.74C7010.84 7224.01 7010.74 7223.3 7010.59 7222.63C7010.38 7221.66 7010.12 7220.86 7009.7 7219.35C7012.04 7214.89 7014.02 7211.03 7016.3 7206.53C7016.73 7201.31 7016.14 7197.78 7015.94 7193.93C7015.74 7190.08 7015.94 7185.95 7017.95 7179.34C7017.58 7175.05 7016.79 7172.98 7017.14 7169.12C7017.98 7159.87 7019.33 7149.97 7020.57 7139.51C7024.3 7132.41 7028.88 7122.54 7033.28 7114.72C7033.95 7113.52 7034.61 7112.24 7035.25 7110.89C7035.33 7110.72 7035.42 7110.54 7035.48 7110.39L7035.58 7109.95L7035.77 7109.05C7035.89 7108.44 7036.01 7107.82 7036.1 7107.2C7036.49 7104.69 7036.65 7102.03 7036.66 7099.31C7036.68 7093.86 7035.97 7088.2 7035.15 7082.88C7032.2 7080.61 7030.32 7079.74 7029.34 7080.27C7028.34 7080.81 7028.25 7082.78 7028.38 7086.37C7026.97 7083.14 7025.22 7080.31 7023.88 7077.17C7022.23 7073.3 7019.76 7069.26 7017.27 7065.38C7014.79 7061.48 7012.27 7057.8 7011.1 7054.46C7010.35 7052.35 7009.27 7050.62 7007.76 7049.03C7006.26 7047.44 7004.33 7045.96 7001.93 7044.45C6994.92 7040.1 6988.42 7037.5 6980.99 7035.21C6978.74 7034.64 6976.49 7034.08 6974.24 7033.52L6970.88 7032.7C6969.66 7032.51 6968.38 7032.37 6967.13 7032.21C6963.39 7031.75 6959.88 7031.15 6956.54 7030.44C6954.97 7029.97 6952.99 7029.98 6951.22 7029.76C6949.42 7029.58 6947.66 7029.37 6945.94 7029.13C6944.22 7028.89 6942.53 7028.63 6940.86 7028.35L6938.39 7027.91L6935.78 7027.74C6932.32 7027.51 6928.96 7027.2 6925.68 7026.88C6919.87 7026.23 6915.94 7026.17 6912.65 7026.5C6909.35 7026.85 6906.58 7027.75 6902.82 7029.53C6898.49 7031.6 6892.75 7033.01 6884.74 7033.56C6882.11 7033.72 6879.47 7034 6876.88 7034.28C6874.29 7034.57 6871.75 7034.89 6869.31 7035.29C6866.88 7035.7 6864.53 7036.14 6862.38 7036.76C6860.24 7037.39 6858.26 7038.14 6856.5 7039.02C6855.98 7039.28 6853.78 7039.49 6852.79 7039.81C6851.21 7040.28 6849.32 7040.84 6847.62 7041.35C6846.79 7041.61 6846.03 7041.86 6845.44 7042.1C6845.3 7042.16 6845.12 7042.22 6845.05 7042.27C6844.97 7042.32 6844.9 7042.37 6844.84 7042.42C6844.72 7042.52 6844.63 7042.62 6844.57 7042.71C6842.5 7046.45 6842.19 7046.48 6832.86 7047.61C6829.41 7048.07 6823.7 7049.4 6822.56 7050.49C6818.78 7054.09 6814.68 7054.6 6808.19 7054.65C6806.54 7054.65 6805.07 7054.76 6803.79 7054.97C6803.15 7055.07 6802.55 7055.2 6802 7055.36L6801.59 7055.48C6801.4 7055.54 6801.21 7055.6 6801.03 7055.66C6800.64 7055.79 6800.27 7055.92 6799.91 7056.06C6797.05 7057.17 6795.22 7058.57 6794.29 7060.25C6795.64 7059.94 6796.99 7059.62 6798.34 7059.31C6799.67 7058.99 6801 7058.67 6802.34 7058.35C6804.15 7057.94 6805.98 7057.53 6807.8 7057.11C6809.63 7056.69 6811.46 7056.27 6813.3 7055.86C6815.14 7055.47 6816.99 7055.1 6818.85 7054.74C6820.71 7054.39 6822.57 7054.05 6824.43 7053.77C6826.3 7053.5 6828.18 7053.27 6830.06 7053.09C6831.94 7052.91 6833.83 7052.77 6835.72 7052.71C6837.61 7052.67 6839.51 7052.69 6841.41 7052.79C6839.3 7053.29 6837.27 7053.78 6835.29 7054.26C6833.31 7054.76 6831.39 7055.24 6829.52 7055.71C6825.76 7056.64 6822.2 7057.63 6818.73 7058.72C6813.86 7060.21 6809.04 7061.85 6804.2 7063.41L6794.01 7066.6L6788.76 7068.22C6787 7068.77 6785.16 7069.39 6783.36 7069.97C6779.75 7071.13 6776.13 7072.28 6772.51 7073.44C6768.93 7074.64 6765.34 7075.85 6761.74 7077.06C6759.94 7077.65 6758.13 7078.25 6756.32 7078.84C6754.55 7079.48 6752.78 7080.13 6751 7080.77C6749.21 7081.4 6747.42 7082.04 6745.63 7082.67L6742.92 7083.61C6742 7083.91 6741.11 7084.24 6740.24 7084.59C6736.88 7085.88 6733.52 7087.18 6730.34 7088.64C6728.75 7089.36 6727.09 7090.04 6725.57 7090.81L6720.95 7093.09C6719.39 7093.83 6717.96 7094.67 6716.48 7095.47C6715.03 7096.28 6713.51 7097.06 6712.12 7097.91C6709.33 7099.61 6706.46 7101.24 6703.83 7103.02C6698.4 7106.45 6693.48 7110.17 6688.75 7113.96L6685.33 7116.89C6684.77 7117.38 6684.18 7117.86 6683.63 7118.36L6682.01 7119.88L6678.77 7122.91L6675.68 7126.04C6675.17 7126.56 6674.64 7127.07 6674.14 7127.61L6672.69 7129.23L6669.79 7132.48L6667.07 7135.84C6666.62 7136.4 6666.15 7136.95 6665.72 7137.53L6664.44 7139.27L6661.89 7142.75L6659.5 7146.35C6659.11 7146.95 6658.69 7147.54 6658.31 7148.15L6657.21 7150.01L6655 7153.73C6647.77 7166.57 6641.57 7181.38 6639.91 7196.78C6638.71 7207.41 6639.28 7218.33 6641.74 7228.86C6643 7234.11 6644.73 7239.26 6646.91 7244.17C6649.12 7249.07 6651.78 7253.71 6654.84 7257.94C6655.43 7258.75 6656 7259.59 6656.62 7260.38L6658.52 7262.69L6659.47 7263.84L6660.48 7264.92L6662.5 7267.09C6665.28 7269.85 6668.12 7272.5 6671.13 7274.85C6672.69 7276.12 6674.27 7277.3 6675.85 7278.48C6676.62 7279.09 6677.45 7279.63 6678.27 7280.17L6680.74 7281.81C6684.09 7283.88 6687.48 7285.88 6691.06 7287.63C6698.14 7291.22 6705.75 7294.17 6713.98 7296.63C6716.12 7297.31 6718.59 7297.72 6721.01 7298.14C6722.23 7298.33 6723.45 7298.52 6724.67 7298.72C6725.9 7298.9 6727.08 7299.12 6728.37 7299.25L6728.37 7299.41ZM7051.58 7287.16L7052.47 7288.02C7048.06 7289.45 7043.74 7291.17 7039.15 7292.11C7022.18 7295.57 7005.01 7298.16 6987.84 7300.55L6978.56 7301.79C6977.97 7301.88 6976.56 7302.03 6975.44 7302.16C6974.31 7302.29 6972.98 7302.4 6971.74 7302.51C6969.18 7302.72 6966.43 7302.88 6963.46 7302.94C6957.49 7303.04 6950.61 7302.85 6942.05 7301.34C6941.56 7301.26 6940.99 7301.15 6940.41 7301.03L6938.7 7300.67C6937.56 7300.42 6936.43 7300.16 6935.3 7299.88C6934.12 7299.58 6932.82 7299.19 6931.59 7298.82C6930.33 7298.44 6929.13 7298.06 6927.85 7297.62C6926.49 7297.13 6925.14 7296.6 6923.79 7296.06L6921.78 7295.22L6920.78 7294.79L6919.69 7294.28C6918.25 7293.59 6916.81 7292.86 6915.4 7292.1L6913.29 7290.94C6912.56 7290.51 6911.8 7290.04 6911.07 7289.58C6908.1 7287.7 6905.29 7285.79 6902.37 7283.33C6900.93 7282.15 6899.53 7280.92 6898.17 7279.66C6896.8 7278.36 6895.46 7276.97 6894.16 7275.57C6892.87 7274.16 6891.58 7272.72 6890.41 7271.24C6889.25 7269.75 6888.12 7268.22 6887.04 7266.66C6884.85 7263.57 6882.95 7260.25 6881.22 7256.85C6880.36 7255.15 6879.62 7253.45 6878.88 7251.71C6878.52 7250.84 6878.17 7249.97 6877.83 7249.1C6877.5 7248.23 6877.22 7247.4 6876.93 7246.54C6876.36 7244.83 6875.82 7243.09 6875.35 7241.38C6874.93 7239.74 6874.54 7238.09 6874.19 7236.42C6873.82 7234.71 6873.58 7233.2 6873.36 7231.64L6873.05 7229.3C6872.95 7228.51 6872.87 7227.74 6872.81 7227.04C6872.69 7225.61 6872.59 7224.17 6872.52 7222.74C6872.48 7222 6872.47 7221.35 6872.46 7220.7L6872.44 7218.74C6872.43 7216.01 6872.56 7213.81 6872.73 7211.41C6872.82 7210.28 6872.93 7209.26 6873.04 7208.18L6873.22 7206.59L6873.42 7205.13L6873.86 7202.26L6874.33 7199.67L6874.58 7198.38L6874.83 7197.21L6875.34 7194.89L6875.85 7192.8L6876.36 7190.82L6876.86 7188.96L6877.33 7187.3L6878.21 7184.3L6878.28 7183.94L6878.72 7181.59L6880.3 7181.72L6880.24 7183.4L6880.19 7184.28L6880.16 7184.73L6880.15 7184.84L6880.15 7184.9L6880.15 7184.93L6880.1 7185.1L6879.69 7186.6C6879.12 7188.72 6878.48 7191.07 6877.81 7193.99C6877.49 7195.34 6877.14 7197.02 6876.83 7198.57L6876.36 7201.17L6876.14 7202.48L6875.92 7203.93L6875.53 7206.86L6875.21 7210.09C6875.11 7211.12 6875.04 7212.36 6874.98 7213.55L6874.9 7215.34L6874.87 7216.24L6874.86 7217.23C6874.85 7218.55 6874.87 7219.87 6874.9 7221.19C6874.94 7222.52 6875.04 7224.05 6875.15 7225.47L6875.34 7227.64L6875.64 7229.99C6875.86 7231.58 6876.09 7233.08 6876.41 7234.72C6877.67 7241.25 6879.94 7248.38 6883.31 7255.21C6885.05 7258.62 6886.96 7261.97 6889.16 7265.06C6890.25 7266.62 6891.39 7268.15 6892.56 7269.64C6893.75 7271.12 6895.05 7272.56 6896.35 7273.97C6897.66 7275.36 6899.02 7276.77 6900.4 7278.02C6901.78 7279.27 6903.2 7280.49 6904.66 7281.66C6905.39 7282.25 6906.12 7282.82 6906.86 7283.38C6907.59 7283.92 6908.29 7284.41 6909.02 7284.91C6910.47 7285.9 6911.94 7286.86 6913.44 7287.77L6914.57 7288.45L6915.63 7289.04L6917.76 7290.17C6919.19 7290.91 6920.65 7291.63 6922.09 7292.28C6923.43 7292.86 6924.78 7293.41 6926.13 7293.94L6928.17 7294.71L6929.18 7295.07L6930.11 7295.37C6931.36 7295.77 6932.61 7296.15 6933.87 7296.5L6935.76 7297.02L6937.47 7297.42C6939.74 7297.94 6942.14 7298.44 6944.13 7298.72L6947.26 7299.17C6948.29 7299.3 6949.18 7299.38 6950.15 7299.48L6953 7299.72L6955.61 7299.85C6962.55 7300.13 6968.28 7299.76 6973.33 7299.26C6974.64 7299.14 6975.75 7298.99 6976.97 7298.85L6979.53 7298.5L6984.33 7297.83L6993.93 7296.45C7000.33 7295.51 7006.73 7294.52 7013.13 7293.53C7025.94 7291.53 7038.74 7289.38 7051.58 7287.16ZM7256.59 7251.86C7248.22 7249.38 7241.06 7247.64 7235.2 7246.77C7229.28 7245.93 7223.01 7245.52 7216.07 7245.61C7209.13 7245.69 7201.6 7246.22 7193.43 7247.22C7185.25 7248.23 7176.5 7249.61 7167.27 7251.17C7176.34 7248.56 7185.01 7246.33 7193.22 7244.73C7201.44 7243.11 7209.11 7242.24 7216.24 7242.12C7223.38 7242 7229.87 7242.69 7235.85 7244.12C7241.79 7245.58 7248.76 7248.24 7256.59 7251.86ZM6890.07 7154.16C6889.26 7154.2 6888.46 7154.3 6887.66 7154.39C6881.5 7155.05 6875.65 7155.95 6870.06 7156.99C6869.4 7157.12 6868.75 7157.23 6868.09 7157.33L6866 7157.65L6864.94 7157.8L6864.67 7157.84L6863.89 7157.97L6862.25 7158.25L6855.71 7159.37C6854.44 7159.59 6853.15 7159.63 6851.89 7159.5C6855.37 7158.53 6858.89 7157.72 6862.41 7156.88L6863.73 7156.57L6864.39 7156.42L6864.63 7156.35L6865.53 7156.07L6867.36 7155.54C6869.71 7154.89 6872.08 7154.38 6874.51 7153.98C6879.37 7153.17 6884.25 7152.81 6889.04 7152.63C6890.22 7152.58 6891.4 7152.52 6892.58 7152.63L6891.98 7153.47C6891.32 7153.68 6890.5 7154.14 6890.07 7154.16ZM6997.95 7175.27C6992.16 7176.52 6986.39 7177.96 6980.53 7178.73C6977.13 7179.15 6973.71 7179.46 6970.28 7179.66L6965.15 7179.94L6964.51 7179.97C6964.34 7179.97 6964.29 7179.96 6964.17 7179.96L6963.56 7179.94L6963.08 7179.89C6962.92 7179.88 6962.76 7179.87 6962.68 7179.84C6962.58 7179.82 6962.46 7179.66 6962.37 7179.45C6962.27 7179.24 6962.28 7178.97 6962.25 7178.76C6962.25 7178.66 6962.26 7178.47 6962.3 7178.3C6962.39 7178.11 6962.49 7177.95 6962.57 7177.92C6962.67 7177.89 6962.94 7177.82 6963.14 7177.77L6963.92 7177.6L6964.13 7177.56L6964.54 7177.49L6965.48 7177.34L6967.37 7177.04C6969.89 7176.66 6972.41 7176.28 6974.92 7175.9C6979.96 7175.18 6984.99 7174.47 6990.03 7173.75C7000.1 7172.35 7010.18 7170.98 7020.25 7169.46L7020.39 7170.12C7012.92 7171.93 7005.46 7173.69 6997.95 7175.27ZM6960.58 7185.08C6959.68 7189.17 6958.87 7193.52 6957.54 7197.53C6956.73 7199.96 6955.8 7202.33 6954.84 7204.64L6953.37 7208.07C6952.93 7208.98 6952.5 7209.88 6952.06 7210.78C6951.87 7211.2 6950.89 7211.4 6950.87 7211.14C6950.82 7210.53 6950.79 7209.84 6950.81 7209.13C6950.82 7208.78 6950.85 7208.4 6950.9 7208.04C6950.92 7207.86 6950.95 7207.67 6950.99 7207.49C6951.03 7207.3 6951.08 7207.07 6951.13 7206.87C6952.98 7199.75 6954.96 7192.68 6956.91 7185.64C6959.22 7177.31 6961.52 7169.03 6963.92 7160.76C6964.48 7158.85 6965.47 7156.82 6966.26 7154.82L6967.26 7154.49C6965.03 7164.68 6962.81 7174.88 6960.58 7185.08ZM7101.25 7197.21C7096.89 7198.45 7092.55 7199.87 7088.18 7200.82C7080.63 7202.51 7073.06 7203.62 7065.49 7205.15C7053.09 7207.63 7040.64 7210 7028.15 7212.11C7024.84 7212.68 7021.52 7213.24 7018.21 7213.86C7014.89 7214.42 7011.57 7215.04 7008.25 7215.57C7039.48 7208.58 7070.06 7201.86 7101.25 7197.21ZM7064.92 7261.66L7065.46 7262.71C7059.77 7264.39 7054.08 7266.05 7048.31 7267.56C7042.66 7269.05 7036.91 7270.36 7031.24 7271.74C7026 7273.03 7022.91 7272.59 7019.86 7270.36C7035.98 7267.68 7050.5 7264.88 7064.92 7261.66ZM7216.29 7224.73C7216.56 7224.59 7216.95 7224.45 7217.44 7224.32C7217.93 7224.17 7218.51 7224.07 7219.16 7224C7220.47 7223.84 7222.12 7223.72 7223.98 7223.63C7227.67 7223.57 7232.18 7223.8 7236.49 7224.53L7238.12 7224.76C7238.66 7224.87 7239.19 7224.98 7239.72 7225.09C7240.25 7225.2 7240.78 7225.32 7241.3 7225.43C7241.83 7225.57 7242.36 7225.7 7242.88 7225.83C7243.92 7226.1 7244.93 7226.36 7245.93 7226.68C7246.93 7227 7247.86 7227.26 7248.78 7227.61C7249.69 7227.94 7250.55 7228.26 7251.32 7228.56C7252.11 7228.89 7252.84 7229.21 7253.47 7229.51C7254.73 7230.09 7255.67 7230.66 7256.13 7231.1C7252.55 7229.96 7249.1 7228.93 7245.79 7228.11C7244.11 7227.66 7242.52 7227.34 7240.9 7226.96C7239.32 7226.66 7237.74 7226.31 7236.15 7226.13L7231.37 7225.42L7226.44 7225.01C7224.82 7224.8 7223.09 7224.86 7221.41 7224.78C7219.73 7224.73 7218.05 7224.64 7216.29 7224.73ZM6890.63 7166.66C6891.89 7166.7 6892.38 7167.63 6892.07 7168.9C6891.73 7170.23 6890.7 7172.02 6889.2 7173.47C6888.24 7172.8 6888.01 7171.67 6888.33 7170.48C6888.61 7169.38 6889.39 7168.01 6890.63 7166.66ZM6919.63 7092.65C6922.43 7091.41 6930.03 7090.23 6938.22 7089.89C6943.34 7089.64 6948.74 7089.49 6953.29 7090.8C6955.56 7091.42 6957.56 7092.46 6959.12 7093.64C6960.69 7094.82 6961.8 7096.17 6962.48 7097.33C6960.89 7095.73 6959 7094.41 6956.95 7093.44C6954.9 7092.48 6952.69 7091.89 6950.46 7091.57C6945.99 7090.94 6941.47 7091.24 6936.97 7091.47C6934.08 7091.63 6931.2 7091.76 6928.31 7091.97L6919.63 7092.65ZM6882.26 7160.1C6882.83 7159.66 6883.43 7159.28 6884.06 7158.97C6885.64 7158.18 6887.37 7157.75 6888.51 7158.23C6889.68 7158.7 6889.99 7160.26 6889.12 7161.88C6888.53 7160.96 6887.54 7160.33 6886.47 7160.12C6885.4 7159.91 6884.3 7159.99 6883.21 7160.04L6882.26 7160.1ZM7337.44 7259.33C7340.74 7260.02 7344.03 7260.78 7347.34 7261.41L7357.27 7263.24L7367.22 7264.81C7370.54 7265.35 7373.86 7265.7 7377.18 7266.15C7373.79 7266.15 7370.4 7266.14 7367.04 7265.83C7363.67 7265.54 7360.32 7265.15 7357 7264.61C7353.68 7264.01 7350.38 7263.28 7347.12 7262.44C7343.84 7261.58 7340.63 7260.48 7337.44 7259.33ZM6898.09 7152.52C6896.98 7151.69 6895.56 7151.28 6894.15 7151.23C6892.73 7151.16 6891.33 7151.33 6889.96 7151.45L6888.99 7151.53C6888.47 7151.57 6888.35 7151.04 6888.02 7150.79C6888.72 7150.42 6889.64 7149.77 6890.14 7149.73L6891.4 7149.63C6892.89 7149.52 6894.38 7149.39 6895.85 7149.56C6897.32 7149.72 6898.74 7150.31 6899.8 7151.34C6900.14 7151.68 6900.12 7152.34 6900.19 7152.88L6899.49 7153.43C6899.08 7153.07 6898.52 7152.84 6898.09 7152.52ZM6885.04 7186.22C6885.7 7184.13 6886.36 7182.06 6887.1 7179.74C6888.22 7180.47 6888.3 7182.18 6887.8 7183.68C6887.3 7185.19 6886.25 7186.37 6885.04 7186.22ZM7003.69 7070.23C7005.07 7071.31 7006.74 7073.15 7008.28 7075.38C7009.82 7077.62 7011.24 7080.22 7012.32 7082.79C7014.52 7087.92 7015.36 7092.91 7014.88 7094.36C7013.76 7090.15 7012.35 7086.05 7010.53 7082.02C7008.73 7077.99 7006.47 7074.02 7003.69 7070.23ZM7106.69 7192.16C7097.66 7194.83 7089.26 7197.17 7080.77 7199.39L7080.6 7198.66C7089.15 7196.67 7097.62 7194.57 7106.69 7192.16ZM6844.47 7052.13L6844.67 7050.95L6855.17 7049.67L6860.88 7048.98L6863.73 7048.64L6866.61 7048.36L6866.1 7049.32C6864.18 7049.51 6862.29 7049.76 6860.4 7050.01L6854.72 7050.76L6844.47 7052.13ZM7280.57 7177.95L7280.32 7178.55C7276.04 7177.17 7271.73 7175.81 7267.26 7174.6L7267.45 7173.98C7271.94 7175.2 7276.28 7176.57 7280.57 7177.95Z" fill="#000000" fill-rule="nonzero" opacity="1" stroke="none" vectornator:layerName="path"/>
<path d="M7112.76 7127.44C7114.14 7128.71 7116.06 7129.42 7118.46 7129.74C7120.88 7130.07 7123.7 7130.03 7126.71 7129.81C7129.74 7129.59 7133.11 7129.21 7136.37 7128.85C7139.65 7128.49 7143.1 7128.18 7146.18 7128.08C7149.06 7127.97 7152.13 7128 7156.66 7127.96C7154.44 7128.61 7152.33 7129.24 7150.29 7129.84C7148.25 7130.44 7146.43 7131.06 7144.58 7131.64C7142.75 7132.23 7140.98 7132.8 7139.23 7133.36C7137.54 7133.94 7135.88 7134.5 7134.21 7135.07L7134.05 7135.92C7135.87 7135.72 7137.68 7135.51 7139.46 7135.31C7141.29 7135.12 7143.08 7134.94 7144.8 7134.77C7131.37 7138.57 7118.6 7142.85 7106.52 7146.72C7105.42 7147.07 7104.29 7147.41 7103.19 7147.73C7102.1 7148.04 7101 7148.33 7099.9 7148.61C7097.72 7149.15 7095.44 7149.67 7093.38 7150.05C7091.77 7150.35 7089.24 7149.89 7089.11 7149.24C7088.6 7146.59 7088.79 7143.75 7088.9 7140.93C7088.91 7140.55 7089.87 7139.92 7090.55 7139.44C7092.54 7138.02 7094.23 7136.34 7096.37 7134.92C7097.46 7134.2 7098.63 7133.57 7100.16 7133.01C7101.69 7132.45 7103.48 7132 7105.66 7131.71C7106.35 7131.62 7107.25 7131.06 7108.44 7130.27C7109.66 7129.48 7111.1 7128.46 7112.76 7127.44Z" fill="#000000" fill-rule="nonzero" opacity="1" stroke="none" vectornator:layerName="path"/>
<path d="M6728.37 7299.41L6734.21 7300.36L6737.12 7300.83L6738.57 7301.06L6740.09 7301.23L6746.16 7301.89L6749.19 7302.22L6750.7 7302.38L6752.26 7302.48L6758.49 7302.87C6760.57 7302.99 6762.6 7303.17 6764.72 7303.2C6768.93 7303.3 6773.08 7303.49 6777.29 7303.52C6777.84 7302.97 6777.87 7302.14 6778.9 7302.04C6783.09 7301.6 6786.45 7301.82 6789.8 7302.24C6793.15 7302.65 6796.43 7303.41 6800.32 7304.21C6787.32 7305.94 6774.44 7305.79 6762.28 7304.84C6759.27 7304.55 6756.31 7304.19 6753.35 7303.85C6751.89 7303.66 6750.37 7303.54 6748.97 7303.28C6747.55 7303.04 6746.14 7302.8 6744.73 7302.56C6743.32 7302.32 6741.91 7302.09 6740.51 7301.85L6738.4 7301.5L6736.39 7301.06C6733.71 7300.48 6731.03 7299.92 6728.33 7299.39C6728.33 7299.4 6728.37 7299.41 6728.37 7299.41Z" fill="#000000" fill-rule="nonzero" opacity="1" stroke="none" vectornator:layerName="path"/>
</g>
</g>
</svg>
