<svg height="100%" stroke-miterlimit="10" style="fill-rule:nonzero;clip-rule:evenodd;stroke-linecap:round;stroke-linejoin:round;" version="1.1" viewBox="0 0 300 400" width="100%" xml:space="preserve" xmlns="http://www.w3.org/2000/svg" xmlns:vectornator="http://vectornator.io" xmlns:xlink="http://www.w3.org/1999/xlink">
<defs/>
<g opacity="1">
<path d="M121.406 80.75C118.387 80.6262 115.403 81.362 112.469 82.125C100.25 85.3025 88.432 89.8574 76.5312 94.0312C69.4482 96.4765 65.6797 104.229 68.125 111.312C70.5703 118.396 78.2919 122.133 85.375 119.688C90.4807 117.953 95.5678 116.157 100.656 114.375C100.648 114.511 100.597 114.645 100.594 114.781C100.577 115.622 100.658 116.461 100.844 117.281C101.049 118.188 101.362 119.107 101.781 119.938C102.21 120.787 102.75 121.564 103.375 122.281C103.961 122.954 104.654 123.537 105.375 124.062C105.934 124.47 106.567 124.757 107.188 125.062C108.12 125.521 109.235 125.804 110.25 126C114.831 126.884 118.882 125.338 123.25 124.344C125.941 123.731 128.562 122.874 131.25 122.25C138.187 120.641 145.235 119.415 152.281 118.406C171.796 115.611 191.514 114.225 211.188 113.125C228.692 112.146 246.212 111.411 263.719 110.469C230.229 107.969 196.746 104.6 163.156 103.781C152.741 103.527 142.28 103.628 131.875 104.219C132.054 103.932 132.258 103.663 132.438 103.375C132.489 103.293 132.351 103.568 132.312 103.656C132.287 103.714 132.207 103.766 132.25 103.812C132.289 103.855 132.34 103.733 132.375 103.688C132.466 103.569 132.539 103.436 132.625 103.312C132.764 103.112 132.901 102.925 133.031 102.719C133.806 101.493 134.453 100.207 134.875 98.8125C136.05 94.9341 135.479 90.4998 133.125 87.1562C132.23 85.8847 130.895 84.4226 129.594 83.5312C128.746 82.9505 127.842 82.424 126.906 82C126.117 81.6425 125.277 81.4025 124.438 81.1875C123.428 80.929 122.413 80.7913 121.406 80.75ZM111.688 89.875C111.703 89.8589 111.697 89.9177 111.688 89.9375C111.636 90.0409 111.557 90.1186 111.5 90.2188C111.399 90.3944 111.319 90.5741 111.219 90.75C111.235 90.7108 111.233 90.6641 111.25 90.625C111.313 90.4777 111.422 90.3599 111.5 90.2188C111.564 90.1029 111.598 89.9709 111.688 89.875Z" fill="#eeeaeb" stroke="none"/>
</g>
<g opacity="1">
<path d="M112.312 148.125C111.247 148.184 110.439 149.143 109.5 149.531C107.177 150.492 104.833 151.406 102.5 152.344C95.7923 155.04 89.0782 157.749 82.5 160.75C77.4404 163.059 72.458 165.546 67.4375 167.938C66.5807 168.995 71.1351 174.087 77.625 179.344C84.115 184.601 90.0807 188.027 90.9375 186.969C95.9518 184.579 100.947 182.088 106 179.781C106.565 179.523 107.152 179.316 107.719 179.062C112.647 182.94 117.781 186.573 122.906 190.188C123.407 190.541 124.035 190.615 124.625 190.781C124.946 190.872 125.293 190.902 125.625 190.938C127.431 191.133 129.102 190.287 130.781 189.781C133.216 189.047 135.666 188.422 138.094 187.656C145.806 185.224 153.629 183.066 161.438 180.969C185.432 174.523 209.585 168.697 234.5 167.594C235.362 166.567 230.958 161.447 224.656 156.156C218.355 150.865 212.55 147.41 211.688 148.438C204.396 148.76 197.133 149.407 189.906 150.438C172.411 152.933 155.205 157.266 138.156 161.844C136.712 162.231 135.287 162.7 133.844 163.094C133.805 163.059 133.79 163.003 133.75 162.969C128.321 158.347 122.736 153.93 116.938 149.781C115.797 148.965 114.384 148.625 113.062 148.156C112.827 148.073 112.562 148.111 112.312 148.125Z" fill="#eeeaeb" stroke="none"/>
</g>
<g opacity="1">
<path d="M125.594 227.781C124.582 227.791 123.519 228.563 122.594 228.812C121.856 229.011 121.099 229.071 120.344 229.188C118.445 229.481 116.527 229.731 114.625 230C105.829 231.242 96.9631 232.376 88.375 234.719C84.7393 235.711 81.1975 236.961 77.7188 238.406C77.6649 238.443 80.5729 242.831 84.2188 248.219C87.8646 253.606 90.8836 257.943 90.9375 257.906C99.8885 254.084 109.345 252.104 118.844 250.219C120.914 253.299 123.008 256.368 125.094 259.438C126.245 261.131 127.373 262.842 128.531 264.531C128.565 264.581 128.591 264.637 128.625 264.688C128.722 264.829 129.101 264.97 129.219 265C130.631 265.365 132.064 264.229 133.312 263.75C134.214 263.405 135.157 263.149 136.062 262.812C137.606 262.24 139.124 261.642 140.688 261.125C148.969 258.384 157.427 256.223 165.969 254.469C190.354 249.46 215.32 249.69 240.094 249.781C240.105 249.774 239.525 248.88 238.781 247.781C238.038 246.682 237.417 245.805 237.406 245.812C210.742 245.493 184.06 244.485 157.406 245.75C151.209 246.044 144.999 246.542 138.812 247.219C138.932 246.783 139.001 246.31 138.75 245.938C134.803 240.084 130.87 234.217 126.906 228.375C126.848 228.289 126.696 228.13 126.594 228.062C126.278 227.854 125.931 227.778 125.594 227.781Z" fill="#eeeaeb" stroke="none"/>
</g>
<g opacity="1">
<path d="M126.219 293.531C122.691 293.558 119.196 294.185 115.812 295.156C112.031 296.242 108.403 297.794 104.781 299.312C101.338 300.756 97.959 302.289 94.6562 304.031C89.5854 306.707 84.6717 309.686 79.625 312.406C74.7357 315.038 72.9305 321.142 75.5625 326.031C78.1945 330.921 84.267 332.757 89.1562 330.125C94.1003 327.467 98.911 324.557 103.875 321.938C103.622 322.374 103.331 322.808 103.156 323.281C102.847 324.115 102.566 324.964 102.438 325.844C102.308 326.731 102.265 327.641 102.375 328.531C102.499 329.536 102.737 330.534 103.125 331.469C103.518 332.414 104.085 333.29 104.719 334.094C105.291 334.82 105.991 335.461 106.719 336.031C107.254 336.451 107.87 336.74 108.469 337.062C112.666 339.325 117.712 338.751 122.188 337.906C123.798 337.602 125.405 337.323 127 336.938C129.867 336.244 132.675 335.327 135.531 334.594C139.188 333.655 142.86 332.785 146.531 331.906C168.81 326.575 191.494 321.438 214.375 319.656C219.797 319.234 225.219 319.058 230.656 319.031C236.521 318.996 241.255 314.209 241.219 308.344C241.183 302.479 236.396 297.777 230.531 297.812C222.202 297.873 213.877 298.295 205.594 299.188C187.588 301.128 169.844 304.88 152.25 309.094C146.294 310.52 140.339 312.039 134.406 313.594C136.054 310.953 137.821 308.332 137.969 305.094C138.002 304.365 138.027 303.625 137.906 302.906C137.738 301.902 137.52 300.893 137.094 299.969C136.602 298.903 135.98 297.897 135.188 297.031C134.401 296.172 133.447 295.457 132.438 294.875C131.571 294.376 130.591 294.072 129.625 293.812C128.627 293.544 127.284 293.523 126.219 293.531Z" fill="#eeeaeb" stroke="none"/>
</g>
</svg>
