<?xml version="1.0" encoding="UTF-8" standalone="no"?>
<!DOCTYPE svg PUBLIC "-//W3C//DTD SVG 1.1//EN" "http://www.w3.org/Graphics/SVG/1.1/DTD/svg11.dtd">
<!-- Created with Vectornator (http://vectornator.io/) -->
<svg height="100%" stroke-miterlimit="10" style="fill-rule:nonzero;clip-rule:evenodd;stroke-linecap:round;stroke-linejoin:round;" version="1.1" viewBox="0 0 1920 1080" width="100%" xml:space="preserve" xmlns="http://www.w3.org/2000/svg" xmlns:vectornator="http://vectornator.io" xmlns:xlink="http://www.w3.org/1999/xlink">
<defs/>
<g id="무제" vectornator:layerName="무제">
<g opacity="1" vectornator:layerName="g">
<path d="M675.18 460.92C674.15 462.1 673.23 463.68 672.16 464.46C664.01 470.35 658.06 479.1 651.18 486.54C649.76 488.1 648.35 489.69 646.96 491.29C645.58 492.9 644.25 494.56 642.89 496.2C640.17 499.48 637.57 502.85 634.85 506.1L632.25 509.23C631.51 510.16 630.73 511.1 630.09 511.95C628.74 513.69 627.56 515.29 626.7 516.6L626.35 517.1L626.07 517.54C625.9 517.82 625.64 518.16 625.53 518.37C625.39 518.61 625.23 518.85 625.08 519.08C624.99 519.26 624.88 519.43 624.76 519.6C624.68 519.7 624.65 519.76 624.63 519.8C624.6 519.85 624.56 519.9 624.52 519.95C624.48 519.99 624.42 520.06 624.39 520.08C624.38 520.09 624.36 520.1 624.33 520.11L624.29 520.12L624.27 520.13C624.26 520.13 624.28 520.14 624.24 520.13L624 520.1C623.27 520.02 622.93 519.91 622.4 519.84C621.91 519.76 621.41 519.71 620.9 519.67C620.42 519.62 619.78 519.62 619.5 519.57C618.79 519.5 618.04 519.48 617.26 519.53C616.76 519.52 616.33 519.53 615.82 519.6L615.47 519.65L615.33 519.66C615.24 519.67 615.13 519.68 615.02 519.71L614.85 519.75C614.8 519.76 614.69 519.79 614.75 519.78L614.86 519.75C614.89 519.74 614.91 519.73 614.92 519.72L614.93 519.72L614.93 519.72C614.38 519.91 616.16 519.28 613.7 520.16L613.72 520.15L613.76 520.14L613.83 520.12L614.11 520.02L614.72 519.76C614.98 519.65 615.17 519.55 615.44 519.41C616.52 518.87 617.97 518.03 619.54 516.88C619.97 516.58 620.38 516.27 620.78 515.95L621.46 515.42L621.54 515.36L621.54 515.36L621.53 515.37L621.52 515.38C621.49 515.4 621.5 515.43 621.51 515.47C621.52 515.51 621.5 515.54 621.54 515.6C621.58 515.79 621.81 516.1 622.09 516.46C622.37 516.82 622.81 517.24 623.3 517.69C623.55 517.92 623.83 518.15 624.12 518.39C624.43 518.63 624.82 518.86 625.16 519.1C628.94 521.85 633.49 523.91 638.72 525.2C643.95 526.5 649.83 527.01 656.01 526.8C661.1 526.6 666.4 525.97 671.7 524.7C677 523.47 682.31 521.83 687.53 519.86C688.31 519.53 689.13 519.19 689.96 518.84C690.8 518.49 691.65 518.21 692.6 517.85C693.53 517.52 694.5 517.25 695.51 517.1C696.52 516.96 697.57 516.89 698.68 516.95C692.96 521.43 687.18 524.48 680.98 526.98C674.82 529.46 668.59 531.27 662.56 533.11C669.39 532.15 676.24 530.42 682.87 528.05C684.55 527.52 686.16 526.79 687.8 526.15C689.45 525.53 691.03 524.73 692.63 524.01C694.21 523.33 695.87 522.41 697.5 521.58C699.14 520.77 700.75 519.8 702.37 518.89C707.51 515.9 712.38 512.32 717.25 508.51C725.02 502.5 732.6 495.71 740.4 488.7C743.36 486.03 746.68 483.61 749.65 480.83L752.08 478.56C752.92 477.77 753.57 477.15 754.83 476.01L761.6 469.85L768.46 463.71C770.76 461.67 773.1 459.69 775.44 457.67C784.82 449.7 794.59 442.14 804.67 435.55C812.09 430.74 819.64 426.38 827.28 422.57C834.93 418.88 842.66 415.69 850.42 413.1C853.23 412.27 856.04 411.35 858.86 410.62L863.09 409.57L865.21 409.05C865.92 408.89 866.62 408.79 867.32 408.65C870.13 408.17 872.96 407.54 875.76 407.31L879.97 406.84C881.37 406.69 882.75 406.7 884.14 406.62C885.53 406.57 886.92 406.49 888.31 406.46L892.43 406.59C895.19 406.64 897.9 406.82 900.63 407.22C903.35 407.63 906.09 408.18 908.81 409.07C911.53 409.94 914.24 411.11 916.75 412.69C918.3 413.66 919.63 415.06 920.82 416.45C917.41 414.03 913.49 412.08 909.65 410.77C904.27 408.94 898.88 408.21 893.49 408.07L889.43 408.01L887.4 407.99L885.34 408.12C882.6 408.31 879.87 408.41 877.1 408.9L874.03 409.36L872.5 409.6C871.99 409.7 871.47 409.82 870.96 409.93L864.82 411.32L858.69 413.12L857.16 413.58L855.64 414.11L852.6 415.18L849.57 416.25L846.56 417.46C844.56 418.3 842.54 419.03 840.56 419.98L834.6 422.68L828.69 425.63C818.97 430.61 809.43 436.43 800.13 442.92C790.83 449.41 781.8 456.6 773.11 464.11C767.6 468.85 762.13 473.7 756.95 478.62L756.05 479.48L755.34 480.18L754.01 481.52L751.38 484.19L746.18 489.49C742.72 493 739.25 496.38 735.59 499.56C730.7 503.77 725.7 507.73 720.61 511.41C715.52 515.05 710.34 518.39 705.12 521.45L702.22 523.08L700.77 523.9L699.31 524.65L696.39 526.16C695.41 526.68 694.47 527.06 693.5 527.52L690.62 528.84L687.68 530.02C685.74 530.86 683.73 531.49 681.75 532.19C673.78 534.89 665.57 536.61 657.54 537.27C648.86 537.98 640.33 537.73 632.55 535.77C631.8 535.58 631.05 535.43 630.3 535.33C629.54 535.27 628.87 535.08 628.15 535.08C626.75 535.01 625.31 535.35 623.92 536.06C628.53 538.22 633.5 539.87 638.73 541C643.99 542.05 649.5 542.5 655.11 542.52L659.35 542.41C660.77 542.34 662.19 542.18 663.62 542.07C664.33 542 665.05 541.97 665.76 541.87L667.9 541.56C669.33 541.33 670.77 541.22 672.2 540.89L676.5 540.05L680.78 538.99C682.22 538.67 683.63 538.21 685.04 537.78C686.45 537.34 687.89 536.96 689.28 536.43C689.07 537.07 689.1 537.47 688.88 537.58C679.82 542.13 670.1 545.57 660.1 547.64L656.33 548.28L654.44 548.6L652.55 548.8L648.74 549.22L644.93 549.39L643.01 549.48C642.37 549.48 641.74 549.45 641.11 549.44L637.28 549.35C636.01 549.25 634.76 549.11 633.48 549L631.57 548.82C630.94 548.74 630.32 548.61 629.69 548.51L629.53 548.95C630.09 549.19 630.64 549.44 631.2 549.68C631.78 549.88 632.36 550.08 632.95 550.29C634.14 550.71 635.37 551.13 636.67 551.58C635.71 551.67 633.78 551.54 631.09 551.23C628.46 550.73 625.06 550.13 621.36 548.8C619.46 548.27 617.57 547.38 615.57 546.52C615.07 546.3 614.56 546.08 614.05 545.86C613.55 545.63 613.07 545.33 612.57 545.07C611.58 544.52 610.57 543.97 609.55 543.41C605.5 541.12 601.66 538.15 598.67 534.69C597.2 532.95 595.94 531.1 595.03 529.16C594.81 528.67 594.58 528.2 594.41 527.7C594.2 527.22 594.06 526.71 593.93 526.21C593.79 525.71 593.64 525.21 593.5 524.71C593.42 524.2 593.33 523.69 593.25 523.19C592.58 519.15 593.3 515.1 594.37 511.63C596.63 504.63 600.17 499.88 601.43 498.79C599.2 502.62 597.39 506.36 596.14 510.13C594.87 513.9 594.27 517.71 594.59 521.48C594.96 519.73 595.28 514.77 598.47 507.99C600.03 504.61 602.22 500.82 604.9 496.87C606.26 494.9 607.68 492.87 609.23 490.82C610.83 488.72 612.44 486.59 614.06 484.46C627.01 467.31 640.95 450.6 643.65 445.57C632.86 457.41 623.24 468.83 614.03 480.59L613.29 480.01C615.22 477.15 617.02 474.17 619.15 471.46C631.02 456.66 643.69 442.54 656.72 428.79C667.64 417.26 678.7 405.83 690.28 394.93C693.72 391.64 697.16 388.34 700.6 385.05C701.56 384.15 702.39 383.15 703.28 382.19L702.89 381.94C699.25 384.5 695.72 387.19 692.12 389.85C701.14 379.59 710.25 369.85 720.74 359.41C718.31 360.62 717.3 360.95 716.44 361.59C713.1 364.05 710.55 365.27 709.29 363.25C709.07 362.89 706.76 363.72 705.69 364.53C700.31 368.59 695.04 372.85 689.94 377.3C679.14 386.73 668.77 396.64 658.64 406.79C656.86 408.59 654.83 410.12 652.91 411.78L652.26 411.06C660.16 401.77 668.39 392.76 676.85 383.92L676.32 383.27C672.54 386.33 668.79 389.41 665.15 392.66C657.89 399.24 650.73 405.95 643.79 412.88C636.8 419.77 630.02 426.88 623.33 434.08C618.23 439.61 613.15 445.14 608.14 450.74C607.5 451.46 606.54 451.77 605.73 452.27C607.33 449.63 609 447.2 610.73 444.9C612.45 442.6 614.14 440.36 615.85 438.14C625.27 425.77 635.56 414.12 647.5 404.36C649.31 402.89 651.13 401.36 652.84 399.55C654.57 397.75 656.23 395.69 657.68 393.08C655.85 394.75 654.07 396.37 652.35 397.95C650.65 399.56 648.99 401.13 647.36 402.67C644.08 405.73 641.02 408.79 637.92 411.81L637.04 410.9C643.53 403.19 650.25 395.66 657.23 388.09C664.27 380.58 671.55 372.99 679.38 365.39C670.29 372.37 662.46 378.54 655 385.25C644.8 394.55 634.77 402.35 624.36 408.83C623.66 409.27 623 409.31 622.13 409.6C623.54 407.45 624.88 405.39 626.21 403.36C627.57 401.34 628.92 399.35 630.31 397.3C629.44 397.64 629.01 397.67 628.66 397.96C618.24 406.61 608.1 415.75 598.98 426.55C596.76 429.22 594.5 431.86 592.23 434.48C589.98 437.12 587.73 439.77 585.48 442.41C582.95 445.38 580.49 448.41 577.99 451.42L570.65 460.56C570.07 461.27 569.35 462.21 568.67 463.1C567.99 463.97 567.29 464.91 566.6 465.86L565.56 467.28L564.5 468.77C563.8 469.78 563.1 470.75 562.39 471.85C559.57 476.08 556.72 480.73 554.04 486.28C550.51 493.64 547.14 502.79 545.86 514.08C545.72 515.5 545.63 516.99 545.55 518.45C545.48 519.92 545.41 521.36 545.47 522.92C545.51 524.45 545.58 525.98 545.67 527.51C545.76 529.03 546 530.62 546.21 532.17C546.6 535.29 547.34 538.37 548.16 541.43C548.55 542.95 549.06 544.48 549.59 546C550.11 547.54 550.71 548.95 551.31 550.42C553.43 555.38 556.01 559.85 558.76 563.78C561.51 567.72 564.42 571.14 567.34 574.17C570.27 577.19 573.22 579.82 576.13 582.17C577.59 583.34 579.05 584.45 580.49 585.49C581.93 586.53 583.32 587.4 584.76 588.35C596.15 595.83 609.01 601.07 621.95 603.86C631.68 606.06 641.24 607.01 650.57 607.3C652.21 607.33 653.84 607.44 655.68 607.57C657.53 607.72 659.51 607.72 661.97 607.77C659.11 608.52 657.83 609.09 656.39 609.17C642.87 610.04 628.39 609.4 613.87 605.46L610.19 604.41C608.97 604.04 607.75 603.72 606.53 603.25C604.09 602.36 601.66 601.44 599.25 600.49C598.04 600.04 596.85 599.48 595.66 598.91L592.1 597.2L588.57 595.44C587.41 594.83 586.27 594.12 585.13 593.46C582.84 592.09 580.6 590.76 578.33 589.28C576.02 587.74 573.65 586.02 571.28 584.15C566.52 580.38 561.58 575.86 556.76 570.09C552.67 565.14 548.68 559.29 545.48 552.32C545.08 551.45 544.69 550.57 544.32 549.7C543.95 548.8 543.6 547.88 543.25 546.97C542.53 545.13 542.01 543.31 541.46 541.47C540.34 537.78 539.64 534.04 539.09 530.27C538.81 528.38 538.71 526.58 538.58 524.72L538.44 521.95C538.4 521.02 538.43 520.17 538.44 519.28C538.47 517.52 538.54 515.75 538.64 513.99C538.79 512.33 538.98 510.68 539.19 509.04C539.3 508.23 539.41 507.37 539.54 506.6L539.98 504.32C540.29 502.82 540.6 501.24 540.97 499.82C541.71 497.05 542.52 494.17 543.42 491.73C545.2 486.56 547.21 482.24 549.27 478.15C550.29 476.21 551.35 474.2 552.39 472.46C552.91 471.57 553.44 470.64 553.96 469.79L555.53 467.28C556.06 466.42 556.57 465.66 557.09 464.87L558.65 462.54C559.66 461.09 560.71 459.56 561.69 458.22L563.17 456.19L564.47 454.46L567.06 451C574.2 441.52 581.27 431.95 588.6 422.61C590.51 420.13 591.79 417.27 593.63 414.24C588.51 415.8 585.34 420.07 582.41 424.33C576.53 432.98 571.03 441.7 563.86 449.71C563.17 450.48 562.48 451.27 561.79 452.08L560.77 453.3C560.42 453.73 560.13 454.07 559.72 454.62C558.94 455.64 558.19 456.63 557.42 457.72C556.64 458.83 555.89 459.9 555.13 461.05C551.83 466.08 548.4 471.76 545.13 478.66C541.9 485.56 538.73 493.74 536.85 503.96C535.91 509 535.39 514.71 535.46 520.62C535.52 523.6 535.78 526.72 536.12 529.75C536.6 532.87 537.13 535.98 537.92 539.05C538.33 540.58 538.78 542.11 539.25 543.63C539.72 545.14 540.22 546.65 540.83 548.16C541.41 549.68 542.04 551.16 542.71 552.58L543.72 554.73L544.79 556.78C547.69 562.21 551.01 566.94 554.41 571.01C555.52 572.37 556.67 573.51 557.76 574.75C561.98 579.45 566.29 583.28 570.45 586.55C572.52 588.16 574.59 589.69 576.58 591.07C577.61 591.8 578.54 592.37 579.52 593.01L582.43 594.87C586.9 597.86 591.51 600.32 596.18 602.84C598.53 603.99 600.91 605.03 603.32 606.05C604.53 606.55 605.75 607.07 606.97 607.5C608.19 607.91 609.42 608.3 610.66 608.67C620.13 611.64 629.6 613.08 638.88 613.87C641.18 614.01 643.48 614.13 645.79 614.24C646.95 614.31 648.08 614.31 649.2 614.3L652.58 614.27C657.13 614.3 661.48 613.92 665.9 613.62C667.84 613.48 669.7 613.34 671.62 613.29C673.52 613.21 675.46 613.21 677.34 613.05L677.15 613.66C675.02 614.3 672.84 614.87 670.44 615.52C669.23 615.83 667.99 616.19 666.61 616.5C665.22 616.79 663.75 617.1 662.16 617.44C677.08 617.76 689.41 615.47 701.21 611.5C711.79 607.9 721.95 603.64 732.33 600.04C729.28 601.91 726.04 603.76 722.77 605.43C721.1 606.23 719.44 607.03 717.77 607.83L715.25 609.01L712.68 610.1C702.11 614.62 691.02 618.34 679.19 620.94C667.38 623.54 654.87 625.11 641.65 625.13C638.79 625.14 635.17 626.07 634.37 626.79C633.66 627.49 635.73 629.04 638.06 629.74C639.3 630.13 640.97 630.47 642.78 630.73C644.58 630.97 646.57 631.21 648.29 631.21C651.05 631.26 653.82 631.28 656.59 631.28C659.35 631.26 662 631.07 664.71 630.94L668.75 630.69L672.7 630.28C675.32 629.97 677.99 629.73 680.55 629.31C690.91 627.79 700.81 625.38 710.46 622.42C719.6 619.57 729.33 616.14 736.78 611.59C738.7 610.39 740.59 609.21 742.47 608.03C743.42 607.45 744.37 606.88 745.31 606.3C746.23 605.72 747.15 605.14 748.07 604.57C749.9 603.42 751.81 602.3 753.6 601.16L758.99 597.76C760.81 596.63 762.47 595.49 764.22 594.36C765.96 593.22 767.68 592.09 769.31 590.93C770.96 589.78 772.62 588.62 774.23 587.46C775.8 586.29 777.35 585.12 778.89 583.92C786.45 577.99 794.13 572.69 800.98 567.23C804.29 564.6 807.43 562.04 810.53 559.5L815.09 555.76C816.4 554.68 818.64 552.82 818.17 553.25L819.55 552.42C819.8 552.27 820.17 552.6 820.18 551.78C820.23 549.55 820.71 546.4 821.93 543.07C822.07 542.69 822.2 542.01 822.33 541.39C823.12 537.61 824.58 536.17 825.29 537.38C825.61 537.93 825.84 538.81 825.79 540.21C825.74 541.6 825.41 543.54 824.75 546.14C825.3 546.13 826.22 545.09 827.16 544.48C828.06 543.89 829.02 543.72 828.6 545.84C826.32 548.4 825.6 549.16 824.95 549.54C824.35 549.93 823.82 550.08 823.14 551.5C823.88 551.2 824.67 550.97 825.48 550.98L824.76 552.31C824.31 552.9 823.9 553.5 823.63 553.93C823.3 554.8 822.81 555.83 822.34 556.67C822.06 557.17 821.72 557.7 821.74 557.67C821.81 557.56 822.01 557.33 822.23 557.13C822.35 557.02 823.16 556.13 824.97 554.41C825.33 553.8 825.72 553.17 826.02 552.45C826.97 551.34 827.45 550.85 827.52 550.85C827.75 550.84 827.8 551.01 827.88 551.16C828.14 551.66 828.45 552.46 828.85 553.57C828.99 553.95 829.15 554.34 829.35 554.78C829.45 555 829.57 555.22 829.71 555.45C829.73 555.49 829.74 555.44 829.8 555.7L830.18 557.03C830.44 557.96 830.79 559.04 831.1 560.04C831.44 561.07 831.74 562.02 832.14 563.11C832.93 565.26 833.72 567.31 834.74 569.58C835.24 570.69 835.73 571.77 836.28 572.89C836.85 574.03 837.44 575.16 838.05 576.28L838.98 577.96L840 579.67C840.69 580.81 841.4 581.93 842.12 583.04C843.66 585.28 845.26 587.57 846.97 589.61C850.42 593.74 854 597.65 858.24 601.19C860.32 602.95 862.46 604.73 864.66 606.24C866.86 607.76 869.12 609.21 871.41 610.57L873.14 611.58C873.72 611.91 874.26 612.17 874.82 612.47C875.94 613.04 877.07 613.6 878.21 614.13C879.35 614.67 880.5 615.19 881.65 615.69L883.38 616.43L885 617.03C887.17 617.82 889.36 618.55 891.56 619.22L893.2 619.7L894.71 620.08L897.75 620.79L900.8 621.43L902.32 621.72L903.7 621.93C905.54 622.2 907.39 622.44 909.24 622.65L910.63 622.8L911.89 622.89L914.39 623.04L916.89 623.15C917.71 623.18 918.6 623.22 919.31 623.21C920.81 623.21 922.31 623.18 923.82 623.15L926.05 623.08L928.09 622.95C929.63 622.84 931.22 622.72 932.73 622.57L936.98 622.05C937.67 621.96 938.43 621.87 939.07 621.76L941.03 621.44C942.32 621.22 943.68 621 944.9 620.76C947.31 620.28 949.8 619.77 951.98 619.23C954.29 618.7 956.38 618.13 958.49 617.56C959.56 617.28 960.51 616.99 961.52 616.7L964.11 615.94L968.11 614.75L976.13 612.39C986.83 609.27 997.53 606.15 1008.22 603.03C1024.76 598.16 1041.34 593.18 1057.87 588.53C1067.72 585.77 1077.02 583.8 1085.4 582.05C1088.55 581.38 1091.53 580.38 1094.44 579.65L1094.13 578.52C1089.78 579.5 1085.28 580.67 1080.48 582.02C1078.04 582.7 1075.61 583.37 1073.17 584.05C1070.61 584.78 1068.14 585.44 1065.47 586.16C1060.23 587.55 1054.57 589 1048.95 590.35C1043.33 591.7 1037.7 592.98 1032.08 594.2C1021.26 596.55 1010.52 601.34 999.63 601.9C1001.12 601.12 1002.67 600.6 1004.23 600.09C1013.58 597.06 1022.97 594.12 1032.27 590.98L1058.69 582C1067.3 579.06 1075.36 576.32 1082.91 574C1090.79 571.57 1098.11 569.44 1104.87 567.77C1106.4 567.42 1107.62 566.05 1109.16 565.76C1114.65 564.8 1119.75 564.27 1124.48 564.17C1125.64 564.18 1126.8 564.19 1127.97 564.17C1129.14 564.22 1130.29 564.24 1131.56 564.35C1134.07 564.54 1136.79 564.83 1139.79 565.29C1147.96 566.49 1157.89 569.01 1169.61 571.48C1172.33 572.05 1175.17 572.61 1178.08 573.16C1181.02 573.67 1184.01 574.14 1186.98 574.62C1189.96 575.07 1192.92 575.6 1195.92 575.97C1198.91 576.32 1201.91 576.67 1204.92 577.01C1204.62 576.27 1204.39 575.69 1203.88 574.43C1211.43 575.66 1218.88 576.27 1226.24 577.04C1229.92 577.35 1233.59 577.52 1237.24 577.76C1239.07 577.87 1240.89 577.97 1242.72 578.08C1244.54 578.17 1246.37 578.17 1248.19 578.22L1259.02 578.37L1269.84 578.13C1281.57 577.9 1293.44 576.41 1304.84 575.94C1306.69 575.89 1308.46 575.76 1310.14 575.51C1311.83 575.28 1313.44 575.01 1314.98 574.69C1318.06 574.06 1320.87 573.26 1323.47 572.33C1328.63 570.3 1332.92 567.78 1336.87 565.08C1338.22 564.18 1339.27 563.4 1340.21 562.81C1341.15 562.22 1341.97 561.81 1342.85 561.55C1344.6 561.02 1346.56 561.09 1350.07 561.49C1350.8 561.57 1352.15 561.47 1353.79 561.23C1355.43 560.95 1357.36 560.51 1359.28 560.02C1363.11 559.04 1366.87 557.82 1368 557.03C1372.28 553.96 1376.38 550.73 1380.07 547.91C1376.49 548.25 1371.58 547.96 1366.93 549.29C1362.33 550.43 1357.73 551.76 1353.15 553.17C1348.55 554.48 1343.94 555.8 1339.36 557.11C1338.45 557.37 1337.56 557.62 1336.68 557.79C1335.8 557.96 1334.94 558.09 1334.09 558.2C1332.4 558.42 1330.76 558.53 1329.16 558.59C1325.95 558.67 1322.9 558.61 1319.71 558.41C1322.89 557.5 1326.06 556.48 1329.26 555.64C1332.45 554.74 1335.69 554.04 1338.88 553.09C1342.09 552.2 1345.31 551.36 1348.55 550.55L1350.98 549.94L1353.39 549.25L1358.23 547.88C1371.17 544.39 1384.03 540.01 1396.26 534.31C1395.01 534.32 1394.11 534.3 1392.73 534.25C1394.45 533.13 1396.05 531.9 1397.67 530.74C1399.27 529.56 1400.88 528.39 1402.55 527.16C1395.45 526.45 1402.56 522.83 1405.69 520.05C1404.45 519.63 1403.43 519.24 1402.65 518.96C1403.47 516.85 1406.55 514.97 1409.55 513.16C1412.54 511.33 1415.4 509.5 1415.63 507.32C1411.71 508.57 1408.22 509.69 1404.72 510.81L1404.75 509.91C1405.63 509.43 1406.57 508.99 1407.36 508.46C1409.22 507.22 1411 505.94 1412.8 504.67L1406.96 505.55C1406.81 505.57 1406.63 505.65 1406.47 505.69L1399.72 507.14C1400.48 505.78 1401.24 504.43 1402.25 502.63C1401.67 502.68 1400.57 502.87 1399.63 502.85C1397.36 502.84 1396.25 502.5 1396.32 501.86C1396.4 501.24 1397.62 500.21 1399.99 498.68C1401.6 497.64 1403.06 496.5 1404.58 495.41L1404.28 494.83C1400.96 496.05 1397.67 497.33 1394.34 498.47L1384.29 501.77C1383.45 502.05 1382.6 502.35 1381.76 502.58C1380.92 502.79 1380.1 502.97 1379.37 503.05C1377.9 503.22 1376.76 503.05 1376.34 502.15C1375.99 501.4 1378.63 499.49 1380.3 497.64C1380.86 496.55 1381.73 494.85 1382.58 493.19C1381.26 493.65 1379.9 494.17 1378.49 494.63C1377.07 495.07 1375.6 495.52 1374.12 495.98C1371.14 496.88 1368.1 497.89 1365.02 498.76L1364.85 498.13C1368.12 496.33 1371.32 494.4 1374.97 492.3C1371.7 493.07 1369.17 493.67 1366.64 494.26L1366.5 493.76C1371.43 491.4 1376.42 489.25 1381.34 486.55C1375.32 485.63 1375.55 483.89 1381.69 479.44C1380.72 479.18 1379.77 478.92 1378.65 478.61C1380.51 477.45 1382.27 476.36 1384.03 475.26C1385.79 474.17 1387.48 472.92 1389.31 471.69C1386.83 472.09 1384.9 472.63 1383.22 472.62C1381.42 472.61 1379.91 472.19 1378.22 471.93C1377.71 473.18 1376.48 474.41 1374.83 475.52C1374 476.07 1373.07 476.6 1372.06 477.08C1371.03 477.52 1369.93 477.9 1368.8 478.23C1364.24 479.54 1359.18 480.05 1355.74 478.63C1356.87 478.13 1358.04 477.71 1359.18 477.22C1360.33 476.73 1361.48 476.26 1362.65 475.8C1364.99 474.9 1367.35 474 1369.73 473.08C1372.08 472.1 1374.39 470.98 1376.68 469.78C1378.95 468.54 1381.23 467.29 1383.29 465.56C1380.87 466.04 1379.48 465.9 1378.47 466.38C1376.49 467.32 1374.53 468.29 1372.58 469.3L1369.67 470.82L1366.71 472.23C1362.51 474.21 1358.54 476.79 1354.08 478.19C1351.46 479.07 1348.78 479.79 1346.09 480.44C1343.36 481 1340.63 481.54 1337.95 482.23C1333.68 483.43 1329.38 484.64 1325.09 485.84L1325.21 486.51C1326.64 486.47 1328.25 486.24 1329.47 486.43C1330.89 486.66 1331.97 487.26 1333.21 487.69C1331.86 488.6 1330.66 489.64 1329.08 490.4C1327.96 490.94 1326.33 491.07 1324.95 491.44C1312.18 494.5 1299.2 496.81 1286.15 498.47C1272.83 500.09 1259.44 501.37 1245.93 501.28C1242.03 501.15 1238.11 500.86 1234.2 500.52C1230.3 500.06 1226.42 499.44 1222.54 498.93C1220.78 498.73 1219.07 498.29 1217.38 497.89C1215.69 497.48 1214.02 497.08 1212.4 496.68C1215.21 496.02 1217.61 495.45 1220 494.89L1219.33 493.94C1221.33 494.2 1223.35 494.28 1225.36 494.42L1231.39 494.83C1247.32 495.74 1263.28 495.24 1279.14 493.87L1283.9 493.5C1285.49 493.38 1287.07 493.15 1288.65 492.99C1291.81 492.62 1294.99 492.35 1298.15 491.95L1307.62 490.59C1308.41 490.47 1309.2 490.37 1309.99 490.24L1312.34 489.79L1317.04 488.89C1318.28 488.65 1319.44 488.08 1320.64 487.67C1317.62 487.95 1314.64 488.26 1311.68 488.58L1309.47 488.82L1307.25 488.97C1305.77 489.08 1304.3 489.19 1302.84 489.3C1296.99 489.89 1291.15 490.05 1285.35 490.52C1281.81 490.71 1278.26 490.95 1274.71 491.32L1272.04 491.59L1269.37 491.75C1267.58 491.84 1265.8 491.93 1264.02 492.02L1259.53 492.21L1255.04 492.2C1252.05 492.18 1249.05 492.23 1246.05 492.15C1240.07 491.84 1234.07 491.69 1228.13 490.98C1226.43 490.81 1224.74 490.62 1223.05 490.41C1221.35 490.23 1219.69 489.85 1218.01 489.57L1212.98 488.68C1211.31 488.38 1209.62 488.16 1207.96 487.8L1201.01 486.46L1197.53 485.81L1194.02 485.06C1189.29 484.01 1184.33 482.82 1179.15 481.6C1168.78 479.15 1157.46 476.49 1144.98 474.74C1139.98 474.04 1134.74 473.5 1129.53 473.19C1124.33 472.87 1119.17 472.78 1114.07 472.88C1103.88 473.09 1093.98 474.12 1084.5 475.78C1077.63 477.01 1070.91 478.46 1064.4 480.07C1057.91 481.7 1051.57 483.44 1045.4 485.26C1039.25 487.08 1033.22 488.95 1027.36 490.81L1009.84 496.37C1001.76 498.95 993.94 502.22 985.99 505.16C983.46 506.1 980.93 507.1 978.34 507.87L955.12 514.64L932.5 521.48L932.16 520.58C932.7 520.26 933.25 519.95 933.8 519.65C933.92 519.58 934.1 519.49 934.3 519.4L934.86 519.14L935.98 518.63C937.48 517.96 939.02 517.33 940.57 516.73C943.68 515.53 946.88 514.46 950.11 513.41C956.58 511.31 963.17 509.32 969.44 506.69C962.69 508.5 956.04 510.28 949.45 512.04C946.15 512.92 942.87 513.8 939.59 514.68C936.41 515.52 932.64 516.57 930.63 517.01L930.35 516.1C930.88 515.89 931.45 515.58 932 515.34L932.42 515.15L932.63 515.06L932.92 514.95C933.31 514.8 933.7 514.67 934.1 514.56C945.51 511.39 956.99 508.48 968.35 505.12C979.29 501.88 990.22 498.58 1001.14 495.26L1034.04 485.27C1035.56 484.82 1037.1 484.52 1038.65 484.07C1045.82 481.97 1053.19 479.85 1062.48 477.53C1059.78 477.86 1058.6 477.93 1057.42 478.16C1048.93 479.82 1040.71 481.65 1032.76 483.54C1025.94 485.15 1019.12 486.76 1012.3 488.37C1005.52 489.98 998.75 491.65 992.01 493.46C977.4 497.38 962.86 501.82 948.31 506.14L929.19 511.86C926.93 512.5 924.96 512.93 923.45 513.17C923.26 513.2 923.05 513.25 922.89 513.27L922.43 513.32L921.97 513.39C921.82 513.41 921.74 513.4 921.63 513.41C921.14 513.47 920.94 513.45 920.89 513.47C920.89 513.49 920.9 513.42 920.89 513.51L920.89 513.74L920.88 514.2L920.85 515.13C920.82 515.75 920.78 516.38 920.73 517.02C920.68 517.65 920.61 518.3 920.53 518.93C920.5 519.46 920.47 519.98 920.41 520.52C920.31 521.58 920.15 522.66 919.93 523.73C919.89 523.98 919.8 524.31 919.78 524.5L919.69 525.13C919.62 525.55 919.54 525.97 919.45 526.39C919.36 526.81 919.25 527.23 919.13 527.65L918.94 528.28L918.84 528.59L918.79 528.82C918.65 529.42 918.47 530.02 918.25 530.61C918.14 530.9 918.02 531.19 917.89 531.48L917.79 531.69L917.75 531.82L917.65 532.09C917.51 532.45 917.35 532.8 917.17 533.14L916.86 533.67C916.82 533.75 916.78 533.83 916.74 533.91C916.65 534.08 916.54 534.25 916.4 534.44L916.29 534.58C916.25 534.62 916.29 534.58 916.28 534.59C916.29 534.58 916.3 534.58 916.3 534.58C916.31 534.58 916.3 534.59 916.28 534.62L916.27 534.63L916.33 534.56L916.45 534.43C916.53 534.35 916.61 534.28 916.69 534.21C916.85 534.07 917 533.96 917.15 533.87L917.15 533.87L917.15 533.87C917.41 533.67 914.91 535.58 915.97 534.77L915.98 534.76L916 534.75L916.03 534.72L916.1 534.67L916.23 534.58L916.49 534.41C916.8 534.19 917.05 534.06 917.41 533.86C918.92 533.02 921.56 531.85 925.89 530.71L925.9 530.71C924.01 531.21 942.43 526.34 934.63 528.4L934.64 528.38L934.66 528.35L934.69 528.28L934.76 528.14L934.89 527.87L935.16 527.32C935.2 527.23 935.27 527.14 935.27 527.04L935.26 526.74L935.25 526.14C935.23 525.34 935.21 524.54 935.23 523.73C935.23 522.12 935.29 520.48 935.4 518.82C935.56 515.64 936.05 511.1 935.71 509.71C935.07 507.29 935.08 504.2 935.32 500.75C935.39 499.05 935.58 497.22 935.73 495.39C935.84 493.58 936.05 491.67 936.14 489.83C936.59 481.76 936.33 474.35 935.8 467.72C935.26 461.07 934.47 455.22 933.76 449.98L932.75 442.54L931.88 435.84C931.23 431.53 930.42 427.26 928.02 422.67C927.06 420.84 925.8 418.94 924.19 417.13C922.57 415.33 920.65 413.58 918.5 412.12C916.35 410.65 914.02 409.44 911.65 408.51C909.29 407.57 906.91 406.85 904.53 406.31C902.16 405.76 899.79 405.39 897.42 405.11C895.05 404.86 892.65 404.77 890.27 404.58C889.08 404.46 887.87 404.5 886.66 404.5L883.03 404.5C882.42 404.51 881.82 404.48 881.21 404.52L879.37 404.65L875.7 404.9C873.81 404.97 871.93 405.23 870.07 405.35C868.2 405.5 866.34 405.56 864.45 405.89C865.37 405.29 866.28 404.76 867.16 404.41C868.04 404.07 868.91 403.82 869.77 403.67L874.46 402.85C876.01 402.66 877.56 402.53 879.12 402.37C882.24 401.97 885.29 401.99 888.37 401.9C889.89 401.82 891.38 401.91 892.86 401.98L897.33 402.2C900.29 402.42 903.23 402.84 906.19 403.48C909.15 404.13 912.11 405.03 915.03 406.31C916.48 406.95 917.92 407.68 919.3 408.52C920.69 409.34 922.01 410.27 923.22 411.28C926.95 414.29 929.51 417.85 931.14 421.06C932.79 424.32 933.72 427.37 934.48 430.37L938.93 450.47C940.1 455.98 941.38 462.19 942.19 469.34C943 476.47 943.36 484.6 942.46 493.56C942.3 495.15 942.15 496.75 941.99 498.34C941.8 499.94 941.6 501.55 941.4 503.16C940.97 506.39 940.53 509.6 940.28 512.77C940.02 515.95 939.85 519.12 939.75 522.3C939.72 523.1 939.7 523.89 939.69 524.69L939.66 525.89C939.47 526.26 939.24 526.62 939.03 526.99C933.88 528.46 928.69 529.93 923.43 531.43C923 531.56 922.53 531.73 922.12 531.87C921.76 531.98 921.4 532.11 921.04 532.24C920.57 532.43 920.11 532.61 919.63 532.8C919.23 532.96 918.76 533.19 918.4 533.36C918.08 533.5 917.76 533.67 917.43 533.86C917.12 534.04 916.96 534.11 916.71 534.28L916.21 534.61L916.01 534.76L915.98 534.78L915.97 534.79C916.5 534.39 914.79 535.69 917.15 533.89L917.15 533.89L917.15 533.89L917.15 533.89L917.14 533.9L917.1 533.93L917.01 533.99C916.77 534.15 916.52 534.38 916.28 534.65C916.31 534.62 916.31 534.6 916.31 534.6C916.31 534.6 916.3 534.6 916.29 534.61C916.3 534.6 916.25 534.65 916.3 534.59L916.42 534.44C916.57 534.24 916.69 534.05 916.78 533.87L916.85 533.74L916.88 533.68L916.97 533.54C917.09 533.34 917.2 533.14 917.3 532.95C917.5 532.56 917.66 532.16 917.79 531.78C918.02 531.26 918.3 530.59 918.48 530C918.58 529.7 918.66 529.4 918.74 529.1L918.85 528.65L919.04 528.04C919.29 527.22 919.48 526.4 919.63 525.59L919.76 524.83C919.79 524.58 919.82 524.33 919.91 523.98C920.04 523.33 920.16 522.69 920.25 522.04C920.34 521.39 920.42 520.75 920.47 520.12L920.54 519.16C920.54 518.87 920.63 518.41 920.66 518.05C920.83 516.5 920.92 514.96 920.93 513.44L920.92 512.3L920.97 511.13C920.99 511.13 921.01 511.14 921.02 511.15C921.01 511.23 921.35 511.21 921.62 511.26C921.73 511.3 922.02 511.25 922.21 511.26C922.44 511.25 922.6 511.29 922.91 511.24C923.47 511.18 924 511.17 924.71 511.05C925.34 510.98 926.11 510.83 926.86 510.69C927.22 510.63 927.65 510.52 928.06 510.43C928.48 510.33 928.87 510.26 929.31 510.14L930.63 509.79L931.42 509.57L932.38 509.29C941.12 506.73 949.74 503.69 958.43 500.93L996.92 488.78C1007.13 485.55 1017.35 482.31 1027.57 479.07C1037.92 475.81 1048.94 472.5 1060.56 469.71C1077.13 465.77 1095.26 463.54 1114.55 463.36C1117.15 463.37 1119.71 463.31 1122.35 463.44C1124.98 463.55 1127.58 463.6 1130.25 463.85C1135.55 464.22 1140.88 464.84 1145.93 465.63C1156.03 467.22 1165.27 469.38 1173.74 471.44C1180.65 473.12 1187.08 474.66 1193.11 475.94C1196.12 476.57 1198.99 477.17 1201.83 477.6L1210.37 479.05C1213.14 479.46 1215.93 479.73 1218.71 480.06L1222.88 480.53L1227.07 480.82L1227.14 480.46C1225.53 480.15 1223.92 479.93 1222.32 479.57C1220.73 479.21 1219.13 478.85 1217.53 478.49C1214.34 477.77 1211.13 477.12 1207.95 476.19C1208.77 475.34 1209.33 474.76 1210.04 474.03C1207.73 473.51 1205.42 473 1203.11 472.48C1200.81 472 1198.52 471.43 1196.11 470.8C1190.96 469.43 1185.83 468.07 1180.71 466.71C1169.77 463.82 1157.27 460.62 1142.98 458.71L1142.98 458.03C1144.38 457.99 1145.83 457.78 1147.21 457.94C1161.58 459.44 1174.23 462.05 1185.15 464.22C1190.62 465.31 1195.7 466.32 1200.38 467.13C1202.72 467.52 1205.01 467.81 1207.32 468.17L1210.77 468.69C1211.92 468.87 1213.07 469.05 1214.23 469.15C1217.01 469.44 1219.79 469.88 1222.56 470.39C1223.94 470.67 1225.34 470.88 1226.73 471.09C1228.12 471.32 1229.51 471.55 1230.89 471.78C1232.61 472.07 1234.33 472.41 1236.05 472.73L1241.23 473.53L1246.43 474.36C1248.16 474.66 1249.92 474.76 1251.67 474.95L1256.31 475.37C1257.86 475.5 1259.41 475.66 1260.97 475.68C1264.09 475.77 1267.21 475.83 1270.34 475.84C1272.12 475.85 1274.23 474.95 1275.61 474.17C1277.86 472.88 1279.62 471.33 1281.85 469.67C1279.11 469.41 1276.03 468.87 1272.9 468.89C1271.05 468.94 1269.19 468.84 1267.34 468.8L1261.78 468.69C1260.85 468.67 1259.93 468.69 1259 468.64L1256.22 468.48L1250.68 468.18C1250 468.14 1249.28 468.4 1248.58 468.39C1246.45 468.35 1244.33 468.18 1242.21 468.09C1240.09 467.97 1237.96 467.9 1235.84 467.76L1229.5 467.12L1226.33 466.79L1224.75 466.62L1223.18 466.36C1218.19 465.52 1213.3 464.25 1208.4 463.07C1206.62 462.68 1204.81 462.45 1202.98 462.23C1201.13 461.99 1199.29 461.69 1197.34 461.24C1190.26 459.59 1182.23 457.43 1173.17 455.31C1164.11 453.2 1153.91 451.12 1142.59 449.95C1140.93 449.78 1139.21 449.65 1137.52 449.51C1135.82 449.38 1134.11 449.32 1132.41 449.23C1130.71 449.16 1128.99 449.06 1127.31 449.05L1122.28 449.04L1119.77 449.05L1117.3 449.14L1112.37 449.36C1109.12 449.56 1105.92 449.84 1102.72 450.14C1090.06 451.47 1078.19 453.74 1067.01 456.29C1060.54 457.78 1054.22 459.27 1048.17 460.82C1042.07 462.35 1036.23 463.93 1030.56 465.56L991.99 476.95L953.75 488.35C945.34 490.87 937.07 493.85 928.66 496.4C928.23 496.53 927.8 496.65 927.37 496.78L927.05 496.87L926.86 496.92L926.48 497.01C925.98 497.11 925.43 497.25 925 497.28C924.55 497.33 924.07 497.38 923.66 497.38C923.27 497.37 922.88 497.34 922.49 497.3C921.83 497.15 921.17 496.96 920.8 496.58L920.48 496.32C920.41 496.21 920.37 496.09 920.32 495.97L920.18 495.61L920.11 495.43C920.17 495.94 920.23 496.46 920.29 496.98C920.23 496.44 920.16 495.9 920.1 495.36L920.08 495.14L920.08 495.13L920.09 495.11L920.11 495.07L920.17 494.94C920.23 494.85 920.19 494.83 920.34 494.72C920.45 494.62 920.56 494.53 920.65 494.42C920.7 494.37 920.74 494.31 920.79 494.25C920.86 494.18 920.92 494.1 920.99 494.01C921.17 493.77 921.33 493.36 921.41 492.94C921.52 492.51 921.59 492.04 921.47 491.75C921.35 491.43 921.16 491.12 920.95 490.81C920.76 490.49 920.55 490.18 920.32 489.89C920.09 489.6 919.81 489.35 919.7 489.06L919.48 488.68C919.41 488.57 919.32 488.47 919.34 488.34L919.34 488.25L919.48 489.24L919.78 491.7C919.86 492.54 919.94 493.38 920.02 494.21L920.13 495.47L920.26 496.58C920.43 498.07 920.55 499.58 920.64 501.09C920.68 501.85 920.72 502.6 920.74 503.36L920.77 504.49L920.84 505.47C920.92 506.77 920.95 508.07 920.95 509.35C920.95 509.99 920.94 510.63 920.92 511.26L920.88 512.2L920.88 513C920.89 515.09 920.74 517.09 920.51 518.91C920.44 520.25 920.31 521.45 920.13 522.56C920.04 523.11 919.94 523.64 919.83 524.14C919.73 524.63 919.71 524.93 919.64 525.32C919.52 526.04 919.37 526.69 919.21 527.3C919.12 527.61 919.04 527.9 918.96 528.18C918.91 528.32 918.87 528.46 918.83 528.6L918.76 528.9C918.57 529.69 918.33 530.41 918.01 531.19C917.94 531.37 917.82 531.61 917.77 531.75C917.73 531.87 917.68 532.01 917.63 532.15C917.52 532.42 917.39 532.72 917.22 533.05C916.79 533.79 916.77 533.9 916.56 534.22L916.4 534.45C916.36 534.51 916.23 534.66 916.28 534.61C916.3 534.59 916.3 534.59 916.3 534.59L916.28 534.62C916.42 534.46 916.56 534.33 916.7 534.21C916.84 534.09 916.97 533.99 917.11 533.91L917.13 533.89L917.14 533.88L917.15 533.88L917.15 533.88L917.15 533.88C916.62 534.28 918.33 532.98 915.97 534.78L915.97 534.78L916.03 534.73L916.14 534.64L916.36 534.49C916.47 534.42 916.58 534.35 916.69 534.27C916.85 534.17 917.02 534.07 917.2 533.97C917.39 533.87 917.72 533.67 917.97 533.55C918.27 533.41 918.56 533.27 918.84 533.13C919.22 532.95 919.64 532.77 920.04 532.62C920.51 532.42 921.01 532.22 921.37 532.1L922.45 531.74C922.86 531.6 923.26 531.47 923.65 531.35C924.05 531.24 924.44 531.13 924.84 531.02L925.56 530.81C939.22 527.19 952.89 523.56 966.59 519.93L966.64 519.68C967.04 519.26 967.44 518.85 967.82 518.45C968.08 518.26 968.02 518.02 968.09 517.81C968.14 517.59 968.18 517.38 968.22 517.16C968.4 516.3 968.57 515.49 968.72 514.72C969.07 513.12 969.37 511.72 969.63 510.49C969.9 509.17 970.13 508.05 970.33 507.06C970.52 506.04 970.66 505.14 970.77 504.33C970.96 502.72 970.98 501.5 970.8 500.47C970.61 499.45 970.26 498.61 969.73 497.79C968.07 503.61 966.81 509.22 965.84 515.25C964.83 512.47 963.7 510.67 963.29 507C963.17 505.97 963.3 503.84 963.62 501.64C963.93 499.44 964.46 497.15 964.92 495.9C968.02 487.53 971.07 478.98 973.06 470.86C973.32 469.84 973.66 468.77 973.85 467.79L974.5 464.8C974.92 462.82 975.42 460.75 975.7 458.86L976.66 453.05L977.31 447.47C977.5 446.06 977.43 444.67 977.38 442.94C977.34 442.08 977.31 441.15 977.26 440.13C977.21 439.13 977.11 438.13 977.03 436.99C974.64 439.95 972.98 442.97 971 444.06C969.21 445.07 967.54 443.71 965.85 441.72C964.98 440.79 964.15 439.6 963.3 438.49C962.43 437.44 961.59 436.29 960.75 435.36C960.39 434.98 960.06 433.9 959.78 432.63C959.66 432.01 959.53 431.36 959.41 430.73C959.3 430.11 959.21 429.52 959.15 429C959.05 428.12 959.97 426.54 960.58 426.65C963.13 427.13 963.09 423.59 963.2 420.16L963.29 418.51L963.42 416.99C963.52 415.98 963.63 415 963.75 414.01C963.99 412.07 964.25 410.29 964.4 408.4C964.48 407.42 964.55 406.48 964.6 405.44C964.64 404.42 964.68 403.32 964.73 402.06C962.17 402.35 960.52 402.58 958.86 402.73C956.25 402.97 953.88 401.77 951.47 399.27C950.23 398.01 948.95 396.42 947.52 394.54C946.05 392.56 944.48 390.45 942.73 388.1C940.69 385.34 938.84 382.68 937.14 380.32C933.93 375.81 929.02 373.5 924.9 374.35C924.15 374.5 923.5 374.71 922.3 375.07C919.9 372.71 917.84 370.86 915.45 368.82C908.23 368.63 904.44 372.02 895.9 370.07C895.47 370.2 895.07 370.33 894.68 370.47C894.29 370.63 893.91 370.79 893.55 370.94C892.83 371.25 892.15 371.55 891.51 371.82C890.21 372.37 888.99 372.81 887.54 373.07C886.66 373.22 885.78 373.36 884.9 373.51C884 373.69 883.09 373.92 882.17 374.12C880.33 374.52 878.48 374.93 876.59 375.34C876.12 375.44 875.64 375.55 875.17 375.65C874.69 375.79 874.2 375.93 873.71 376.06C872.74 376.34 871.76 376.62 870.77 376.9C868.79 377.49 866.79 378 864.73 378.72C862.6 378.01 860.01 377.29 857.39 376.48C854.75 375.81 852.07 375.07 849.83 374.12C848.47 373.5 846.74 373.33 844.81 373.22C842.87 373.16 840.73 373.16 838.44 373.44C836.14 373.74 833.73 374.13 831.3 374.52L829.48 374.81L827.64 375.2C826.42 375.46 825.2 375.7 824.01 375.92C817.43 382.88 817.6 384.47 823.58 384.08C821.92 384.96 820.31 385.84 818.73 386.77C817.15 387.73 815.6 388.61 814.05 389.31C813.1 389.74 812.12 390.2 811.13 390.69C810.14 391.17 809.14 391.67 808.13 392.26C806.11 393.39 804.09 394.52 802.13 395.53C801.15 396.04 800.18 396.49 799.24 396.95C798.3 397.42 797.37 397.85 796.48 398.21C794.69 398.93 793.02 399.37 791.52 399.42C790.57 399.46 789.65 399.57 788.74 399.87C787.83 400.17 786.92 400.58 785.98 401.1C784.09 402.14 782.07 403.6 779.63 405.48C768.57 414.28 757.68 423.86 747.56 433.71C742.07 439.02 736.68 443.57 731.21 447.56L730.19 448.3L729.7 448.66L729.41 448.84L728.24 449.54C727.46 449.99 726.67 450.43 725.9 450.83C724.37 451.62 722.84 452.33 721.34 452.99C716.06 455.27 714.82 455.98 714.48 460.09C714.38 461.27 713.98 462.39 713.26 463.47C712.55 464.52 711.53 465.49 710.15 466.43C709.26 467.04 708.38 467.64 707.52 468.23C706.68 468.82 705.89 469.44 705.17 470.1C703.75 471.41 702.71 472.79 702.28 474.63C702.22 474.9 701.45 475.33 701.23 475.67C700.54 476.76 699.3 478.18 699.42 478.93C700 482.6 699.8 482.76 694.83 485.41C693.92 485.87 692.78 486.61 691.85 487.38C690.92 488.11 690.2 488.84 690.09 489.4C689.72 491.21 688.98 492.41 687.88 493.11C686.78 493.81 685.29 494.25 683.48 494.34C679.69 494.72 678.69 496 679 499C679.82 498.67 680.63 498.33 681.45 497.97C682.28 497.6 683.23 497.06 684.11 496.61C685.91 495.73 687.75 494.58 689.63 493.64C690.58 493.12 691.55 492.59 692.54 492.11C693.55 491.64 694.57 491.16 695.6 490.68C696.65 490.21 697.73 489.8 698.85 489.42C699.98 489 701.14 488.63 702.35 488.32C698.13 491.93 694.43 494.48 691.1 497.24C689.93 498.15 688.77 499.13 687.6 500.02L684.09 502.63L680.81 504.87C679.69 505.57 678.53 506.23 677.37 506.91C672.69 509.49 667.6 511.43 662.43 512.27C657.52 513.07 652.83 513.97 648.47 514.17C644.13 514.37 640.17 514.15 636.66 513.46C635.83 513.22 634.98 513.03 634.1 512.86C633.33 512.55 632.53 512.28 631.71 512.04C630.95 511.71 630.24 511.33 629.46 511.02C628.71 510.7 628.27 510.41 627.91 510.21C627.69 510.08 627.56 509.98 627.51 509.93C627.48 509.91 627.49 509.91 627.49 509.91L627.49 509.91L627.23 510.18L626.6 510.82C626.2 511.23 625.83 511.61 625.42 512L624.23 513.11C621.19 515.94 618.35 517.9 616.38 518.98C615.95 519.24 615.37 519.5 615.06 519.66C614.87 519.75 614.66 519.84 614.47 519.91C614.34 519.97 614.19 520.03 614.05 520.09L613.82 520.17L613.79 520.18L613.78 520.18C613.51 520.28 616.11 519.35 615.01 519.74L615.01 519.74L615.01 519.74L615.01 519.74L615 519.74L614.95 519.76L614.87 519.79L614.82 519.8C614.79 519.81 614.9 519.78 614.93 519.77C615.12 519.72 615.29 519.7 615.44 519.68L615.55 519.67L615.83 519.63C616.03 519.6 616.23 519.58 616.43 519.57C616.63 519.56 616.81 519.55 617 519.55L617.27 519.55L617.74 519.53C618.36 519.51 618.96 519.53 619.54 519.58C619.85 519.63 620.57 519.64 621.11 519.69C621.68 519.74 622.24 519.81 622.79 519.9C623.08 519.94 623.3 520 623.64 520.05L624.72 520.2C625.44 520.32 626.14 520.45 626.83 520.62C627.97 520.94 630.18 521.36 631.51 521.79C631.51 521.78 631.45 521.83 631.48 521.77C631.5 521.72 631.51 521.68 631.52 521.63C631.6 521.21 631.99 520.06 632.73 518.54C633.46 517.02 634.58 515.08 635.93 512.94C636.25 512.42 636.62 511.86 637 511.29L637.56 510.44L638.25 509.44L641.1 505.36L643.28 502.2L645.49 499.07C646.97 496.99 648.43 494.89 650.01 492.87C656.53 484.37 663.5 476.21 670.43 468.04C672.29 465.89 673.61 463.29 675.24 460.94L675.18 460.92ZM836.69 553.62L835.78 554.24C835.72 554.13 835.63 553.9 835.59 553.88L835.46 553.79L835.19 553.61L834.67 553.28C834.35 553.06 834.1 552.85 834.05 552.56C833.71 550.45 833.93 548.23 834.03 546.34C834.07 545.67 834.11 545.03 834.17 544.43C834.23 543.83 834.29 543.26 834.22 542.69C834.15 542.14 833.92 541.54 833.34 541.17C832.77 540.79 831.92 540.74 831.14 540.89C830.48 541.01 829.85 541.2 829.24 541.44L830.32 539.06C831.31 538.47 832.38 537.92 833.48 537.63C834.58 537.31 835.69 537.41 836.34 537.88C837 538.34 837.21 538.98 837.3 539.63C837.38 540.29 837.31 540.99 837.27 541.78C837.17 543.61 837.07 545.43 836.97 547.26L836.78 550.41C836.71 551.48 836.62 552.58 836.69 553.62ZM1097.92 567.89C1084.66 570.94 1069.67 575.55 1052.71 580.3C1035.71 585.04 1018.6 589.21 1001.33 592.56C1018.2 587.12 1035.08 581.7 1052.07 576.86C1060.54 574.44 1068.58 572.33 1076.24 570.75C1083.9 569.19 1091.17 568.16 1097.92 567.89ZM813.46 535.46C812.39 536.44 811.35 537.42 810.32 538.4L808.8 539.86L808.05 540.59L807.67 540.96L806.33 542.13C798.91 548.62 791.07 555.46 782.46 562.4C775.29 568.18 767.5 573.87 759.08 579.42C757.86 580.23 756.48 580.84 755.12 581.29C762.6 575.76 769.61 570.22 776.25 564.78C782.86 559.35 789.13 554.03 795.15 548.9L808.26 537.76C810.04 536.28 811.84 534.84 813.66 533.44L814.02 534.12C813.84 534.58 813.72 535.22 813.46 535.46ZM960.32 467.73C959.9 458.43 958.07 450.62 956.56 443.71L955.91 440.71C955.7 439.7 955.47 438.81 955.26 437.85C954.84 435.9 954.41 434.2 954 432.38L953.38 429.85L953.07 428.59L952.76 427.41L952.15 425.06L951.55 422.86C951.35 422.14 951.61 420.87 951.9 420.3C952.02 420.03 952.93 420.49 953.22 421.11C955.04 424.86 956.94 429.31 958.64 434.72C960.33 440.13 961.84 446.49 962.63 453.95C963.43 461.39 963.5 469.94 962.32 479.26C962.11 481.54 961.63 483.97 961.23 486.35C960.88 488.72 960.26 491.18 959.75 493.6C959.25 496.02 958.58 498.48 958.05 500.87C957.5 503.27 957.05 505.62 956.64 507.95L955.94 508.23C956.34 504.83 956.93 501.35 957.63 497.81C958 496.04 958.26 494.28 958.58 492.52L959.03 489.88C959.18 489 959.25 488.15 959.37 487.29C959.57 485.58 959.83 483.83 959.97 482.15L960.31 477.17C960.39 476.33 960.37 475.55 960.38 474.75L960.4 472.37L960.41 470L960.32 467.73ZM878.25 426.69C879.11 426.49 879.99 426.35 880.87 426.23C881.75 426.1 882.63 425.98 883.51 425.85C885.26 425.61 886.98 425.43 888.58 425.54C892.46 425.76 896.02 426.8 899.46 428.49C899.88 428.69 899.87 429.61 899.59 429.61C898.23 429.6 896.63 429.65 895.22 429.47C892.24 429.05 889.25 429.01 886.28 429.17C884.8 429.23 883.32 429.41 881.84 429.58C880.36 429.75 878.89 429.88 877.41 430.09C870.43 431.12 863.52 432.87 856.76 434.99C855.2 435.52 853.74 435.6 852.23 435.88L852.41 434.86C860.75 431.15 869.44 428.33 878.25 426.69ZM940.78 537.49C939.9 537.76 939.02 538.03 938.14 538.3C937.29 538.57 936.46 538.81 935.63 539.03C934.79 539.27 933.97 539.47 933.15 539.65C932.32 539.84 931.51 539.99 930.71 540.09C925.14 540.92 919.9 540.4 916.76 539.44C916.46 539.33 916.16 539.24 915.85 539.16C915.62 539.03 915.39 538.92 915.15 538.82C914.88 538.75 914.76 538.58 914.58 538.49C914.41 538.38 914.21 538.31 914.13 538.17C914.02 538.05 913.88 537.97 913.77 537.87C913.7 537.73 913.61 537.62 913.51 537.53C913.38 537.48 913.36 537.26 913.26 537.15C913.18 537.02 913.05 536.93 913.01 536.79C912.76 536.33 912.47 535.57 912.2 534.32C912.18 534.3 912.2 534.19 912.22 534.09L912.26 533.79L912.35 533.19L912.24 531.93C912.17 531.09 912.14 530.23 912.1 529.38C912.04 527.67 912.08 525.94 912.15 524.2C912.31 520.5 912.78 516.71 913.12 512.96C913.45 509.22 913.71 505.51 913.91 501.9C913.94 506.02 913.82 510.33 913.54 514.73C913.23 519.14 912.97 523.55 913.19 527.86C913.24 528.94 913.33 530.01 913.42 531.08L913.6 532.67C913.66 532.94 913.56 533.18 913.54 533.44C913.51 533.67 913.44 534.02 913.5 534.03C913.71 534.71 913.92 535.18 914.08 535.48C914.27 535.79 914.29 535.93 914.5 536.09C914.54 536.14 914.56 536.19 914.58 536.26C914.62 536.3 914.67 536.31 914.7 536.35C914.74 536.39 914.76 536.43 914.78 536.49C914.79 536.56 914.89 536.55 914.92 536.6C915.24 536.93 916.03 537.45 917.56 537.9C919.06 538.36 921.24 538.64 923.67 538.72C926.11 538.81 928.83 538.72 931.69 538.5C933.13 538.36 934.59 538.24 936.09 538.06C936.83 537.99 937.6 537.88 938.36 537.79L939.5 537.65L940.78 537.49ZM878.57 580.54L878.41 581.89C876.96 580.76 875.53 579.59 874.14 578.38C872.77 577.16 871.55 575.85 870.3 574.52C869.07 573.17 867.86 571.86 866.75 570.36C866.19 569.62 865.64 568.88 865.1 568.13C864.59 567.38 864.09 566.63 863.61 565.87C862.61 564.33 861.79 562.84 860.96 561.29C860.17 559.78 859.45 558.26 858.8 556.76C858.19 555.31 857.57 553.77 857.1 552.38L856.38 550.24L856.07 549.22L855.94 548.83L855.83 548.51L855.75 548.3L855.61 547.92L855.36 547.16C855.21 546.65 855.09 546.15 854.98 545.64C854.77 544.63 854.61 543.63 854.45 542.67C854.14 540.9 855.07 539.47 857.7 536.93C857.58 540.14 857.43 543.21 857.81 546.17C857.85 546.54 857.92 546.91 857.99 547.27C858.08 547.69 858.08 547.75 858.39 548.94C859.33 552.37 860.58 556.01 862.36 559.77C864.15 563.54 866.46 567.4 869.23 570.97C870.62 572.69 872.08 574.37 873.6 575.98C874.34 576.8 875.17 577.56 876.01 578.31C876.84 579.08 877.7 579.81 878.57 580.54ZM1047.76 560.02C1049.75 558.35 1059.29 555.05 1068.43 552.68C1070.74 552.06 1072.98 551.57 1075.16 551.09C1077.31 550.65 1079.33 550.29 1081.16 550C1084.75 549.51 1087.5 549.34 1088.55 549.72C1075.76 552.22 1062.18 555.95 1047.76 560.02ZM822.47 535C823.67 531.53 826.71 529.63 827.76 531.81C825.46 535.62 823.48 536.68 822.47 535ZM775.56 492.41C776.38 490.02 781.73 484.41 787.97 479.08C789.53 477.77 791.13 476.44 792.72 475.23C794.32 474.02 795.9 472.88 797.38 471.86C800.39 469.88 803.01 468.34 804.8 467.76C794.09 475.93 784.97 483.97 775.56 492.41ZM813.64 542.16C813.45 539.16 817.04 536.3 818.66 538.26C816.86 539.55 815.28 540.8 813.64 542.16ZM1142.18 550.52C1150.38 552 1159.63 554.32 1170.08 556.8C1159.13 556.08 1149.97 553.86 1142.18 550.52ZM816.09 529.65C814.06 531.38 812.13 533.15 810.22 534.83C809.89 535.12 809.31 534.94 808.82 535C808.96 534.47 808.99 533.71 809.3 533.43C811.43 531.53 813.67 529.75 815.96 528.09C816.29 527.85 816.68 527.93 817.03 527.86L817.12 528.52C816.78 528.9 816.45 529.35 816.09 529.65ZM837.58 529.86C836.75 529.77 835.91 529.82 835.07 529.94C834.65 530 834.22 530.07 833.78 530.13C833.35 530.22 832.91 530.31 832.45 530.41C833.13 529.37 833.9 528.56 834.65 527.98C835.4 527.41 836.14 527.11 836.73 527.03C837.93 526.9 838.48 527.98 837.58 529.86ZM800.23 412.52C801.53 411.12 803.52 409.67 805.8 408.13C808.08 406.61 810.64 405.01 813.1 403.84C815.56 402.62 817.92 401.54 819.77 400.89C821.62 400.3 822.97 400.05 823.44 400.29C819.49 401.99 815.59 404.09 811.73 406.03C810.77 406.5 809.8 407.05 808.84 407.59L805.96 409.21L803.09 410.83L801.66 411.64L800.23 412.52ZM945.28 532.65C943.35 533.24 941.44 533.82 939.56 534.39C938.69 534.65 937.83 534.9 936.98 535.16C936.16 535.41 935.36 535.61 934.56 535.83C931.38 536.67 928.35 537.29 925.57 537.64L925.49 536.89C928.25 536.67 931.29 536.17 934.49 535.46C935.29 535.28 936.09 535.11 936.92 534.89C937.78 534.67 938.65 534.44 939.53 534.22C941.42 533.69 943.34 533.17 945.28 532.65ZM703.79 486.92L703.35 485.84L707.53 483.31L711.78 480.61L712.13 481.45L707.93 484.27L703.79 486.92ZM1082.97 491.64L1083.05 492.29C1081.14 492.64 1079.25 493.04 1077.38 493.45C1075.5 493.85 1073.62 494.26 1071.77 494.71L1071.64 494.07C1073.49 493.62 1075.38 493.21 1077.27 492.81C1079.16 492.39 1081.05 492 1082.97 491.64Z" fill="#000000" fill-rule="nonzero" opacity="1" stroke="none" vectornator:layerName="path"/>
<path d="M947.3 469.01C952.12 474.26 964.21 471 973.59 470.94C975.81 470.92 977.98 470.97 981.35 470.99C975.13 473.45 970.1 475.44 965.08 477.43L965.03 478.26C967.85 477.99 970.68 477.72 973.27 477.47C963.38 480.86 953.27 484.4 943.09 487.76C939.39 488.98 935.48 489.93 931.72 490.63C930.28 490.9 927.97 490.4 927.83 489.75C927.26 487.11 927.33 484.3 927.32 481.51C927.32 481.13 928.17 480.52 928.77 480.05C932.32 477.29 934.24 473.7 941.63 472.91C942.77 472.79 944.69 470.85 947.3 469.01Z" fill="#000000" fill-rule="nonzero" opacity="1" stroke="none" vectornator:layerName="path"/>
<path d="M675.18 460.92C680.78 453.82 686.55 446.84 692.42 440.03C692.13 439.51 691.4 439.06 691.67 438.58C693.88 434.69 697.12 433.32 701.29 431.34C694.24 443.21 683.66 451.29 675.15 460.94L675.18 460.92Z" fill="#000000" fill-rule="nonzero" opacity="1" stroke="none" vectornator:layerName="path"/>
</g>
</g>
</svg>
