
<svg height="100%" stroke-miterlimit="10" style="fill-rule:nonzero;clip-rule:evenodd;stroke-linecap:round;stroke-linejoin:round;" version="1.1" viewBox="0 0 365 366" width="100%" xml:space="preserve" xmlns="http://www.w3.org/2000/svg" xmlns:xlink="http://www.w3.org/1999/xlink">
<path d="M-0.52706 2.5C-8.45187 89.3424-5.34096 176.818-5.67646 264C-2.93011 263-0.360388 260.763 2.56258 261C4.49783 261.157 5.30893 263.667 6.6821 265C11.1519 258.832 16.1006 257.188 23.1602 260C23.6751 258 23.6751 258 24.1901 256C25.2199 256.5 25.2199 256.5 26.2498 257C26.7648 256 26.7648 256 27.2797 255C30.1106 256.374 31.5815 259.785 34.4889 261C40.4143 263.475 52.9097 262.745 58.3048 261.5C59.3485 261.259 59.1753 259.157 60.2358 259C64.9991 258.294 70.0136 259.259 74.6542 258C73.1093 256.5 73.1093 256.5 71.5645 255C78.7737 254 78.7737 254 85.9828 253C85.9828 250.5 85.9828 250.5 85.9828 248C92.0154 251.514 91.1322 249.056 91.1322 254C93.7069 252.5 93.7069 252.5 96.2816 251C96.2816 253 96.2816 253 96.2816 255C104.412 250.594 107.73 255.538 116.879 253C116.364 251.5 116.364 251.5 115.849 250C117.909 252 117.909 252 119.969 254C120.999 252 120.999 252 122.029 250C128.796 251.174 137.746 253.701 142.626 249C142.626 250.5 142.626 250.5 142.626 252C148.651 251.331 163.43 263.4 165.284 269C166.828 268.5 166.828 268.5 168.373 268C174.345 298.956 177.218 330.415 180.474 361.75C181.099 367.759 182.089 366.506 186.911 367C187.511 348.361 188.205 332.817 200.557 317.625C203.122 314.47 204.633 316.604 207.509 318C205.337 315.337 200.238 311.335 201.265 306.812C205.539 287.998 211.892 269.649 215.748 250.75C219.593 231.904 223.414 212.91 224.341 193.719C225.567 168.327 215.667 137.045 205.224 114.781C197.208 97.694 187.947 81.0617 177.127 65.5C170.998 56.6854 162.635 49.5149 154.727 42.1562C150.242 37.9823 145.855 33.1532 140.052 31C114.964 21.6921 89.2931 13.4548 63.0036 8.125C42.1878 3.90492 20.6498 4.375-0.52706 2.5ZM117.909 288C113.433 284.523 113.701 284.426 108.64 288C104.711 284.494 100.945 285.744 96.2816 283C98.3414 285.5 98.3414 285.5 100.401 288C96.2816 286 96.2816 286 92.1621 284C92.6771 285.5 92.6771 285.5 93.192 287C87.0127 285.5 87.0127 285.5 80.8334 284C81.8633 285.5 81.8633 285.5 82.8932 287C77.6787 286.416 73.8685 284 68.4749 284C70.0197 285.5 70.0197 285.5 71.5645 287C62.9796 286.713 66.1989 288.048 61.2657 285C61.2657 286 61.2657 286 61.2657 287C55.2827 287.27 48.9561 288.502 42.9854 289.375C37.4895 290.178 42.9032 298.904 41.698 303C44.7877 300.5 44.7877 300.5 47.8773 298C47.3624 300.5 47.3624 300.5 46.8474 303C55.7857 304.193 59.132 307.147 66.8013 306C72.5669 305.137 78.3971 304.741 84.1806 304C86.7111 303.676 86.1131 303.906 87.0127 302C94.83 305.274 98.8687 303.516 107.61 302.75C115.163 302.088 127.293 305.469 134.387 307C132.842 304.5 132.842 304.5 131.298 302C139.655 303.566 137.092 305.273 140.566 301C142.626 302 142.626 302 144.686 303C143.141 301.5 143.141 301.5 141.596 300C142.626 299 142.626 299 143.656 298C133.396 292.16 123.343 289.889 114.819 282C116.364 285 116.364 285 117.909 288ZM41.698 359C57.8219 354.303 45.4246 352.815 54.314 346.875C54.7612 346.576 55.3167 346.349 55.8589 346.375C60.6748 346.609 62.0453 353.753 66.4151 355.875C82.0267 363.454 87.8172 350.432 89.0725 338C96.2816 342 96.2816 342 103.491 346C86.6665 363.204 139.593 359.148 130.075 347.688C114.243 328.626 67.9459 324.259 49.9371 342.5C45.4208 347.074 43.7908 353.209 41.698 359ZM202.359 362C203.904 361 203.904 361 205.449 360C204.419 363 204.419 363 203.389 366C207.4 362.106 211.988 339.792 208.152 334.125C201.655 324.525 200.646 348.578 200.814 350C201.288 354.005 201.844 358 202.359 362Z" fill="#000000" fill-rule="nonzero" opacity="1" stroke="none"/>

</svg>
