
<svg height="100%" stroke-miterlimit="10" style="fill-rule:nonzero;clip-rule:evenodd;stroke-linecap:round;stroke-linejoin:round;" version="1.1" viewBox="0 0 365 365" width="100%" xml:space="preserve" xmlns="http://www.w3.org/2000/svg" xmlns:vectornator="http://vectornator.io" xmlns:xlink="http://www.w3.org/1999/xlink">


<path d="M181 1C181 10.1513 180.214 19.9559 182.094 29.0312C196.888 24.8077 197.377 2.24186 181 1ZM22 90C18.6435 89.7403 15.1846 90.6114 12 93C13.5 95 13.5 95 15 97C8.89573 94.5583-2.07043 101.336 6.625 101.906C9.74347 102.111 12.875 101.969 16 102C16 101 16 101 16 100C24.4474 101.689 27.7105 98.1532 36 99C32.8839 94.0142 27.5941 90.4328 22 90ZM12 152C3.91105 152.809-1.0774 156.192 1.59375 165.875C1.77968 166.549 2.80261 166.7 3.5 166.75C13.6666 167.474 27.9365 164.834 36 171C39.3569 165.965 64.0371 173.483 71.0938 160.875C74.0161 155.654 59.6929 156.944 53.75 156.25C39.9435 154.639 38.9491 149.775 28.5 155C27.8192 152.277 28.6146 153.307 26 152C25.2661 156.22 26.3315 154.37 22 157C20.668 154.336 20.0754 153.173 17 153C17 154 17 154 17 155C14 154.5 14 154.5 11 154C11.5 153 11.5 153 12 152ZM128 203C123.158 202.044 121.516 206.782 118 209.375C109.545 215.61 89.2029 229.043 84 237C82.5 236.5 82.5 236.5 81 236C81.5 237 81.5 237 82 238C78.6585 239.671 77.9793 239.621 74 239C76.1563 252.369 37.6665 262.387 28 263C28 262 28 262 28 261C26.5 262 26.5 262 25 263C23.0372 259.431 24.5671 260.37 20 261C20 260 20 260 20 259C10.7038 259.93 1.51171 258.975 1 271C4.5 270 4.5 270 8 269C8 270 8 270 8 271C17.1086 270.696 13.1687 271.657 20 269C18 271.5 18 271.5 16 274C21.5448 272.257 20.1153 274.131 21 269C23 269 23 269 25 269C25 270 25 270.444 25 271C25.0326 270.954 51.8532 265.623 56 266C55.5 265 55.5 265 55 264C56.5 264.5 56.5 264.5 58 265C58 264 58 264 58 263C62.6568 263.559 78.3449 258.978 79 253C80.5 253.5 80.5 253.5 82 254C83.3277 250.017 91.4506 247.093 94.5 243.625C105.94 230.615 115.303 216.142 128 203ZM25 271C25 271.278 25 271.5 25 272C26.5 271.5 26.5 271.5 28 271C26.5 271 26.5 271 25 271Z" fill="#000000" fill-rule="nonzero" opacity="1" stroke="none"/>

</svg>
