
<svg height="100%" stroke-miterlimit="10" style="fill-rule:nonzero;clip-rule:evenodd;stroke-linecap:round;stroke-linejoin:round;" version="1.1" viewBox="0 0 366 365" width="100%" xml:space="preserve" xmlns="http://www.w3.org/2000/svg" xmlns:vectornator="http://vectornator.io" xmlns:xlink="http://www.w3.org/1999/xlink">
<path d="M344.281 88.4688C340.75 88.211 336.988 89.0059 333 91C337.154 96.5392 332.438 98.9125 327 100C330.993 102.396 349.74 95.4351 360 98C355.414 92.2678 350.167 88.8983 344.281 88.4688ZM302.75 155.094C300.447 154.968 298.213 155.015 296.125 155.375C292.685 155.968 286.182 162.19 293.375 162.438C306.08 162.874 318.803 162.761 331.5 163.375C343.352 163.948 355.167 165.125 367 166C367 162 367 162 367 158C365 159 365 159 363 160C362.192 157.078 329.769 158.329 324 159C324 158 324 158 324 157C317.26 157.396 309.659 155.472 302.75 155.094ZM235 194.5C249.523 214.995 258.335 226.473 277.875 241.875C282.416 245.455 289.678 256.576 297 254C301.548 262.337 337.03 282.838 346 273C344.5 272 344.5 272 343 271C344.5 271 344.5 271 346 271C346 269.5 346 269.5 346 268C347.5 269.5 347.5 269.5 349 271C349 268 349 268 349 265C353.52 267.583 350.644 266.731 358 265C357.5 263.5 357.5 263.5 357 262C361.297 264.772 360.748 262.968 361 266C359.5 266 359.5 266 358 266C359.556 271.771 360.857 270.834 367 271C367 266.5 367 266.5 367 262C364.5 263 364.5 263 362 264C362.5 262.5 362.5 262.5 363 261C356.471 261.138 359.874 260.409 353 264C353.5 262.5 353.5 262.5 354 261C351 262.5 351 262.5 348 264C348 263 348 263 348 262C301.864 259.837 267.595 224.324 235 194.5Z" fill="#000000" fill-rule="nonzero" opacity="1" stroke="none"/>

</svg>
