
<svg height="100%" stroke-miterlimit="10" style="fill-rule:nonzero;clip-rule:evenodd;stroke-linecap:round;stroke-linejoin:round;" version="1.1" viewBox="0 0 366 366" width="100%" xml:space="preserve" xmlns="http://www.w3.org/2000/svg" xmlns:vectornator="http://vectornator.io" xmlns:xlink="http://www.w3.org/1999/xlink">
<path d="M181.02 366.88C189.673 339.348 185.832 309.193 192 281C194.108 271.365 198.068 260.423 206.406 255.156C213.076 250.944 222.135 256.385 230 257C230.5 255.5 230.5 255.5 231 254C237.375 256.208 243.427 259.813 250.125 260.625C256.447 261.392 262.759 258.47 269.125 258.625C277.75 258.835 286.974 261.165 295 258C296 260.5 296 260.5 297 263C299 259.5 299 259.5 301 256C301.5 258.5 301.5 258.5 302 261C305.5 260 305.5 260 309 259C309 261 309 261 309 263C313.506 259.313 316.893 258 323 258C323 260.5 323 260.5 323 263C327.72 257.415 324.983 258.27 330 258C330 260 330 260 330 262C334.494 261.401 340.4 261.714 343 258C347.985 260.895 345.663 261.123 350 258C351 260.5 351 260.5 352 263C354.016 262.594 354.016 262.594 356.031 262.188C357.516 265.094 357.516 265.094 359 268C363.69 264.753 361.059 265.186 367 268C367 136 367 136 367 4C347.833 4.33333 328.476 2.28479 309.5 5C301.752 6.1086 295.857 12.9529 288.375 15.25C276.712 18.8307 263.758 17.7989 252.5 22.5C244.285 25.9304 238.793 33.8949 231.5 39C216.622 49.4145 196.258 57.8727 185.781 74.3125C175.505 90.4371 167.139 107.76 159.344 125.219C150.648 144.694 151.593 167.241 149.875 188.5C146.673 228.13 151.951 273.978 162.5 312C165.607 323.198 172.909 332.864 176.625 343.875C179.121 351.272 179.555 359.212 181.02 366.88ZM266 292C261.07 288.713 255.128 292.596 250 294C250.5 292 250.5 292 251 290C249.506 290.064 248.521 291.956 247.031 292.094C244.341 292.342 241.677 291.365 239 291C238.5 293.5 238.5 293.5 238 296C236 295 236 295 234 294C235.5 291.5 235.5 291.5 237 289C228.779 296.815 225.91 297.196 219 303C222 303 222 303 225 303C224.5 304 224.5 304 224 305C227 304 227 304 230 303C227 305 227 305 224 307C228.116 308.323 227.184 306.941 228 310C236.386 303.711 249.714 308.558 258.75 309.125C262.273 309.346 265.723 307.616 269.25 307.75C279.255 308.131 289.242 308.958 299.25 309.25C304.542 309.404 303.654 310.016 305 307C307.478 309.891 305.733 308.707 311 309C311 310.5 311 310.5 311 312C315.374 309.901 313.047 310.083 318 312C318.5 311 318.5 311 319 310C315.231 308.744 316.588 307.434 317 303C321.991 307.721 319.693 306.497 323 308C323.5 306 323.5 306 324 304C327.447 310.894 324.764 310 330 310C328.501 307.677 327.949 303.126 326 302C326 303.5 326 303.5 326 305C322.052 301.434 314.112 298.352 311 295C306.415 297.012 305.706 296.221 301 294C302 293 302 293 303 292C292.225 291.366 275.297 282.703 266 292ZM235 351C241.463 351 251.38 352.314 257.188 347.906C263.383 343.204 265.371 340.241 273 338C270.508 360.429 302.089 364.316 303 342C308.259 347.412 311.603 350.174 304 355C308.432 357.955 312.356 356.353 318 356C306.487 329.685 288.315 326.964 260.5 331.5C249.937 333.223 236.426 339.592 235 351ZM162 367C165.476 355.181 167.832 350.499 157 344C160.602 352.105 161.254 357.856 162 367Z" fill="#000000" fill-rule="nonzero" opacity="1" stroke="none"/>

</svg>
