
<svg height="100%" stroke-miterlimit="10" style="fill-rule:nonzero;clip-rule:evenodd;stroke-linecap:round;stroke-linejoin:round;" version="1.1" viewBox="0 0 1000 1500" width="100%" xml:space="preserve" xmlns="http://www.w3.org/2000/svg" xmlns:vectornator="http://vectornator.io" xmlns:xlink="http://www.w3.org/1999/xlink">

<path d="M555.264 453.844C535.598 453.657 515.575 457.792 495.826 458C493.605 458.023 491.917 455.53 489.701 455.375C481.522 454.801 473.081 453.933 465.107 455.844C458.584 457.407 453.84 463.459 447.451 465.5C435.237 469.401 421.171 467.524 409.826 473.5C387.859 485.072 367.776 500.371 349.451 517.125C340.671 525.153 334.828 536.107 329.639 546.812C299.26 609.481 306.007 677.612 316.076 744.125C317.421 753.011 319.663 761.835 322.982 770.188C326.408 778.806 333.918 785.69 336.17 794.688C338.664 804.653 336.607 815.23 336.826 825.5C337.701 824.51 339.316 823.845 339.451 822.531C342.681 791.213 341.982 759.479 346.857 728.375C348.017 720.977 353.095 714.678 357.326 708.5C364.469 698.069 378.274 705.787 387.826 699C389.672 701.768 393.927 701.677 397.076 702.75C401 704.086 403.718 708.448 407.826 709C415.102 709.978 424.847 704.605 429.826 710C434.438 706.017 431.385 707.399 439.826 709C440.326 707 440.326 707 440.826 705C446.097 705 452.534 705.884 455.826 710C457.826 706 457.826 706 459.826 702C459.826 705 459.826 705 459.826 708C462.826 706 462.826 706 465.826 704C467.467 705.906 467.467 705.906 469.107 707.812C471.467 704.906 471.467 704.906 473.826 702C474.658 705.329 479.421 706.576 482.826 707C484.826 702.5 484.826 702.5 486.826 698C487.826 703 487.826 703 488.826 708C490.326 701.5 490.326 701.5 491.826 695C495.918 698.015 494.413 695.789 492.826 703C497.826 704 497.826 704 502.826 705C502.326 707 502.326 707 501.826 709C504.826 706 504.826 706 507.826 703C508.582 708.415 513.608 712.523 517.826 716C517.826 713.5 517.826 713.5 517.826 711C523.606 709.555 520.827 709.056 525.826 713.781C528.326 710.391 528.326 710.391 530.826 707C535.188 711.362 540.826 714.973 540.826 706C542.326 708 542.326 708 543.826 710C544.076 707.75 544.076 707.75 544.326 705.5C547.076 705.75 547.076 705.75 549.826 706C549.826 704.5 549.826 704.5 549.826 703C554.811 705.895 552.489 706.123 556.826 703C565.634 714.745 582.544 718.075 588.826 703C589.326 704.5 589.326 704.5 589.826 706C591.826 705 591.826 705 593.826 704C593.826 706.5 593.826 706.5 593.826 709C597.159 704.333 598.166 695.921 603.826 695C614.925 693.193 625.581 701.999 636.826 702C643.264 702 648.826 697.333 654.826 695C652.826 697.5 652.826 697.5 650.826 700C654.326 698 654.326 698 657.826 696C659.493 698 660.346 701.209 662.826 702C666.054 703.029 669.809 699.473 672.92 700.812C680.074 703.893 686.287 709.056 691.857 714.5C694.343 716.929 695.865 720.423 696.482 723.844C699.737 741.843 701.891 760.051 703.389 778.281C705.205 800.386 705.409 822.594 706.42 844.75C715.388 825.7 709.897 802.699 713.92 782.031C715.193 775.492 722.403 771.422 724.576 765.125C725.863 761.395 722.992 757.169 723.826 753.312C727.76 735.107 734.891 717.686 738.764 699.469C748.602 653.193 749.156 612.436 730.326 568C725.966 557.71 717.025 549.989 711.326 540.375C707.41 533.769 706.282 525.569 701.576 519.5C691.622 506.662 682.372 491.608 667.857 484.312C638.867 469.742 606.576 462.317 574.795 455.781C568.346 454.455 561.819 453.906 555.264 453.844ZM600.826 735C599.723 738.31 597.979 737.544 594.826 737C595.326 738 595.326 738 595.826 739C591.85 737.675 591.334 739.863 587.826 743C587 739.283 586.9 741.39 589.826 737C584.9 737.336 571.826 738.39 571.826 745C573.826 744 573.826 744 575.826 743C575.326 745.5 575.326 745.5 574.826 748C576.326 748 576.326 748 577.826 748C577.826 749.5 577.826 749.5 577.826 751C581.326 751 581.326 751 584.826 751C584.326 752.5 584.326 752.5 583.826 754C586.326 753 586.326 753 588.826 752C588.326 753.5 588.326 753.5 587.826 755C598.175 754.732 609.721 751.643 619.826 753C619.326 752 619.326 752 618.826 751C630.594 755.271 646.595 754.034 658.826 756C656.826 754 656.826 754 654.826 752C659.326 752.5 659.326 752.5 663.826 753C661.326 750.5 661.326 750.5 658.826 748C654.036 744.586 642.724 737.381 637.826 738C638.826 739.5 638.826 739.5 639.826 741C637.326 740 637.326 740 634.826 739C638.826 742 638.826 742 642.826 745C635.588 743.966 631.859 734.594 624.826 736C626.326 737.5 626.326 737.5 627.826 739C621.313 736.25 616.957 737.053 609.826 735C610.326 736.5 610.326 736.5 610.826 738C605.529 737.278 608.946 737.94 600.826 735ZM658.826 748C663.826 750.5 663.826 750.5 668.826 753C663.132 746.889 663.576 750.002 663.826 745C651.542 740.984 651.539 742.206 643.826 735C647.286 741.92 654.152 742.307 658.826 748ZM440.295 740.25C435.114 739.964 429.956 740.517 423.951 742.5C418.826 744.193 416.455 748.606 410.826 749C411.326 751 411.326 751 411.826 753C409.326 753 409.326 753 406.826 753C407.826 750.5 407.826 750.5 408.826 748C404.326 751.5 404.326 751.5 399.826 755C407.988 754.093 412.975 756.756 420.826 754C420.326 755 420.326 755 419.826 756C430.677 755.483 432.098 754.755 440.826 757C440.826 756 440.826 756 440.826 755C442.826 755 442.826 755 444.826 755C443.826 754 443.826 754 442.826 753C447.11 753.584 446.852 755.872 451.826 756C450.826 755 450.826 755 449.826 754C453.326 755 453.326 755 456.826 756C449.135 749.847 458.676 750.029 463.826 756C462.826 753.5 462.826 753.5 461.826 751C465.326 753 465.326 753 468.826 755C466.327 748.753 461.945 747.878 455.826 745C456.326 744 456.326 744 456.826 743C450.678 741.659 445.475 740.536 440.295 740.25ZM436.982 780.5C435.051 780.426 433.067 780.48 431.045 780.625C425.651 781.013 419.928 782.168 413.826 784C406.662 786.149 396.693 789.424 397.389 798.125C410.329 800.328 419.332 790.833 430.826 787C430.826 791.696 429.99 797.976 432.795 802.25C435.321 806.099 440.096 806.809 444.326 807C455.704 807.511 458.613 800.182 458.826 790C463.904 792.539 466.579 799.496 471.826 800C461.85 787.021 450.505 781.015 436.982 780.5ZM611.107 781.75C592.364 781.109 576.877 788.544 569.826 808C580.034 805.732 578.613 796.031 583.545 795.438C587.597 794.95 589.55 803.056 592.951 805C608.882 814.104 614.497 800.573 614.826 788C624.292 791.809 624.663 791.18 630.826 797C628.326 799.5 628.326 799.5 625.826 802C628.58 802.344 642.468 808.092 643.826 803C645.826 804 645.826 804 647.826 805C647.326 803.5 647.326 803.5 646.826 802C650.826 802 650.826 802 654.826 802C650.762 788.756 631.385 784.27 619.326 782.5C616.531 782.09 613.785 781.842 611.107 781.75ZM725.826 784C722.31 791.302 725.456 806.684 725.826 812C729.561 808.265 738.253 784.053 725.826 784ZM498.201 904.531C496.242 904.615 494.15 905.07 491.826 906C493.764 910.846 492.4 912.427 488.826 916C496.142 912.785 505.943 907.565 513.826 912C508.649 907.47 504.078 904.281 498.201 904.531ZM564.826 971C559.993 973.416 550.701 975.301 545.826 974C545.826 975 545.826 975 545.826 976C542.981 972.936 544.996 974.288 538.826 974C538.826 975 538.826 975 538.826 976C536.826 975 536.826 975 534.826 974C534.826 975 534.826 975 534.826 976C528.417 974.492 521.659 976.507 515.076 976.375C503.328 976.142 491.57 976.774 479.826 976.406C472.429 976.174 464.663 972.092 457.482 972.375C447.116 972.783 448.143 978.259 458.326 978.625C471.945 979.114 485.589 978.835 499.201 979.5C511.225 980.087 523.176 981.807 535.201 982.375C544.316 982.806 553.452 982.351 562.576 982.5C567.548 982.581 564.867 982.999 570.076 984.625C574.084 985.875 593.454 980.64 592.326 976.25C591.262 972.109 569.229 976.205 564.826 971ZM398.826 1018C406.553 1029.16 415.497 1037.33 423.732 1046.91C425.991 1049.53 429.236 1049.15 431.826 1052C430.448 1043.73 420.699 1038.14 414.826 1032.62C409.559 1027.68 404.159 1022.88 398.826 1018ZM452.826 1064C454.719 1067.79 458.695 1070.72 462.826 1070C462.826 1071.5 462.826 1071.5 462.826 1073C465.775 1071.86 467.658 1075.83 471.826 1075C471.326 1076.5 471.326 1076.5 470.826 1078C472.826 1078 472.826 1078 474.826 1078C474.326 1079.5 474.326 1079.5 473.826 1081C475.326 1079.5 475.326 1079.5 476.826 1078C478.649 1080.37 477.41 1079.78 480.826 1079C466.826 1071.5 466.826 1071.5 452.826 1064Z" fill="#000000" fill-rule="nonzero" opacity="1" stroke="none"/>
<path d="M388.826 1013C375.48 1015.22 362.333 1021.01 351.67 1029.34C331.39 1045.18 311.516 1062.15 295.451 1082.25C284.651 1095.76 280.29 1129.3 259.982 1140C233.031 1154.21 204.315 1164.82 177.076 1178.47C166.261 1183.89 157.036 1192.28 145.951 1197.12C131.666 1203.36 115.685 1205.15 101.451 1211.5C82.8736 1219.79 64.6697 1229.28 47.9511 1240.88C32.2741 1251.75 12.6768 1261.11 4.82608 1278.5C-4.26781 1298.64 1.47328 1322.59 1.07608 1344.69C0.139528 1396.78 0.909416 1448.9 0.826082 1501C167.002 1500.43 333.278 1502.04 499.326 1495.5C508.073 1440.64 522.736 1386.39 525.576 1330.91C526.169 1319.32 516.055 1309.58 509.326 1300.12C503.842 1292.42 496.934 1285.62 489.326 1280C461.205 1259.23 430.784 1241.17 398.826 1227C407.701 1225.95 415.325 1223.3 407.826 1214C418.011 1212.76 417.952 1220.82 417.826 1229C420.826 1227 420.826 1227 423.826 1225C424.326 1229.5 424.326 1229.5 424.826 1234C433.136 1228.46 444.699 1247.12 449.264 1250.53C465.609 1262.73 482.972 1273.51 499.826 1285C491.066 1275.31 483.021 1264.93 473.545 1255.94C463.956 1246.84 452.224 1240.17 442.795 1230.91C437.537 1225.74 434.149 1218.97 429.826 1213C430.826 1212 430.826 1212 431.826 1211C433.326 1213 433.326 1213 434.826 1215C431.194 1206.16 427.928 1195.35 417.826 1191C412.77 1188.82 406.909 1192.42 401.451 1193.12C401.139 1189.56 401.139 1189.56 400.826 1186C406.826 1186 406.826 1186 412.826 1186C406.774 1180.19 398.184 1176.18 394.67 1168.56C385.229 1148.09 380.253 1125.78 374.951 1103.88C371.233 1088.51 381.152 1082.04 385.326 1067.5C390.443 1049.67 388.903 1031.18 388.826 1013ZM282.826 1153C281.826 1155.5 281.826 1155.5 280.826 1158C290.779 1157.35 299.142 1153.85 306.826 1160C285.151 1160.69 267.682 1165.19 255.326 1185C253.498 1187.93 245.172 1201.21 249.826 1205C250.826 1201.5 250.826 1201.5 251.826 1198C252.198 1201.05 253.607 1208.4 248.826 1209C248.826 1207 248.826 1207 248.826 1205C243.472 1209.75 252.811 1220.34 245.826 1223C243.959 1208.94 240.989 1190.1 250.826 1178C250.326 1181 250.326 1181 249.826 1184C250.399 1183.84 251.174 1183.99 251.545 1183.53C254.752 1179.52 257.272 1175 260.326 1170.88C260.835 1170.19 281.846 1152.76 282.826 1153ZM329.826 1164C333.801 1167.51 332.687 1174.25 333.451 1179.5C334.371 1185.82 354.951 1203.29 361.826 1201C361.826 1204 361.826 1204 361.826 1207C364.826 1206 364.826 1206 367.826 1205C367.326 1206.5 367.326 1206.5 366.826 1208C371.08 1209.6 372.076 1210.44 375.826 1208C374.623 1213.29 376.944 1211.5 381.826 1210C381.194 1213.58 380.904 1211.66 384.826 1215C387.4 1212.18 391.262 1210.85 394.17 1208.38C397.772 1205.31 390.826 1176.14 390.826 1174C399.482 1176.04 398.505 1208.8 395.545 1215.53C392.888 1221.57 389.298 1216.88 385.826 1220C380.773 1215.37 373.939 1215.77 367.67 1212.66C351.191 1204.47 318.104 1187.44 329.826 1164ZM484.326 1284.84C493.928 1284.59 503.128 1298.43 494.826 1307C483.3 1318.9 467.124 1296.89 477.826 1287.5C479.874 1285.7 482.11 1284.9 484.326 1284.84ZM674.607 1017.03C674.241 1017.67 673.77 1018.34 673.389 1018.97C673.184 1019.37 673.012 1019.79 672.795 1020.19C672.119 1021.44 670.731 1025.2 669.639 1028C668.299 1033.06 666.731 1038.13 664.764 1043.22C661.438 1051.83 657.653 1059.66 652.295 1069.75C651.684 1070.9 648.728 1076.42 648.451 1076.94C648.003 1077.77 646.377 1081.11 646.201 1081.47C640.764 1092.61 637.445 1098.43 630.857 1106.25C624.297 1114.04 619.074 1118.69 608.482 1127.25C608.34 1127.37 608.342 1127.35 608.201 1127.47C604.721 1130.28 603.238 1131.51 601.826 1132.78C600.984 1133.54 598.583 1135.73 598.42 1135.88C589.783 1143.72 585.383 1147.52 579.076 1152.19C569.584 1159.21 559.815 1164.71 548.92 1168.69C550.925 1168.84 552.202 1168.88 555.389 1169.16C556.54 1169.26 557.04 1169.29 557.67 1169.34C561.82 1169.7 564.635 1169.92 567.42 1170.03C567.408 1170.03 568.3 1170.04 568.857 1170.06C569.859 1170.11 570.835 1170.2 571.795 1170.31C573.147 1170.47 574.297 1170.86 575.482 1171.22C575.891 1171.15 576.273 1170.97 576.701 1171C579.801 1171.18 582.615 1174.14 583.826 1177C587.167 1184.89 587.826 1193.67 589.826 1202C598.202 1197.09 608.14 1194.64 617.826 1194C603.853 1198.1 599.28 1196.53 590.951 1207.88C578.334 1225.06 565.76 1242.37 554.951 1260.75C548.861 1271.11 543.055 1282.02 540.451 1293.75C525.289 1362.03 514.701 1431.25 501.826 1500C506.618 1500.08 511.509 1501.23 516.201 1500.25C519.779 1499.5 522.173 1494.91 525.826 1495C533.425 1495.18 540.226 1500.89 547.826 1501C676.812 1502.89 805.826 1501 934.826 1501C928.826 1499.5 928.826 1499.5 922.826 1498C961.826 1499.5 961.826 1499.5 1000.83 1501C1000.66 1435.71 1002.03 1370.39 1000.33 1305.12C999.619 1277.98 1007.06 1247.53 993.607 1223.94C983.097 1205.5 956.484 1203.25 937.201 1194.38C920.491 1186.69 902.311 1182.41 885.795 1174.31C855.305 1159.37 823.325 1146.13 796.451 1125.38C767.534 1103.04 746.798 1071.69 720.326 1046.5C710.46 1037.11 699.234 1029.15 687.701 1021.91C684.123 1019.66 679.165 1018.49 674.607 1017.03ZM702.201 1145.75C709.538 1146.73 719.001 1153.3 723.701 1155.38C738.086 1161.71 749.013 1175.83 757.201 1189C762.297 1197.2 766.645 1205.85 771.826 1214C773.446 1216.55 777.809 1214.9 780.826 1215C779.541 1218.85 776.541 1217.86 773.826 1216C773.326 1217 773.326 1217 772.826 1218C781.535 1221.11 782.124 1234.16 783.826 1242C776.224 1235.88 776.318 1225.8 770.951 1217.62C760.79 1202.15 751.214 1182.8 737.357 1170.03C732.962 1165.98 729.614 1160.38 724.201 1157.84C715.032 1153.55 705.284 1150.61 695.826 1147C697.542 1145.71 699.756 1145.42 702.201 1145.75ZM674.826 1162C674.482 1165.44 670.818 1167.27 668.951 1170.12C661.281 1181.86 656.528 1190.9 642.295 1194C636.138 1195.34 613.814 1198.53 618.826 1186C627.172 1191.53 633.709 1188.96 642.826 1192C645.591 1187.85 651.65 1187.99 655.826 1184C663.018 1177.13 663.742 1163.28 674.826 1162ZM567.826 1280C572.065 1286.16 563.6 1293.66 567.826 1300C563.953 1302.58 564.826 1306.8 564.826 1311C556.418 1310.47 564.661 1284.75 567.826 1280ZM721.826 1472C729.284 1472.99 736.751 1473.92 744.201 1474.97C748.45 1475.57 752.722 1475.9 755.826 1479C745.058 1477.79 731.451 1478.42 721.826 1472ZM757.826 1478C760.608 1478 801.374 1482.64 802.826 1487C794.665 1485.81 762.678 1484.47 757.826 1478ZM814.826 1488C824.125 1489.34 847.461 1490.42 848.826 1496C844.486 1495.93 816.225 1490.1 814.826 1488Z" />
</svg>
