<?xml version="1.0" encoding="utf-8"?>
<!-- Generator: Adobe Illustrator 25.3.1, SVG Export Plug-In . SVG Version: 6.00 Build 0)  -->
<svg version="1.1" id="Layer_1" xmlns="http://www.w3.org/2000/svg" xmlns:xlink="http://www.w3.org/1999/xlink" x="0px" y="0px"
	 viewBox="0 0 1920 1080" style="enable-background:new 0 0 1920 1080;" xml:space="preserve">
<style type="text/css">
	.st0{fill:#F4BE1D;}
</style>
<g>
	<g>
		<g>
			<path class="st0" d="M568.35,521.58c-0.01,0.48-0.68,1.38-0.27,1.58c0.49,0.24,2.56-0.26,2.71,0.31c0.41,1.74-0.2,3.58-0.95,4.74
				c-0.75,1.22-1.38,1.96-1.8,3.05c-0.29,0.71-1.25,1.57-2.01,2.77c-0.49,0.79-0.99,1.73-1.4,2.9l-0.08,0.22l-0.04,0.11l-0.65,1.1
				l-2.82,4.84l-0.69,1.21c-0.24,0.43-0.51,0.97-0.75,1.45l-1.5,2.98c-0.97,2.01-1.99,3.95-2.86,6.05
				c-0.88,2.09-1.74,4.18-2.56,6.29l-0.61,1.58l-0.34,0.9l-0.38,1.07c-0.55,1.59-1.14,3.33-1.77,5.51c-0.63,2.2-1.26,4.59-1.85,7.59
				l-0.21,1.09l-0.21,1.19l-0.38,2.42c-0.24,1.8-0.44,3.46-0.58,5.5c-0.58,7.64-0.14,17.99,3.27,28.9c0.45,1.45,0.95,2.89,1.48,4.31
				c0.54,1.4,1.12,2.8,1.73,4.17c1.22,2.76,2.6,5.42,4.15,8c0.77,1.28,1.58,2.58,2.4,3.78c0.82,1.19,1.66,2.36,2.54,3.51l1.34,1.71
				c0.46,0.57,0.91,1.12,1.34,1.62c0.88,1.02,1.8,2.03,2.73,3.01c1.93,2.04,3.66,3.64,5.56,5.29l1.42,1.2l1.33,1.06
				c0.89,0.69,1.78,1.37,2.69,2.02l1.37,0.97l1.25,0.84c0.84,0.55,1.69,1.09,2.55,1.61l1.28,0.76l1.17,0.66
				c0.78,0.44,1.57,0.86,2.37,1.28c6.18,3.18,11.28,4.93,15.63,6.21c4.35,1.25,7.98,1.98,11.12,2.5c0.93,0.16,1.26,0.19,1.76,0.26
				l1.44,0.19l2.88,0.37l2.88,0.34l2.88,0.25c1.92,0.15,3.84,0.34,5.75,0.42l5.72,0.22c7.59,0.13,15.11-0.14,22.35-0.9
				c7.23-0.77,14.31-1.85,21.01-3.32c6.31-1.37,12.43-2.97,18.21-4.8c2.95-0.89,5.72-1.87,8.55-2.85c1.4-0.49,2.74-1.01,4.11-1.52
				c1.37-0.51,2.73-1.02,4.04-1.56c12.15-4.83,23.12-10.22,33.3-15.62c10.19-5.41,19.61-10.86,28.55-16
				c4.64-2.67,9.24-5.09,13.72-7.4c4.32-2.23,8.65-4.45,12.96-6.67l9.48-5.03c1.57-0.87,3.17-1.66,4.78-2.46l4.81-2.41
				c6.36-3.32,12.93-6.29,19.46-9.35c1.9-0.92,3.86-1.71,5.8-2.55c1.94-0.84,3.88-1.69,5.79-2.57l4.88-2.25l4.97-2.08
				c3.32-1.37,6.66-2.7,10.02-3.98c3.4-1.2,6.83-2.33,10.28-3.39c1.73-0.53,3.46-1.04,5.2-1.53c1.76-0.46,3.53-0.87,5.31-1.28
				c1.08-0.24,3.07-0.93,3.08-1.1c0.26-2.92,5.15-2.74,7.64-4.09c1.84-0.96,4.23-1.65,6.43-2.28l8.73-2.44l8.84-2.19l0.25,0.67
				l-4.6,1.67c4.33-1,8.61-2.11,12.91-3.18c4.32-1.03,8.61-2.1,12.89-3.23c4.95-1.28,9.83-2.83,14.82-4.05
				c3.56-0.88,7.13-1.76,10.7-2.64c3.57-0.89,7.12-1.85,10.74-2.61c7.24-1.49,14.55-2.74,22.16-2.55c3.75,0.08,7.84-0.64,11.8-0.9
				l0.09,0.74c-4.38,0.75-8.71,1.63-13.03,2.42c-2.15,0.41-4.31,0.8-6.43,1.23c-2.12,0.44-4.22,0.88-6.3,1.31
				c2.54-0.29,5.14-0.59,7.77-0.89c2.65-0.26,5.33-0.53,8.01-0.82l8.45-0.94l8.49-0.81l8.49-0.83l8.53-0.73
				c17.7-1.56,35.54-2.83,53.5-3.62c2.05-0.1,4.1,0,6.15-0.11c5.73-0.26,11.6-0.22,17.15-0.96c5.95-0.73,11.86-1.19,17.74-1.35
				c5.9-0.1,11.77,0.13,17.62,0.72c1.6,0.17,2.93,0.82,4.39,1.25l-0.7,0.56c-2.85,0.12-5.68,0.28-10.31,0.53
				c5.16,1.63,6.49,3.34,3.66,5.38c6.12,0.46,11.91,0.99,17.67,1.47l-0.27,0.95l-16.16,0.4l-0.26,0.72c1.46,0.21,2.89,0.48,4.4,0.63
				c6.17,0.64,12.34,1.28,18.51,1.93c6.2,0.69,12.38,1.26,18.68,1.77c7.26,0.57,14.94-0.01,23.35,0.01
				c-1.61-1.75-2.75-2.98-4.02-4.37c3.91-1.01,7.51-2.02,11.27-2.87c3.09-0.69,4.66-1.49,3.45-3.24c-0.36-0.52,0.72-1.69,1.77-1.91
				c5.96-1.24,4.2-2.93,1.57-4.73c-1.09-0.75-2.18-1.51-3.46-2.19c-4.25-2.25-7.95-4.53-15.27-5.11c-5.49-0.45-10.9-0.98-16.3-1.6
				c-5.41-0.62-10.79-1.22-16.2-1.74c-2.02-0.19-4.58-0.53-6.17-0.14c-6.17,1.54-12.32,1.06-18.56,0.78
				c-5.17-0.17-10.35-0.34-15.52-0.51c-1.06-0.04-2.05-0.33-4.22-0.68c25.35-1.34,49.45-2.06,73.67-2.48l0.11-0.66
				c-0.97-0.24-1.94-0.48-4.3-1.06c11.43-0.36,21.49-0.64,33.05-0.88c-2.33-0.81-3.39-1.17-4.65-1.6c2.27-0.45,4.09-0.81,5.86-1.17
				c-3.17-3.89-5.51-4.67-13.31-4.72c-4.3,0-8.6,0.08-12.9,0.03c-8.07-0.12-16.17,0.07-24.15-0.33
				c-14.97-0.64-29.88-1.56-44.77-2.08c-0.55-0.02-1.06-0.19-1.69-0.31c0.47-0.29,0.7-0.52,0.85-0.51
				c10.66,0.4,21.44-3.21,32.13-0.54c0.68,0.17,1.76,0.05,2.65,0.02c9.07-0.28,18.13-0.56,27.19-0.84
				c5.99-0.22,12.12-0.35,17.86-1.09c2.83-0.37,6.84-1.95,6.9-3.04c0.09-1.66-3.9-2.49-7.92-2.27c-1.06,0.06-2.18,0.07-3.23-0.01
				l-18.13-1.31l0.12-0.71c3.15-0.16,6.3-0.37,9.46-0.48c13.68-0.52,27.44-0.75,41.1-1.36c6.35-0.3,12.68-0.71,19.01-1.13
				c6.32-0.44,12.65-0.87,18.97-1.31c1.26-0.08,3.27-0.55,3.36-0.94c0.5-2.18,3.14-2.69,7.4-2.35c0.66,0.05,1.44-0.3,2.17-0.47
				c2.57-0.6,5.07-1.26,7.72-1.77c2.57-0.5,5.53-0.67,7.89-1.31c4.25-1.14,3.92-3.28-0.51-4.51c-1.69-0.47-3.69-1.05-5.47-1.02
				c-5.74,0.09-8.74-0.7-6.35-3.83c-3.95-0.08-7.25-0.14-10.66-0.21c0.77-1.98,3.18-2.87,6.58-2.17c3.96,0.8,6.62,0.25,9.14-0.89
				c1.12-0.5,1.86-1.19,2.77-1.79c-1.26-0.4-2.42-0.94-3.81-1.19c-6.04-1.07-12.12-2.11-18.25-3.04c-4.88-0.74-9.85-1.37-14.81-1.97
				c-2.88-0.35-5.8-0.62-8.71-0.92l0.23-0.91c6.52-1.84,13.86,0.7,22.09-0.5c-4.27-0.7-7.31-1.19-11.67-1.9
				c5.9-0.5,10.53-1.99,13.86,1.02c0.27,0.24,2.47,0.1,3.76,0.06c0.84-0.03,1.72-0.39,2.44-0.31c5.21,0.63,10.34,1.44,15.58,1.99
				c6.55,0.7,13.18,1.22,19.78,1.82l0.86-0.84c-1.92-1.28-3.85-2.56-6.27-4.18c-6.99,1.31-14.41,0.59-22.07-1.17
				c-4.03-0.93-4.08-1.74-3.09-2.89c11.23-1.02,20.53-2.8,26.56-7.11c3.33-2.39,2.59-3.11-3.76-3.78c-1.49-0.16-2.89-0.6-4.24-0.98
				c-1.17-0.33-2.12-1.01-3.31-1.11c-3.86-0.33-5.42-1.14-4.24-2.75c2.73-0.25,5.24-0.49,9.02-0.84c-6.72-0.69-10.83-3.24-10.76-6
				c1.86,0.23,3.7,0.45,5.55,0.68l0.83-0.42c-2.29-1.32-4.58-2.65-7.14-4.12c5.11-0.48,10.18,1.59,14.72-0.24
				c-2.62-1.02-5.66-1.74-7.11-2.87c-4.01-3.11-10.84-3.07-16.99-3.66c-1.9-0.18-5.4,0.42-6.12,1.13c-2.2,2.17-5.28,1.49-8.91,1.07
				c-3.54-0.41-7.98,0.29-9.08-1.45c-4.39-0.07-8.41,0.14-12.15-0.25c-4.24-0.44-5.66-2.15-3.28-3.14
				c-9.81-3.93-9.91-3.99-19.88-0.54c-4.07,1.42-9.82,1.88-15.16,1.46c-5.34-0.41-10.28-1.64-12.67-3.68
				c-3.18-2.71-9.24-3.02-14.83-1.13c-0.7,0.24-1.68,0.56-2.39,0.5c-6.08-0.5-12.15-1.01-18.23-1.51l0.3-0.59
				c4.39-0.67,8.79-1.35,13.89-2.08c-2.96-0.55-5.18-0.96-8.47-1.58c2.55-0.42,4.03-0.66,5.4-0.89c-0.79-0.42-1.65-0.89-2.74-1.47
				c3.03-0.43,5.54-0.78,8.05-1.14l0.12-0.63c-8.43-0.87-16.91-1.61-26.82-2.53c4.93-0.92,8.5-1.58,12.07-2.24
				c-3.91-0.29-7.69-0.87-11.49-1.17c-3.81-0.28-7.66-0.28-11.7,0.55c-1.81,0.37-4.87,0.07-6.77-0.38
				c-4.79-1.1-9.27-2.43-14.67-3.88c3.51-0.21,6.16-0.38,9.36-0.57c-3.41-2.26-8.59-2.48-13.44-2.35c-19.58,0.63-39.27,1.63-59,3.22
				c-20.01,1.68-40.04,4.23-60.17,6.77c-26,3.33-52.16,7.26-78.32,12.46c-1.33,0.27-3.27,0.77-3.93,0.58
				c-4.22-1.19-9.54,0.1-14.46,1.27l-12.32,2.86c-4.11,0.94-8.2,2.08-12.3,3.12l-6.14,1.6c-2.05,0.52-4.09,1.08-6.14,1.68
				l-12.25,3.52c-4.31,1.19-8.58,2.68-12.86,4.05l-6.42,2.08l-3.22,1.02l-3.21,1.08l-15.09,5.01l-15.02,5.37l-3.75,1.35l-3.74,1.43
				l-7.46,2.89l-7.46,2.9l-7.41,3.09c-1.18,0.49-2.53,0.55-3.81,0.81l0.12-0.78c3.77-1.81,7.53-3.68,11.32-5.43l11.42-5.15
				c-11.93,4.27-23.63,9.16-35.25,14.31c-1.68,0.77-3.36,1.57-5.06,2.27c-3.83,1.59-7.7,3.09-11.52,4.71
				c-3.82,1.66-7.63,3.32-11.45,4.98l-5.71,2.53l-5.45,2.57c-3.55,1.71-7.01,3.45-10.32,5.19c-12.91,6.82-24.42,13.09-34.76,18.17
				c-10.31,5.09-19.39,8.88-26.68,11.08c-0.58,0.19-1.12,0.35-1.65,0.49l-1.59,0.46c-1,0.23-2.03,0.55-2.94,0.73
				c-1.9,0.47-3.55,0.75-5.07,0.98c-0.37,0.04-0.74,0.1-1.11,0.16c-0.35,0.03-0.69,0.05-1.03,0.09l-0.51,0.06l-0.48,0.01
				c-0.31,0.01-0.64,0.05-0.95,0.06c-1.21,0-2.33-0.03-3.41-0.19l-0.15-0.01l-0.04,0l-0.01,0c5.53-32.83-7.53,44.72-6.19,36.78
				l-0.02,0.11l-0.07,0.46l-0.31,1.84l-0.66,3.53c-0.19,1.02-0.4,2.03-0.62,3.04c-0.78,3.75-1.65,6.97-2.43,9.56
				c-0.46,1.4-0.79,2.51-1.26,3.7c-0.22,0.58-0.39,1.06-0.61,1.59l-0.64,1.47c-0.2,0.45-0.42,0.9-0.65,1.34
				c-0.19,0.4-0.38,0.77-0.6,1.15l-0.61,1.03c-0.18,0.3-0.43,0.64-0.61,0.9c-0.76,1.08-1.39,1.74-1.89,2.14
				c-0.38,0.34-0.59,0.38-0.4,0.31l0,0l0,0c0.2-0.08-0.27,0.1-0.22,0.08l0.03-0.01l0.05-0.02l0.09-0.03
				c0.1-0.03,0.23-0.07,0.34-0.08c0.18-0.04,0.33-0.07,0.53-0.09c0.25-0.04,0.43-0.05,0.71-0.07c1.08-0.06,2.65-0.01,4.87,0.36
				c0.28,0.05,0.56,0.1,0.84,0.15l0.97,0.18l2.14,0.49l2.55,0.67l3.11,0.92l3.92,1.27l5.21,1.81l3.26,1.19l4.22,1.56l22.2,8.48
				c0.29,0.11,0.57,0.22,0.82,0.33l0.8,0.38c0.49,0.22,0.95,0.44,1.4,0.68l9.35,5.26l0.88-0.75l8.27-6.4l9.67-6
				c7.02-4.03,14.04-8.05,21.06-12.08c3.5-2.07,6.92-4.2,10.36-6.3l1.29-0.79l1.22-0.81l2.42-1.62l4.84-3.23
				c1.67-1.07,3.07-2.16,4.54-3.25l4.37-3.26c0.72-0.54,1.47-1.09,2.16-1.63l1.94-1.61l3.86-3.22
				c11.12-9.55,19.31-18.47,25.59-26.25l4.33-5.66l1.92-2.67l0.96-1.34c0.33-0.45,0.64-0.89,0.9-1.31l1.66-2.54
				c0.55-0.85,1.13-1.71,1.59-2.5l1.45-2.43l0.72-1.21l0.64-1.17c2.88-5.15,5.15-9.96,7.16-14.76c2.01-4.8,3.74-9.58,5.24-14.56
				c3.03-9.95,5.18-20.87,5.83-33.77c0.35-8.18-0.5-16.91-2.18-25.87c0.97,7.7,1.21,15.26,0.88,22.34
				c-0.15,3.53-0.47,6.95-0.87,10.18c-0.44,3.2-0.9,6.32-1.5,9.29c-0.99,4.97-1.14,9.88-3.24,14.03
				c-4.73,9.35-7.32,17.29-12.16,25.83c-3.87,6.62-7.92,13.53-13.95,21.4c-4.29,5.59-9.52,11.75-16.27,18.49
				c-6.63,6.72-15.37,14.15-25.72,21.54c-0.19,0.14-0.79,0.2-1.89,0.46c1.77-1.42,3.53-2.83,5.3-4.25c1.58-1.4,3.16-2.8,4.76-4.22
				c0.8-0.71,1.6-1.42,2.41-2.14c0.7-0.7,1.41-1.4,2.13-2.11c1.42-1.41,2.86-2.85,4.34-4.33c-1.57,1.22-3.08,2.4-4.55,3.54
				c-0.73,0.57-1.46,1.13-2.18,1.69c-0.36,0.28-0.71,0.55-1.07,0.83c-0.39,0.28-0.79,0.56-1.18,0.84c-1.57,1.11-3.11,2.21-4.63,3.29
				c-1.54,1.08-2.95,2.14-4.67,3.22l-0.97-0.36c1.25-0.86,2.3-1.71,3.39-2.56l3.28-2.55c1.06-0.85,2.24-1.71,3.19-2.54l2.81-2.49
				c3.82-3.31,6.8-6.39,9.95-9.5l4.13-4.46l1.02-1.11l0.9-1.05l1.79-2.1l1.79-2.1l1.56-1.98l1.56-1.98l0.78-0.99l0.7-0.94l2.78-3.74
				l2.46-3.57c3.14-4.68,5.82-9.07,8.19-13.32c2.34-4.24,4.46-8.4,6.45-12.62c2.07-4.39,3.92-8.9,5.63-13.66
				c1.7-4.78,3.26-9.76,4.45-15.2c2.51-10.58,3.66-23.66,2.29-37.21c-0.27-2.55-0.58-5.43-0.57-7.84c0.02-10-3.05-19.9-7.77-29.85
				c-4.16-8.74-9.48-17.13-15.33-24.13c-2.94-3.47-5.92-6.66-8.95-9.49l-2.26-2.07l-2.27-1.91c-0.76-0.66-1.5-1.2-2.25-1.81
				l-1.13-0.88l-1.12-0.81c-0.53-0.38-1.06-0.75-1.61-1.12c-0.54-0.35-1.09-0.68-1.64-1.02c-1.11-0.69-2.21-1.3-3.3-1.91l-1.32-0.67
				c-4.47-2.24-8.53-4.43-13.09-6.08c-1.72-0.67-3.47-1.3-5.24-1.92l-2.7-0.89l-2.91-0.78c-1.94-0.52-3.9-1.02-5.87-1.49l-2.97-0.68
				c-1.04-0.19-2.23-0.3-3.34-0.44c-3.09-0.35-6.33-0.37-9.59-0.32c-0.82,0.02-1.62,0.02-2.47,0.05l-2.71,0.22
				c-1.81,0.14-3.6,0.26-5.38,0.32c-6.33,0.23-8.85,1.73-11.16,3.77c3.08,0.41,6.14,0.82,9.18,1.22l4.54,0.6
				c1.43,0.25,2.71,0.61,4.07,0.9c2.69,0.61,5.38,1.22,8.1,1.84c0.72,0.13,1.26,0.36,1.88,0.54c0.61,0.19,1.22,0.39,1.83,0.58
				c1.22,0.38,2.45,0.77,3.69,1.16c-2.65,0.59-4.74,0.52-6.57,0.19c-0.46-0.08-0.9-0.18-1.33-0.29l-0.64-0.17l-0.7-0.13
				c-0.93-0.18-1.84-0.37-2.75-0.51l-7.27-1.15l-1.81-0.3c-0.61-0.1-1.33-0.11-1.99-0.17l-4.05-0.31l-8.11-0.61l-0.51-0.04
				l-0.56,0.01l-1.13,0.02l-2.26,0.05l-4.53,0.11c-1.5,0.04-3.74,0.96-5.62,1.48c1.15,0.43,2.05,0.98,3.49,1.22
				c1.01,0.17,2.85-0.13,4.2-0.11l3.63,0.05c0.63-0.01,1.14,0.08,1.69,0.14l1.63,0.19l6.48,0.74l-0.75,0.6l-8.33-0.08l-0.3,0.4
				l10.25,0.55l2.56,0.13c0.8,0.08,1.55,0.2,2.32,0.3l4.62,0.62c6.42,0.67,11.63,2,17.26,3.09l-0.55,0.44l-12.12-1.06l-0.26,0.26
				l6.81,1.57c2.27,0.52,4.59,1.01,6.68,1.61l-1.48,1.1c-1.87-0.46-3.92-0.82-5.94-1.21l-6.05-1.17l-1.51-0.3l-1.66-0.21l-3.34-0.42
				l-6.68-0.85c-1.06-0.18-2.37-0.18-3.58-0.26l-3.69-0.19l-7.38-0.38c-2.63,0.02-5.39,0.16-8.09,0.22
				c-2.73,0.1-5.39,0.13-8.18,0.29l-1.33,0.83c1.07,0.01,2,0.19,2.96,0.32l2.86,0.42c1.89,0.28,3.74,0.58,5.45,0.92
				c3.39,0.52,5.6,1.88,9.5,3.35l3.89,0.1c0.63,0.03,1.33,0.01,1.91,0.07l1.78,0.17l7.1,0.68l3.53,0.34l3.25,0.5l6.51,0.99
				c4.31,0.66,8.26,1.53,12.29,2.52c4,1.01,7.85,2.29,11.96,3.73c3.93,1.54,7.94,3.37,11.93,5.76c-4.22-1.36-8.24-2.53-11.82-3.77
				c-0.59-0.2-1.18-0.39-1.77-0.59c-5.58-1.67-10.64-3.01-15.86-4.13c-2.59-0.58-5.12-1.14-7.76-1.66c-2.68-0.51-5.32-1.09-7.9-1.75
				c-1.99-0.59-4.61-0.82-7.19-1.06c-1.31-0.11-2.64-0.21-4-0.28c-0.68-0.04-1.37-0.07-2.06-0.11c-0.7-0.02-1.35-0.08-2.14-0.04
				c-3.03,0.08-6.13,0.2-9.2,0.31c-1.54,0.06-3.08,0.12-4.61,0.18c-1.64,0.16-3.28,0.32-4.9,0.47c-2.3,0.21-5.54,0.83-7.45,1.63
				c-4.27,1.7-9.47,3.19-14.47,4.45c-2.51,0.65-5.02,1.29-7.45,2.03c-2.53,0.89-4.96,1.86-7.22,3c-0.45,0.23-1.7,0.18-2.65,0.41
				c-7.21,1.63-14.64,3.7-21.98,5.65l-0.21,0.68l11.11-2.4c-3.49,2.02-6.94,3.08-10.68,4.07c-3.71,0.94-7.81,2-12.26,3.78
				c2.63-0.72,5.14-1.4,7.55-2.06c2.39-0.6,4.68-1.18,6.92-1.74c2.23-0.56,4.4-1.1,6.54-1.63c1.07-0.27,2.13-0.53,3.19-0.8
				c1.04-0.24,2.08-0.47,3.12-0.71l0.25,0.71c-4.3,1.69-8.67,4.05-12.89,5.35c-8.11,2.39-16.33,4.81-24.5,7.22
				c-5.68,1.85-11.33,3.84-16.21,5.5c-0.7,1.79-2.73,4.03-1.43,4.34c2.39,0.6,4.88,1.15,7.96,1.18c3.08,0.04,6.75-0.44,11.54-1.64
				c3.68-0.94,6.93-1.06,10.28-1.48c-2.32,1.99,0.1,1.78,2.32,1.38c3.62-0.65,7.16-1.49,10.84-2.55c3.67-1.01,7.5-2.3,11.76-4.02
				c0.81-0.33,1.64-0.63,2.47-0.92c0.83-0.28,1.64-0.49,2.48-0.72c1.66-0.44,3.36-0.81,5.06-1.16c3.39-0.67,6.92-1.4,10.12-1.91
				l-0.56,0.96l-2.24,0.63c-1.45,0.35-3.21,0.93-4.45,1.47c-1.26,0.57-2.08,1.2-1.87,1.92c0.18,0.64,3.03,0.35,4.88,0.36
				c1.88-0.05,4.18-0.46,6.29-0.71c-2.35,0.81-4.51,1.44-6.59,1.99c-1.03,0.26-2.05,0.52-3.07,0.77c-1.03,0.28-2.06,0.57-3.09,0.85
				l-8.96,2.5l-2.23,0.62l-2.26,0.7l-4.51,1.39c-3,0.94-5.96,1.8-8.94,2.75l-8.88,2.78l-8.8,2.73c-2.92,0.9-5.83,1.77-8.74,2.61
				c-2.91,0.89-5.82,1.74-8.73,2.56c-2.9,0.79-5.81,1.59-8.75,2.39c-8.26,2.16-16.65,4.53-25.17,7.2c-1.99,0.65-4.72,1.92-6.01,2.95
				c-2.38,1.91-4.22,3.08-5.76,3.67c-1.54,0.62-2.78,0.65-3.92,0.21c-3.72,1.14-7.11,2.17-10.52,3.22
				c-1.64,0.53-3.29,1.05-4.98,1.59c-1.48,0.46-3,0.93-4.6,1.42c-0.26,0.91-0.69,2.43-1.28,4.52c-3.82,1.93-8.61,4.69-8.77,8.12
				c3.3-0.8,6.62-1.69,9.94-2.56c3.35-0.86,6.65-1.64,10.03-2.41c3.55-0.85,7.1-1.5,10.46-1.97c3.36-0.47,6.57-0.72,9.57-0.6
				c-1.93,1.09-2.86,1.6-4.92,2.82c4.42-1.42,8.51-2.64,12.38-3.84c3.86-1.13,7.57-2.22,11.27-3.3c-1.53,1.44-3.14,2.57-4.8,3.23
				c-1.87,0.76-3.81,1.37-5.71,2.04c-1.9,0.68-3.77,1.4-5.49,2.3c-1.74,0.91-3.44,1.84-5.14,2.79c-1.68,0.97-3.36,1.97-5.04,2.98
				c-1.66,1.01-3.36,2.04-5.11,3.11c-1.74,1.09-3.54,2.21-5.42,3.39c2.87-0.97,5.3-2.23,7.45-2.87c2.12-0.64,3.77-0.68,4.56,0.9
				c2.71-1.38,5.48-2.29,7.77-2.59c2.29-0.32,4.08-0.08,4.97,0.72c1.81,1.62,4.71,1.39,7.68,0.94c2.95-0.46,6.01-1.13,7.82-0.21
				c0.2,0.1,1.52-0.82,2.32-1.14c3.54-1.45,7.14-2.76,10.75-4.13c-1.86,1.78-2.15,2.79-1.86,3.39c0.3,0.6,1.2,0.8,1.88,0.89
				c1.68,0.24,4.21-0.42,6.46-0.96c3.94-0.98,7.89-1.97,11.83-2.95l-0.75,1.42c-3.29,1.15-6.58,2.3-9.86,3.44
				c-3.24,1.2-6.47,2.35-9.64,3.56c-1.49,2.29-1.61,3.92-1.36,5.35c0.25,1.42,0.87,2.67,1.08,4.11c0.29,1.96,1.73,2.16,3.52,1.92
				c1.78-0.23,3.96-0.87,5.37-0.53c-2.48,1.12-4.44,1.96-7.12,3.22c1.84-0.09,2.98-0.08,4.09-0.1l-0.36,1.05
				c-2.42,1.23-4.78,2.16-7.03,3.77c-5.09,3.64-9.36,5.54-13.69,7.42c-2.36,1.02-4.69,1.73-7.04,2.6l-0.17-0.56
				c1.4-1.02,2.85-2.02,4.35-3.06c-5.44,1.98-10.43,5.09-14.47,8.4l-0.79,0.65c-0.3,0.24-0.46,0.41-1.1,0.79l-3.19,2.03
				c-2.12,1.35-4.21,2.75-6.27,4.19c-2.05,1.43-4.11,2.87-6.17,4.31c-2.03,1.48-4.06,2.96-6.1,4.44c2.89-0.94,5.11-1.66,7.33-2.38
				c-1.24,3.42-10.1,5.6-8.98,9.75c3.13-1.66,6.24-3.31,9.35-4.96c3.13-1.61,6.25-3.21,9.37-4.81c3.02-1.51,6.03-3.01,9.03-4.51
				l3.54-2.16c4.72-2.83,9.94-5.71,15.74-8.63c-0.42,0.74-0.58,1.17-0.72,1.27c-3.16,2.06-6.02,4.12-8.64,5.94
				c-2.3,1.6-4.43,3.12-6.38,4.62l-1.44,1.11c-0.25,0.2-0.42,0.35-0.74,0.58l-0.44,0.31l-1.09,0.59c-2.96,1.6-5.92,3.17-8.83,4.84
				c-2.02,1.14-3.68,2.61-5.5,3.92l0.97,0.7c3.37-1.69,6.73-3.43,10.13-5.07l5.1-2.47c0.95-0.5,1.22-0.75,1.77-1.08
				c1.99-1.27,4.09-2.58,6.34-3.98c2.25-1.4,4.66-3.29,7.37-5.14c0.46-0.31,0.98-1.16,1.5-1.77l-0.1-0.69
				c2.98-1.56,6.11-3.08,9.46-4.7c7.32-3.56,15.5-7.15,24.69-10.8c3.35-1.32,7.14-2.9,8.48-1.96c-10.72,4.52-19.74,8.58-27.74,12.87
				c-7.94,4.28-14.64,8.65-19.85,12.73c-2.6,2.02-4.83,4.02-6.7,5.91c-0.93,0.96-1.77,1.87-2.53,2.77
				c-0.12,0.12-0.27,0.27-0.41,0.39l-0.1,0.1c-0.05,0.04-0.22,0.13-0.32,0.19l-0.71,0.41l-2.84,1.62c-1.9,1.07-3.78,2.16-5.66,3.28
				l0.53,0.55c2.03-1.02,4.11-1.97,6.18-2.91l3.11-1.43l0.34-0.16l0.12-0.06l0.23-0.13c0.18-0.1,0.26-0.15,0.36-0.23
				c0.84-0.53,1.67-1.12,2.52-1.92c2.48-2.33,5.63-5.01,9.46-7.66c3.81-2.64,8.31-5.23,12.89-7.18c0.62-0.26,0.96-0.04,1.41-0.04
				l-0.67,0.99c-1.77,0.98-3.48,2.03-5.03,2.92c-5.6,3.19-10.21,6.24-13.9,9.04c-2.45,1.87-4.67,3.34-6.24,5.31
				c-0.05,0.08-0.16,0.19-0.28,0.31l-0.16,0.17c-0.03,0.03-0.04,0.05-0.1,0.09l-0.32,0.19l-2.56,1.53
				c-1.69,1.04-3.36,2.07-4.99,3.18c-3.24,2.21-6.49,4.42-9.72,6.62c-0.67,0.46-0.92,1.17-1.95,2.54c1.49-0.59,2.92-1.19,4.32-1.78
				c1.41-0.57,2.78-1.12,4.11-1.66c2.68-1.05,5.24-2.05,7.79-2.7c1.68-0.44,3.33-0.92,4.95-1.45l0.61-0.2l0.3-0.1
				c0.06-0.01,0.06-0.01,0.09-0.01c0.1,0,0.19-0.01,0.28-0.03c0.17-0.02,0.2,0,0.31-0.01c0.34-0.02,0.62-0.17,0.91-0.41
				c0.56-0.48,1.16-1.32,1.91-1.97c1.58-1.41,3.82-3.64,6.76-5.72c2.14-1.52,4.58-3.07,7.47-4.77c1.5-0.89,3.32-2.04,5.09-3.01
				c1.37-0.74,2.61-1.29,4.13-2.08c0.25-0.13,1.24-1.07,3.13-2.66c-1.51,0.31-2.64,0.56-3.76,0.81l1.15-1.31
				c2.81-0.95,5.73-1.95,8.76-2.79c0.61-0.16,0.96-0.08,1.67-0.31c1.07-0.35,2.17-0.67,3.29-0.95c2.88-0.73,5.96-1.16,8.9-0.89
				c0.14,0.01-0.18,0.37-0.3,0.59c-1.67,0.96-3.13,1.8-4.01,2.31c1.63,0.73,3.04,1.94,3.97,3.45c0.95,1.5,1.46,3.25,1.57,5.02
				c0.13,1.98-0.36,4.06-1.08,5.97l-2.77,0.94c-0.5-0.97-1.29-1.87-2.05-2.78c-1.14-1.37-2.83-2.5-4.34-3.63
				c-1.25-0.96-1.86-2.32-3.65-2.66c-1.47-0.26-3.7,0.25-5.52,0.75c-1.7,1.95-3.1,3.28-4.76,4.57c-1.66,1.3-3.63,2.57-6.52,4.52
				c-1.11,0.76-2.63,1.9-4.38,3.21C568.26,520.96,568.36,521.22,568.35,521.58z M739.77,632.7c-3.05,1.11-6.14,2.17-9.24,3.21
				l-0.44-0.65c3.28-1.88,6.49-3.78,9.84-5.83c-1.22,0.34-2.28,0.64-3.34,0.94l0.79-1.14c1.75-0.92,3.48-1.86,5.16-2.8
				c1.7-0.92,3.39-1.84,5.09-2.76c4.58-2.4,9.91-4.31,10.55-7.07c3.39-1.27,5.93-1.98,8.23-3.14c6.36-3.21,12.41-6.61,18.39-9.67
				c2.49-1.27,4.61-2.8,7.72-2.79c2.06-0.05,6.47-2.77,9.69-4.48l5.14-2.77l2.56-1.4l2.6-1.33c3.47-1.77,6.94-3.55,10.46-5.25
				c16.5-7.71,33.48-14.61,50.8-20.8c2.05-0.71,4.24-1.1,7.64-1.96c-1.84,1.04-2.43,1.38-3.01,1.71c8.15-2.78,16.44-5.17,24.68-7.66
				l0.57,0.35c-0.81,0.48-1.52,1.18-2.42,1.5c-7.25,2.6-14.5,5.15-21.7,7.81c-7.29,2.51-14.4,5.34-21.62,7.9
				c-3.6,1.3-7.15,2.71-10.76,3.97c-3.6,1.26-7.22,2.52-10.85,3.8c-9.86,3.33-19.45,7.9-28.95,12.32c-1.39,0.67-2.64,1.66-3.77,2.7
				l6.06-2.75c2.02-0.92,4.09-1.73,6.14-2.59l6.15-2.57c2.05-0.85,4.08-1.74,6.17-2.5l0.3,0.54c-0.89,0.45-1.77,0.9-2.66,1.35
				c-7.37,3.59-14.82,7.03-22.02,10.9c-3.63,1.89-7.23,3.72-10.94,5.78l-11.37,6.33c-13.24,7.44-27.34,15.66-43.08,23.38
				c-2.51,1.21-5.06,2.31-7.7,3.42l-0.43-0.68c1.62-0.85,3.19-1.72,4.78-2.6C736.58,634.53,738.16,633.64,739.77,632.7z
				 M1127.11,534l-0.14,0.4c7.61,0.65,15.19,1.29,22.81,2.05l-0.2,0.83c-19.7,0.23-39.31,0.59-58.76,1.28
				c-19.46,0.68-38.8,1.6-58.02,2.81l-0.32-0.87c5.29-1.43,10.66-2.65,16-3.99l0.7,0.7c-2.59,0.81-5.18,1.61-8.89,2.77
				c18.61-2.53,37.13-4.93,55.65-6.56c9.25-0.84,18.53-1.35,27.79-1.65c9.29-0.19,18.55-0.15,27.85,0.44l-0.07,0.83l-12.22,0.42
				L1127.11,534z M1285.65,488.98c-5.72-0.08-11.47-0.05-17.16,0.16c-10.66,0.42-21.25,1.27-31.92,1.52
				c-5.87,0.11-11.86-0.74-17.8-1.15c-2.84-0.19-5.66-0.44-8.35-1.05c3.42-0.27,6.85-0.54,10.58-0.84
				c-9.41-0.95-18.43-1.75-27.47-2.58l0.12-0.6c1.42-0.05,2.84-0.12,4.26-0.13c19.89-0.2,39.84-0.37,59.72,0.23
				c10.57,0.3,21.05,1.75,31.52,2.82c1.71,0.18,3.19,0.9,4.78,1.36l-0.72,1.05C1290.7,489.48,1288.18,489.01,1285.65,488.98z
				 M749.84,504.03c-11.84,6.22-22.53,12.43-32.73,18.05c-10.17,5.63-19.79,10.74-28.88,14.91c-8.22,3.75-16.01,6.74-23.08,8.71
				c-7.07,1.95-13.41,2.96-18.97,3.06c-2.69,0.04-5.22-0.18-7.67-0.58L637.6,548l-0.45-0.08l-0.23-0.04l-0.11-0.02l-0.06-0.01
				l-0.01,0l-0.01,0l-2.43,14.43l-0.06,0.38c-0.16,1-0.33,2-0.52,3.01l-0.53,2.8c-0.16,0.83-0.33,1.66-0.51,2.49l-0.5,2.27
				c-0.16,0.71-0.33,1.42-0.51,2.13l-0.48,1.92c-0.16,0.62-0.34,1.24-0.53,1.86c-0.15,0.55-0.3,1.1-0.47,1.65
				c-1.33,4.35-2.78,7.6-4.12,9.84c-1.29,2.22-2.52,3.36-3.03,3.69l-0.15,0.1l-0.07,0.04l0.04-0.02l0.04-0.02l0.02,0l0.01,0l0,0
				c0.2-0.08-0.27,0.1-0.22,0.08l0,0l0,0l0,0l0.01,0l0.01-0.01c0.09-0.03,0.09-0.03,0.23-0.07c0.43-0.12,1.36-0.28,2.83-0.23
				c-1.18-0.04-2.04,0.07-2.52,0.16c-0.22,0.04-0.43,0.1-0.5,0.12l-0.04,0.01l-0.02,0.01l-0.01,0l0,0l0,0
				c0.45-0.17,0.12-0.05,0.22-0.08l0,0l-0.02,0.01l-0.07,0.03c-0.02,0.01,0.06-0.03,0.08-0.04l0.11-0.07
				c0.08-0.05,0.16-0.11,0.22-0.16l0.28-0.23c0.11-0.1,0.21-0.2,0.31-0.3c0.11-0.11,0.28-0.28,0.41-0.42l0.4-0.48
				c0.17-0.2,0.32-0.4,0.46-0.6c1.21-1.68,2.69-4.44,4.06-8.25c0.18-0.48,0.35-0.97,0.5-1.46l0.53-1.61
				c0.17-0.55,0.33-1.1,0.48-1.66c0.19-0.62,0.37-1.25,0.53-1.87l0.48-1.93c0.18-0.71,0.36-1.43,0.51-2.14l0.5-2.3
				c0.18-0.83,0.35-1.67,0.51-2.5l0.56-2.95c0.19-1.05,0.37-2.09,0.54-3.14l2.72-16.16l0.01,0l0.01,0l0.03,0l0.06,0.01l0.12,0.01
				l0.23,0.02l0.92,0.11c0.61,0.1,1.24,0.14,1.87,0.18c0.62,0.06,1.25,0.12,1.9,0.11c0.65,0,1.27,0.09,1.94,0.05
				c2.62,0.03,5.4-0.15,8.4-0.57c5.99-0.83,12.8-2.5,20.34-5.25c8.68-3.12,18.19-7.49,28.3-12.67c10.13-5.17,20.88-11.13,32.5-17.39
				c1.7-0.91,3.41-1.8,5.18-2.68c1.75-0.88,3.54-1.74,5.37-2.61c1.79-0.87,3.69-1.71,5.57-2.56c1.88-0.86,3.75-1.71,5.63-2.57
				l0.23,0.2C753.69,501.7,751.84,502.98,749.84,504.03z M570.24,576.12l-0.88,0.4c-0.77,2.91-1.56,6.5-2,11.07
				c-0.43,4.51-0.48,10.3,0.73,16.79c0.31,1.73,0.78,3.65,1.3,5.46c0.56,1.87,1.2,3.78,1.97,5.61c0.77,1.84,1.61,3.71,2.62,5.52
				c0.99,1.8,2.12,3.69,3.34,5.39c4.89,7.06,11.65,12.91,18.26,16.71c-0.91-0.33-1.91-0.77-2.78-1.15c-0.9-0.4-1.7-0.76-2.61-1.26
				c-1.77-0.95-3.25-1.77-4.85-2.88c-1.56-1.07-2.91-2.02-4.36-3.25c-0.7-0.59-1.38-1.18-2.04-1.78l-0.98-0.91l-1-1
				c-0.65-0.89-1.28-1.8-1.89-2.72c-0.3-0.46-0.59-0.92-0.89-1.38c-0.29-0.49-0.58-0.97-0.86-1.46c-1.12-1.96-2.17-3.94-3.05-5.99
				c-1.79-4.05-3.15-8.41-3.95-12.54c-0.8-4.08-1.12-8.02-1.13-11.44c-0.01-3.39,0.25-6.56,0.61-9.16c0.09-0.7,0.19-1.32,0.29-1.93
				l0.32-1.83c0.21-1.12,0.45-2.27,0.68-3.25c0.24-1.06,0.46-1.93,0.7-2.86c0.22-0.81,0.44-1.64,0.66-2.47
				c0.36-1.29,0.72-2.62,1.11-4c0.26-0.96,0.5-1.94,0.73-2.95c0.32-1.38,0.99-3.16,1.8-5.02c0.84-1.82,1.87-3.67,2.77-5.34
				l1.06-1.93l0.53-0.95l0.5-0.81l2.04-3.21l1.03-1.6l0.26-0.4c0.09-0.14,0.19-0.29,0.19-0.28l0.15-0.18l0.61-0.72
				c0.82-0.96,1.73-1.87,2.7-2.75c0.51-0.49,1.16-0.89,1.75-1.34l1.05,0.33c-0.91,1.31-1.77,2.75-2.57,4.3l0.11,0.1
				c0.42-0.51,0.79-1.04,1.22-1.54c0.44-0.49,0.88-0.98,1.4-1.42c0.42-0.34,1.34-0.46,2.04-0.7c-0.06,0.49,0.13,1.1-0.25,1.5
				c-0.47,0.55-0.96,1.09-1.46,1.63l-1.41,1.69l-0.64,0.89l-0.32,0.45l-0.16,0.22l-0.08,0.11l-0.04,0.06l-0.11,0.17
				c-1.3,2.13-2.55,4.18-3.77,6.42c-1.15,2.27-2.26,4.56-3.33,6.86c-1.01,2.36-1.94,4.77-2.85,7.17c-0.41,1.06-0.98,2.7-1.58,4.65
				c-0.6,1.96-1.24,4.31-1.8,7.19c-0.55,2.88-1.02,6.31-1.08,10.4c-0.06,4.08,0.33,8.88,1.6,13.96c0.62,2.5,1.49,5.16,2.53,7.6
				c1.04,2.47,2.25,4.85,3.65,7.12c1.39,2.32,2.9,4.32,4.54,6.32c0.79,0.94,1.6,1.82,2.43,2.7l1.27,1.29l1.22,1.14
				c0.82,0.75,1.67,1.48,2.52,2.17c0.79,0.63,1.6,1.24,2.42,1.83l1.23,0.87l1.15,0.75c0.77,0.49,1.55,0.97,2.33,1.42
				c0.71,0.4,1.44,0.79,2.16,1.17l1.1,0.56l1,0.47c0.67,0.31,1.35,0.61,2.02,0.91l1.87,0.75c4.98,1.9,8.88,2.76,12.28,3.4
				c0.88,0.17,1.62,0.28,2.44,0.41l1.64,0.2l3.22,0.39c0.7,0.08,1.41,0.16,2.12,0.24l2.13,0.16c1.42,0.1,2.85,0.2,4.28,0.3
				c2.85,0.1,5.72,0.26,8.56,0.33c2.84,0.07,5.67,0.21,8.45,0.32c2.81,0.18,5.55,0.34,8.3,0.68c-10.76,2.3-22.56,2.66-34.3,1.16
				l-4.4-0.6l-0.61-0.09l-0.83-0.14c-0.55-0.09-1.11-0.2-1.72-0.32c-1.16-0.23-2.46-0.52-3.76-0.84c-2.66-0.67-5.71-1.58-9.2-2.99
				c-3.48-1.43-7.47-3.35-11.92-6.42c-4.45-3.08-9.46-7.52-13.74-13.48c-1.06-1.44-2.07-3.04-3.01-4.67
				c-0.95-1.62-1.8-3.29-2.56-5.02c-1.55-3.4-2.75-7.12-3.53-10.66c-1.57-7.1-1.52-13.47-1.01-18.38
				C568.44,582.89,569.39,579.06,570.24,576.12z M788.38,502.45c-1.31,0.75-2.57,1.58-3.93,2.23c-4.78,2.31-9.59,4.55-14.35,6.9
				l-14.17,7.29c-1.34,0.68-2.87,1.5-3.71,2.32c-5.39,5.17-12.49,8.72-19.12,12.41c-13.68,7.62-26.7,14.78-39.25,20.49
				c-1.51,0.7-3.03,1.29-4.54,1.9l-0.31-0.59c13.84-7.99,28.58-17.18,45.02-26.53c4.12-2.34,8.32-4.68,12.69-7.01
				c2.16-1.16,4.4-2.33,6.62-3.48c2.3-1.13,4.59-2.26,6.89-3.39c2.31-1.11,4.62-2.22,6.93-3.34l3.48-1.65l3.53-1.54
				C778.89,506.43,783.62,504.43,788.38,502.45z M616.63,499.72c1.69,2.6,2.42,5.6,2.43,8.52c0,2.92-0.72,5.83-2.18,8.29
				c-2.72,1.25-3.77,1.95-4.08,2.55c-0.33,0.58,0.04,1,0.14,1.5c0.09,0.51-3.17,1.73-4.88,2.51l-1.31,0.15
				c0.43-0.74,0.63-1.5,1.04-2.31c0.25-0.56,1.47-1.35-1.35-1.14c-0.89,0.09,0.3-0.8,0.92-1.36c1.18-1.04,3.02-2.39,3.68-3.53
				c2.43-4.25,3.28-9.26,2.06-13.79c-0.34-1.18-1-2.23-1.74-3.19l1.33-0.82C614.19,497.8,615.86,498.52,616.63,499.72z
				 M631.41,576.38c-1.09,4.19-2.16,7.42-3.26,10.05c-1.1,2.62-2.23,4.59-3.2,5.88c-0.97,1.31-1.77,1.91-2.02,2.05
				c-0.02,0.02-0.16,0.09-0.07,0.04l0.05-0.02l0.02-0.01l0,0c-0.45,0.17-0.12,0.05-0.22,0.08l0.01,0l0.02-0.01l0.03-0.01
				c0.09-0.03,0.51-0.16,1.01-0.21c0.55-0.07,1.35-0.12,2.31-0.06c0.26,0.01,0.55,0.02,0.82,0.05l0.89,0.09
				c0.33,0.04,0.62,0.08,0.97,0.14c0.38,0.05,0.75,0.11,1.12,0.18l1.24,0.24l1.34,0.3c1.04,0.23,1.96,0.49,3.28,0.84l1.93,0.56
				c0.75,0.22,1.5,0.45,2.24,0.69l2.72,0.88l3.16,1.09c1.28,0.44,2.55,0.9,3.82,1.37l2.55,0.93l1.33,0.49l0,0
				c-0.03,0.04,0.06-0.13,0.09-0.21l0.26-0.6c0.18-0.4,0.29-0.81,0.48-1.22c0.22-0.4,0.43-0.81,0.62-1.22
				c0.11-0.22,0.16-0.39,0.32-0.65l0.56-0.81c0.39-0.55,0.7-1.05,1.16-1.65l3.65-3.42l1.82-1.71c0.67-0.55,1.39-1.08,2.08-1.62
				l4.19-3.22c1.46-1.06,3.01-2.1,4.5-3.16c1.51-1.05,3-2.1,4.57-3.15c1.25-0.84,2.6-1.65,4.09-2.6
				c-0.67,1.28-5.93,5.34-13.05,11.19c-0.87,0.74-1.77,1.5-2.71,2.29c-0.47,0.39-0.95,0.79-1.43,1.2c-0.45,0.42-0.85,0.86-1.29,1.3
				c-0.87,0.88-1.76,1.78-2.67,2.71c-0.46,0.46-0.92,0.93-1.39,1.4c-0.31,0.29-0.27,0.33-0.35,0.46l-0.18,0.33
				c-0.24,0.44-0.49,0.89-0.74,1.34c-0.12,0.22-0.27,0.46-0.37,0.67l-0.15,0.52c-0.21,0.68-0.52,1.34-0.63,2.01
				c-0.09,0.33-0.18,0.66-0.3,0.98c-0.01,0.03-0.01,0.03,0,0.02l-2.22-0.84l-4.77-1.75c-1.14-0.42-2.28-0.84-3.43-1.23l-2.98-1.03
				c-0.85-0.29-1.71-0.57-2.57-0.84l-2.07-0.66l-1.92-0.57c-0.55-0.16-1.09-0.32-1.65-0.46l-1.47-0.39
				c-0.46-0.12-0.93-0.22-1.38-0.32c-0.39-0.1-0.78-0.18-1.17-0.26l-1.11-0.21c-0.33-0.06-0.67-0.12-1.01-0.16l-0.89-0.13
				c-0.62-0.06-1.09-0.12-1.58-0.15c-1.93-0.11-2.96,0.06-3.46,0.21l-0.13,0.04l-0.06,0.02l-0.03,0.01l-0.01,0
				c0.45-0.17,0.12-0.05,0.22-0.08l0,0c-0.02,0.01-0.05,0.02-0.09,0.04c0.06-0.03,0.11-0.06,0.37-0.25c0.45-0.34,1.24-1.11,2.1-2.38
				c1.87-2.65,3.83-7.09,5.62-13.57c0.24-0.84,0.45-1.66,0.65-2.5c0.25-0.95,0.48-1.89,0.68-2.83c0.22-1.04,0.45-2.08,0.67-3.12
				c0.22-1.15,0.45-2.3,0.67-3.45c0.25-1.3,0.48-2.6,0.68-3.89l0.04-0.24c0.34-1.99,0.1-0.55,0.18-0.99l0.01,0l0.05,0.01l0.09,0.01
				l0.19,0.02c0.25,0.04,0.49,0.07,0.74,0.1c0.97,0.15,1.9,0.33,2.79,0.42c1.76,0.29,3.35,0.43,4.62,0.71l0.34,0.83
				c-0.92,0.18-1.84,0.33-2.77,0.54c-0.93,0.21-1.85,0.31-2.79,0.47c-0.94,0.17-1.86,0.18-2.81,0.23l-0.7,0.02l-0.33,0l0,0.02
				l-0.06,0.33l-0.15,0.84l-0.59,3.08c-0.18,0.93-0.38,1.86-0.59,2.79l-0.54,2.44L631.41,576.38z M987.57,422.7
				c23.31-3.73,46.63-6.45,69.77-8.93c7.75-0.85,15.28-1.76,22.85-1.28c0.62,0.05,1.2,0.16,2.11,0.29
				c-2.17,0.53-9.1,1.45-18.37,2.42c-4.63,0.46-9.89,1.11-15.42,1.68c-5.53,0.56-11.37,1.24-17.21,1.9
				c-23.35,2.6-46.78,5.72-51.11,5.53C983.46,423.56,985.49,423.01,987.57,422.7z M728.03,451.9l-1.27,0.65
				c-1.1-5.59-3.28-11.05-6.74-15.72c-3.44-4.67-8.2-8.44-13.66-10.72l-0.65,0.38c0.85,0.53,1.6,1.22,2.39,1.87l-0.76,0.46
				c-3.48-2.15-7.35-3.62-11.34-4.5c-3.99-0.88-8.1-1.19-12.18-1.14c-1.99,0.02-3.99,0.13-5.98,0.3l0.56-0.52
				c2.01-0.18,4.02-0.29,6.03-0.31c1.16-0.02,2.33-0.02,3.49,0.05l1.27-0.89c-0.76-0.27-1.32-0.7-2.35-0.7l-0.57,0
				c-4.39,0.01-9.11,0.72-13.16,1.09c-4.83,0.45-9.57,1.14-14.36,1.82c-4.8,0.64-9.6,1.43-14.49,2.21l0.29-0.29l11.02-2.33
				l11.02-2.15c7.34-1.37,14.76-2.47,22.21-2.46c4.7,0.02,9.42,0.5,13.97,1.76c4.53,1.28,8.83,3.42,12.56,6.34
				c3.67,2.99,6.72,6.78,8.79,11.08c1.05,2.14,1.9,4.38,2.55,6.68C727.31,447.16,727.76,449.52,728.03,451.9z M748.9,548.84
				l-1.71-0.25c4.2-4.11,8.18-8.1,11.48-11.7c3.47-3.69,6.44-7.03,9.32-10.34c5.6-6.53,10.36-12.52,14.8-18.62
				c4.43-6.09,8.42-12.34,12.05-19.24c3.63-6.88,6.68-14.51,9.01-22.98l0.64,0.06c-1.9,8.36-4.54,15.95-7.84,22.79
				c-3.28,6.87-6.98,13.14-11.25,19.27c-4.28,6.15-8.98,12.2-14.74,18.81l-2.24,2.52l-1.12,1.26l-1.22,1.31l-2.45,2.62l-2.63,2.74
				C757.53,540.71,753.34,544.73,748.9,548.84z M801.12,414.33l-0.77,0.97c-0.77-1.54-1.67-2.95-2.41-4.6
				c-1.86-4.2-3.94-8.44-6.45-12.41c-0.36-0.56-0.91-1.48-1.12-1.57c-2.2-0.92-3.88-2.82-5.49-4.99c-1.62-2.17-3.17-4.61-5-6.65
				c-4.27-4.7-8.95-8.65-13.64-11.81c-4.71-3.12-9.44-5.48-14.06-7.43c-1.6-0.63-3.12-1.16-4.67-1.73c-1.2-0.41-2.35-0.91-3.46-1.35
				c-1.12-0.46-2.22-0.93-3.39-1.3l0.52-0.33c4.11,0.97,8.06,2.23,12.28,3.63c4.6,1.73,9.28,3.88,13.96,6.72
				c1.17,0.69,2.33,1.51,3.49,2.26c1.16,0.83,2.33,1.66,3.48,2.54c2.28,1.83,4.56,3.77,6.74,5.94c1.1,1.06,2.15,2.22,3.22,3.35
				c1.02,1.2,2.05,2.38,3.03,3.63c1.97,2.49,3.83,5.11,5.5,7.86C796.27,402.55,798.99,408.41,801.12,414.33z M985.32,547.58
				c-0.96,0.67-3.86,1.66-7.88,2.78c-2.01,0.56-4.3,1.15-6.76,1.75c-2.45,0.63-5.07,1.31-7.76,1.95c-2.7,0.65-5.46,1.28-8.21,1.87
				c-2.73,0.62-5.42,1.25-7.99,1.79c-5.14,1.08-9.78,1.86-13.07,2.29C950.23,554.09,967.05,548.01,985.32,547.58z M575.37,530.97
				l-1.79,0.04c1.15-1.31,1.79-2.4,1.61-3.6c-0.09-0.59-0.38-1.2-0.96-1.79c-0.57-0.59-1.41-1.13-2.42-1.51l3.1-1.33
				c0.99,0.55,1.76,1.24,2.24,1.97c0.49,0.73,0.66,1.46,0.63,2.15C577.72,528.32,576.78,529.54,575.37,530.97z M707.55,551.12
				l-3.56,3.1c-1.19,1.03-2.54,2.12-3.8,3.18c-2.49,2.11-5.35,4.33-8.07,6.52c-5.69,4.42-11.76,8.9-17.85,13.39l-2.28,1.68
				l-2.22,1.69c-1.47,1.13-2.99,2.25-4.43,3.4l-4.13,3.48l-1.04,0.87l-0.52,0.44l-0.45,0.46l-1.8,1.84l-1.8,1.84l-0.9,0.92
				l-0.23,0.23l-0.07,0.12l-0.14,0.24l-1.09,1.91l-0.27,0.47l-0.13,0.39l-0.27,0.76c-0.17,0.5-0.44,0.98-0.52,1.49l-1.23-0.32
				c0.05-0.25,0.08-0.51,0.14-0.77l0.24-0.76l0.45-1.58l0.94-1.93c0.17-0.33,0.28-0.63,0.51-0.99l1.62-1.77l3.22-3.54l3.7-3.34
				l1.83-1.66l1.98-1.62l3.93-3.23l8.01-6.37l3.95-3.15l3.81-3.12c2.58-2.08,4.88-4.1,7.26-6.12c1.21-1.02,2.24-1.98,3.36-2.96
				c1.08-0.97,2.24-1.97,3.24-2.91C701.82,552.63,703.98,552.07,707.55,551.12z M714.38,537.62l0.76,0.91
				c-8.15,5.96-16.65,10.86-25.13,14.74c-8.48,3.89-16.89,6.65-24.8,8.52l-0.12-0.77C680.32,556.3,696.83,547.85,714.38,537.62z
				 M627.28,594.27c1.58,0.16,3.57,0.48,6.33,1.17l2.25,0.6l2.68,0.79l3.25,1.04l1.88,0.63l2.22,0.77l2.52,0.89l2.88,1.05l3.67,1.36
				l8.05,3.07l0.12-0.24c0.07-0.16,0.14-0.32,0.2-0.49c0.07-0.17,0.08-0.34,0.18-0.51c0.1-0.17,0.19-0.34,0.28-0.52
				c0.09-0.18,0.16-0.36,0.23-0.54c0.03-0.05,0.02-0.08,0.07-0.15l0.16-0.22l0.32-0.44l0.64-0.87l0.32-0.44
				c-0.01-0.01,0.12-0.12,0.24-0.22l0.34-0.3l0.68-0.6c1.83-1.59,3.57-3.2,5.47-4.76l6.28-4.49c2.15-1.49,4.5-2.95,6.73-4.42
				c9.16-5.88,18.68-11.89,27.18-17.93c8.52-6.04,15.79-11.95,22.08-17.48c0.53-0.46,1.24-0.91,2.35-1.34
				c-6.28,6-13.85,12.57-23.06,19.3c-9.12,6.72-19.72,13.4-29.67,19.91c-1.23,0.82-2.53,1.63-3.72,2.46l-3.47,2.49l-3.48,2.49
				c-1.03,0.87-2.01,1.76-3.02,2.64l-3.01,2.64c-0.68,0.57-0.58,0.57-0.73,0.75l-0.34,0.46c-0.43,0.6-1.03,1.33-1.04,1.58
				c-0.08,0.18-0.17,0.35-0.27,0.52c-0.05,0.08-0.11,0.17-0.15,0.25l-0.08,0.25c-0.06,0.16-0.13,0.32-0.21,0.48l-0.13,0.23
				l-0.02,0.03l-0.01,0.01l0,0.01c5.62,2.15-7.63-2.91-6.38-2.43l-0.25-0.1l-4.01-1.53l-6.69-2.44l-4.78-1.65l-3.66-1.18l-2.94-0.86
				l-2.43-0.64c-2.95-0.73-5.01-1.04-6.61-1.16c-1.59-0.12-2.66-0.03-3.31,0.08l-0.4,0.08l-0.24,0.07l-0.05,0.02l-0.01,0l-0.01,0
				c0.1-0.04-0.23,0.09,0.22-0.08l-0.01,0l-0.03,0.01c-0.01,0-0.09,0.04-0.05,0.02l0.07-0.04c-0.02,0.02-0.13,0.07-0.06,0.03
				l0.04-0.02l0.02-0.01l0.01,0l0,0l0,0l0,0c-0.45,0.17-0.12,0.05-0.22,0.08l0,0l0,0l0,0c0.09-0.04,0.11-0.04,0.23-0.07
				c0.15-0.04,0.21-0.05,0.43-0.1C624.09,594.17,625.35,594.07,627.28,594.27z M664,548.58l-0.2-0.7c3.54-0.96,7.26-2.15,11.12-3.56
				c3.87-1.44,7.89-3.08,12.02-4.92c8.25-3.65,17.01-8.11,26.17-12.98l0.45,0.6c-1.32,1.28-11.03,6.85-21.54,11.75
				c-5.26,2.45-10.74,4.72-15.63,6.41C671.47,546.89,667.17,548,664,548.58z M681.21,612.9l0.74,0.44c-5.06-2.86,6.9,3.9,5.67,3.2
				l0,0l0,0l0.01-0.01l0.02-0.02l0.03-0.03l0.06-0.06l0.13-0.12l0.52-0.49l0.06-0.06l0.03-0.03c0.03-0.02-0.03,0.02,0.12-0.09
				l1.19-0.93l2.39-1.86c1.61-1.24,3.15-2.49,4.81-3.71l5.6-3.48c1.89-1.16,3.65-2.32,5.74-3.47l12.2-6.96l6.19-3.54
				c2.07-1.18,4.05-2.42,6.08-3.63l6.03-3.65l5.72-3.73l2.86-1.86c0.47-0.31,0.97-0.62,1.41-0.93l1.31-0.94l5.22-3.76l2.61-1.88
				l2.34-1.86l4.68-3.71c0.48-0.39,1.05-0.78,1.56-1.16c0.49-0.37,1.01-0.75,1.54-1.12c1.06-0.74,2.16-1.48,3.19-2.23
				c-0.72,1.09-1.05,2.15-2.25,3.3c-0.61,0.62-1.46,1.27-2.2,1.91l-2.29,1.93c-1.56,1.29-3.01,2.58-4.69,3.88
				c-1.76,1.31-3.52,2.61-5.27,3.92c-1.78,1.3-3.51,2.61-5.56,3.89l-5.21,3.37l-2.61,1.69c-0.88,0.56-1.83,1.1-2.74,1.65l-5.52,3.29
				l-2.76,1.65l-2.82,1.6l-11.25,6.34l-5.54,3.11c-0.91,0.52-1.88,1.03-2.74,1.55l-2.56,1.56l-5.11,3.12l-1.28,0.78
				c-0.21,0.13-0.44,0.26-0.63,0.39l-0.55,0.42l-2.18,1.67l-4.36,3.34l-1.38,1.06l-0.24,0.19l-0.47,0.38l-0.06,0.05l-0.03,0.02
				l-0.01,0.01l-7.02-3.97l-0.33-0.2l-0.68-0.38c-0.46-0.25-0.95-0.49-1.46-0.72c-0.32-0.14-0.36-0.17-0.5-0.24l-0.39-0.18
				l-0.13-0.06l0.47,0.22c0.17,0.08,0.21,0.12,0.59,0.28C680.1,612.3,680.67,612.59,681.21,612.9z M559.73,557.84
				c0.07-0.43,0.27-1.21,0.63-2.26c0.38-1.03,0.91-2.34,1.58-3.88c0.34-0.77,0.72-1.61,1.11-2.5c0.21-0.44,0.42-0.9,0.63-1.37
				c0.21-0.45,0.46-1.01,0.67-1.38c0.85-1.64,1.82-3.44,2.89-5.37c0.27-0.48,0.54-0.97,0.82-1.47c0.08-0.17,0.05-0.16,0.08-0.25
				c0.04-0.14,0.07-0.27,0.11-0.42c0.07-0.29,0.18-0.56,0.28-0.83c0.21-0.55,0.49-1.08,0.8-1.57c1.25-1.96,3.1-3.22,4.61-3.52
				c-1.03,1.02-2.14,2.23-3.18,3.74c-0.52,0.76-1.01,1.6-1.45,2.52l-0.32,0.71l-2.81,4.84l-0.79,1.37c-0.27,0.48-0.51,0.86-0.8,1.46
				l-1.69,3.35C561.81,553.28,560.67,555.45,559.73,557.84z M604.65,529.82c2.93-1.94,5.85-3.84,8.53-6.01
				c0.25-0.21,1.34-0.52,2.03-0.8c0.41,0.06,1.25,0.04,1.12,0.19c-1.55,1.7-3.12,3.32-5.79,4.97c-2.09,1.3-5.34,2.6-7.97,3.86
				l-0.83,0C602.74,531.27,603.55,530.54,604.65,529.82z M663.45,558.52c-0.43,1.11-4.58,3.28-9.07,4.65
				c-4.5,1.42-9.29,1.93-11.29,1.43c2.74-2.57,5.77-3.51,9.22-4.1C655.74,559.91,659.64,559.59,663.45,558.52z M580.59,501.16
				c2.6-1.63,4.78-2.66,6.66-3.28c1.89-0.64,3.47-0.93,5.06-1.09c-2.13,1.55-5.43,3.14-7.89,4.11
				C581.95,501.84,580.19,502.18,580.59,501.16z M658.92,663.17l0.38,1.04c-6.71,0.76-13.7,1.01-20.72,0.95
				c-7.04-0.09-14.18-0.7-21.28-1.66c-2.7-0.41-5.88-1-9.58-1.99c-3.72-1-8.02-2.38-13.18-4.79c-5.12-2.43-11.25-5.93-17.75-11.8
				l-1.19-1.1c-0.39-0.37-0.78-0.74-1.2-1.17c-0.83-0.84-1.64-1.69-2.43-2.57c-1.55-1.69-3.16-3.69-4.63-5.72
				c-1.47-1.99-2.88-4.23-4.17-6.49c-1.3-2.25-2.43-4.62-3.46-7.03c-4.24-9.79-5.62-20.32-5.44-28.08c0.03-2.06,0.14-3.8,0.3-5.63
				c0.16-1.65,0.37-3.4,0.61-4.84c0.24-1.56,0.5-2.88,0.79-4.23l0.42-1.86l0.44-1.74c0.6-2.28,1.17-4.08,1.72-5.72l0.76-2.2
				l0.32-0.87l0.3-0.77c0.8-2.05,1.62-4.09,2.47-6.12l1.28-0.25c-0.85,2.02-1.67,4.05-2.47,6.09l-0.59,1.53l-0.33,0.89l-0.37,1.04
				c-0.51,1.47-1.09,3.25-1.66,5.26c-0.59,2.1-1.18,4.47-1.69,7.25c-0.52,2.86-0.95,6.03-1.14,9.76c-0.17,3.78-0.1,7.95,0.52,12.59
				c0.62,4.66,1.77,9.62,3.6,14.57c0.9,2.43,1.95,4.79,3.1,7.11c1.16,2.29,2.47,4.52,3.87,6.67c1.39,2.09,2.87,4.07,4.44,5.99
				c1.51,1.8,3.09,3.5,4.74,5.14c6.44,6.26,12.69,10.05,17.9,12.66c5.27,2.6,9.63,4.05,13.41,5.13c3.77,1.05,6.97,1.68,9.76,2.13
				c0.83,0.14,1.1,0.16,1.58,0.22l1.33,0.17l2.66,0.32l2.66,0.31l2.66,0.21c1.77,0.13,3.54,0.28,5.31,0.36l5.28,0.16
				C645.24,664.16,652.21,663.91,658.92,663.17z M983.32,532.73l-0.16-0.83c14.69-2.45,29.41-4.77,44.29-6.56
				C1012.9,529.3,998.1,530.77,983.32,532.73z M951.7,539.97c0.1,0.27,0.32,0.82,0.68,1.77c-5.56,0.99-10.97,2.06-16.36,3.06
				c-5.37,1.06-10.64,2.24-15.94,3.34l-0.05-0.7c5.18-1.27,10.33-2.62,15.59-3.86C940.9,542.4,946.22,541.16,951.7,539.97z
				 M683.64,389.38l0.78-0.88c1.77-0.13,3.63-0.33,5.34-0.41l5.17-0.27l5.17-0.27c1.71-0.07,3.39-0.14,5.06-0.16
				c3.35-0.07,6.69-0.05,10.02,0.11c3.31,0.16,6.65,0.48,10.04,0.96l2.21,0.36c-0.81-0.06-1.62-0.12-2.43-0.18
				c-3.69-0.21-7.24-0.32-10.7-0.32c-3.48-0.01-6.9,0.07-10.28,0.19c-1.69,0.04-3.37,0.13-5.06,0.2l-5.1,0.24l-5.05,0.18
				C687.15,389.16,685.36,389.31,683.64,389.38z M1172.13,522.11c-12,0.35-23.98,0.65-36,0.81c4.43-1.3,9.39-0.94,14.12-1.19
				c2.64-0.14,5.28-0.22,7.93-0.3c2.65-0.06,5.3-0.11,7.95-0.22c5.04-0.21,10.05-0.61,15.09-0.86l0.51,0.82
				C1178.51,521.48,1175.33,521.99,1172.13,522.11z M633.9,662.92l-0.22-0.82c18.17,0.72,35.59-1.78,51.2-5.84l0.53,0.94
				c-7.73,2.27-15.9,4.18-24.53,5.3C652.26,663.6,643.15,663.88,633.9,662.92z M898.84,430.99l0.19,0.32l-10.47,2.83l-10.44,3.06
				c-3.48,1.04-6.96,2.02-10.43,3.12l-10.4,3.34l-0.48-1.08l10.48-3.15c3.5-1.03,7-1.95,10.5-2.93l10.51-2.87L898.84,430.99z
				 M1229.01,492.33c0.59-1.21,16.1-0.66,20.72,1.27c-6.93,0.47-13.18,0.89-19.8,1.34C1229.53,493.81,1229.31,493.17,1229.01,492.33
				z M725.26,601.64l0.44,0.9c-4.57,2.13-9.24,4.18-14,6.12c-4.75,1.96-9.61,3.79-14.58,5.47l-0.31-0.95
				c4.94-1.67,9.78-3.49,14.5-5.44C716.06,605.8,720.7,603.76,725.26,601.64z M1055.39,544.4c-5.36,0.39-10.51,0.77-15.59,1.14
				c-5.08,0.38-10.05,0.89-15.14,1.33c2.53-1.21,8.6-2.34,14.86-2.84C1045.8,543.55,1052.22,543.56,1055.39,544.4z M618.41,521.44
				l-2.57,0.45c2.38-2.37,4.34-5.07,5.48-8.14l2.47-0.68C622.71,516.21,620.79,519,618.41,521.44z M803.15,424.99l1.05-0.31
				c2.64,13.93,2.19,27.83-0.36,39.91l-0.34,0.08C805.79,452.64,806.01,438.81,803.15,424.99z M627.51,506.29l-2.36,0.88
				c-0.34-3.5-1.74-7.09-4.41-10.03l2.5-1.4C625.92,498.86,627.25,502.62,627.51,506.29z M899.25,549.25l-0.09-1.09
				c3.74-0.89,7.51-1.7,11.26-2.55l5.63-1.27c1.88-0.41,3.78-0.76,5.67-1.15l0.06,1.17c-1.87,0.57-3.77,1.01-5.64,1.47
				c-1.87,0.46-3.74,0.86-5.62,1.23C906.77,547.84,902.98,548.43,899.25,549.25z M851.14,450.34l0.44,1.16l-12.82,4.21
				c-2.13,0.72-4.28,1.38-6.4,2.14l-6.37,2.28l-0.31-0.69l6.34-2.4c2.11-0.8,4.24-1.5,6.37-2.26L851.14,450.34z M590.66,493.93
				l-1.3,1.43c-3.08,1.35-6,2.69-8.74,4.03l1.3-1.8C584.69,496.37,587.61,495.15,590.66,493.93z M656.14,624.02l-0.33-1.03
				c9.68-1.03,18.99-3.16,27.93-5.8l0.38,0.85C675.18,620.74,665.85,622.91,656.14,624.02z M710.33,505.53l0.26,0.2
				c-6.5,3.67-12.67,7.12-18.52,10.21l-0.53-0.86C697.47,512.22,703.74,508.99,710.33,505.53z M591.83,489.17l1.06-1.35
				c1.76-0.8,3.67-1.76,5.39-2.4c1.8-0.67,3.38-1.08,5.08-1.6l-1.17,1.17C598.58,486.39,595.13,487.77,591.83,489.17z
				 M744.87,594.71c-6,3.47-12.12,6.9-18.56,10.27c0.3-1.02,2.9-2.87,6.43-4.84C736.27,598.18,740.74,596.11,744.87,594.71z
				 M604.13,525.39c2.4,0.04,2.5,0.49,1.88,1c-0.62,0.52-1.93,1.11-2.55,1.61l-1.41,0.12C602.87,527.19,603.57,526.3,604.13,525.39z
				 M1258.21,492.05c5.4-1.94,11.3-2.02,16.53,0.21C1269.33,492.19,1263.91,492.12,1258.21,492.05z M671.33,367.07l8.11-0.92
				l2.03-0.23l1.01-0.11c0.33-0.03,0.63-0.03,0.95-0.05l3.76-0.18l7.53-0.35l1.88-0.08c0.62-0.02,1.17,0.01,1.76,0.01l3.48,0.05
				c-1.32,0.2-2.61,0.35-3.86,0.46c-0.63,0.05-1.25,0.1-1.87,0.15c-0.65,0.07-1.31,0.13-1.96,0.2c-2.58,0.23-5.07,0.33-7.51,0.37
				c-1.22,0.02-2.43,0.02-3.64,0.01l-0.91-0.01l-0.98,0.06l-1.95,0.11C676.58,366.71,673.97,366.85,671.33,367.07z M754.93,616.01
				c5.28-2.69,10.42-5.39,15.43-8.04l0.57,0.78C766.33,612.4,760.48,613.7,754.93,616.01z M654.02,427.25l0.73-0.77
				c5.37-1.11,10.74-2.3,16.16-3.14l-0.86,0.79C664.67,424.98,659.35,426.15,654.02,427.25z M854.14,443.81l0.28,0.41l-4.07,1.38
				l-4.05,1.48l-8.1,2.97l-0.64-0.91l8.28-2.72l4.14-1.36L854.14,443.81z M613.39,530.76c-1.33,0.96-2.34,1.69-3.63,2.62
				C607.82,532.32,608.17,532.02,613.39,530.76z M693.93,566.83l-0.68-0.27l2.41-1.7l2.31-1.69c1.52-1.12,3.12-2.26,4.57-3.36
				c2.87-2.2,5.85-4.43,8.43-6.53l1.28,0.26c-2.67,2.11-5.77,4.36-8.73,6.55l-4.73,3.37l-2.38,1.68L693.93,566.83z"/>
		</g>
	</g>
</g>
</svg>
