<?xml version="1.0" encoding="utf-8"?>
<!-- Generator: Adobe Illustrator 25.3.1, SVG Export Plug-In . SVG Version: 6.00 Build 0)  -->
<svg version="1.1" id="Layer_1" xmlns="http://www.w3.org/2000/svg" xmlns:xlink="http://www.w3.org/1999/xlink" x="0px" y="0px"
	 viewBox="0 0 14400 14400" style="enable-background:new 0 0 14400 14400;" xml:space="preserve">
<style type="text/css">
	.st0{fill:#F4BE1D;}
	.st1{fill:none;stroke:#000000;stroke-miterlimit:10;}
</style>
<g>
	<g>
		<g>
			<path class="st0" d="M6728.37,7299.41c-1.36-0.22-2.72-0.52-4.06-0.79c-1.32-0.28-2.56-0.59-3.46-0.98
				c-6.91-2.89-13.92-5.57-20.88-8.56c-6.9-3.01-13.57-6.44-19.36-10.69c-4.73-3.58-9.53-7.47-13.83-12.05
				c-4.32-4.55-8.21-9.76-11.27-15.5c-4.33-8.1-7.19-17.19-8.45-26.46c-1.26-9.28-0.99-18.7,0.54-27.84
				c3.05-18.29,11.06-35.51,22.58-49.24l1.45-1.79c0.49-0.6,1.02-1.15,1.53-1.73l3.09-3.43c2.19-2.19,4.29-4.43,6.63-6.49
				c2.23-2.14,4.69-4.09,7.08-6.1l3.74-2.88c0.63-0.47,1.24-0.96,1.88-1.43l1.95-1.37c5.13-3.7,10.65-7.08,16.4-10.26l4.35-2.36
				l4.5-2.24c1.48-0.76,3.04-1.46,4.59-2.16c1.56-0.69,3.06-1.43,4.67-2.08c2.64-1.08,5.2-2.22,7.92-3.22l4.03-1.55
				c1.35-0.51,2.74-0.98,4.11-1.48c1.38-0.48,2.72-1,4.14-1.44l4.23-1.35l8.44-2.69l8.62-2.42c2.88-0.79,5.73-1.63,8.64-2.33
				c5.79-1.45,11.64-2.97,17.22-4.15c1.71-0.39,3.49-0.79,5.32-1.21c0.9-0.19,1.82-0.39,2.74-0.58c0.72-0.12,1.45-0.24,2.18-0.33
				c2.93-0.39,5.92-0.5,8.83,0.08c-2.45,0.85-4.9,1.66-7.35,2.43c-1.29,0.4-2.58,0.79-3.87,1.18c-1.56,0.46-3.11,0.93-4.67,1.39
				c-3.12,0.93-6.17,1.75-9.32,2.7c-3.15,0.94-6.29,1.88-9.42,2.81c-12.41,3.82-24.58,7.83-35.04,12.82
				c1.53-0.6,3.12-1.14,4.67-1.71c1.56-0.57,3.12-1.13,4.73-1.64c3.2-1.04,6.39-2.08,9.57-3.12c3.19-1.02,6.48-1.91,9.71-2.87
				l4.86-1.41l4.9-1.31c3.25-0.86,6.55-1.78,9.75-2.58c3.19-0.79,6.39-1.57,9.57-2.36l2.34-0.57l1.93-0.44l3.86-0.88
				c2.57-0.59,5.14-1.19,7.72-1.73c4.09-0.89,8.16-1.87,12.24-2.8l6.11-1.43l6.13-1.35l2.44-0.53c0.82-0.18,1.55-0.35,2.69-0.56
				l6.29-1.2l6.32-1.21l6.4-1.08l6.42-1.08c2.14-0.36,4.29-0.64,6.44-0.96c4.3-0.61,8.62-1.28,12.92-1.76
				c3.26-0.39,6.54-0.68,9.8-0.94c3.24-0.2,6.47-0.4,9.72-0.72l2.62-0.26l1.31-0.13l1.26-0.04l5.06-0.17l5.08-0.17
				c0.84-0.01,1.72-0.09,2.52-0.05l2.39,0.11l9.59,0.47c3.06,0.29,6.03,0.67,9.06,1.02c5.95,0.85,11.61,1.69,17.31,4.18
				c2.83,1.24,5.62,2.99,8.15,5.13c2.52,2.14,4.76,4.71,6.55,7.45c2.62,4,4.41,8.3,5.67,12.61c1.26,4.32,1.99,8.69,2.4,13.1
				c0.41,4.41,0.46,8.86,0.22,13.37l-0.1,1.69l-0.06,0.85c-0.01,0.14-0.01,0.28-0.04,0.43l-0.12,0.47l-0.93,3.76l-1.86,7.54
				c-3.64,14.65-7.28,29.3-10.92,43.95l-5.53,22.19l-1.39,5.57l-0.69,2.79l-0.34,1.36l-0.23,0.81c-0.61,2.13-0.89,3.55-0.96,4.23
				c-0.01,0.09-0.02,0.13-0.06,0.2c-0.02,0.03-0.05,0.07-0.06,0.05l-0.19-0.02c-1.3-0.12-2.61-0.24-3.92-0.36
				c-0.59-0.04-1.18-0.07-1.78-0.09c-0.28-0.01-0.63-0.01-0.86-0.02l-0.72-0.04l0.84,0.04l1.04,0.02c0.69,0.02,1.38,0.07,2.06,0.13
				l1.01,0.1l1.22,0.1l0.61,0.06l-0.02-0.01l-0.05-0.01c-0.08,0.01-0.09-0.12-0.14-0.21c-0.05-0.07-0.05-0.24-0.07-0.4
				c-0.04-0.65,0.12-1.7,0.45-3.05c0.22-0.95,0.5-1.81,0.99-3.92l1.33-5.45l2.67-10.88c1.77-7.23,3.52-14.44,5.15-21.56
				c2.41-10.55,4.68-20.94,6.94-31.17l1.69-7.65l0.85-3.81l0.43-1.9l0.21-0.95c0.07-0.32,0.16-0.64,0.15-0.92
				c0.3-4.6,0.33-9.17,0.03-13.72c-0.34-5.25-1.11-10.47-2.65-15.64c-0.77-2.58-1.74-5.15-2.98-7.66c-1.26-2.49-2.78-4.93-4.64-7.15
				c-1.86-2.21-4.03-4.18-6.37-5.8c-2.35-1.61-4.84-2.85-7.35-3.73c-5.03-1.79-10.04-2.43-15.28-3.07l-4.65-0.47
				c-3.56-0.45-7.53-0.53-11.37-0.69l-2.89-0.1c-0.98-0.01-1.89-0.11-2.94-0.03c-2.04,0.1-4.08,0.21-6.11,0.31l-5.69,0.36
				c-1.91,0.17-3.9,0.48-5.83,0.72c-3.9,0.54-7.73,0.98-11.61,1.63c-3.84,0.6-7.68,1.19-11.52,1.79c-3.83,0.64-7.64,1.24-11.44,1.79
				c-5.08,0.81-10.16,1.61-15.25,2.42l-7.56,1.3l-3.78,0.64c-0.69,0.11-1.11,0.2-1.64,0.3l-1.53,0.28
				c-4.07,0.76-8.16,1.48-12.22,2.31l-6.1,1.2l-6.08,1.29c-2.99,0.62-5.97,1.27-8.94,1.97l-4.46,1.01l-1.12,0.25l-1.21,0.29
				l-2.69,0.66c-3.6,0.9-7.16,1.72-10.8,2.67l-10.96,2.92l-10.85,3.13c-1.82,0.51-3.6,1.07-5.37,1.65l-5.32,1.72
				c-7.13,2.25-13.99,4.81-20.62,7.57c-14.33,6.01-27.32,13.15-38.62,21.85c-1.13,0.81-2.13,1.7-3.07,2.55
				c-0.93,0.87-1.81,1.69-2.49,2.56c-1.35,1.76-2.25,3.39-2.19,4.97c13.42-11.42,29.31-19.82,46.44-26.53
				c8.59-3.32,17.46-6.27,26.59-8.8c2.27-0.64,4.52-1.32,6.81-1.93l6.88-1.78c4.56-1.22,9.2-2.25,13.79-3.36
				c-0.46,0.66-0.49,1.05-0.85,1.17c-14.78,4.94-28.97,10.16-42,16.04c-13.05,5.89-25,12.48-35.69,20.44l0.43,0.24
				c3.08-1.61,6.24-3.07,9.82-4.61c-1.6,1.51-8.05,5.26-15.93,11.46c-2.01,1.5-3.99,3.29-6.12,5.09c-1.02,0.96-2.06,1.94-3.11,2.93
				c-1.08,0.97-2.05,2.1-3.1,3.16c-0.51,0.54-1.05,1.07-1.56,1.64c-0.49,0.58-0.99,1.16-1.49,1.74c-1,1.16-2.03,2.32-2.97,3.58
				c-1.91,2.47-3.69,5.1-5.31,7.84c-3.22,5.48-5.78,11.35-7.57,17.12c-0.89,2.89-1.6,5.75-2.14,8.52c-0.51,2.77-0.89,5.45-1.1,7.97
				c-0.87,10.14,0.68,17.59,0.65,19.77c-0.75-2.83-1.27-5.64-1.61-8.46c-0.33-2.81-0.43-5.62-0.4-8.43
				c0.11-5.62,0.88-11.28,2.4-17.08c-0.65,1.32-1.55,3.93-2.37,7.58c-0.79,3.64-1.48,8.34-1.42,13.73
				c0.06,5.37,0.82,11.46,2.89,17.52c2.05,6.04,5.37,12.05,9.87,17.01c4.4,5.07,9.85,9.06,15.42,12.1
				c5.57,3.06,11.28,5.2,16.55,6.73c10.58,3.01,19.41,3.89,23.37,3.91c-9.68-1.6-18.8-3.66-27.36-6.91
				c-4.28-1.62-8.4-3.51-12.3-5.82c-3.89-2.32-7.54-5.05-10.81-8.21l0.9-0.37c3.28,2.76,7.02,5.13,10.6,7.18
				c4.91,2.91,10.13,5.18,15.5,6.96c5.38,1.79,10.88,3.15,16.48,4.24c5.59,1.1,11.28,1.91,17.05,2.63
				c5.77,0.72,11.62,1.3,17.55,1.71c19.93,1.38,40.43,1.01,60.53-0.53l4.52-0.37l4.35-0.48l4.26-0.49l4.24-0.57
				c1.56-0.22,3.07-0.58,4.6-0.9l-0.21-0.42l-7.96,0.22c-2.66,0.03-5.32,0.06-7.98,0.09c8.02-1.41,15.82-3.03,23.75-4.81
				c7.91-1.83,15.91-3.87,24.22-6.22c-3.16-0.04-4.37-0.21-5.6-0.04c-4.79,0.66-8.05,0.45-8.06-1.93c0-0.43-2.75-0.84-4.27-0.68
				c-7.68,0.8-15.4,1.52-23.11,2.22l-6.13,0.51c-2.07,0.18-3.82,0.3-5.71,0.42c-3.72,0.27-7.45,0.45-11.18,0.63
				c-7.46,0.29-14.93,0.46-22.37,0.35c-2.63-0.03-5.05-0.5-7.53-0.76l0.63-0.98c12.77-0.44,25.14-1.38,37.08-2.85l0.08-0.84
				c-4.66-0.01-9.23-0.2-13.81-0.25c-18.41-0.24-36.36-1.62-53.49-4.43c-6.53-1.17-12.82-2.82-18.59-5.46
				c-0.74-0.35-0.64-1.07-0.88-1.68c6.15,1.33,11,2.41,16.1,3.07c7.09,0.89,13.94,1.24,20.48,1.87c6.55,0.62,12.82,1.32,19.07,2.39
				c3.75,0.64,8.05,1.08,13.62-0.66c-8.49-0.3-15.74-0.83-22.86-1.55l0.98-1.27c8.74-0.08,17.27-0.46,25.73-1.15
				c4.23-0.34,8.44-0.77,12.64-1.27c2.08-0.27,4.18-0.54,6.3-0.81c2.74-0.37,5.51-0.74,8.3-1.12c-1.54,0.06-3.07,0.07-4.56,0.11
				c-0.75,0.01-1.49,0.03-2.23,0.04c-0.58,0-1.16,0-1.73,0c-2.07-0.06-4.08-0.12-6.06-0.18c-3.92-0.15-7.62-0.32-11.34-0.41
				c-10.25-0.26-18.86-2.44-23.9-6.3c-0.34-0.26-0.26-0.74-0.38-1.23c3.98-0.58,7.44-1.18,10.95-1.87
				c-0.25-0.43-0.24-0.73-0.47-0.79c-3.32-0.99-6.64-1.98-9.97-2.97c-3.28-0.91-6.59-1.72-10.34-2.53
				c-3.69-0.8-7.06-2.09-10.01-3.98c-1.65-1.07-3.22-2.28-4.57-3.72c-1.34-1.45-2.52-3.07-3.42-4.86c-1.8-3.59-2.4-7.78-1.94-11.88
				c0.59-5.49,2.94-10.93,7.08-15.23c1.78-1.87,3.68-3.55,5.6-5.08c0.98-0.75,1.94-1.49,2.94-2.14l1.47-0.99l1.48-0.93
				c1.96-1.21,3.88-2.31,5.76-3.3c1.87-1.01,3.7-1.91,5.47-2.8c2.65-1.32,5.54-2.34,8.44-3.17c1.02-0.3,2.34-0.33,4.09-0.51
				c-0.3,0.72-0.21,1.2-0.56,1.36c-3.26,1.62-5.95,3.52-9.17,5.37c-2.19,1.26-4.5,2.63-6.71,4.26c-2.2,1.62-4.31,3.5-5.89,5.7
				c-2.69,3.73-4.48,8.16-4.91,12.75c-0.21,2.29-0.03,4.61,0.57,6.81c0.6,2.2,1.68,4.26,3.18,5.97c1.53,1.77,3.58,3.15,5.86,4.1
				c2.28,0.96,4.75,1.57,7.22,1.94c1.31,0.21,3.56-0.4,5.5-0.75c1.77-3.01-0.05-3.08-2.35-3.18c-2.28-0.1-4.69-0.34-6.69-1.04
				c-1.99-0.7-3.54-1.89-3.87-3.67c-0.26-1.36-0.79-2.71-1.43-4.02c-1.39-2.88-1.85-6.14-1.61-9.29c0.25-3.16,1.18-6.26,2.72-9.03
				c0.12-0.23,0.14-0.46,0.33-0.67c1.52-1.65,3.1-3.14,5.2-4.3c2.46-1.37,5.84-2.05,7.83-3.04c3.81-1.89,7.23-3.56,11.14-4.76
				c0.86-0.26,2.15-0.09,3.18-0.08l0.38,0.49c-0.43,0.78-0.81,1.56-1.16,2.62c3.9,0.2,5.97-0.08,7.94-1.14
				c0.87-0.48,1.83-0.9,2.87-1.11l0.39-0.07l0.52-0.07c0.36-0.04,0.72-0.07,1.08-0.08c0.36-0.01,0.73,0.01,1.1,0.04
				c0.18,0.02,0.37,0.04,0.55,0.07l0.14,0.02l0.39-0.03l0.78-0.05l-0.96,0.36c-0.21,0.07-0.17,0.08-0.24,0.12l-0.15,0.1l-0.59,0.39
				c-0.39,0.25-0.78,0.48-1.16,0.7l-0.58,0.32c-0.21,0.11-0.28,0.19-0.43,0.28l-0.75,0.53c-2.99,2.17-5.12,4.16-5.99,6.24
				c-0.11,0.23,0.93,1.18,1.9,1.78c0.88,0.55,2.49,1.34,3.27,1.71c0.85,0.38,1.37,0.53,1.59,0.51c1.43-0.1,2.6-0.07,3.57-0.08
				c0.24,0,0.5,0.11,0.73,0.1c0.29-0.04,0.56-0.11,0.81-0.24c0.13-0.06,0.25-0.14,0.36-0.24c0.06-0.05,0.11-0.1,0.17-0.16
				c0.1-0.07-0.03-0.09,0.45-0.25c3.09-1.17,6.23-2.23,9.42-3.13c3.2-0.87,6.42-1.68,9.67-2.38c3.25-0.67,6.51-1.38,9.78-1.97
				l4.89-0.95l1.22-0.25l0.61-0.13c0.08-0.02,0.26-0.05,0.25-0.05l0.04-0.02c0.09-0.04,0.19-0.09,0.28-0.14
				c0.24-0.13,0.49-0.19,0.74-0.22c0.21-0.02,0.39,0,0.58,0.04c0.37,0.07,0.71,0.21,1.05,0.22c1.21,0.04,2.32,0.11,3.36,0.21
				l0.28,0.03c0.31,0.03,0.14,0.57,1.11-0.01c1.32-0.79,2.87-1.42,4.31-1.8c1.45-0.38,2.84-0.55,4.05-0.48
				c0.27,0.01,0.86-0.16,1.38-0.31c1.58-0.44,2.42-0.27,2.62,0.22c0.1,0.25,0.04,0.56-0.17,0.96c-0.22,0.42-0.57,0.89-1.04,1.37
				c-0.87,0.89-1.95,1.81-3.32,2.59c-1.37,0.79-3.03,1.43-5.08,1.95c-0.49,1.01-0.17,1.9-0.22,3.02c-0.02,0.55-0.13,1.13-0.43,1.67
				c-0.15,0.27-0.35,0.54-0.62,0.78c-0.13,0.12-0.28,0.23-0.44,0.34c-0.08,0.05-0.17,0.1-0.26,0.15c-0.12,0.13-0.09-0.21-0.49,0.78
				l0.1-0.6l0.02-0.14l-0.01-0.02l-0.03-0.04l-0.11-0.15l-0.2-0.28c-0.13-0.18-0.24-0.35-0.34-0.51c-0.19-0.32-0.33-0.6-0.43-0.86
				c-0.19-0.52-0.2-0.96-0.16-1.4c0.07-0.84,0.39-1.75-0.39-2.22l-1.37,4.3l-0.83-0.2c-0.3-0.34-0.62-0.62-0.85-0.8
				c-0.32,0.07-0.66,0.13-0.99,0.16l-0.48,0.03c-0.44,0.88-1.2,2.85-1.84,4.58c-1.63,4.52-3.68,10.74-4.83,19.2
				c-0.51,4.09-0.92,8.38-0.93,13.63c0,1.31,0,2.53,0.05,3.91c0.06,1.42,0.14,2.84,0.25,4.26l0.18,2.13l0.27,2.32
				c0.2,1.55,0.42,3.09,0.68,4.63c0.27,1.58,0.63,3.3,1,4.93c0.39,1.67,0.75,3.23,1.28,5.01c1.02,3.47,2.13,6.82,3.63,10.34
				c0.73,1.73,1.48,3.44,2.32,5.14c0.85,1.71,1.75,3.39,2.69,5.05c1.86,3.35,4,6.45,6.25,9.52c2.22,3.06,4.76,5.95,7.4,8.73
				c2.66,2.83,5.4,5.26,8.28,7.63c2.94,2.44,5.73,4.37,8.67,6.28l2.22,1.39l1.11,0.67l1.04,0.59c1.4,0.78,2.81,1.52,4.23,2.24
				l2.15,1.06l1.08,0.51l0.99,0.44c1.32,0.57,2.65,1.12,3.99,1.65l2.01,0.77c0.67,0.25,1.37,0.51,1.95,0.7
				c1.22,0.4,2.44,0.79,3.67,1.16c1.22,0.36,2.49,0.74,3.67,1.04c1.11,0.28,2.22,0.54,3.34,0.79c1.12,0.25,2.24,0.49,3.36,0.71
				c1.05,0.2,2.03,0.36,3.05,0.52c8.74,1.38,15.35,1.35,20.86,0.91c5.46-0.47,9.71-1.45,13.31-2.68c-4.04,0.31-8.43,0.52-13.38,0.49
				c-5.02-0.06-10.58-0.36-16.91-1.27c-6.45-0.97-13.91-2.59-22.34-5.82c-2.2-0.87-4.3-1.75-6.49-2.77
				c-2.33-1.13-4.62-2.34-6.87-3.62c-1.08-0.6-2.35-1.41-3.51-2.16c-1.18-0.77-2.35-1.56-3.51-2.37c-2.26-1.55-4.65-3.48-6.91-5.44
				c1.61,1.04,3.1,2.01,4.51,2.92c1.53,0.95,3.06,1.84,4.67,2.78c1.59,0.92,3.3,1.91,4.93,2.77c1.58,0.82,3.21,1.65,4.87,2.47
				c2.91,1.47,5.39,2.46,8.05,3.49c2.75,1.07,5.03,1.76,7.48,2.48c2.54,0.75,4.63,1.22,6.85,1.7l1.66,0.34l0.83,0.17l0.75,0.13
				l3,0.48c7.94,1.15,14.43,1.29,20.09,1.14c4.61-0.12,8.51-0.48,12.16-0.88l2.54-0.31l1.71-0.25l3.42-0.49
				c4.57-0.64,9.12-1.37,13.67-2.08c9.1-1.46,18.17-3.08,27.22-4.8c24.57-4.73,48.79-10.82,72.93-17.2
				c13.7-3.6,27.79-7.58,40.57-11.3c12.82-3.71,24.78-7.17,35.8-9.95c17.07-4.35,32.12-6.99,44.35-6.93
				c1.83,0.03,3.57,0.19,5.35,0.26c1.68,0.22,3.31,0.48,4.96,0.67c1.54,0.37,3.07,0.69,4.61,0.98l2.29,0.59l2.47,0.67
				c2.54,0.71,5.55,1.22,8.73,2.06l0.27-1.14c-4.73-1.41-8.81-2.3-12.31-2.89l-1.3-0.23l-1.31-0.14c-0.87-0.1-1.74-0.21-2.61-0.35
				c-0.84-0.18-1.81-0.16-2.72-0.26c-0.92-0.08-1.84-0.18-2.76-0.3c-7.65-0.58-16.62-0.55-26.74,0.26
				c-9.77,0.77-20.58,4.92-32.18,5.44c1.6-0.76,3.25-1.26,4.91-1.75c9.88-2.85,19.19-5.1,27.74-6.84
				c8.13-1.66,15.63-2.69,22.48-3.05l2.54-0.11l1.27-0.07c0.41,0,0.81,0.02,1.21,0.02l2.42,0.03c0.8,0.02,1.64-0.05,2.39,0.06
				c1.54,0.14,3.09,0.2,4.64,0.32l2.33,0.27l2.47,0.37c7.06,1.14,15.75,3.34,25.93,6.28c1.15,0.33,2.39,0.41,3.63,0.51
				c1.23,0.09,2.44,0.19,3.69,0.59l14.24,4.57c2.47,0.79,5.12,1.59,7.72,2.38l7.97,2.27l3.99,1.13l4.01,1.02l8.02,2.03l8.05,1.81
				l4.02,0.9l4.04,0.79c14.7,2.95,29.47,5.4,44.22,6.83c13.68,1.31,27.32,1.84,41.03,1.9c-0.43-0.7-0.77-1.25-1.5-2.45
				c17.34,0.56,33.85,0.24,50.21-0.79c4.05-0.26,8.1-0.54,12.12-0.93c4.03-0.36,8.06-0.72,12.06-1.16
				c13.03-1.31,26.15-3.63,38.7-4.92c4.09-0.37,7.75-1.06,11.14-1.85c3.39-0.78,6.45-1.78,9.28-2.89
				c5.67-2.18,10.35-4.94,14.71-7.85c5.92-4.01,6.88-4.62,14.55-4c1.59,0.11,5.89-0.64,10.13-1.63c4.21-1.04,8.35-2.32,9.62-3.13
				c4.8-3.11,9.5-6.25,13.7-9.12c-3.91,0.37-9.29-0.02-14.48,1.31c-10.21,2.48-20.5,5.61-30.69,8.48
				c-8.14,2.29-14.75,2.15-21.87,2.2c14.14-4.51,28.58-8.1,43.06-11.95c14.46-3.85,28.94-7.95,42.89-13.39
				c-1.37-0.06-2.36-0.11-3.86-0.18c3.98-2.26,7.62-4.44,11.58-6.75c-7.72-1.03,0.53-4.38,4.35-7.11c-1.32-0.51-2.38-0.91-3.21-1.23
				c1.16-2.19,4.9-3.78,8.48-5.46c3.58-1.68,7.04-3.37,7.65-5.59c-4.56,1.05-8.6,2.02-12.67,2.91l0.17-0.9
				c1.06-0.42,2.18-0.82,3.15-1.31c2.27-1.16,4.46-2.37,6.67-3.56l-6.66,0.57c-0.17,0.02-0.39,0.09-0.57,0.11
				c-2.6,0.4-5.23,0.72-7.84,1.07c1.07-1.32,2.14-2.65,3.57-4.4c-0.67,0.02-1.95,0.14-3.01,0.07c-5.18-0.33-4.83-1.38,1.08-4.2
				c2.02-0.96,3.86-2.08,5.77-3.12l-0.24-0.61c-3.98,1.13-7.98,2.19-11.99,3.24c-3.99,1.08-8.01,2.07-12.02,3.12
				c-4.03,1.07-8.48,2.13-9.24,0.31c-0.32-0.76,2.97-2.72,5.15-4.6c0.81-1.1,2.06-2.8,3.28-4.47c-3.22,0.92-6.69,1.84-10.28,2.78
				c-3.59,0.97-7.31,1.9-11.03,2.82l-0.13-0.64c2.02-0.93,4.03-1.87,6.12-2.83c2.07-0.99,4.22-2.02,6.5-3.12
				c-3.96,0.8-7.01,1.45-10.09,2.02l-0.11-0.51c3.08-1.14,6.13-2.37,9.22-3.57c3.09-1.19,6.17-2.46,9.31-3.74
				c-6.99-1.04-6.54-2.8,1.54-7.27c-1.12-0.28-2.21-0.56-3.51-0.89c2.43-1.16,4.72-2.27,7-3.42c2.28-1.14,4.58-2.28,7.02-3.5
				c-3.05,0.36-5.51,0.77-7.53,0.77c-2.16-0.01-3.9-0.42-5.91-0.7c-1.68,2.54-6.74,5.06-12.43,6.46
				c-5.68,1.48-11.96,1.86-15.96,0.65c11.52-4.35,24.17-7.02,35.72-13.65c-3.08,0.39-4.73,0.3-6.04,0.81l-7.72,3
				c-2.56,1.02-5.11,2.04-7.66,3.05c-5.42,2.19-10.69,4.68-16.26,6.4c-3.31,0.98-6.68,1.77-10.06,2.53
				c-3.39,0.71-6.78,1.41-10.14,2.25c-5.37,1.27-10.67,2.99-16.02,4.37l0.12,0.67c1.76-0.12,3.75-0.44,5.24-0.31
				c1.73,0.16,3.01,0.68,4.5,1.03c-1.69,1.04-3.21,2.16-5.17,3c-1.4,0.61-3.38,0.83-5.09,1.27c-15.65,3.99-31.44,7.23-47.23,10.06
				c-16.1,2.87-32.19,5.54-48.46,6.75c-9.41,0.7-18.95,0.47-28.36,0.12c-4.26-0.19-8.45-0.73-12.44-1.15
				c3.29-0.92,6.09-1.8,8.86-2.62l-0.93-0.86l3.66-0.02l3.66-0.11c2.44-0.08,4.88-0.11,7.32-0.22c9.67-0.38,19.34-1.14,29-2.08
				c9.66-1.05,19.32-2.24,28.97-3.69c15.44-2.26,30.96-4.82,46.36-8.18c1.52-0.34,2.96-1,4.44-1.51
				c-14.82,2.16-29.11,3.98-43.37,5.7c-8.67,1.11-17.35,2.6-26.06,3.63c-14.6,1.6-29.22,2.58-43.79,2.65
				c-2.07,0-4.14-0.03-6.22-0.07c-2.07-0.07-4.13-0.2-6.2-0.3c-4.14-0.17-8.24-0.55-12.36-0.75c-11.42-0.71-22.77-1.84-34-3.49
				c-2.8-0.45-5.62-0.82-8.4-1.34l-8.35-1.55l-8.28-1.8c-2.76-0.61-5.48-1.35-8.21-2.03c-2.2-0.52-4.37-1.17-6.53-1.81
				c-2.16-0.65-4.34-1.24-6.48-1.95c-4.29-1.43-8.53-2.8-12.85-4.41c-8.69-3.18-17.93-6.86-27.99-10.3
				c-7.3-2.51-15.07-4.94-23.29-7.02c-2.03-0.54-4.17-0.99-6.26-1.48c-2.12-0.46-4.28-0.89-6.44-1.29l-3.3-0.56l-1.65-0.27
				l-1.66-0.21l-6.64-0.8c-1.1-0.11-2.22-0.29-3.32-0.35l-3.3-0.2l-6.6-0.36c-2.18-0.04-4.35-0.02-6.52-0.03
				c-2.17,0.01-4.36-0.03-6.48,0.12c-4.27,0.23-8.57,0.39-12.72,0.88c-2.09,0.21-4.19,0.41-6.27,0.65l-6.14,0.88
				c-11.3,1.7-21.96,4.75-32.28,7.77c-3.26,0.98-6.51,2.05-9.79,2.88c-9.72,2.55-19.18,5.14-28.41,7.83
				c-9.24,2.71-18.15,5.43-26.97,7.93l-0.38-0.89c13.15-6.32,29.34-9.91,45-15.77c-16.68,4.23-32.08,8.63-46.82,12.3l-0.3-0.91
				c1.76-0.65,3.48-1.44,5.3-1.94c12.99-3.46,26.55-7.1,40.63-11c13.56-3.76,27.78-7.39,42.84-10.06
				c15.03-2.66,30.97-4.36,47.53-3.95l1.66,0.05l1.68,0.15c1.12,0.11,2.24,0.22,3.36,0.29c1.31,0.09,2.63,0.17,3.95,0.26l1.98,0.14
				c0.67,0.08,1.33,0.16,2,0.24c2.68,0.34,5.39,0.68,8.18,1.02c5.57,0.83,11.31,1.98,17.3,3.44c-3.36-1.14-4.75-1.71-6.31-2.1
				l-4.22-1.06l-4.32-0.96c-2.89-0.62-5.82-1.06-8.74-1.57c-1.46-0.23-2.93-0.52-4.39-0.69l-4.37-0.48
				c-2.91-0.29-5.87-0.68-8.74-0.77l-7.6-0.37c-2.52-0.06-4.99-0.03-7.5-0.04l-3.75,0.01l-3.68,0.15l-7.36,0.36l-7.21,0.65
				c-1.2,0.12-2.42,0.21-3.6,0.36l-3.52,0.46c-2.34,0.32-4.73,0.61-7.03,0.99l-6.88,1.2c-19.75,3.69-38.01,9.2-55.19,14.22
				l-11.75,3.45c-3.81,1.1-7.67,2.24-11.41,3.28c-7.53,2.14-15.09,4.15-22.68,6.07c-4.62,1.18-9.85,2.2-13.65,3.91
				c-8.15,3.67-17.03,5.49-26.02,7.35c-2.17,0.45-5.18,1.17-6.17,1.97c-3.43,2.83-8.59,3.67-13.9,4.58
				c-11.59,1.96-23.25,3.55-34.93,4.94l-4.37,0.52l-1.47,0.16c-0.43,0.03-0.93,0.09-1.31,0.11c-1.63,0.12-2.83,0.1-3.14,0.1
				c-0.02,0-0.12,0.02-0.09,0.01c0,0.03,0.02-0.06,0,0.06l-0.11,0.75c-0.08,0.5-0.16,1-0.25,1.5s-0.19,1-0.3,1.5
				c-0.1,0.49-0.15,0.87-0.24,1.31c-0.16,0.85-0.36,1.71-0.6,2.56c-0.28,0.92-0.39,1.54-0.61,2.27c-0.2,0.71-0.44,1.41-0.72,2.11
				c-0.21,0.62-0.37,1.14-0.61,1.71c-0.12,0.28-0.24,0.56-0.37,0.83l-0.2,0.42l-0.13,0.32c-0.18,0.41-0.38,0.83-0.62,1.24
				l-0.36,0.59c-0.07,0.14-0.15,0.27-0.23,0.41c-0.16,0.27-0.35,0.54-0.57,0.81c-0.17,0.22-0.2,0.29-0.34,0.45l-0.19,0.21
				l-0.11,0.11c-0.02,0.02-0.01,0.01-0.01,0.02c-0.01,0.02-0.03,0.04-0.07,0.07c-0.01,0.01-0.06,0.05-0.04,0.04l0.15-0.12
				c0.1-0.07,0.19-0.13,0.27-0.17l0.02-0.01l0.01-0.01l0.01,0l0,0c0.36-0.22-0.48,0.3-0.4,0.24l0.02-0.01l0.02-0.01
				c0.02-0.01-0.01,0.01,0.04-0.01c0.11-0.06,0.22-0.11,0.33-0.15l0.15-0.05l0.29-0.11c0.21-0.08,0.42-0.14,0.62-0.19l0.16-0.04
				l0.24-0.07l0.48-0.12c0.34-0.08,0.58-0.1,0.99-0.18c0.44-0.09,0.87-0.15,1.29-0.2l0.64-0.05l0.82-0.09
				c0.55-0.05,1.1-0.08,1.64-0.08c0.24,0.01,0.6-0.02,0.94-0.03l1.02-0.02c0.7,0,1.29,0.04,2.07,0.07c0.83,0.01,1.65,0.05,2.47,0.12
				l1.22,0.12l1.45,0.12l1.49,0.15l0.74,0.09c0.2,0.03,0.63,0.08,0.51,0.07c-0.02,0.03,0-0.03,0-0.05
				c-0.01-0.23,0.17-1.23,0.57-2.71l0.35-1.22l0.21-0.69l0.11-0.35l0.15-0.58l1.28-4.91c3.42-13.1,6.93-26.15,10.49-39.29
				c1.37-5.07,3.09-10.15,4.65-15.28c0.27,1.96,0.12,4.05-0.4,6.3c-1.89,8.17-3.91,16.43-5.89,24.7l-5.86,24.51l-1.41,5.86
				c-0.33,1.18-0.52,2.02-0.69,2.77c-0.13,0.67-0.2,1.18-0.18,1.36c-0.01,0.08,0.03,0.04,0.03,0.07l0,0l-0.43-0.06l-1.1-0.15
				c-0.8-0.09-1.32-0.19-1.93-0.27c-1.19-0.17-2.4-0.3-3.61-0.38c-0.33-0.02-0.56-0.05-0.8-0.08l-0.74-0.07
				c-0.49-0.04-0.99-0.08-1.49-0.1c-5.82-0.33-9.45,0.2-11.38,0.73c-0.18,0.04-0.37,0.09-0.56,0.15l-0.51,0.18
				c-0.09,0.03-0.18,0.06-0.28,0.11l-0.15,0.07c-0.06,0.03-0.02,0.01-0.03,0.02c0,0-0.01,0-0.03,0.01l-0.01,0.01l-0.01,0l0,0l0,0
				c-0.09,0.05,0.75-0.46,0.4-0.24l-0.01,0l-0.09,0.05c-0.06,0.04-0.13,0.08-0.2,0.13l-0.11,0.08c-0.03,0.02-0.1,0.08-0.06,0.05
				c-0.15,0.14,1.01-0.85,2.25-3.32c1.28-2.48,2.63-6.35,3.68-11.68c0.28-1.37,0.59-2.9,0.77-4.34l0.13-1.09
				c0.03-0.36,0.12-0.83,0.18-1.23l0.17-1.26c0.04-0.3,0.03-0.21,0.03-0.23l0-0.01c0-0.01,0.01-0.02,0.01-0.02l0.12-0.03
				c0.1-0.02,0.13-0.02,0.3-0.04c0.5-0.06,1.47-0.18,2.6-0.34l11.29-1.79c11.64-1.94,23.12-4.4,34.63-6.88
				c8.25-1.78,15.96-4.76,24.82-5.45c3.09-0.21,6.61-1.55,9.92-2.39c4.58-1.22,9.12-2.7,13.71-3.73
				c11.57-2.56,23.12-4.98,34.59-8.19c9.87-2.74,19.99-6.28,30.63-9.52c15.63-4.78,32.36-9.49,50.27-13.05
				c14.3-2.77,29.51-4.8,45.48-4.99c4.02,0.02,7.98-0.09,12.08,0.22l6.11,0.37l1.53,0.1l1.54,0.18l3.08,0.36l6.15,0.77
				c2.05,0.28,4.08,0.68,6.11,1.02c2.01,0.38,3.97,0.8,5.96,1.22l5.78,1.37c5.37,1.38,10.48,2.94,15.39,4.6
				c4.86,1.67,9.5,3.42,13.97,5.17c4.42,1.75,8.67,3.49,12.78,5.17c4.07,1.66,8,3.24,11.81,4.69c4.03,1.55,7.99,2.85,11.99,4.27
				c2,0.69,4.03,1.28,6.05,1.92c2.02,0.63,4.04,1.29,6.1,1.82l6.15,1.69c2.05,0.55,4.14,1.01,6.21,1.52
				c4.13,1.05,8.35,1.81,12.54,2.67c13.72,2.57,27.8,3.68,41.91,4.26c3.43,0.11,6.84,0.25,10.28,0.2c3.43-0.01,6.86,0,10.31-0.12
				l0.04-0.37c-4.02-0.2-8-0.61-12-0.95c-2-0.15-3.99-0.42-5.99-0.63c-2-0.23-4-0.43-6.01-0.69c0.87-0.94,1.47-1.58,2.22-2.39
				c-23.23-2-45.53-6.05-66.93-12.25l0.11-0.67c1.09,0.11,2.21-0.02,3.3,0.21c22.11,4.75,44.87,6.97,67.91,7.41
				c3.44,0.11,6.93,0.21,10.42,0.39c3.48,0.24,7,0.34,10.48,0.56c4.35,0.22,8.69,0.44,13.03,0.67c4.36,0.14,8.72,0.36,13.13,0.29
				c1.94-0.01,3.87-0.01,5.82-0.06l5.85-0.22c3.9-0.12,7.82-0.49,11.73-0.81c2.22-0.18,4.83-1.26,6.53-2.17
				c2.76-1.49,4.9-3.21,7.67-5.17c-3.48,0.11-7.4-0.17-11.38,0.15c-9.39,0.64-18.78,1.38-28.09,1.62c-0.86,0.03-1.73,0.35-2.61,0.42
				c-10.69,0.63-21.35,0.98-31.91,0.64c-3.15-0.14-6.3-0.34-9.4-0.74c-3.11-0.34-6.22-0.67-9.33-1.01
				c-2.24-0.22-4.52-0.26-6.78-0.34c-2.26-0.12-4.52-0.22-6.77-0.46c-2.08-0.19-4.12-0.52-6.18-0.79c-2.05-0.3-4.12-0.53-6.15-0.89
				c-4.07-0.7-8.16-1.33-12.17-2.18c-8.09-1.53-16.02-3.48-23.91-5.49l-6.93-1.85l-6.86-2.02c-4.56-1.32-9.28-2.9-14.45-4.63
				c-10.29-3.45-21.94-7.62-35.34-11.5c-7.76-2.25-16.13-4.47-25.13-6.19c-4.51-0.91-9.09-1.48-13.66-2.1l-3.43-0.43l-3.39-0.27
				l-6.79-0.47c-0.67-0.04-1.35-0.09-2.01-0.12l-1.98-0.03l-3.95-0.06l-3.96-0.04l-1.97-0.01l-1.93,0.07l-7.72,0.31l-1.93,0.09
				l-1.88,0.15l-3.76,0.32l-3.76,0.33l-1.88,0.17l-1.82,0.23l-7.28,0.94l-1.82,0.24l-1.77,0.29l-3.53,0.58
				c-2.33,0.4-4.75,0.75-7,1.22c-18.35,3.5-35.31,8.11-50.91,12.66c-10.35,3-20.08,6.46-29.42,9.14c-7.67,2.2-15,3.18-22.26,2.69
				c2.96-1.14,5.59-1.93,7.52-3.03c1.39-0.79,2.95-2.33,2.55-2.87c-1.72-2.35-14.44-2.38-20.42,1.49c-5.34,3.5-6.52,3.5-10.88,1.44
				c-3.94-1.88-8.19-3.6-12.43-5.36c-0.88-0.37-2.53-0.31-3.82-0.46c-0.59,0.65-1.33,1.31-1.74,1.96c-0.8,1.27-1.43,2.55-2.15,3.86
				c-7.78-0.77-9.25-0.4-10.88,2.91c2.76-0.08,5.53-0.15,8.64-0.24c-1.37,1.55-2.27,3.11-4.15,4.45c-1.06,0.77-4.37,1.74-5.58,1.58
				c-8.1-0.95-15.82-2.38-23.68-3.72c-1.44-0.25-3.33-0.1-6.14-0.19c0.96,2.3,2.26,3.93,2.27,5.7c0.01,3.19-5.66,5.66-10.14,8.08
				c-0.95,0.51-3.96,0.56-5.73,0.41c-0.75-0.06-1.4-1.15-0.95-1.65c1.87-2.1-0.79-2.68-3.45-3.59c-0.84-0.29-1.64-0.61-2.4-0.94
				l-0.56-0.25l-0.28-0.13c-0.06-0.05-0.08-0.1-0.12-0.15l-0.42-0.62c-0.31-0.4-0.42-0.86-0.59-1.28c-0.09-0.21-0.16-0.43-0.16-0.65
				l-0.03-0.33l-0.01-0.16l0-0.04l0.01,0.31l0.03,0.76c0.07,2.01,0.15,4.02,0.22,6.08c0.06,1.93,0.08,3.93,0.06,6.02
				c0.03,1.88,0.04,3.7-0.01,5.71c-0.02,0.99-0.07,2.03-0.12,3.06c-0.01,0.91-0.04,1.85-0.09,2.82c-0.05,1.03-0.12,2.01-0.2,2.96
				c-0.04,0.47-0.09,0.94-0.13,1.4c-0.03,0.4-0.05,0.79-0.07,1.17c-0.11,1.53-0.27,2.95-0.47,4.31c-0.04,0.33-0.11,0.69-0.14,0.98
				c-0.03,0.29-0.06,0.57-0.1,0.85c-0.07,0.56-0.15,1.11-0.23,1.65c-0.09,0.54-0.18,1.08-0.29,1.62c-0.1,0.52-0.25,1.12-0.31,1.54
				c-0.12,0.72-0.27,1.47-0.47,2.27c-0.1,0.4-0.2,0.81-0.32,1.22l-0.18,0.63l-0.13,0.54c-0.18,0.72-0.4,1.48-0.68,2.25
				c-0.25,0.7-0.5,1.4-0.75,2.09c-0.13,0.33-0.27,0.66-0.42,1c-0.16,0.34-0.34,0.7-0.42,0.92c-0.22,0.52-0.49,1.04-0.83,1.58
				l-0.13,0.2l-0.07,0.13l-0.15,0.27c-0.11,0.18-0.23,0.36-0.36,0.55l-0.21,0.27l-0.1,0.13l-0.05,0.07
				c-0.06,0.09-0.14,0.19-0.22,0.29c-0.08,0.1-0.18,0.2-0.28,0.3c-0.06,0.06-0.03,0.03-0.06,0.06l-0.06,0.06
				c0,0-0.05,0.04-0.03,0.02l0.11-0.09c0.07-0.06,0.14-0.1,0.21-0.15l0.1-0.05l0.05-0.02l0,0l0,0c0.09-0.05-0.75,0.46-0.4,0.24l0,0
				l0,0l0.01,0c0.02-0.01,0.04-0.02,0.04-0.02l0,0l0.13-0.07c0.62-0.3,2.99-1.12,7.43-1.25l0.46,0l0.56-0.02
				c0.37-0.01,0.74-0.02,1.1-0.02c0.36,0,0.72,0.01,1.07,0.03c0.35,0.02,0.68,0.04,1.15,0.04c0.86,0.02,1.7,0.07,2.52,0.14
				l1.22,0.12l1.47,0.12c0.97,0.09,1.91,0.21,2.83,0.34l0.69,0.11l0.82,0.1l1.67,0.23c1.1,0.16,2.18,0.35,3.24,0.55l0.82,0.16
				l0.99,0.17c0.65,0.12,1.31,0.24,1.96,0.35c1.21,0.23,2.43,0.48,3.64,0.75c0.3,0.07,0.61,0.14,0.91,0.21l0.53,0.11l0.59,0.12
				c0.8,0.17,1.59,0.34,2.37,0.51c1.58,0.35,3.15,0.72,4.72,1.11c0.82,0.21,1.62,0.41,2.42,0.61c1.09,0.26,2.17,0.52,3.23,0.78
				c2.15,0.53,4.28,1.08,6.4,1.65c0.53,0.15,1.06,0.29,1.58,0.43c0.38,0.1,0.24,0.07,0.27,0.08l0.01,0.01
				c0.01,0.03,0.04-0.01,0.05-0.02c0.07-0.06,0.09-0.09,0.11-0.2c0.03-0.16,0.03-0.33-0.01-0.51c-0.02-0.22-0.05-0.52-0.13-0.79
				l-0.07-0.21c-0.02-0.01-0.02-0.1-0.02-0.21l0-0.29c-0.01-0.38-0.03-0.75-0.06-1.12c-0.06-0.73-0.16-1.44-0.31-2.11
				c-0.21-0.97-0.47-1.77-0.89-3.28c2.34-4.46,4.32-8.32,6.6-12.82c0.43-5.22-0.16-8.75-0.36-12.6c-0.2-3.85,0-7.98,2.01-14.59
				c-0.37-4.29-1.16-6.36-0.81-10.22c0.84-9.25,2.19-19.15,3.43-29.61c3.73-7.1,8.31-16.97,12.71-24.79
				c0.67-1.2,1.33-2.48,1.97-3.83c0.08-0.17,0.17-0.35,0.23-0.5l0.1-0.44l0.19-0.9c0.12-0.61,0.24-1.23,0.33-1.85
				c0.39-2.51,0.55-5.17,0.56-7.89c0.02-5.45-0.69-11.11-1.51-16.43c-2.95-2.27-4.83-3.14-5.81-2.61c-1,0.54-1.09,2.51-0.96,6.1
				c-1.41-3.23-3.16-6.06-4.5-9.2c-1.65-3.87-4.12-7.91-6.61-11.79c-2.48-3.9-5-7.58-6.17-10.92c-0.75-2.11-1.83-3.84-3.34-5.43
				c-1.5-1.59-3.43-3.07-5.83-4.58c-7.01-4.35-13.51-6.95-20.94-9.24c-2.25-0.57-4.5-1.13-6.75-1.69l-3.36-0.82
				c-1.22-0.19-2.5-0.33-3.75-0.49c-3.74-0.46-7.25-1.06-10.59-1.77c-1.57-0.47-3.55-0.46-5.32-0.68c-1.8-0.18-3.56-0.39-5.28-0.63
				s-3.41-0.5-5.08-0.78l-2.47-0.44l-2.61-0.17c-3.46-0.23-6.82-0.54-10.1-0.86c-5.81-0.65-9.74-0.71-13.03-0.38
				c-3.3,0.35-6.07,1.25-9.83,3.03c-4.33,2.07-10.07,3.48-18.08,4.03c-2.63,0.16-5.27,0.44-7.86,0.72
				c-2.59,0.29-5.13,0.61-7.57,1.01c-2.43,0.41-4.78,0.85-6.93,1.47c-2.14,0.63-4.12,1.38-5.88,2.26c-0.52,0.26-2.72,0.47-3.71,0.79
				c-1.58,0.47-3.47,1.03-5.17,1.54c-0.83,0.26-1.59,0.51-2.18,0.75c-0.14,0.06-0.32,0.12-0.39,0.17c-0.08,0.05-0.15,0.1-0.21,0.15
				c-0.12,0.1-0.21,0.2-0.27,0.29c-2.07,3.74-2.38,3.77-11.71,4.9c-3.45,0.46-9.16,1.79-10.3,2.88c-3.78,3.6-7.88,4.11-14.37,4.16
				c-1.65,0-3.12,0.11-4.4,0.32c-0.64,0.1-1.24,0.23-1.79,0.39l-0.41,0.12c-0.19,0.06-0.38,0.12-0.56,0.18
				c-0.39,0.13-0.76,0.26-1.12,0.4c-2.86,1.11-4.69,2.51-5.62,4.19c1.35-0.31,2.7-0.63,4.05-0.94c1.33-0.32,2.66-0.64,4-0.96
				c1.81-0.41,3.64-0.82,5.46-1.24c1.83-0.42,3.66-0.84,5.5-1.25c1.84-0.39,3.69-0.76,5.55-1.12c1.86-0.35,3.72-0.69,5.58-0.97
				c1.87-0.27,3.75-0.5,5.63-0.68c1.88-0.18,3.77-0.32,5.66-0.38c1.89-0.04,3.79-0.02,5.69,0.08c-2.11,0.5-4.14,0.99-6.12,1.47
				c-1.98,0.5-3.9,0.98-5.77,1.45c-3.76,0.93-7.32,1.92-10.79,3.01c-4.87,1.49-9.69,3.13-14.53,4.69l-10.19,3.19l-5.25,1.62
				c-1.76,0.55-3.6,1.17-5.4,1.75c-3.61,1.16-7.23,2.31-10.85,3.47c-3.58,1.2-7.17,2.41-10.77,3.62c-1.8,0.59-3.61,1.19-5.42,1.78
				c-1.77,0.64-3.54,1.29-5.32,1.93c-1.79,0.63-3.58,1.27-5.37,1.9l-2.71,0.94c-0.92,0.3-1.81,0.63-2.68,0.98
				c-3.36,1.29-6.72,2.59-9.9,4.05c-1.59,0.72-3.25,1.4-4.77,2.17l-4.62,2.28c-1.56,0.74-2.99,1.58-4.47,2.38
				c-1.45,0.81-2.97,1.59-4.36,2.44c-2.79,1.7-5.66,3.33-8.29,5.11c-5.43,3.43-10.35,7.15-15.08,10.94l-3.42,2.93
				c-0.56,0.49-1.15,0.97-1.7,1.47l-1.62,1.52l-3.24,3.03l-3.09,3.13c-0.51,0.52-1.04,1.03-1.54,1.57l-1.45,1.62l-2.9,3.25
				l-2.72,3.36c-0.45,0.56-0.92,1.11-1.35,1.69l-1.28,1.74l-2.55,3.48l-2.39,3.6c-0.39,0.6-0.81,1.19-1.19,1.8l-1.1,1.86l-2.21,3.72
				c-7.23,12.84-13.43,27.65-15.09,43.05c-1.2,10.63-0.63,21.55,1.83,32.08c1.26,5.25,2.99,10.4,5.17,15.31
				c2.21,4.9,4.87,9.54,7.93,13.77c0.59,0.81,1.16,1.65,1.78,2.44l1.9,2.31l0.95,1.15l1.01,1.08l2.02,2.17
				c2.78,2.76,5.62,5.41,8.63,7.76c1.56,1.27,3.14,2.45,4.72,3.63c0.77,0.61,1.6,1.15,2.42,1.69l2.47,1.64
				c3.35,2.07,6.74,4.07,10.32,5.82c7.08,3.59,14.69,6.54,22.92,9c2.14,0.68,4.61,1.09,7.03,1.51c1.22,0.19,2.44,0.38,3.66,0.58
				c1.23,0.18,2.41,0.4,3.7,0.53L6728.37,7299.41z M7051.58,7287.16l0.89,0.86c-4.41,1.43-8.73,3.15-13.32,4.09
				c-16.97,3.46-34.14,6.05-51.31,8.44l-9.28,1.24c-0.59,0.09-2,0.24-3.12,0.37c-1.13,0.13-2.46,0.24-3.7,0.35
				c-2.56,0.21-5.31,0.37-8.28,0.43c-5.97,0.1-12.85-0.09-21.41-1.6c-0.49-0.08-1.06-0.19-1.64-0.31l-1.71-0.36
				c-1.14-0.25-2.27-0.51-3.4-0.79c-1.18-0.3-2.48-0.69-3.71-1.06c-1.26-0.38-2.46-0.76-3.74-1.2c-1.36-0.49-2.71-1.02-4.06-1.56
				l-2.01-0.84l-1-0.43l-1.09-0.51c-1.44-0.69-2.88-1.42-4.29-2.18l-2.11-1.16c-0.73-0.43-1.49-0.9-2.22-1.36
				c-2.97-1.88-5.78-3.79-8.7-6.25c-1.44-1.18-2.84-2.41-4.2-3.67c-1.37-1.3-2.71-2.69-4.01-4.09c-1.29-1.41-2.58-2.85-3.75-4.33
				c-1.16-1.49-2.29-3.02-3.37-4.58c-2.19-3.09-4.09-6.41-5.82-9.81c-0.86-1.7-1.6-3.4-2.34-5.14c-0.36-0.87-0.71-1.74-1.05-2.61
				c-0.33-0.87-0.61-1.7-0.9-2.56c-0.57-1.71-1.11-3.45-1.58-5.16c-0.42-1.64-0.81-3.29-1.16-4.96c-0.37-1.71-0.61-3.22-0.83-4.78
				l-0.31-2.34c-0.1-0.79-0.18-1.56-0.24-2.26c-0.12-1.43-0.22-2.87-0.29-4.3c-0.04-0.74-0.05-1.39-0.06-2.04l-0.02-1.96
				c-0.01-2.73,0.12-4.93,0.29-7.33c0.09-1.13,0.2-2.15,0.31-3.23l0.18-1.59l0.2-1.46l0.44-2.87l0.47-2.59l0.25-1.29l0.25-1.17
				l0.51-2.32l0.51-2.09l0.51-1.98l0.5-1.86l0.47-1.66l0.88-3l0.07-0.36l0.44-2.35l1.58,0.13l-0.06,1.68l-0.05,0.88l-0.03,0.45
				l-0.01,0.11l0,0.06l0,0.03l-0.05,0.17l-0.41,1.5c-0.57,2.12-1.21,4.47-1.88,7.39c-0.32,1.35-0.67,3.03-0.98,4.58l-0.47,2.6
				l-0.22,1.31l-0.22,1.45l-0.39,2.93l-0.32,3.23c-0.1,1.03-0.17,2.27-0.23,3.46l-0.08,1.79l-0.03,0.9l-0.01,0.99
				c-0.01,1.32,0.01,2.64,0.04,3.96c0.04,1.33,0.14,2.86,0.25,4.28l0.19,2.17l0.3,2.35c0.22,1.59,0.45,3.09,0.77,4.73
				c1.26,6.53,3.53,13.66,6.9,20.49c1.74,3.41,3.65,6.76,5.85,9.85c1.09,1.56,2.23,3.09,3.4,4.58c1.19,1.48,2.49,2.92,3.79,4.33
				c1.31,1.39,2.67,2.8,4.05,4.05c1.38,1.25,2.8,2.47,4.26,3.64c0.73,0.59,1.46,1.16,2.2,1.72c0.73,0.54,1.43,1.03,2.16,1.53
				c1.45,0.99,2.92,1.95,4.42,2.86l1.13,0.68l1.06,0.59l2.13,1.13c1.43,0.74,2.89,1.46,4.33,2.11c1.34,0.58,2.69,1.13,4.04,1.66
				l2.04,0.77l1.01,0.36l0.93,0.3c1.25,0.4,2.5,0.78,3.76,1.13l1.89,0.52l1.71,0.4c2.27,0.52,4.67,1.02,6.66,1.3l3.13,0.45
				c1.03,0.13,1.92,0.21,2.89,0.31l2.85,0.24l2.61,0.13c6.94,0.28,12.67-0.09,17.72-0.59c1.31-0.12,2.42-0.27,3.64-0.41l2.56-0.35
				l4.8-0.67l9.6-1.38c6.4-0.94,12.8-1.93,19.2-2.92C7025.94,7291.53,7038.74,7289.38,7051.58,7287.16z M7256.59,7251.86
				c-8.37-2.48-15.53-4.22-21.39-5.09c-5.92-0.84-12.19-1.25-19.13-1.16c-6.94,0.08-14.47,0.61-22.64,1.61
				c-8.18,1.01-16.93,2.39-26.16,3.95c9.07-2.61,17.74-4.84,25.95-6.44c8.22-1.62,15.89-2.49,23.02-2.61
				c7.14-0.12,13.63,0.57,19.61,2C7241.79,7245.58,7248.76,7248.24,7256.59,7251.86z M6890.07,7154.16
				c-0.81,0.04-1.61,0.14-2.41,0.23c-6.16,0.66-12.01,1.56-17.6,2.6c-0.66,0.13-1.31,0.24-1.97,0.34l-2.09,0.32l-1.06,0.15
				l-0.27,0.04l-0.78,0.13l-1.64,0.28l-6.54,1.12c-1.27,0.22-2.56,0.26-3.82,0.13c3.48-0.97,7-1.78,10.52-2.62l1.32-0.31l0.66-0.15
				l0.24-0.07l0.9-0.28l1.83-0.53c2.35-0.65,4.72-1.16,7.15-1.56c4.86-0.81,9.74-1.17,14.53-1.35c1.18-0.05,2.36-0.11,3.54,0
				l-0.6,0.84C6891.32,7153.68,6890.5,7154.14,6890.07,7154.16z M6997.95,7175.27c-5.79,1.25-11.56,2.69-17.42,3.46
				c-3.4,0.42-6.82,0.73-10.25,0.93l-5.13,0.28l-0.64,0.03c-0.17,0-0.22-0.01-0.34-0.01l-0.61-0.02l-0.48-0.05
				c-0.16-0.01-0.32-0.02-0.4-0.05c-0.1-0.02-0.22-0.18-0.31-0.39c-0.1-0.21-0.09-0.48-0.12-0.69c0-0.1,0.01-0.29,0.05-0.46
				c0.09-0.19,0.19-0.35,0.27-0.38c0.1-0.03,0.37-0.1,0.57-0.15l0.78-0.17l0.21-0.04l0.41-0.07l0.94-0.15l1.89-0.3
				c2.52-0.38,5.04-0.76,7.55-1.14c5.04-0.72,10.07-1.43,15.11-2.15c10.07-1.4,20.15-2.77,30.22-4.29l0.14,0.66
				C7012.92,7171.93,7005.46,7173.69,6997.95,7175.27z M6960.58,7185.08c-0.9,4.09-1.71,8.44-3.04,12.45
				c-0.81,2.43-1.74,4.8-2.7,7.11l-1.47,3.43c-0.44,0.91-0.87,1.81-1.31,2.71c-0.19,0.42-1.17,0.62-1.19,0.36
				c-0.05-0.61-0.08-1.3-0.06-2.01c0.01-0.35,0.04-0.73,0.09-1.09c0.02-0.18,0.05-0.37,0.09-0.55c0.04-0.19,0.09-0.42,0.14-0.62
				c1.85-7.12,3.83-14.19,5.78-21.23c2.31-8.33,4.61-16.61,7.01-24.88c0.56-1.91,1.55-3.94,2.34-5.94l1-0.33
				C6965.03,7164.68,6962.81,7174.88,6960.58,7185.08z M7101.25,7197.21c-4.36,1.24-8.7,2.66-13.07,3.61
				c-7.55,1.69-15.12,2.8-22.69,4.33c-12.4,2.48-24.85,4.85-37.34,6.96c-3.31,0.57-6.63,1.13-9.94,1.75
				c-3.32,0.56-6.64,1.18-9.96,1.71C7039.48,7208.58,7070.06,7201.86,7101.25,7197.21z M7064.92,7261.66l0.54,1.05
				c-5.69,1.68-11.38,3.34-17.15,4.85c-5.65,1.49-11.4,2.8-17.07,4.18c-5.24,1.29-8.33,0.85-11.38-1.38
				C7035.98,7267.68,7050.5,7264.88,7064.92,7261.66z M7216.29,7224.73c0.27-0.14,0.66-0.28,1.15-0.41
				c0.49-0.15,1.07-0.25,1.72-0.32c1.31-0.16,2.96-0.28,4.82-0.37c3.69-0.06,8.2,0.17,12.51,0.9l1.63,0.23
				c0.54,0.11,1.07,0.22,1.6,0.33c0.53,0.11,1.06,0.23,1.58,0.34c0.53,0.14,1.06,0.27,1.58,0.4c1.04,0.27,2.05,0.53,3.05,0.85
				c1,0.32,1.93,0.58,2.85,0.93c0.91,0.33,1.77,0.65,2.54,0.95c0.79,0.33,1.52,0.65,2.15,0.95c1.26,0.58,2.2,1.15,2.66,1.59
				c-3.58-1.14-7.03-2.17-10.34-2.99c-1.68-0.45-3.27-0.77-4.89-1.15c-1.58-0.3-3.16-0.65-4.75-0.83l-4.78-0.71l-4.93-0.41
				c-1.62-0.21-3.35-0.15-5.03-0.23C7219.73,7224.73,7218.05,7224.64,7216.29,7224.73z M6890.63,7166.66
				c1.26,0.04,1.75,0.97,1.44,2.24c-0.34,1.33-1.37,3.12-2.87,4.57c-0.96-0.67-1.19-1.8-0.87-2.99
				C6888.61,7169.38,6889.39,7168.01,6890.63,7166.66z M6919.63,7092.65c2.8-1.24,10.4-2.42,18.59-2.76
				c5.12-0.25,10.52-0.4,15.07,0.91c2.27,0.62,4.27,1.66,5.83,2.84c1.57,1.18,2.68,2.53,3.36,3.69c-1.59-1.6-3.48-2.92-5.53-3.89
				c-2.05-0.96-4.26-1.55-6.49-1.87c-4.47-0.63-8.99-0.33-13.49-0.1c-2.89,0.16-5.77,0.29-8.66,0.5L6919.63,7092.65z
				 M6882.26,7160.1c0.57-0.44,1.17-0.82,1.8-1.13c1.58-0.79,3.31-1.22,4.45-0.74c1.17,0.47,1.48,2.03,0.61,3.65
				c-0.59-0.92-1.58-1.55-2.65-1.76c-1.07-0.21-2.17-0.13-3.26-0.08L6882.26,7160.1z M7337.44,7259.33c3.3,0.69,6.59,1.45,9.9,2.08
				l9.93,1.83l9.95,1.57c3.32,0.54,6.64,0.89,9.96,1.34c-3.39,0-6.78-0.01-10.14-0.32c-3.37-0.29-6.72-0.68-10.04-1.22
				c-3.32-0.6-6.62-1.33-9.88-2.17C7343.84,7261.58,7340.63,7260.48,7337.44,7259.33z M6898.09,7152.52
				c-1.11-0.83-2.53-1.24-3.94-1.29c-1.42-0.07-2.82,0.1-4.19,0.22l-0.97,0.08c-0.52,0.04-0.64-0.49-0.97-0.74
				c0.7-0.37,1.62-1.02,2.12-1.06l1.26-0.1c1.49-0.11,2.98-0.24,4.45-0.07c1.47,0.16,2.89,0.75,3.95,1.78
				c0.34,0.34,0.32,1,0.39,1.54l-0.7,0.55C6899.08,7153.07,6898.52,7152.84,6898.09,7152.52z M6885.04,7186.22
				c0.66-2.09,1.32-4.16,2.06-6.48c1.12,0.73,1.2,2.44,0.7,3.94C6887.3,7185.19,6886.25,7186.37,6885.04,7186.22z M7003.69,7070.23
				c1.38,1.08,3.05,2.92,4.59,5.15c1.54,2.24,2.96,4.84,4.04,7.41c2.2,5.13,3.04,10.12,2.56,11.57c-1.12-4.21-2.53-8.31-4.35-12.34
				C7008.73,7077.99,7006.47,7074.02,7003.69,7070.23z M7106.69,7192.16c-9.03,2.67-17.43,5.01-25.92,7.23l-0.17-0.73
				C7089.15,7196.67,7097.62,7194.57,7106.69,7192.16z M6844.47,7052.13l0.2-1.18l10.5-1.28l5.71-0.69l2.85-0.34l2.88-0.28
				l-0.51,0.96c-1.92,0.19-3.81,0.44-5.7,0.69l-5.68,0.75L6844.47,7052.13z M7280.57,7177.95l-0.25,0.6
				c-4.28-1.38-8.59-2.74-13.06-3.95l0.19-0.62C7271.94,7175.2,7276.28,7176.57,7280.57,7177.95z"/>
			<path class="st0" d="M7112.76,7127.44c1.38,1.27,3.3,1.98,5.7,2.3c2.42,0.33,5.24,0.29,8.25,0.07c3.03-0.22,6.4-0.6,9.66-0.96
				c3.28-0.36,6.73-0.67,9.81-0.77c2.88-0.11,5.95-0.08,10.48-0.12c-2.22,0.65-4.33,1.28-6.37,1.88c-2.04,0.6-3.86,1.22-5.71,1.8
				c-1.83,0.59-3.6,1.16-5.35,1.72c-1.69,0.58-3.35,1.14-5.02,1.71l-0.16,0.85c1.82-0.2,3.63-0.41,5.41-0.61
				c1.83-0.19,3.62-0.37,5.34-0.54c-13.43,3.8-26.2,8.08-38.28,11.95c-1.1,0.35-2.23,0.69-3.33,1.01c-1.09,0.31-2.19,0.6-3.29,0.88
				c-2.18,0.54-4.46,1.06-6.52,1.44c-1.61,0.3-4.14-0.16-4.27-0.81c-0.51-2.65-0.32-5.49-0.21-8.31c0.01-0.38,0.97-1.01,1.65-1.49
				c1.99-1.42,3.68-3.1,5.82-4.52c1.09-0.72,2.26-1.35,3.79-1.91c1.53-0.56,3.32-1.01,5.5-1.3c0.69-0.09,1.59-0.65,2.78-1.44
				C7109.66,7129.48,7111.1,7128.46,7112.76,7127.44z"/>
			<path class="st0" d="M6728.37,7299.41l5.84,0.95l2.91,0.47l1.45,0.23l1.52,0.17l6.07,0.66l3.03,0.33l1.51,0.16l1.56,0.1
				l6.23,0.39c2.08,0.12,4.11,0.3,6.23,0.33c4.21,0.1,8.36,0.29,12.57,0.32c0.55-0.55,0.58-1.38,1.61-1.48
				c4.19-0.44,7.55-0.22,10.9,0.2c3.35,0.41,6.63,1.17,10.52,1.97c-13,1.73-25.88,1.58-38.04,0.63c-3.01-0.29-5.97-0.65-8.93-0.99
				c-1.46-0.19-2.98-0.31-4.38-0.57c-1.42-0.24-2.83-0.48-4.24-0.72c-1.41-0.24-2.82-0.47-4.22-0.71l-2.11-0.35l-2.01-0.44
				c-2.68-0.58-5.36-1.14-8.06-1.67C6728.33,7299.4,6728.37,7299.41,6728.37,7299.41z"/>
		</g>
	</g>
</g>
<g>
	<g>
		<path class="st1" d="M7607.02,8003.13"/>
	</g>
</g>
</svg>
