<?xml version="1.0" encoding="utf-8"?>
<!-- Generator: Adobe Illustrator 25.3.1, SVG Export Plug-In . SVG Version: 6.00 Build 0)  -->
<svg version="1.1" id="Layer_1" xmlns="http://www.w3.org/2000/svg" xmlns:xlink="http://www.w3.org/1999/xlink" x="0px" y="0px"
	 viewBox="0 0 14400 14400" style="enable-background:new 0 0 14400 14400;" xml:space="preserve">
<style type="text/css">
	.st0{fill:#F47321;}
	.st1{fill:none;stroke:#FAC29F;stroke-width:0.5;stroke-miterlimit:10;}
</style>
<g>
	<g>
		<g>
			<path class="st0" d="M6817.42,7252.52c-0.28,1.01-0.59,2.03-0.84,3.03l-0.71,3l-1.42,5.98c-0.44,1.98-0.71,3.92-1.09,5.88
				l-0.54,2.93c-0.18,0.98-0.4,1.97-0.44,2.9c-0.36,4.27-1.29,8.83-1.31,12.92l-0.18,2.93c-0.05,0.97-0.2,1.99-0.14,2.89
				c0.04,1.85,0.09,3.7,0.22,5.53l0.1,1.53c0.03,0.51,0.06,1.03,0.15,1.49l0.47,2.86c0.33,1.89,0.59,3.85,1.01,5.69
				c0.88,3.65,2.06,7.26,4.04,11.06c0.81,1.54,1.82,3.08,2.83,4.65c0.53,0.77,1,1.59,1.6,2.31l1.76,2.14
				c2.33,2.82,4.81,5.06,7.32,7.16c0.61,0.54,1.31,1,1.99,1.48l2.04,1.43l4.09,2.87l1.02,0.72c0.34,0.24,0.75,0.41,1.13,0.62
				l2.3,1.19l4.6,2.38c6.41,2.85,13.31,5.16,20.77,6.57l2.77,0.57c0.93,0.17,1.89,0.3,2.83,0.44c1.9,0.28,3.81,0.53,5.73,0.76
				c3.79,0.56,7.85,0.59,11.82,0.74c1.64,0.03,3.26,0.15,4.93,0.18c1.69-0.01,3.38-0.01,5.08-0.02l5.07,0.05
				c0.85,0,1.67,0.05,2.54,0.01l2.6-0.13c2.91-0.13,5.82-0.25,8.73-0.38c1.44-0.01,2.96-0.25,4.45-0.39l4.48-0.49
				c5.93-0.48,12.09-1.81,18.14-3.01c1.81-0.32,3.66-0.91,5.48-1.39c1.82-0.51,3.64-1.02,5.45-1.53c1.81-0.53,3.61-0.98,5.42-1.58
				l5.43-1.87c1.81-0.61,3.62-1.22,5.44-1.83c0.91-0.31,1.82-0.59,2.73-0.91c0.91-0.34,1.83-0.68,2.74-1.03
				c3.67-1.36,7.39-2.66,11.2-3.93l10.66-4.07l2.67-1.03c0.89-0.35,1.8-0.72,2.56-1.05l3.8-1.61c2.27-0.95,4.53-1.92,6.72-2.93
				c2.19-1.01,4.46-2.01,6.58-3.04l12.63-6.21c4.26-2.05,8.26-4.26,12.39-6.38c3.24-1.71,6.56-3.43,9.7-5.23
				c3.16-1.79,6.32-3.58,9.51-5.33c1.54-0.86,3.09-1.73,4.64-2.6c1.52-0.88,3.04-1.76,4.55-2.63c3.04-1.72,6.09-3.36,9.16-4.72
				c5.77-2.56,10.57-7.4,17.06-8.4c2.62-0.4,6.81-3.95,10.29-6.07l-0.19-0.3c-2.86,1.44-5.72,2.88-9.21,4.64
				c11.99-8.4,30.41-20.14,36.33-21.34c-4.34,2.64-7.82,4.75-11.3,6.86l0.25,0.33l14.14-7.46l0.26,0.63
				c-2.41,1.64-4.83,3.29-7.24,4.93c-2.42,1.66-4.85,3.38-7.19,5.14c-1.33,1-1.79,2.69-2.65,4.06c1.05-0.14,2.37,0.03,3.11-0.47
				c8.1-5.45,17.56-9.03,23.74-16.18c0.51-0.58,1.33-1.18,2.09-1.66l5.26-3.26c0.81-0.5,2.05-1.26,1.93-1.2
				c0.21-0.16,0.29-0.21,0.39-0.3l1.26-0.98c0.87-0.67,1.79-1.38,2.8-2.22c1.11-0.92,2.35-2.16,4.13-4.15
				c0.94-1.07,1.67-1.27,2.11-1.05c0.45,0.21,0.64,0.88,0.78,1.51c-0.79,1.16-1.21,1.82-1.55,2.36c0.4,0.04,0.7,0.16,1.08,0.13
				c0.38-0.02,0.74-0.01,1.07,0c0.32,0.02,0.67,0.02,0.98,0.33c0.32,0.32,0.39,0.94,0.35,1.47c-0.04,0.54-0.14,1.06-0.21,1.53
				c-0.36,2.17-1.36,4-2.26,5.72c-0.45,0.86-0.89,1.71-1.26,2.57c-0.09,0.21-0.18,0.43-0.26,0.65l-0.11,0.33l-0.03,0.08l-0.01,0.04
				l-0.14,0.51l-0.66,2.44l-0.33,1.22l-0.16,0.61l-0.17,0.72l-0.69,2.97l-0.34,1.48l-0.17,0.74l-0.21,1.01
				c-0.28,1.36-0.58,3.02-0.86,4.8c-0.54,3.62-1.06,8.2-0.96,14.06c0.02,1.39,0.11,3.09,0.23,4.67c0.05,0.76,0.16,1.71,0.26,2.57
				c0.11,0.89,0.22,1.74,0.35,2.65c0.61,3.78,1.47,7.71,2.99,12.11c0.33,0.95,0.65,1.86,1.03,2.82c0.39,0.98,0.8,1.96,1.23,2.93
				c0.83,1.91,1.85,3.91,2.94,5.84c1.06,1.92,2.31,3.86,3.61,5.71c1.29,1.87,2.69,3.59,4.15,5.3c5.8,6.79,13.23,12.35,19.98,15.76
				c6.74,3.44,12.78,5.15,17.84,6.06c2.31,0.37,4.81,0.68,6.7,0.72c0.99,0.04,2.04,0.07,2.93,0.04c0.87-0.03,1.73-0.08,2.57-0.15
				c0.31-0.03,0.68-0.04,1.09-0.06c0.39-0.01,0.79-0.03,1.22-0.04c0.89-0.01,1.86-0.03,2.88-0.04c0.95-0.02,1.93-0.05,2.91-0.08
				c0.89-0.05,1.76-0.09,2.56-0.13c2.69-0.2,5.08-0.46,7.05-0.71l3.66-0.52c10.72-1.63,21.26-3.64,31.71-5.38
				c10.33-1.71,20.63-3.06,30.74-4.86c3.65-0.65,7.2-1.81,10.78-2.75l-0.3-0.69c-7.42-0.3-14.69,5.31-23.31,3.36
				c18.32-5.25,35.39-10.09,53.51-11.14c-2.71,1.24-5.41,2.48-8.71,3.98c1.57,0.2,2.19,0.43,2.68,0.32
				c9.47-2.25,19.98-2.19,28.23-7.16c0.42-0.25,1.24-0.4,1.87-0.47c5.59-0.64,11.24-3.42,16.83-2.21c0.78,0.17,2.15-0.07,3.2-0.29
				l27.17-5.94c9.12-1.96,18.69-3.93,24.15-8.97c3.48-3.21,8.29-4.26,13.23-5.76c0.47-0.14,0.78-0.52,1.83-1.25
				c-13.34,2.52-25.75,4.78-38.13,7.22c-17.72,3.49-35.82,6.01-52.48,12.37c-1.11,0.42-2.56,0.56-3.85,0.77
				c-16.14,2.72-32.26,5.16-48.62,8.25c-16.14,3.05-32.36,7.14-49.11,9.6c-5.65,0.82-11.31,1.58-17.03,2.23
				c-2.85,0.34-5.73,0.63-8.6,0.94l-1.45,0.15l-1.83,0.17c-1.25,0.11-2.68,0.2-4.18,0.26c-3.02,0.12-6.55,0.14-10.91-0.27
				c-4.34-0.44-9.55-1.27-15.8-3.48c-0.78-0.28-1.55-0.57-2.32-0.87c-0.83-0.34-1.68-0.71-2.51-1.09c-0.83-0.38-1.66-0.78-2.48-1.19
				c-0.85-0.44-1.75-0.94-2.6-1.44c-0.86-0.5-1.72-1.02-2.56-1.56c-0.85-0.55-1.75-1.19-2.6-1.81c-1.72-1.25-3.37-2.58-5-4.1
				c-3.26-2.98-6.11-6.3-8.62-9.96c-2.54-3.69-4.5-7.57-6.01-11.39c-2.97-7.64-3.84-14.4-4.05-19.79c-0.18-5.38,0.29-9.5,0.79-12.91
				c0.13-0.89,0.26-1.6,0.41-2.41l0.42-2.11c0.3-1.42,0.51-2.21,0.75-3.17c0.47-1.86,0.96-3.87,1.41-5.33l0.69-2.38l0.17-0.59
				l0.05-0.13l0.1-0.25c0.5-1.21,1.7-2.35,2.72-3.67l0.66,0.01c0.04,0.31,0.23,0.64,0.1,0.96c-0.38,0.94-0.73,1.88-1.02,2.84
				l-0.22,0.72l-0.68,2.54l-0.39,1.47l-0.19,0.73l-0.2,0.86l-0.78,3.45c-0.23,1-0.57,2.65-0.87,4.39c-0.31,1.82-0.6,3.86-0.8,6.21
				c-0.2,2.41-0.32,5.09-0.21,8.2c0.13,3.17,0.5,6.75,1.39,10.72c0.91,4.05,2.4,8.51,4.66,12.97c0.58,1.13,1.19,2.24,1.84,3.33
				c0.66,1.1,1.38,2.19,2.11,3.25c1.47,2.13,3.12,4.07,4.85,5.97c1.75,1.84,3.67,3.63,5.62,5.2c0.97,0.77,1.97,1.51,2.98,2.22
				c0.5,0.35,1.03,0.71,1.53,1.04l1.49,0.91c1,0.6,2.01,1.17,3.04,1.71c1,0.52,1.93,0.95,2.91,1.39l1.47,0.64
				c0.5,0.21,0.99,0.41,1.42,0.57c0.9,0.34,1.81,0.66,2.73,0.96l1.37,0.43l1.25,0.35c0.83,0.23,1.67,0.44,2.51,0.63
				c0.85,0.2,1.54,0.32,2.31,0.47c0.75,0.14,1.54,0.28,2.26,0.39l2.05,0.27c0.67,0.08,1.41,0.16,1.99,0.2l1.85,0.13l0.92,0.05
				l0.84,0.03c4.55,0.13,8.15-0.16,11.16-0.49c0.8-0.08,1.43-0.17,2.14-0.26l1.44-0.21l2.63-0.4l5.24-0.83
				c6.98-1.13,13.89-2.38,20.73-3.74c11.35-2.24,22.76-4.03,33.93-6.28c4.04-0.82,8.1-1.81,11.91-3.02
				c9.15-2.9,18.37-5.16,27.92-6.93c18.57-3.44,37.08-7.2,55.59-10.91c19.68-3.94,39.5-7.14,58.88-12.53
				c11.14-3.1,23.03-4.85,34.6-7.17c1.43-0.29,2.92-0.3,4.39-0.45l0.17,0.92c-28.24,7.88-57.93,11.97-86.25,19.7
				c40.47-5.88,80.4-13.61,118.59-24.94c-7.89,1.24-16.49,2.59-26.19,4.12c1.36-0.94,1.97-1.67,2.71-1.82
				c6.33-1.28,12.68-2.46,19.02-3.67l12.22-2.33c0.19-0.04,0.36-0.2,0.56-0.32c-1.12-0.24-2.19-0.47-3.64-0.78
				c3.21-1.15,5.86-2.1,8.47-3.03c-0.71-0.56-1.21-0.95-2.1-1.65c7.1-3.04,13.87-5.93,20.64-8.82c-12.84,1.75-25.75,3.96-38.64,6.29
				c-17.14,3.1-34.29,6.2-51.4,9.47c-9.3,1.78-18.51,4.01-27.8,5.87c-7.35,1.47-14.76,2.64-22.13,4c-2.86,0.53-5.84,0.99-8.51,1.84
				c-3.57,1.13-6.9,2.35-10.79,1.05l46.73-12.89l-0.24-0.8c-13.25,2.28-26.53,4.42-39.75,6.89c-12.41,2.31-24.75,4.99-37.14,7.47
				l-54.14,10.72c-1.47,0.28-3.01,0.26-4.52,0.37l-0.01-0.7c3.52-0.94,6.99-2.01,10.54-2.79c18.07-3.96,36-8.16,54.13-11.68
				c19.77-3.85,39.45-7.76,58.48-13.32c-0.74-0.35-1.56-0.72-2.6-1.21c15-3.1,29.26-6.06,43.52-9.01c-1.65-0.04-3.23,0.25-4.81,0.56
				l-61.82,12.18c-13.52,2.68-27.03,5.41-40.53,8.18c-6.4,1.31-12.78,2.76-19.16,4.17c-9.55,2.1-19.05,4.37-28.67,6.29
				c-6.74,1.35-13.6,2.29-20.43,3.3c-4.9,0.73-9.81,1.32-14.73,1.95c2.76-1.3,5.73-2.33,8.79-2.91c14.56-2.69,29.03-5.52,43.45-8.33
				l43.27-8.44c3.83-0.75,7.6-1.78,11.38-2.72c4.7-1.17,9.33-2.61,14.08-3.53l66.41-12.67c6.62-1.29,13.14-3.04,19.71-4.58
				l-0.14-0.38l-29.66,4.68l-0.13-0.75c1.47-0.45,2.91-0.99,4.42-1.34c12.35-2.88,24.82-5.49,37.05-8.62
				c19.72-5.05,39.55-9.62,59.71-13.19c2.66-0.47,5.36-0.57,8.05-0.84l0.1,0.87c-7.72,3.94-18.18,4.43-26.06,8.21
				c10.15-1.72,20.19-3.65,30.24-5.5c7.06-1.3,14.14-2.49,22.45-3.96c-1.52,1.87-2.22,2.74-3.22,3.97
				c10.08-2.32,19.58-4.52,29.08-6.71c1.09-0.26,2.31-0.92,2.94-1.5c1.51-1.39,2.71-2.84,3.96-4.19c-2.06,0.16-4.67,0.36-7.55,0.59
				c0.43-0.71,0.77-1.27,1.22-2.01c-13.64,2.19-26.98,4.33-40.32,6.47c5.65-2.16,11.47-3.75,16.92-5.72
				c5.54-2,11.76-3.71,15.76-7.43c-5.62-0.38-10.86-0.72-16.2-1.08c0.02-0.29,0.06-0.79,0.1-1.31c-17.48,2.91-34.48,5.75-51.49,8.58
				l-0.79-0.62c0.94-0.77,1.65-1.84,2.87-2.24c2.84-0.93,5.93-1.54,8.92-2.28l28.75-7.1c-2.02,0.05-3.94,0.42-5.87,0.78
				l-122.16,22.53c-12.54,2.28-25.14,4.16-37.72,6.1c-3.02,0.47-6.06,0.45-9.1,0.66l0.11-1.05c7.44-1.56,14.9-3.06,22.31-4.7
				l55.88-12.49c10.7-2.35,21.51-4.37,32.21-6.7c3.66-0.8,7.18-2.08,10.76-3.13l-0.37-0.61l-3.73,0.59l-44.04,7.33
				c-17.11,2.87-34.24,5.61-51.31,8.72c-14.83,2.7-29.58,5.9-44.4,8.75c-3.66,0.7-7.64,1.45-10.88,0.45
				c33.47-5.64,65.84-13.91,98.01-22.89c-6.54,0.79-13.09,1.58-20.38,2.46c1.05-1.33,1.48-1.86,1.95-2.45
				c-2.97-0.08-5.98,0.11-8.39-0.29c-5.29-0.89-10.7-0.38-16.7,0.8c-17.43,3.42-34.9,6.69-52.37,9.89
				c-3.41,0.62-7.39,1.47-9.92-0.55c9.38-2.39,18.35-4.67,27.59-7.01c-1.14-0.81-2.19-1.55-3.31-2.34c1.41-0.71,2.52-1.27,3.64-1.83
				c-7.92,1.33-15.65,3.16-23.44,4.65c-9.32,1.78-18.72,3.19-28.05,4.9c-16.07,2.94-32.23,6.09-48.09,8.94
				c-3.44,0.61-6.93,0.77-10.38,1.13c8.98-2.8,18.38-4.73,27.84-6.72c9.46-1.99,18.92-4.02,27.93-7.04
				c-11.5,1.99-22.99,3.98-34.46,5.97c-11.41,1.99-22.67,3.96-33.83,5.79c-1.08,0.18-2.18,0.45-3.19,0.78
				c-6.23,1.98-12.26,4.34-18.63,5.77c-5.14,1.13-10.33,2.2-15.5,3.09c-2.6,0.47-5.18,0.86-7.77,1.25l-3.88,0.53l-1.94,0.25
				l-0.46,0.05c-0.13,0.02-0.13,0.01-0.19,0.02l-0.05,0c-0.01,0,0,0,0,0l0,0l0,0l0,0l0.01,0.14c0.14,1.75,0.26,3.51,0.34,5.28
				l0.13,2.14l0.1,2.06l0.11,3.84c0.03,1.12,0.04,2.25,0.02,3.38c-0.02,0.61,0,1.02-0.01,1.51l-0.03,1.42
				c-0.1,2.03-0.13,3.49-0.31,5.13c-0.23,2.95-0.75,5.53-1.2,7.32c-0.32,1.04-0.46,1.68-0.81,2.46c-0.12,0.32-0.22,0.58-0.36,0.87
				l-0.22,0.42c-0.04,0.1-0.09,0.19-0.14,0.29c-0.09,0.18-0.25,0.41-0.34,0.54c-0.06,0.1-0.13,0.21-0.22,0.32l-0.12,0.15
				c-0.01,0.01-0.12,0.12-0.03,0.03c0.04-0.04,0.09-0.07,0.12-0.09l0.01-0.01l0,0c0.05-0.04-0.45,0.34-0.24,0.18l0.01,0l0.02-0.02
				l0.04-0.02c-0.02,0.01,0.15-0.1,0.22-0.12c0.05-0.02,0.25-0.13,0.41-0.19c0.68-0.29,1.9-0.68,3.75-0.92
				c1.86-0.25,4.24-0.36,7.6-0.22l1.31,0.07l1.39,0.1c0.84,0.09,2.06,0.17,3.13,0.29l3.69,0.45l4.45,0.66l2.55,0.42l1.27,0.23
				l1.71,0.29l3.43,0.62l1.71,0.33l0.83,0.17l0-0.01l0.01-0.07l0.1-0.42l0.37-1.7c0.16-0.65,0.39-1.48,0.58-2.21l0.15-0.57
				l0.08-0.28l0.04-0.15l0.1-0.3l0.82-2.43l0.82-2.43c0.26-0.81,0.55-1.62,0.89-2.42l1.94-4.81c0.66-1.6,1.4-3.21,2.1-4.81
				c5.72-12.79,12.22-25.8,17.13-38.17c1.31-3.13,2.38-6.12,3.55-9.17c1.02-2.96,2.13-5.98,3.01-8.84c0.98-2.93,1.76-5.72,2.6-8.55
				l1.11-4.13c0.38-1.39,0.71-2.74,1.03-4.07c2.53-10.41,3.73-19.91,4.13-29.04c0.19-4.56,0-8.94-0.37-13.26
				c-0.4-4.31-1.14-8.51-2.09-12.64c-0.27-1.05-0.43-2.17-0.56-3.3c-0.12-1.14-0.32-2.27-0.52-3.38l1.06-0.21
				c0.71,1.77,1.24,3.61,1.83,5.42c2.81,9.72,3.94,19.96,3.49,31.1c-0.42,11.12-2.04,23.09-5.59,36.64
				c-0.48,1.82-0.82,4.07-0.61,5.09c0.1,0.53,1.88-0.94,2.36-2.05c0.64-1.53,1.4-3.15,1.99-4.68c0.63-1.54,1.25-3.1,1.85-4.66
				c0.59-1.55,1.05-3.03,1.51-4.54c0.22-0.75,0.44-1.49,0.63-2.23c0.17-0.72,0.31-1.42,0.44-2.12c1.12-6.01,1.79-11.66,2.14-17.07
				c0.1-1.36,0.18-2.71,0.21-4.02c0.03-1.31,0.1-2.65,0.1-3.95l0.01-3.88l-0.16-3.79c-0.3-5-0.95-9.81-1.94-14.48
				c-1.02-4.65-2.42-9.16-4.17-13.52c-1.47-3.81-3.58-7.28-5.54-10.89c-1.65-2.86-3.55-5.79-5.98-8.72
				c-1.21-1.47-2.54-2.95-4.01-4.36c-1.46-1.41-3.03-2.75-4.55-3.9c-3.1-2.29-5.69-3.75-8.08-4.88c-0.6-0.29-1.2-0.55-1.79-0.81
				c-0.58-0.27-1.32-0.43-1.97-0.65l-4.07-1.19c-2.26-0.63-4.55-1.21-6.86-1.74l-3.48-0.75l-0.44-0.09h-0.54l-1.08,0l-2.15,0.01
				c-5.74,0.05-11.42,0.22-16.89,0.3c0.07,0.03,0.84,0.3,1.62,0.58c-0.48,0.03-0.96,0.07-1.43,0.1l-0.71,0.05
				c-0.26,0.05-0.56,0.15-0.83,0.23c-1.12,0.32-2.22,0.63-3.31,0.94c-2.17,0.61-4.29,1.19-6.36,1.73c-4.14,1.09-8.1,2.05-12.03,2.92
				c-0.86,0.21-1.68,0.33-2.58,0.61l-2.8,1.05l-5.59,2.11l-11.18,4.2l-5.58,2.1c-0.47,0.18-0.92,0.33-1.4,0.54l-1.44,0.64
				l-2.87,1.27l-11.49,5.08l-11.48,5.08l-11.61,5.9l-11.6,5.9l-2.9,1.48l-1.45,0.74l-1.44,0.81l-5.76,3.26
				c-7.6,4.32-15.18,8.62-22.72,13.02l-4.75,2.88l-3.2,1.96c-2.14,1.3-4.28,2.59-6.44,3.85l-48.46,28.84
				c-0.36,0.21-0.86,0.19-1.6,0.34c0.64-0.63,0.89-0.98,1.24-1.21l17.1-11.1l8.7-5.61c2.9-1.86,5.82-3.7,8.82-5.55l11.94-7.3
				l12.65-7.5l2.61-1.53l2.74-1.57l5.5-3.06l10.99-6.11l10.99-6.11c3.67-1.91,7.36-3.7,11.03-5.57c3.44-1.73,6.88-3.45,10.25-5.14
				c1.68-0.84,3.35-1.68,4.98-2.5c0.82-0.41,1.63-0.82,2.43-1.22c0.79-0.35,1.58-0.69,2.35-1.03c6.2-2.69,11.8-5.13,16.2-7.04
				c-0.4-0.37-0.63-1.56-2.34-1.82c-1.22-0.19-4.95,0.53-6.63,1.45c-4.52,2.5-7.08,3.01-9.6,3.12c-4.08,0.43-8.9,1.93-14.21,4.07
				c-2.66,1.07-5.45,2.3-8.34,3.65c-1.45,0.69-2.92,1.38-4.42,2.09c-1.5,0.72-3.03,1.44-4.57,2.32c-8.35,4.58-16.53,9.46-24.7,14.23
				l-6.14,3.6c-1.67,1-3.34,2-5.01,3c-2.19,1.28-4.43,2.5-6.77,3.61c-1.54,0.73-3.08,1.53-4.6,2.38c-1.49,0.84-2.98,1.73-4.45,2.65
				c-2.96,1.83-5.88,3.76-8.79,5.61c-5.14,3.3-10.13,6.68-14.84,10.29c-5.12,3.93-9.57,8.21-14.65,12.11
				c-3.41,2.61-7.4,5.59-11.02,6.92c-1.67,0.62-3.31,0.74-4.92,0.72c-1.6-0.04-3.19-0.22-4.78-0.18c-0.5,0.6-1.33,2.28-2.71,3.11
				c-2.42,1.46-4.89,2.82-7.36,4.18c-2.46,1.31-4.92,2.57-7.35,3.91c-2.96,1.62-5.81,3.58-8.73,5.19c-2.01,1.1-4.77,2.96-6.04,2.88
				c-3.55-0.25-5.98,1.57-8.52,3.73c-3.23,2.73-6.57,4.8-10.87,5.15c-0.52,0.04-1.39,0.39-2.17,0.81c-0.75,0.38-1.42,0.84-1.59,1.16
				c-1.73,3.32-3.96,3.54-6.58,2.6c-0.48-0.17-1.17-0.12-2.34-0.22c1.91,1.03,2.75,2.01,2.48,3.11c-0.13,0.55-0.54,1.13-1.23,1.77
				c-0.23,0.19-0.23,0.26-0.28,0.36c-0.05,0.1-0.11,0.19-0.18,0.29c-0.01,0.13-0.03,0.25-0.07,0.36c-0.12,0.37-0.34,0.65-0.59,0.75
				c-0.33,0.14-0.52,0.37-0.72,2c-0.14,1.06-0.61,1.29-1.01,1.86c-0.83,1.18-1.82,2.05-3.13,3.67c-1.37,1.69-1.92,1.88-1.68-0.52
				c0.08-0.69-0.18-0.85-0.31-1.13c-0.13-0.28-0.32-0.39-0.48-0.6c-0.14-0.18-0.25-0.4-0.4-0.52c-0.21-0.16-0.68-0.01-0.65-0.49
				c0.06-1.11,0.27-1.87-1.64-0.5c-0.92,0.65-0.95,0.12-1.33,0.07c-0.5-0.05,0.43-1.36-3.64,1.95c-1,0.83-2.42,1.38-2.92,1.33
				c-0.68-0.05-0.35-0.9,0.5-1.96c0.84-1.06,2.14-2.29,3.14-3.21c1.12-1.04,1.73-1.53,0.63-1.22c-0.7,0.19-0.33-0.31-0.23-0.61
				c0.28-0.78,1.28-1.77,0.94-2.21c-0.32-0.42-1.35-0.68-2.12-1.2c-0.79-0.5-1.29-1.25-0.78-2.14c0.69-1.15,0.2-1.2-3.95-1.66
				c-0.88,1.55-1.77,3.15-2.39,4.75c-0.69,1.82-0.98,3.55-1.45,5.36c-0.34,1.25-0.91,2.55-3.78,5.25c-0.6-2.61,0.18-6.1,1.51-9.44
				c1.34-3.37,3.16-6.61,4.96-9.77c-1.86,1.58-3.29,3.47-4.55,5.44c-0.51,0.78-0.78,1.53-3.49,2.24c0.48-1.52,0.9-2.97,1.59-4.41
				c1.32-2.77,2.98-5.49,4.72-8.18c0.21-0.32,0.1-0.81,0.03-1.25c-0.12-0.73-0.63-1.66-0.3-2.25c0.59-1.07,1.64-1.92,2.6-2.71
				c0.55-0.39,2.11-1.95,3.09-3.34c1.04-1.44,1.88-3.02,2.26-5.04c-2,1.69-3.9,3.28-5.66,4.92c-0.98,0.91-1.57,1.36-2.01,1.7
				c-0.48,0.38-0.96,0.77-1.43,1.15l-0.51-0.48l5.4-5.54l3.67-3.55l3.78-3.42c4.83-4.21,9.97-7.98,15.08-11.74
				c4.49-3.3,9.33-6.18,13.34-11.35c-2.32,0.82-3.79,1.43-5.31,2.03c-1.52,0.59-2.97,1.37-4.99,2.3c0.62-1.07,0.8-1.77,1.21-2.03
				c2.04-1.35,3.34-2.58,4.13-3.96c0.8-1.37,1.13-2.81,1.37-4.29c0.33-2.48,7.98-8.45,11.31-8.83c0.38-0.06,0.81-0.1,1.06,0
				c2.86,1.14,3.55-0.76,4.6-2.42c-0.87-0.41-2.36-0.58-2.27-1.12c0.57-3.51-0.71-7.02,5.23-10.92c2.27-1.47,2.13-3.09-0.19-3.31
				c-0.8-0.07-1.78,0.13-2.67,0.21c1.24-1.82,3.85-2.99,6.24-4.36c2.4-1.35,4.66-2.73,5.28-5.13c-2.29,1.1-3.73,1.88-5.24,2.48
				c-0.95,0.4-2.03,0.51-3.06,0.75c0.66-0.6,1.2-1.32,2.01-1.79c1.95-1.11,4.06-2,6.77-3.31c-1.23-0.74-1.94-1.91-3.19-1.76
				c-4.27,0.45-8.82,1.08-13.08,2.69c-8.43,3.16-16.42,7.72-24.38,11.92c-6.66,3.47-13.16,7.27-19.51,11.34
				c-6.34,4.09-12.56,8.42-18.49,13.18c-2,1.57-3.93,3.2-5.92,4.79c-1.94,1.63-3.86,3.3-5.8,4.96l-0.59-0.58
				c6.44-7.73,13.38-15.1,20.91-21.93c2.05-1.84,4.19-3.61,6.39-5.29c1.09-0.86,2.18-1.71,3.26-2.57c1.1-0.83,2.18-1.68,3.24-2.55
				c2.39-2.03,4.32-4.17,6.36-6.36c1.02-1.1,2.14-2.11,3.35-3.11c1.23-0.98,2.56-1.97,4.17-2.74c2.61-1.3,5.03-3.22,7.62-4.72
				l-0.1-0.76c-3.48,0.38-6.9,2.03-10.3,3.9c-1.66,1.01-3.34,2.02-5.01,3.03c-1.68,0.99-3.28,2.05-4.94,2.91
				c-7.04,3.75-13.73,8.66-20.23,13.56l-0.22-0.52c5.17-4.82,10.56-9.43,16.15-13.83c5.64-4.34,11.43-8.52,17.47-12.38
				c-1.01-0.42-1.64-0.38-2.18-0.1c-18.53,9.44-36.22,20.76-51.32,35.83c-1.31,1.26-2.54,2.59-3.81,3.89
				c-1.26,1.31-2.54,2.59-3.75,3.95l-3.86,4.21l-4.26,4.96c-5.62,6.66-10.99,13.55-15.83,20.73l-1.85,2.68
				c-0.61,0.9-1.17,1.81-1.75,2.72l-3.47,5.46c-2.15,3.69-4.41,7.37-6.36,11.13c-2.08,3.73-3.88,7.53-5.76,11.32
				c-0.89,1.9-1.71,3.81-2.57,5.72c-0.42,0.96-0.86,1.91-1.27,2.87l-1.16,2.88c-3.1,7.47-5.82,15.06-8,22.58l-1.48,5.62
				c-0.43,1.86-0.75,3.68-1.13,5.53l-0.54,2.77l-0.36,2.7c-0.23,1.79-0.5,3.61-0.68,5.39c-0.18,2.8-0.92,5.81-1.24,8.68l-0.77-0.14
				c-0.11-7.92,0.51-16.26,2.07-24.92l1.25-6.08c0.52-2.05,1.12-4.12,1.68-6.18c0.52-2.06,1.23-4.14,1.91-6.21
				c0.69-2.08,1.31-4.15,2.11-6.23c2.86-8.31,6.46-16.63,10.42-24.9c4.14-8.69,8.82-17.35,14.25-25.81c1.19-1.8,2.76-3.49,4.06-5.23
				l3.17-4.43c0.53-0.74,1.04-1.49,1.6-2.21l1.68-2.16l3.36-4.33c1.12-1.45,2.34-2.82,3.5-4.23l3.54-4.21l3.16-3.51
				c1.94-2.2,4.01-4.29,6.04-6.42c8.18-8.44,17-16.28,26.33-23.49c1.31-0.98,2.36-2.28,4.49-4.21c-2.7,1.72-5.03,3.34-7.26,4.82
				c-2.17,1.55-4.2,3-6.22,4.45l-0.62-0.31c1.14-1.23,2.19-2.53,3.46-3.69c4.29-3.92,8.78-7.65,13.47-11.19
				c2.34-1.74,4.04-3.33,2.38-3.85c-0.88-0.27-3.57,0.51-5.08,1.55c-2.9,1.93-5.77,3.94-8.53,6.08c-2.81,2.08-5.5,4.31-8.24,6.47
				c-1.73,1.36-3.6,2.54-5.41,3.81l-0.51-0.66c2.15-2.1,4.42-4.16,6.5-6.23c1.41-1.43,3.15-3.4,3.38-4.39
				c0.17-0.77-1.72-0.89-3.09-0.54c-1.4,0.34-3.37,1.32-4.97,2.43c-8.57,6.05-16.75,12.37-24.12,20.68
				c-1.21,1.33-2.39,2.68-3.57,4.04l-1.8,2.04c-0.75,0.84-1.48,1.63-2.31,2.63c-1.61,1.91-3.22,3.82-4.84,5.73
				c-0.8,0.96-1.64,1.89-2.43,2.87l-2.32,2.94c-1.54,1.96-3.14,3.91-4.67,5.89l-4.43,6.03c-0.73,1.01-1.5,2-2.2,3.03l-2.07,3.08
				c-1.37,2.06-2.78,4.1-4.11,6.17c-5.75,9.14-11.43,18.3-16.33,27.74c-0.17,0.31-0.44,0.55-0.91,1.15
				c0.12-1.14,0.34-2.18,0.51-3.23c-1.05,1.14-2.12,2.28-3.9,4.42c0.84-2.08,1.84-4.14,2.79-6.18c0.96-2.04,1.9-4.05,2.84-6.05
				c1.04-1.99,2.07-3.96,3.1-5.92c1.04-1.96,1.99-3.91,3.15-5.82c2.26-3.82,4.3-7.64,6.77-11.33c1.19-1.85,2.37-3.7,3.55-5.55
				c1.2-1.84,2.53-3.63,3.78-5.44c3.25-4.8,6.69-9.23,6.42-12.06c-0.25-2.61-1.79-3.49-7.13,0.94c-0.58,1.15-1.15,2.26-1.68,3.39
				c-0.5,1.14-0.99,2.27-1.48,3.4c-0.99,2.26-2.01,4.51-3.19,6.82c-1.22,2.6-3.36,6.32-5.23,8.59c-1.38,1.65-2.63,3.33-3.9,5
				l-3.85,4.99c-1.33,1.65-2.51,3.32-3.73,4.98c-1.22,1.65-2.44,3.29-3.66,4.93c-1.78,2.31-3.56,3.46-5.18,4.68
				c-1.33,1.02-2.41,0.39-3.66,2.06c-4.04,5.23-7.62,11.37-10.51,16c-0.13,2.94-0.06,5.01-0.09,7.08c-1.4,1.17-2.95,2.9-4.16,3.44
				c-0.71,0.32-1.33,0.37-2,1c-0.69,0.64-1.36,1.86-2.13,4.5c-0.88,3.08-1.87,6.18-2.6,9.01c-0.71,2.82-1.36,5.42-1.9,7.57
				c0.57,0.79,1.08,1.54,1.66,2.23c0.59,0.68,1.17,1.33,1.74,1.98c1.13,1.28,2.2,2.49,3.22,3.77c2.38,2.95,2.8,2.43,5.24-6.35
				c0.65-2.61,1.68-5.32,2.54-7.97l1.34-3.99c0.43-1.32,0.99-2.68,1.48-4.01L6817.42,7252.52z M7382.72,7308.41l-49.53,12.27
				c-7.14,1.74-14.29,3.59-21.58,5.03c-16.2,3.19-32.76,5.65-49.31,8.54c-2.46,0.42-4.92,0.82-7.39,1.17
				c-1.23,0.17-2.47,0.33-3.7,0.5l-2.03,0.25c-0.86,0.1-1.84,0.2-2.81,0.28c-2.02,0.16-4.28,0.27-6.83,0.23
				c-2.59-0.05-5.56-0.25-8.96-0.85c-3.36-0.59-7.44-1.67-11.83-3.71c-4.37-2.02-9.14-5.17-13.14-9.38
				c-1.95-2.09-3.74-4.32-5.27-6.77c-0.79-1.22-1.43-2.45-2.08-3.71c-0.63-1.25-1.14-2.48-1.65-3.75
				c-1.91-4.99-2.61-9.54-2.85-13.33c-0.23-3.81,0.01-6.94,0.34-9.6c0.34-2.66,0.8-4.86,1.24-6.71l0.08-0.35l0.07-0.28l0.15-0.56
				l0.3-1.11l0.6-2.22c0.2-0.78,0.41-1.39,0.61-2.05l0.61-1.95l0.31-0.97l0.07-0.22l0.04-0.1l0.08-0.2l0.34-0.82
				c0.22-0.55,0.47-1.09,0.72-1.64c1.85-4.15,3.82-8.39,5.77-12.54c1.97-4.14,3.95-8.3,5.92-12.44c0.47-0.99,0.88-1.94,2.14-3.42
				c-0.11,0.64-0.17,1.26-0.38,1.95c-0.7,2.33-1.55,4.73-2.4,7.18c-0.05,0.15-0.02,0.31-0.16,0.44c-1.7,1.72-2.49,3.14-3.02,4.54
				c-0.52,1.39-0.78,2.76-1.31,4.15c-0.74,1.94-1.7,3.96-2.44,5.98c-0.75,2.03-1.25,4.08-1.18,6.36c0.01,0.31,0,0.62-0.03,0.94
				l-0.06,0.48l-0.05,0.27l-0.11,0.49c-0.29,1.33-0.65,2.64-1.03,4.05c-0.39,1.52-0.78,3.07-1.17,4.61
				c-0.43,1.85-0.87,4.04-1.14,6.59c-0.33,3.31-0.55,7.43,0.29,12.64c0.41,2.57,1.19,5.51,2.38,8.46c1.19,2.97,2.93,6.05,5.01,8.78
				c1.06,1.34,2.15,2.66,3.38,3.85c1.22,1.19,2.52,2.36,3.84,3.33c0.66,0.5,1.34,0.98,2.03,1.45c0.67,0.44,1.33,0.83,2.02,1.23
				c0.67,0.38,1.4,0.79,2.04,1.1c0.65,0.32,1.31,0.62,1.98,0.91c5.28,2.26,9.8,3,13.48,3.33c8.47,0.65,14.25-0.58,17.42-0.96
				c3.83-0.53,7.63-1.11,11.43-1.69c7.6-1.18,15.15-2.44,22.65-3.79c15-2.68,29.83-5.62,44.53-8.63c14.2-2.92,28.17-6.17,42.31-8.91
				c9.85-1.91,19.82-3.22,29.74-4.8l0.12,1L7382.72,7308.41z M6861.74,7214.82l-1.26,2.29l-1.16,2.3l-2.32,4.61
				c-1.52,3.08-2.87,6.17-4.31,9.26c-1.27,3.1-2.6,6.19-3.8,9.29l-1.73,4.65c-0.58,1.55-1.16,3.1-1.65,4.65
				c-1,3.1-2.13,6.21-2.92,9.28l-1.3,4.62c-0.4,1.53-0.66,3.03-0.99,4.55c-0.3,1.51-0.67,3.04-0.92,4.53l-0.61,4.43
				c-0.5,2.99-0.6,5.81-0.82,8.69c-0.05,0.59-0.1,1.17-0.15,1.76c-0.03,0.58-0.07,1.16-0.1,1.75c-0.07,1.18-0.17,2.39-0.27,3.65
				c-0.24,2.55-0.42,5.17-0.21,8.19c-1.05-1.98-1.53-2.9-2.43-4.96c-0.11,4.53,0.07,8.82,1.5,13.13c0.36,1.06,0.83,2.1,1.35,3.11
				c0.53,1.01,1.08,2.02,1.77,2.89c1.36,1.78,2.87,3.31,4.52,4.56c1.27,0.99,2.59,1.86,3.92,2.69c1.34,0.81,2.79,1.5,4.18,2.26
				l4.21,2.23c0.67,0.41,1.49,0.64,2.23,0.96l2.28,0.9l4.56,1.8c1.56,0.53,3.23,0.92,4.84,1.38l4.87,1.34
				c1.67,0.35,3.39,0.63,5.08,0.94c13.61,2.44,28.04,3,43.04,1.6l3.06-0.29c1.02-0.1,2.04-0.18,3.09-0.38
				c2.08-0.36,4.16-0.72,6.24-1.08c4.14-0.64,8.36-1.81,12.53-2.83l3.13-0.79l3.14-0.96l6.25-1.93c2.08-0.59,4.15-1.39,6.21-2.13
				l6.18-2.22c1.15-0.39,2.3-0.84,3.45-1.28c1.15-0.44,2.31-0.88,3.47-1.31c2.31-0.9,4.65-1.74,6.91-2.86
				c-2.77,1.01-5.58,1.85-8.36,2.77l-4.16,1.36l-4.17,1.17l0.09-1.1l3.34-1.08c1.11-0.37,2.21-0.81,3.32-1.21l6.63-2.47l1.66-0.62
				l1.64-0.68l3.28-1.37l6.56-2.75l5.43-2.46c1.64-0.75,3.29-1.49,4.89-2.27c3.23-1.55,6.5-3.08,9.62-4.68
				c6.29-3.18,12.73-6.24,19-9.53c3.16-1.61,6.35-3.22,9.56-4.81c3.17-1.61,6.36-3.23,9.56-4.87c-1.76,1.96-2.85,3.17-4.6,5.12
				c6.44-3.28,12.18-6.09,18.47-9.44c-0.75,0.94-0.96,1.4-1.34,1.65c-4.03,2.65-8.2,5.29-12.43,7.74l-7.41,4.23l-7.55,4.13
				l-7.56,4.12l-7.72,3.97l-7.73,3.96c-2.58,1.32-5.32,2.59-7.97,3.88c-1.32,0.65-2.7,1.26-4.06,1.89l-4.3,1.96
				c-0.84,0.38-1.81,0.82-2.77,1.21l-2.86,1.19l-5.73,2.38c-7.67,3.06-15.42,5.85-23.2,8.22l-2.92,0.93l-2.91,0.77l-5.83,1.52
				l-2.92,0.76c-0.97,0.25-1.93,0.41-2.9,0.62l-5.8,1.19c-15.44,3.02-30.49,4.04-44.8,3.24c-19.8-0.94-38.66-5.78-52.81-15.44
				c-1.73-1.19-3.42-2.51-5.01-4.09c-0.78-0.8-1.54-1.66-2.27-2.57c-0.74-0.9-1.33-1.93-1.9-2.94c-1.15-2.03-1.98-4.14-2.49-6.22
				c-0.55-2.08-0.83-4.11-1.01-6.12c-0.09-1.01-0.15-2.01-0.19-3.02l-0.01-3.09l0-3.08l0.01-1.54l0.11-1.6l0.48-6.41l0.99-6.63
				l0.21-1.42c0.09-0.48,0.21-0.97,0.32-1.45l0.66-2.91l0.67-2.91c0.12-0.49,0.21-0.97,0.35-1.46l0.45-1.48l1.82-5.92
				c0.28-0.98,0.66-1.98,1.02-2.97l1.08-2.97c1.37-3.95,3.09-7.9,4.69-11.82c0.84-1.96,1.77-3.92,2.66-5.87l1.34-2.92
				c0.46-0.97,0.98-1.94,1.47-2.91c1.02-2,2.06-3.98,3.11-5.95l3.44-5.84c0.58-0.96,1.13-1.93,1.75-2.89l1.86-2.85
				c1.25-1.89,2.43-3.79,3.72-5.65l0.63,0.3C6863.85,7210.33,6862.98,7212.61,6861.74,7214.82z M6834.3,7337.51
				c-2.53-1.85-4.91-3.89-7.25-6.37c-1.12-1.27-2.28-2.6-3.35-4.04c-0.98-1.49-1.94-3-2.8-4.49c-1.67-3.01-2.78-5.94-3.64-8.77
				c-0.43-1.42-0.81-2.82-1.13-4.24c-0.3-1.44-0.53-2.93-0.8-4.39c-0.24-1.48-0.56-2.91-0.73-4.44l-0.37-4.71
				c-0.38-3.06-0.17-6.47-0.12-9.79l0.06-2.5l0.32-2.62l0.65-5.24c0.13-1.72,0.66-3.58,1.03-5.38l1.21-5.44
				c2.38-8.76,5.72-17.91,9.97-26.43c0.9-1.84,2-3.4,3.48-5.1c1.5-1.7,3.25-3.54,5.28-5.93c-0.76,2.16-1.48,4.21-2.17,6.18
				c-0.58,1.94-1.14,3.8-1.67,5.6c-0.52,1.79-1.12,3.54-1.58,5.24c-0.47,1.7-0.97,3.38-1.51,5.06l-1.08,3.28l-1.01,3.27
				c-0.69,2.19-1.39,4.39-2.09,6.58c-0.56,2.17-1.12,4.34-1.68,6.51c-0.25,1.07-0.59,2.18-0.73,3.22l-0.42,3.11
				c-0.22,1.85-0.46,3.71-0.64,5.53l-0.09,5.27l-0.04,2.63c-0.01,0.88,0.11,1.67,0.16,2.51l0.39,4.97c0.04,0.85,0.17,1.63,0.31,2.4
				l0.38,2.35c0.27,1.55,0.47,3.15,0.78,4.67c0.64,3.03,1.42,6.07,2.73,9.28c1.61,4.04,4.53,8.42,7.81,11.54
				c1.65,1.58,3.33,2.93,5.06,4.19l1.3,0.92l1.39,0.84l2.78,1.67l2.77,1.68l1.39,0.84c0.47,0.28,1,0.47,1.5,0.71l6.1,2.76l1.53,0.69
				c0.49,0.25,1.08,0.37,1.62,0.56l3.3,1.05l3.31,1.05c1.1,0.34,2.19,0.73,3.37,0.94c1.24,0.29,2.49,0.59,3.74,0.89
				c1.93,0.41,3.85,0.84,5.8,1.22l5.95,0.91l2.99,0.43c0.99,0.15,2,0.28,3.03,0.35l6.15,0.5c8.22,0.64,16.78,0.54,25.52,0.01
				c0.66-0.03,1.31-0.04,1.96-0.04c0.65-0.03,1.31-0.06,1.97-0.09c1.32-0.05,2.64-0.1,3.95-0.15l-0.23,0.8l-5.86,0.88l-5.74,0.47
				l-0.08,0.23c9.88,0.04,20.34-1.28,30.93-2.86l0.29,0.64c-3.39,0.9-6.82,1.93-10.24,2.61c-16.66,3.07-32.84,3.87-47.93,2.58
				l-3.32-0.29l-1.65-0.16c-0.54-0.06-1.07-0.16-1.61-0.25c-2.13-0.35-4.24-0.73-6.34-1.12l-3.14-0.6
				c-1.03-0.22-2.05-0.49-3.07-0.73l-6.11-1.5c-2-0.4-3.77-1.15-5.63-1.77l-5.52-1.92c-0.95-0.28-1.75-0.75-2.6-1.15l-2.53-1.24
				l-5.06-2.48c-3.03-2-6.11-3.95-9.08-6.01c-1.42-1.09-2.81-2.23-4.16-3.5c-0.68-0.64-1.35-1.3-2.02-2
				c-0.64-0.72-1.28-1.47-1.92-2.24c-1.32-1.51-2.38-3.31-3.39-5.03c-0.51-0.87-0.97-1.73-1.39-2.59c-0.39-0.87-0.76-1.74-1.08-2.59
				c-1.29-3.43-2.06-6.67-2.61-9.99l-0.68-5.11c-0.1-0.86-0.24-1.69-0.32-2.57l-0.11-2.71l-0.22-5.42l0.29-5.71l-0.88,0.08
				c-0.24,2.17-0.69,4.45-0.69,6.54c0.24,3.93,0.25,8.03,0.95,11.65l0.41,2.79c0.13,0.94,0.27,1.86,0.47,2.75
				c0.39,1.79,0.84,3.58,1.41,5.41c0.59,1.82,1.29,3.69,2.2,5.6c0.94,1.88,2.12,3.79,3.34,5.67c0.65,0.91,1.37,1.76,2.07,2.6
				c0.7,0.83,1.4,1.64,2.14,2.37c1.47,1.48,2.97,2.8,4.5,4.03c1.15,0.97,2.32,1.87,3.45,2.83c1.13,0.96,2.23,1.94,3.38,2.9
				l-1.29,0.47L6834.3,7337.51z M7258.79,7352.32c-1.95,0.38-3.91,0.7-5.88,1c-0.76,0.12-2.5,0.36-4.37,0.54
				c-0.87,0.09-1.95,0.17-2.94,0.24l-1.64,0.09l-1.7,0.06l-1.85,0.02l-0.93,0l-1.03-0.02l-2.05-0.07c-0.72-0.04-1.51-0.09-2.26-0.15
				c-1.44-0.1-3.22-0.31-4.9-0.55c-0.79-0.11-1.83-0.3-2.75-0.47l-1.41-0.28c-0.47-0.1-0.91-0.19-1.46-0.32
				c-2.12-0.52-4.05-1.03-6.43-1.86c-1.16-0.41-2.22-0.79-3.43-1.28c-1.23-0.51-2.45-1.06-3.65-1.64c-1.16-0.54-2.49-1.26-3.75-1.98
				c-1.28-0.74-2.47-1.45-3.76-2.33c-2.57-1.76-5.01-3.62-7.39-5.85c-2.38-2.17-4.53-4.55-6.53-7.07c-1.97-2.49-3.84-5.28-5.35-8.03
				c-3.1-5.55-5.12-11.29-6.26-16.26c-1.15-5-1.56-9.37-1.69-13.13c-0.03-0.9-0.05-1.9-0.04-2.72l0.05-2.51l0.12-2.28
				c0.05-0.78,0.1-1.4,0.16-2.11c0.24-2.71,0.56-5.03,0.86-6.98c0.23-1.5,0.47-3,0.7-4.51c0.19-1.29,0.38-2.58,0.56-3.88
				c0.16-1.13,0.31-2.27,0.44-3.4c0.15-0.96,0.02-0.76,0-0.94c-0.03-0.11-0.05-0.22-0.06-0.33c-0.02-0.22,0.03-0.42,0.09-0.61
				c0.77-2.42,1.77-4.61,3.03-6.95c1.06-1.98,2.2-4.08,3.06-6.4c0.42-1.16,0.79-2.37,1.01-3.61c0.11-0.62,0.2-1.25,0.23-1.88
				c0.05-0.63,0.04-1.27-0.1-1.87c-0.16-0.85-0.92-1.45-1.79-1.38c-0.85,0.03-1.62,0.38-2.26,0.46c-2.27,0.27-4.52,0.52-7.16,1.12
				l-2.64,0.6c-0.24,0.05-0.46-0.01-0.7-0.01l0.24-1.07c4.88-2.31,9.82-4.26,14.81-5.66c0.62-0.17,1.28-0.3,1.93-0.17
				c0.65,0.12,1.21,0.6,1.5,1.21c0.61,1.24,0.52,2.67,0.46,4.02c-0.17,2.73-0.95,5.37-1.94,7.87c-2.01,5-4.88,9.51-6.59,14.39
				c-0.11,0.3-0.21,0.61-0.31,0.91l-0.07,0.23l-0.08,0.27l-0.18,0.66l-0.71,2.63l-0.35,1.33l-0.37,1.56l-0.72,3.13l-0.18,0.78
				l-0.22,1.05l-0.44,2.32c-0.3,1.72-0.58,3.52-0.81,5.73c-0.11,1.03-0.21,2.26-0.28,3.44c-0.04,0.57-0.06,1.28-0.08,1.92
				c-0.02,0.67-0.04,1.26-0.04,2.01c0,1.44,0.03,2.83,0.14,4.47c0.09,1.51,0.27,3.29,0.51,5.01c0.98,7.03,3.59,16.11,9.15,24.62
				c0.69,1.05,1.4,2.09,2.14,3.1c0.75,0.99,1.52,1.96,2.32,2.91c1.59,1.91,3.31,3.7,5.15,5.39c0.91,0.84,1.86,1.69,2.8,2.44
				c0.94,0.75,1.9,1.48,2.87,2.19c2,1.46,3.88,2.61,5.85,3.72c3.91,2.19,7.63,3.7,11.08,4.83l1.31,0.42l1.2,0.34
				c0.8,0.22,1.61,0.43,2.42,0.63c0.84,0.21,1.54,0.36,2.27,0.5l2.19,0.41c5.64,0.94,10.08,1.06,13.82,1.01
				c3.73-0.07,6.79-0.34,9.33-0.63l4.95-0.59l4.67-0.58c6.22-0.78,12.38-1.66,18.52-2.55l-0.16,0.44
				C7272.35,7350.4,7265.44,7351.02,7258.79,7352.32z M6967.74,7247.86c-1.74,0.98-3.58,1.89-5.48,2.68
				c-3.16,1.3-6.43,2.31-9.89,3.19c-0.63,0.17-1.48,0.88-2.29,1.32c-0.32,0.18-0.75,0.6-0.97,0.59c-2.03-0.02-4.33,0.24-6.43,0.09
				c-2.06-0.22-3.92-0.86-4.26-2.83c-0.02-0.15,0.09-0.44,0.33-1.21c0.79-0.06,1.48-0.15,2.08-0.21c0.61-0.09,1.15-0.17,1.62-0.17
				c1.17,0.03,2.34-0.11,3.49-0.19c1.15-0.16,2.28-0.27,3.39-0.5c2.21-0.37,4.3-0.91,6.31-1.38c3.76-0.95,7.38-1.77,11.14-3.09
				c0.35-0.12,0.88,0.34,1.65,0.62C6968.1,7247.34,6967.97,7247.73,6967.74,7247.86z M7407.94,7275.46l-0.3-0.76
				c3.74-1.02,7.43-2.24,11.23-3.04c27.51-5.76,55.02-11.5,82.57-17.08c3.58-0.73,7.38-0.56,11.07-0.81l-0.03,1.06
				C7478.02,7263.35,7443.17,7270.24,7407.94,7275.46z M6861.56,7243.94c-3.65,9.31-6.75,18.77-8.7,28.01
				c-0.47,2.31-1.01,4.63-1.31,6.89c-0.34,2.27-0.78,4.57-0.97,6.81c-0.48,4.52-1.17,8.92-0.43,13.52c0.22,1.09,0.23,2.31,1.14,4.64
				c-2.14-1.88-2.71-4.62-2.81-7.37c-0.05-1.38,0.03-2.79,0.08-4.17c0.05-1.38,0.14-2.77,0-4.07c-0.24,1.34-0.49,2.68-0.7,3.98
				c-0.19,1.3-0.34,2.59-0.43,3.87c-0.18,2.56-0.09,5.14,0.52,7.66c0.63,2.48,1.81,4.93,3.49,6.77c1.62,1.9,3.55,3.29,5.48,4.52
				l-0.72,0.4c-1.56-0.76-3.07-1.65-4.49-2.72c-1.38-1.11-2.74-2.39-3.72-3.94c-2.08-3.07-2.86-6.61-3.06-9.91
				c-0.11-1.67-0.08-3.32,0.01-4.96c0.11-1.66,0.29-3.33,0.44-5l0.25-2.51c0.1-0.84,0.26-1.71,0.38-2.56l0.83-5.13l1.18-5.23
				c0.21-0.87,0.39-1.74,0.62-2.61l0.78-2.65c0.53-1.77,1.01-3.52,1.6-5.29l1.92-5.31c2.68-7.07,5.73-14.07,9.16-20.91l1.09-0.56
				c-0.28,1.33-0.44,2.62-0.66,3.91C6862.33,7241.3,6862.09,7242.6,6861.56,7243.94z M6857.12,7271.91
				c-0.22,0.91-0.45,1.83-0.67,2.75c-0.18,0.91-0.37,1.83-0.55,2.75c-0.35,1.83-0.8,3.69-1.05,5.52c-0.29,1.84-0.58,3.69-0.87,5.54
				c-0.25,1.85-0.43,3.71-0.44,5.6c0,1.89,0.17,3.82,0.75,5.71c0.29,0.94,0.66,1.86,1.16,2.73c0.49,0.87,1.06,1.7,1.76,2.42
				c1.37,1.46,3.03,2.57,4.76,3.46c1.74,0.87,3.52,1.61,5.38,2.18c0.8,0.26,1.56,0.57,2.36,0.84c10.7,3.66,22.29,5.43,34.02,5.69
				c11.74,0.28,23.62-0.83,35.51-3.03c12.1-2.26,24.2-5.08,36.45-9.16c0.32-0.11,0.64-0.08,1.33-0.16
				c-0.45,0.27-1.45,0.74-2.94,1.37c-0.75,0.31-1.61,0.69-2.59,1.06c-0.99,0.36-2.09,0.75-3.3,1.19c-2.42,0.83-5.23,1.92-8.44,2.81
				c-3.2,0.94-6.74,2.05-10.58,2.92c-7.67,2.01-16.46,3.49-25.7,4.46c-2.3,0.18-4.64,0.37-7.01,0.55c-2.35,0.09-4.72,0.11-7.1,0.17
				c-2.39,0.11-4.76-0.07-7.15-0.15l-3.57-0.15c-1.19-0.08-2.37-0.23-3.55-0.34l-3.53-0.37l-1.76-0.19c-0.58-0.07-1.15-0.2-1.73-0.3
				c-2.29-0.42-4.58-0.83-6.84-1.25c-4.39-1.18-8.77-2.21-12.73-3.82c-4.03-1.43-7.92-2.85-11.05-5.51
				c-1.55-1.31-2.81-2.98-3.58-4.78c-0.81-1.79-1.15-3.65-1.29-5.42c-0.23-3.55,0.25-6.73,0.78-9.61c0.54-2.88,0.94-5.42,1.52-7.61
				c0.53-2.18,0.97-3.97,1.34-5.3C6856.63,7273.15,6856.94,7272.27,6857.12,7271.91z M6943.15,7319.1l0.12-0.73
				c0.62-0.19,1.25-0.42,1.86-0.57l7.23-1.8c2.41-0.67,4.81-1.41,7.21-2.11c1.2-0.37,2.4-0.68,3.6-1.09l3.58-1.23l3.57-1.23
				c1.19-0.4,2.38-0.82,3.56-1.3l7.07-2.74c2.35-0.94,4.66-1.98,6.99-2.97l3.48-1.5l3.21-1.49c1.96-0.93,3.94-1.82,5.87-2.79
				c2.48-1.24,4.99-2.47,7.43-3.76l7.25-3.93l7.23-3.96l7.1-4.12c5.42-3.14,10.1-4.55,14.9-4.37c-3.62,2.21-7.33,4.29-11.05,6.36
				c-1.86,1.03-3.71,2.06-5.57,3.08c-1.86,1.02-3.71,2.05-5.61,3c-3.79,1.92-7.58,3.83-11.36,5.74c-1.88,0.96-3.81,1.87-5.76,2.77
				c-1.95,0.89-3.86,1.82-5.84,2.67l-6.1,2.65c-2.35,0.99-4.74,1.91-7.1,2.86l-3.55,1.41l-3.58,1.28c-2.39,0.83-4.76,1.72-7.15,2.5
				C6962.17,7314.84,6952.61,7317.25,6943.15,7319.1z M6920.18,7260.52c1.6,1.04,3.52,1.35,5.32,1.84c0.9,0.26,1.82,0.42,2.74,0.6
				c0.91,0.18,1.81,0.4,2.71,0.52c3.6,0.67,7.04,1.08,10.4,1.75c1.81,0.39,4.02,0.09,6.13-0.16c4.8-0.63,9.62-1.74,14.4-3.18
				l3.58-1.14l3.57-1.26l3.57-1.36l0.89-0.35l1.23-0.52l3.36-1.44c1.29-0.54,2.68-0.89,4.16-0.87c-2.37,1.23-4.75,2.31-7.13,3.43
				c-1.04,0.49-1.56,0.75-2.23,1.04l-1.97,0.86c-2.63,1.13-5.31,2.14-8.01,3.02c-5.39,1.77-10.85,3-16.19,3.56
				c-5.34,0.56-10.56,0.45-15.48-0.45c-1.23-0.28-2.44-0.51-3.63-0.82c-1.18-0.37-2.36-0.68-3.5-1.1c-1.13-0.46-2.26-0.87-3.35-1.36
				c-1.08-0.52-2.15-1.15-2.91-2.18l1.1-0.83C6919.34,7260.27,6919.88,7260.31,6920.18,7260.52z M7196.79,7232.13
				c-0.46-1-1.16-2.11-2.55-2.52c-0.68-0.19-1.46-0.13-2.19,0.06c-0.74,0.19-1.44,0.49-2.13,0.8c-2.73,1.28-5.28,2.39-7.64,3.55
				c-4.76,2.25-8.89,4.22-13.08,6.05c0.46-0.82,2.3-2.39,5.11-4.16c1.39-0.9,3-1.88,4.77-2.8c0.88-0.46,1.79-0.94,2.7-1.43
				c0.93-0.45,1.88-0.88,2.83-1.31c0.95-0.42,1.89-0.86,2.83-1.23c0.94-0.35,1.86-0.69,2.75-1.02c1.77-0.6,3.4-1.35,4.85-1.09
				c0.71,0.13,1.29,0.56,1.63,1.08c0.35,0.53,0.5,1.12,0.56,1.64C7197.34,7230.83,7197.11,7231.67,7196.79,7232.13z
				 M7386.29,7314.12c-1.48,1.42-1.97,2.43-2.96,2.74c-3.93,1.23-7.96,2.46-12.06,3.3c-9.02,1.85-18.07,3.47-27.16,5.15
				c-1.09,0.2-2.22,0.14-3.33,0.2l-0.18-1.06l34.29-7.89l-0.2-0.37c-5.4,0.62-10.81,1.24-16.65,1.91c3.5-2.2,51.25-11.03,54.9-10
				C7403.04,7310.34,7393.86,7312.41,7386.29,7314.12z M6868.64,7325.19c0.85,0.19,1.7,0.38,2.54,0.57
				c0.43,0.09,0.83,0.21,1.27,0.27l1.31,0.19c1.75,0.26,3.47,0.52,5.18,0.81l2.55,0.43c0.85,0.14,1.73,0.19,2.6,0.29
				c1.73,0.19,3.45,0.37,5.17,0.56c0.86,0.09,1.71,0.21,2.57,0.28l2.58,0.18l5.14,0.38c1.7,0.18,3.44,0.15,5.16,0.22l5.16,0.18
				c0.85,0.06,1.73,0.02,2.6,0.01l2.62-0.04l5.24-0.06c3.53-0.2,7.09-0.45,10.66-0.69c3.61-0.47,7.24-0.89,10.9-1.44
				c3.68-0.72,7.37-1.35,11.08-2.22c-3.78,1.34-7.58,2.4-11.38,3.47c-3.79,0.9-7.57,1.61-11.33,2.31c-3.72,0.44-7.43,0.88-11.1,1.15
				l-5.42,0.15l-2.69,0.05c-0.9,0.02-1.79,0.04-2.66-0.03l-5.25-0.27c-1.74-0.11-3.49-0.15-5.18-0.4l-5.09-0.63l-2.53-0.33
				c-0.84-0.13-1.66-0.3-2.49-0.45l-4.95-0.94c-0.82-0.17-1.66-0.28-2.45-0.5l-2.38-0.66l-4.78-1.28l-1.2-0.31
				c-0.4-0.11-0.76-0.27-1.15-0.4L6868.64,7325.19z M7030.98,7288.6c-1.68,0.74-3.34,1.47-5,2.19c-1.68,0.69-3.36,1.38-5.04,2.08
				l-0.31-0.82l3.93-2c1.3-0.68,2.58-1.39,3.87-2.08l7.74-4.16c1.54-0.82,3.07-1.61,4.61-2.39c1.52-0.8,3.04-1.57,4.56-2.33
				c3.05-1.5,6.13-2.91,9.25-4.21c6.23-2.61,12.51-4.89,19.19-6.6c-7.46,3.94-14.59,7.84-21.94,11.55c-3.66,1.86-7.27,3.77-11,5.59
				c-3.73,1.82-7.49,3.65-11.3,5.51C7030.43,7289.49,7030.74,7288.99,7030.98,7288.6z M7019.47,7239.91l0.55,1.08
				c-5.11,2.76-10.24,5.41-15.35,8.12l-15.42,7.65l-7.62,3.55l-3.81,1.67c-1.42,0.62-2.16,0.95-2.94,1.27
				c-3.13,1.28-6.26,2.49-9.43,3.58l-0.12-1.36c3.05-1.09,6.05-2.34,9.02-3.64l6.64-3.03l7.55-3.63c5.1-2.6,10.22-5.1,15.38-7.62
				C7009.05,7244.9,7014.23,7242.4,7019.47,7239.91z M7157.95,7179.39c-7.65,4.15-15.1,8.76-22.56,13.15
				c-1.86,1.09-3.73,2.24-5.53,3.35l-4.87,3.03c-3.19,1.99-6.41,3.95-9.56,5.97c-2.48,1.57-5.03,3.05-7.97,4.34
				c1.13-0.92,2.17-1.97,3.4-2.75c5.55-3.51,11.19-6.93,16.82-10.35l4.72-2.86l4.97-2.9l9.96-5.83l3.05-1.83l3.07-1.8l6.17-3.63
				l0.34,0.62C7159.28,7178.39,7158.64,7179,7157.95,7179.39z M7201.99,7207.08l-0.67,1.03c-1.59,0.5-3.12,1.16-4.68,1.75
				l-4.65,1.81c-3.05,1.32-6.12,2.62-9.14,4.01l0.52-1.59c3.42-2.21,6.72-3.59,9.75-4.65c1.54-0.47,3.03-0.86,4.49-1.24
				C7199.07,7207.82,7200.49,7207.4,7201.99,7207.08z M7191.96,7223.13c-1.75,1.78-4.76,3.62-7.4,4.68
				c-2.63,1.09-5.02,1.6-5.78,0.66c2.29-1,4.47-1.98,6.65-2.87c1.1-0.43,2.18-0.85,3.26-1.27
				C7189.78,7223.9,7190.86,7223.48,7191.96,7223.13z M7020.1,7235.16c-3.22,1.88-6.45,3.62-9.68,5.37
				c-3.24,1.74-6.47,3.51-9.73,5.17c-1,0.49-2.21,0.54-3.32,0.8c0.81-0.86,1.48-2.04,2.46-2.52l11.24-5.73
				c1.88-0.96,3.76-1.87,5.64-2.87l5.64-2.99l0.49,0.77C7021.93,7233.83,7021.08,7234.6,7020.1,7235.16z M7290.21,7252.6
				c9.09-3.16,18.57-4.51,28.3-5.09C7309.23,7250.51,7299.8,7252.4,7290.21,7252.6z M6944.91,7179.64
				c-1.04,0.81-2.54,0.93-3.82,1.41c0.32-0.63,0.57-1.28,0.87-1.92c0.31-0.62,0.66-1.23,1.16-1.77c1.39-1.5,3.12-3.17,4.85-4.07
				c1.33-0.72,2.67-1.31,4.01-1.86c1.36-0.5,2.72-1.01,4.07-1.52l0.08,0.76l-2.86,2.18l-2.79,2.27
				C6948.62,7176.62,6946.76,7178.13,6944.91,7179.64z M6866.72,7188.6c1.78-2.5,3.59-5.05,5.44-7.64c1.96-2.53,3.94-5.09,5.95-7.68
				c2.04-2.56,4.24-5.06,6.37-7.62c0.54-0.63,1.07-1.28,1.62-1.9l1.54-1.7l2.54-2.78l0.49,0.58c-0.52,0.66-1.03,1.31-1.54,1.95
				c-0.26,0.32-0.51,0.64-0.76,0.95c-0.31,0.37-0.61,0.74-0.92,1.11c-0.32,0.39-0.63,0.77-0.94,1.15c-0.32,0.4-0.63,0.8-0.94,1.2
				c-0.63,0.79-1.25,1.56-1.85,2.33c-1.22,1.52-2.41,2.96-3.56,4.34c-1.12,1.4-2.18,2.75-3.2,4.03c-1.03,1.27-2.03,2.47-2.99,3.59
				c-0.98,1.11-1.8,2.21-2.66,3.19C6869.62,7185.67,6868.08,7187.32,6866.72,7188.6z M7062.37,7190.85l0.28,0.44
				c-9.73,5.94-19.32,11.76-28.86,17.4l-0.35-0.4C7043,7202.64,7052.62,7196.8,7062.37,7190.85z M7256.17,7317.47
				c3.73-3,12.15-4.44,20.2-3.62C7269.35,7315.19,7263.13,7316.31,7256.17,7317.47z M7212.65,7204.2l-0.65,0.86
				c-1.61,0.05-3.17,0.56-4.68,1.07l-4.57,1.55l0.54-0.82l4.62-1.56C7209.45,7204.77,7211.02,7204.26,7212.65,7204.2z
				 M7334.52,7261.45c0.05-0.32,0.05-1.09,0.17-1.11c2.94-0.54,5.9-1.01,8.86-1.49l0.1,0.88
				C7340.76,7260.27,7337.86,7260.82,7334.52,7261.45z"/>
		</g>
	</g>
</g>
<g>
	<g>
		<path class="st1" d="M7633.13,7837.3"/>
	</g>
</g>
</svg>
