<?xml version="1.0" encoding="utf-8"?>
<!-- Generator: Adobe Illustrator 25.3.1, SVG Export Plug-In . SVG Version: 6.00 Build 0)  -->
<svg version="1.1" id="Layer_1" xmlns="http://www.w3.org/2000/svg" xmlns:xlink="http://www.w3.org/1999/xlink" x="0px" y="0px"
	 viewBox="0 0 1920 1080" style="enable-background:new 0 0 1920 1080;" xml:space="preserve">
<style type="text/css">
	.st0{fill:#F4BE1D;}
</style>
<g>
	<g>
		<g>
			<path class="st0" d="M675.18,460.92c-1.03,1.18-1.95,2.76-3.02,3.54c-8.15,5.89-14.1,14.64-20.98,22.08
				c-1.42,1.56-2.83,3.15-4.22,4.75c-1.38,1.61-2.71,3.27-4.07,4.91c-2.72,3.28-5.32,6.65-8.04,9.9l-2.6,3.13
				c-0.74,0.93-1.52,1.87-2.16,2.72c-1.35,1.74-2.53,3.34-3.39,4.65l-0.35,0.5l-0.28,0.44c-0.17,0.28-0.43,0.62-0.54,0.83
				c-0.14,0.24-0.3,0.48-0.45,0.71c-0.09,0.18-0.2,0.35-0.32,0.52c-0.08,0.1-0.11,0.16-0.13,0.2c-0.03,0.05-0.07,0.1-0.11,0.15
				c-0.04,0.04-0.1,0.11-0.13,0.13c-0.01,0.01-0.03,0.02-0.06,0.03l-0.04,0.01l-0.02,0.01c-0.01,0,0.01,0.01-0.03,0l-0.24-0.03
				c-0.73-0.08-1.07-0.19-1.6-0.26c-0.49-0.08-0.99-0.13-1.5-0.17c-0.48-0.05-1.12-0.05-1.4-0.1c-0.71-0.07-1.46-0.09-2.24-0.04
				c-0.5-0.01-0.93,0-1.44,0.07l-0.35,0.05l-0.14,0.01c-0.09,0.01-0.2,0.02-0.31,0.05l-0.17,0.04c-0.05,0.01-0.16,0.04-0.1,0.03
				l0.11-0.03c0.03-0.01,0.05-0.02,0.06-0.03l0.01,0l0,0c-0.55,0.19,1.23-0.44-1.23,0.44l0.02-0.01l0.04-0.01l0.07-0.02l0.28-0.1
				l0.61-0.26c0.26-0.11,0.45-0.21,0.72-0.35c1.08-0.54,2.53-1.38,4.1-2.53c0.43-0.3,0.84-0.61,1.24-0.93l0.68-0.53l0.08-0.06l0,0
				l-0.01,0.01l-0.01,0.01c-0.03,0.02-0.02,0.05-0.01,0.09c0.01,0.04-0.01,0.07,0.03,0.13c0.04,0.19,0.27,0.5,0.55,0.86
				c0.28,0.36,0.72,0.78,1.21,1.23c0.25,0.23,0.53,0.46,0.82,0.7c0.31,0.24,0.7,0.47,1.04,0.71c3.78,2.75,8.33,4.81,13.56,6.1
				c5.23,1.3,11.11,1.81,17.29,1.6c5.09-0.2,10.39-0.83,15.69-2.1c5.3-1.23,10.61-2.87,15.83-4.84c0.78-0.33,1.6-0.67,2.43-1.02
				c0.84-0.35,1.69-0.63,2.64-0.99c0.93-0.33,1.9-0.6,2.91-0.75c1.01-0.14,2.06-0.21,3.17-0.15c-5.72,4.48-11.5,7.53-17.7,10.03
				c-6.16,2.48-12.39,4.29-18.42,6.13c6.83-0.96,13.68-2.69,20.31-5.06c1.68-0.53,3.29-1.26,4.93-1.9c1.65-0.62,3.23-1.42,4.83-2.14
				c1.58-0.68,3.24-1.6,4.87-2.43c1.64-0.81,3.25-1.78,4.87-2.69c5.14-2.99,10.01-6.57,14.88-10.38
				c7.77-6.01,15.35-12.8,23.15-19.81c2.96-2.67,6.28-5.09,9.25-7.87l2.43-2.27c0.84-0.79,1.49-1.41,2.75-2.55l6.77-6.16l6.86-6.14
				c2.3-2.04,4.64-4.02,6.98-6.04c9.38-7.97,19.15-15.53,29.23-22.12c7.42-4.81,14.97-9.17,22.61-12.98
				c7.65-3.69,15.38-6.88,23.14-9.47c2.81-0.83,5.62-1.75,8.44-2.48l4.23-1.05l2.12-0.52c0.71-0.16,1.41-0.26,2.11-0.4
				c2.81-0.48,5.64-1.11,8.44-1.34l4.21-0.47c1.4-0.15,2.78-0.14,4.17-0.22c1.39-0.05,2.78-0.13,4.17-0.16l4.12,0.13
				c2.76,0.05,5.47,0.23,8.2,0.63c2.72,0.41,5.46,0.96,8.18,1.85c2.72,0.87,5.43,2.04,7.94,3.62c1.55,0.97,2.88,2.37,4.07,3.76
				c-3.41-2.42-7.33-4.37-11.17-5.68c-5.38-1.83-10.77-2.56-16.16-2.7l-4.06-0.06l-2.03-0.02l-2.06,0.13
				c-2.74,0.19-5.47,0.29-8.24,0.78l-3.07,0.46l-1.53,0.24c-0.51,0.1-1.03,0.22-1.54,0.33l-6.14,1.39l-6.13,1.8l-1.53,0.46
				l-1.52,0.53l-3.04,1.07l-3.03,1.07l-3.01,1.21c-2,0.84-4.02,1.57-6,2.52l-5.96,2.7l-5.91,2.95c-9.72,4.98-19.26,10.8-28.56,17.29
				c-9.3,6.49-18.33,13.68-27.02,21.19c-5.51,4.74-10.98,9.59-16.16,14.51l-0.9,0.86l-0.71,0.7l-1.33,1.34l-2.63,2.67l-5.2,5.3
				c-3.46,3.51-6.93,6.89-10.59,10.07c-4.89,4.21-9.89,8.17-14.98,11.85c-5.09,3.64-10.27,6.98-15.49,10.04l-2.9,1.63l-1.45,0.82
				l-1.46,0.75l-2.92,1.51c-0.98,0.52-1.92,0.9-2.89,1.36l-2.88,1.32l-2.94,1.18c-1.94,0.84-3.95,1.47-5.93,2.17
				c-7.97,2.7-16.18,4.42-24.21,5.08c-8.68,0.71-17.21,0.46-24.99-1.5c-0.75-0.19-1.5-0.34-2.25-0.44
				c-0.76-0.06-1.43-0.25-2.15-0.25c-1.4-0.07-2.84,0.27-4.23,0.98c4.61,2.16,9.58,3.81,14.81,4.94c5.26,1.05,10.77,1.5,16.38,1.52
				l4.24-0.11c1.42-0.07,2.84-0.23,4.27-0.34c0.71-0.07,1.43-0.1,2.14-0.2l2.14-0.31c1.43-0.23,2.87-0.34,4.3-0.67l4.3-0.84
				l4.28-1.06c1.44-0.32,2.85-0.78,4.26-1.21c1.41-0.44,2.85-0.82,4.24-1.35c-0.21,0.64-0.18,1.04-0.4,1.15
				c-9.06,4.55-18.78,7.99-28.78,10.06l-3.77,0.64l-1.89,0.32l-1.89,0.2l-3.81,0.42l-3.81,0.17l-1.92,0.09
				c-0.64,0-1.27-0.03-1.9-0.04l-3.83-0.09c-1.27-0.1-2.52-0.24-3.8-0.35l-1.91-0.18c-0.63-0.08-1.25-0.21-1.88-0.31l-0.16,0.44
				c0.56,0.24,1.11,0.49,1.67,0.73c0.58,0.2,1.16,0.4,1.75,0.61c1.19,0.42,2.42,0.84,3.72,1.29c-0.96,0.09-2.89-0.04-5.58-0.35
				c-2.63-0.5-6.03-1.1-9.73-2.43c-1.9-0.53-3.79-1.42-5.79-2.28c-0.5-0.22-1.01-0.44-1.52-0.66c-0.5-0.23-0.98-0.53-1.48-0.79
				c-0.99-0.55-2-1.1-3.02-1.66c-4.05-2.29-7.89-5.26-10.88-8.72c-1.47-1.74-2.73-3.59-3.64-5.53c-0.22-0.49-0.45-0.96-0.62-1.46
				c-0.21-0.48-0.35-0.99-0.48-1.49c-0.14-0.5-0.29-1-0.43-1.5c-0.08-0.51-0.17-1.02-0.25-1.52c-0.67-4.04,0.05-8.09,1.12-11.56
				c2.26-7,5.8-11.75,7.06-12.84c-2.23,3.83-4.04,7.57-5.29,11.34c-1.27,3.77-1.87,7.58-1.55,11.35c0.37-1.75,0.69-6.71,3.88-13.49
				c1.56-3.38,3.75-7.17,6.43-11.12c1.36-1.97,2.78-4,4.33-6.05c1.6-2.1,3.21-4.23,4.83-6.36c12.95-17.15,26.89-33.86,29.59-38.89
				c-10.79,11.84-20.41,23.26-29.62,35.02l-0.74-0.58c1.93-2.86,3.73-5.84,5.86-8.55c11.87-14.8,24.54-28.92,37.57-42.67
				c10.92-11.53,21.98-22.96,33.56-33.86c3.44-3.29,6.88-6.59,10.32-9.88c0.96-0.9,1.79-1.9,2.68-2.86l-0.39-0.25
				c-3.64,2.56-7.17,5.25-10.77,7.91c9.02-10.26,18.13-20,28.62-30.44c-2.43,1.21-3.44,1.54-4.3,2.18
				c-3.34,2.46-5.89,3.68-7.15,1.66c-0.22-0.36-2.53,0.47-3.6,1.28c-5.38,4.06-10.65,8.32-15.75,12.77
				c-10.8,9.43-21.17,19.34-31.3,29.49c-1.78,1.8-3.81,3.33-5.73,4.99l-0.65-0.72c7.9-9.29,16.13-18.3,24.59-27.14l-0.53-0.65
				c-3.78,3.06-7.53,6.14-11.17,9.39c-7.26,6.58-14.42,13.29-21.36,20.22c-6.99,6.89-13.77,14-20.46,21.2
				c-5.1,5.53-10.18,11.06-15.19,16.66c-0.64,0.72-1.6,1.03-2.41,1.53c1.6-2.64,3.27-5.07,5-7.37c1.72-2.3,3.41-4.54,5.12-6.76
				c9.42-12.37,19.71-24.02,31.65-33.78c1.81-1.47,3.63-3,5.34-4.81c1.73-1.8,3.39-3.86,4.84-6.47c-1.83,1.67-3.61,3.29-5.33,4.87
				c-1.7,1.61-3.36,3.18-4.99,4.72c-3.28,3.06-6.34,6.12-9.44,9.14l-0.88-0.91c6.49-7.71,13.21-15.24,20.19-22.81
				c7.04-7.51,14.32-15.1,22.15-22.7c-9.09,6.98-16.92,13.15-24.38,19.86c-10.2,9.3-20.23,17.1-30.64,23.58
				c-0.7,0.44-1.36,0.48-2.23,0.77c1.41-2.15,2.75-4.21,4.08-6.24c1.36-2.02,2.71-4.01,4.1-6.06c-0.87,0.34-1.3,0.37-1.65,0.66
				c-10.42,8.65-20.56,17.79-29.68,28.59c-2.22,2.67-4.48,5.31-6.75,7.93c-2.25,2.64-4.5,5.29-6.75,7.93
				c-2.53,2.97-4.99,6-7.49,9.01l-7.34,9.14c-0.58,0.71-1.3,1.65-1.98,2.54c-0.68,0.87-1.38,1.81-2.07,2.76l-1.04,1.42l-1.06,1.49
				c-0.7,1.01-1.4,1.98-2.11,3.08c-2.82,4.23-5.67,8.88-8.35,14.43c-3.53,7.36-6.9,16.51-8.18,27.8c-0.14,1.42-0.23,2.91-0.31,4.37
				c-0.07,1.47-0.14,2.91-0.08,4.47c0.04,1.53,0.11,3.06,0.2,4.59c0.09,1.52,0.33,3.11,0.54,4.66c0.39,3.12,1.13,6.2,1.95,9.26
				c0.39,1.52,0.9,3.05,1.43,4.57c0.52,1.54,1.12,2.95,1.72,4.42c2.12,4.96,4.7,9.43,7.45,13.36c2.75,3.94,5.66,7.36,8.58,10.39
				c2.93,3.02,5.88,5.65,8.79,8c1.46,1.17,2.92,2.28,4.36,3.32c1.44,1.04,2.83,1.91,4.27,2.86c11.39,7.48,24.25,12.72,37.19,15.51
				c9.73,2.2,19.29,3.15,28.62,3.44c1.64,0.03,3.27,0.14,5.11,0.27c1.85,0.15,3.83,0.15,6.29,0.2c-2.86,0.75-4.14,1.32-5.58,1.4
				c-13.52,0.87-28,0.23-42.52-3.71l-3.68-1.05c-1.22-0.37-2.44-0.69-3.66-1.16c-2.44-0.89-4.87-1.81-7.28-2.76
				c-1.21-0.45-2.4-1.01-3.59-1.58l-3.56-1.71l-3.53-1.76c-1.16-0.61-2.3-1.32-3.44-1.98c-2.29-1.37-4.53-2.7-6.8-4.18
				c-2.31-1.54-4.68-3.26-7.05-5.13c-4.76-3.77-9.7-8.29-14.52-14.06c-4.09-4.95-8.08-10.8-11.28-17.77
				c-0.4-0.87-0.79-1.75-1.16-2.62c-0.37-0.9-0.72-1.82-1.07-2.73c-0.72-1.84-1.24-3.66-1.79-5.5c-1.12-3.69-1.82-7.43-2.37-11.2
				c-0.28-1.89-0.38-3.69-0.51-5.55l-0.14-2.77c-0.04-0.93-0.01-1.78,0-2.67c0.03-1.76,0.1-3.53,0.2-5.29
				c0.15-1.66,0.34-3.31,0.55-4.95c0.11-0.81,0.22-1.67,0.35-2.44l0.44-2.28c0.31-1.5,0.62-3.08,0.99-4.5
				c0.74-2.77,1.55-5.65,2.45-8.09c1.78-5.17,3.79-9.49,5.85-13.58c1.02-1.94,2.08-3.95,3.12-5.69c0.52-0.89,1.05-1.82,1.57-2.67
				l1.57-2.51c0.53-0.86,1.04-1.62,1.56-2.41l1.56-2.33c1.01-1.45,2.06-2.98,3.04-4.32l1.48-2.03l1.3-1.73l2.59-3.46
				c7.14-9.48,14.21-19.05,21.54-28.39c1.91-2.48,3.19-5.34,5.03-8.37c-5.12,1.56-8.29,5.83-11.22,10.09
				c-5.88,8.65-11.38,17.37-18.55,25.38c-0.69,0.77-1.38,1.56-2.07,2.37l-1.02,1.22c-0.35,0.43-0.64,0.77-1.05,1.32
				c-0.78,1.02-1.53,2.01-2.3,3.1c-0.78,1.11-1.53,2.18-2.29,3.33c-3.3,5.03-6.73,10.71-10,17.61c-3.23,6.9-6.4,15.08-8.28,25.3
				c-0.94,5.04-1.46,10.75-1.39,16.66c0.06,2.98,0.32,6.1,0.66,9.13c0.48,3.12,1.01,6.23,1.8,9.3c0.41,1.53,0.86,3.06,1.33,4.58
				c0.47,1.51,0.97,3.02,1.58,4.53c0.58,1.52,1.21,3,1.88,4.42l1.01,2.15l1.07,2.05c2.9,5.43,6.22,10.16,9.62,14.23
				c1.11,1.36,2.26,2.5,3.35,3.74c4.22,4.7,8.53,8.53,12.69,11.8c2.07,1.61,4.14,3.14,6.13,4.52c1.03,0.73,1.96,1.3,2.94,1.94
				l2.91,1.86c4.47,2.99,9.08,5.45,13.75,7.97c2.35,1.15,4.73,2.19,7.14,3.21c1.21,0.5,2.43,1.02,3.65,1.45
				c1.22,0.41,2.45,0.8,3.69,1.17c9.47,2.97,18.94,4.41,28.22,5.2c2.3,0.14,4.6,0.26,6.91,0.37c1.16,0.07,2.29,0.07,3.41,0.06
				l3.38-0.03c4.55,0.03,8.9-0.35,13.32-0.65c1.94-0.14,3.8-0.28,5.72-0.33c1.9-0.08,3.84-0.08,5.72-0.24l-0.19,0.61
				c-2.13,0.64-4.31,1.21-6.71,1.86c-1.21,0.31-2.45,0.67-3.83,0.98c-1.39,0.29-2.86,0.6-4.45,0.94
				c14.92,0.32,27.25-1.97,39.05-5.94c10.58-3.6,20.74-7.86,31.12-11.46c-3.05,1.87-6.29,3.72-9.56,5.39c-1.67,0.8-3.33,1.6-5,2.4
				l-2.52,1.18l-2.57,1.09c-10.57,4.52-21.66,8.24-33.49,10.84c-11.81,2.6-24.32,4.17-37.54,4.19c-2.86,0.01-6.48,0.94-7.28,1.66
				c-0.71,0.7,1.36,2.25,3.69,2.95c1.24,0.39,2.91,0.73,4.72,0.99c1.8,0.24,3.79,0.48,5.51,0.48c2.76,0.05,5.53,0.07,8.3,0.07
				c2.76-0.02,5.41-0.21,8.12-0.34l4.04-0.25l3.95-0.41c2.62-0.31,5.29-0.55,7.85-0.97c10.36-1.52,20.26-3.93,29.91-6.89
				c9.14-2.85,18.87-6.28,26.32-10.83c1.92-1.2,3.81-2.38,5.69-3.56c0.95-0.58,1.9-1.15,2.84-1.73c0.92-0.58,1.84-1.16,2.76-1.73
				c1.83-1.15,3.74-2.27,5.53-3.41l5.39-3.4c1.82-1.13,3.48-2.27,5.23-3.4c1.74-1.14,3.46-2.27,5.09-3.43
				c1.65-1.15,3.31-2.31,4.92-3.47c1.57-1.17,3.12-2.34,4.66-3.54c7.56-5.93,15.24-11.23,22.09-16.69c3.31-2.63,6.45-5.19,9.55-7.73
				l4.56-3.74c1.31-1.08,3.55-2.94,3.08-2.51l1.38-0.83c0.25-0.15,0.62,0.18,0.63-0.64c0.05-2.23,0.53-5.38,1.75-8.71
				c0.14-0.38,0.27-1.06,0.4-1.68c0.79-3.78,2.25-5.22,2.96-4.01c0.32,0.55,0.55,1.43,0.5,2.83c-0.05,1.39-0.38,3.33-1.04,5.93
				c0.55-0.01,1.47-1.05,2.41-1.66c0.9-0.59,1.86-0.76,1.44,1.36c-2.28,2.56-3,3.32-3.65,3.7c-0.6,0.39-1.13,0.54-1.81,1.96
				c0.74-0.3,1.53-0.53,2.34-0.52l-0.72,1.33c-0.45,0.59-0.86,1.19-1.13,1.62c-0.33,0.87-0.82,1.9-1.29,2.74
				c-0.28,0.5-0.62,1.03-0.6,1c0.07-0.11,0.27-0.34,0.49-0.54c0.12-0.11,0.93-1,2.74-2.72c0.36-0.61,0.75-1.24,1.05-1.96
				c0.95-1.11,1.43-1.6,1.5-1.6c0.23-0.01,0.28,0.16,0.36,0.31c0.26,0.5,0.57,1.3,0.97,2.41c0.14,0.38,0.3,0.77,0.5,1.21
				c0.1,0.22,0.22,0.44,0.36,0.67c0.02,0.04,0.03-0.01,0.09,0.25l0.38,1.33c0.26,0.93,0.61,2.01,0.92,3.01
				c0.34,1.03,0.64,1.98,1.04,3.07c0.79,2.15,1.58,4.2,2.6,6.47c0.5,1.11,0.99,2.19,1.54,3.31c0.57,1.14,1.16,2.27,1.77,3.39
				l0.93,1.68l1.02,1.71c0.69,1.14,1.4,2.26,2.12,3.37c1.54,2.24,3.14,4.53,4.85,6.57c3.45,4.13,7.03,8.04,11.27,11.58
				c2.08,1.76,4.22,3.54,6.42,5.05c2.2,1.52,4.46,2.97,6.75,4.33l1.73,1.01c0.58,0.33,1.12,0.59,1.68,0.89
				c1.12,0.57,2.25,1.13,3.39,1.66c1.14,0.54,2.29,1.06,3.44,1.56l1.73,0.74l1.62,0.6c2.17,0.79,4.36,1.52,6.56,2.19l1.64,0.48
				l1.51,0.38l3.04,0.71l3.05,0.64l1.52,0.29l1.38,0.21c1.84,0.27,3.69,0.51,5.54,0.72l1.39,0.15l1.26,0.09l2.5,0.15l2.5,0.11
				c0.82,0.03,1.71,0.07,2.42,0.06c1.5,0,3-0.03,4.51-0.06l2.23-0.07l2.04-0.13c1.54-0.11,3.13-0.23,4.64-0.38l4.25-0.52
				c0.69-0.09,1.45-0.18,2.09-0.29l1.96-0.32c1.29-0.22,2.65-0.44,3.87-0.68c2.41-0.48,4.9-0.99,7.08-1.53
				c2.31-0.53,4.4-1.1,6.51-1.67c1.07-0.28,2.02-0.57,3.03-0.86l2.59-0.76l4-1.19l8.02-2.36c10.7-3.12,21.4-6.24,32.09-9.36
				c16.54-4.87,33.12-9.85,49.65-14.5c9.85-2.76,19.15-4.73,27.53-6.48c3.15-0.67,6.13-1.67,9.04-2.4l-0.31-1.13
				c-4.35,0.98-8.85,2.15-13.65,3.5c-2.44,0.68-4.87,1.35-7.31,2.03c-2.56,0.73-5.03,1.39-7.7,2.11c-5.24,1.39-10.9,2.84-16.52,4.19
				c-5.62,1.35-11.25,2.63-16.87,3.85c-10.82,2.35-21.56,7.14-32.45,7.7c1.49-0.78,3.04-1.3,4.6-1.81
				c9.35-3.03,18.74-5.97,28.04-9.11l26.42-8.98c8.61-2.94,16.67-5.68,24.22-8c7.88-2.43,15.2-4.56,21.96-6.23
				c1.53-0.35,2.75-1.72,4.29-2.01c5.49-0.96,10.59-1.49,15.32-1.59c1.16,0.01,2.32,0.02,3.49,0c1.17,0.05,2.32,0.07,3.59,0.18
				c2.51,0.19,5.23,0.48,8.23,0.94c8.17,1.2,18.1,3.72,29.82,6.19c2.72,0.57,5.56,1.13,8.47,1.68c2.94,0.51,5.93,0.98,8.9,1.46
				c2.98,0.45,5.94,0.98,8.94,1.35c2.99,0.35,5.99,0.7,9,1.04c-0.3-0.74-0.53-1.32-1.04-2.58c7.55,1.23,15,1.84,22.36,2.61
				c3.68,0.31,7.35,0.48,11,0.72c1.83,0.11,3.65,0.21,5.48,0.32c1.82,0.09,3.65,0.09,5.47,0.14l10.83,0.15l10.82-0.24
				c11.73-0.23,23.6-1.72,35-2.19c1.85-0.05,3.62-0.18,5.3-0.43c1.69-0.23,3.3-0.5,4.84-0.82c3.08-0.63,5.89-1.43,8.49-2.36
				c5.16-2.03,9.45-4.55,13.4-7.25c1.35-0.9,2.4-1.68,3.34-2.27c0.94-0.59,1.76-1,2.64-1.26c1.75-0.53,3.71-0.46,7.22-0.06
				c0.73,0.08,2.08-0.02,3.72-0.26c1.64-0.28,3.57-0.72,5.49-1.21c3.83-0.98,7.59-2.2,8.72-2.99c4.28-3.07,8.38-6.3,12.07-9.12
				c-3.58,0.34-8.49,0.05-13.14,1.38c-4.6,1.14-9.2,2.47-13.78,3.88c-4.6,1.31-9.21,2.63-13.79,3.94c-0.91,0.26-1.8,0.51-2.68,0.68
				c-0.88,0.17-1.74,0.3-2.59,0.41c-1.69,0.22-3.33,0.33-4.93,0.39c-3.21,0.08-6.26,0.02-9.45-0.18c3.18-0.91,6.35-1.93,9.55-2.77
				c3.19-0.9,6.43-1.6,9.62-2.55c3.21-0.89,6.43-1.73,9.67-2.54l2.43-0.61l2.41-0.69l4.84-1.37c12.94-3.49,25.8-7.87,38.03-13.57
				c-1.25,0.01-2.15-0.01-3.53-0.06c1.72-1.12,3.32-2.35,4.94-3.51c1.6-1.18,3.21-2.35,4.88-3.58c-7.1-0.71,0.01-4.33,3.14-7.11
				c-1.24-0.42-2.26-0.81-3.04-1.09c0.82-2.11,3.9-3.99,6.9-5.8c2.99-1.83,5.85-3.66,6.08-5.84c-3.92,1.25-7.41,2.37-10.91,3.49
				l0.03-0.9c0.88-0.48,1.82-0.92,2.61-1.45c1.86-1.24,3.64-2.52,5.44-3.79l-5.84,0.88c-0.15,0.02-0.33,0.1-0.49,0.14l-6.75,1.45
				c0.76-1.36,1.52-2.71,2.53-4.51c-0.58,0.05-1.68,0.24-2.62,0.22c-2.27-0.01-3.38-0.35-3.31-0.99c0.08-0.62,1.3-1.65,3.67-3.18
				c1.61-1.04,3.07-2.18,4.59-3.27l-0.3-0.58c-3.32,1.22-6.61,2.5-9.94,3.64l-10.05,3.3c-0.84,0.28-1.69,0.58-2.53,0.81
				c-0.84,0.21-1.66,0.39-2.39,0.47c-1.47,0.17-2.61,0-3.03-0.9c-0.35-0.75,2.29-2.66,3.96-4.51c0.56-1.09,1.43-2.79,2.28-4.45
				c-1.32,0.46-2.68,0.98-4.09,1.44c-1.42,0.44-2.89,0.89-4.37,1.35c-2.98,0.9-6.02,1.91-9.1,2.78l-0.17-0.63
				c3.27-1.8,6.47-3.73,10.12-5.83c-3.27,0.77-5.8,1.37-8.33,1.96l-0.14-0.5c4.93-2.36,9.92-4.51,14.84-7.21
				c-6.02-0.92-5.79-2.66,0.35-7.11c-0.97-0.26-1.92-0.52-3.04-0.83c1.86-1.16,3.62-2.25,5.38-3.35c1.76-1.09,3.45-2.34,5.28-3.57
				c-2.48,0.4-4.41,0.94-6.09,0.93c-1.8-0.01-3.31-0.43-5-0.69c-0.51,1.25-1.74,2.48-3.39,3.59c-0.83,0.55-1.76,1.08-2.77,1.56
				c-1.03,0.44-2.13,0.82-3.26,1.15c-4.56,1.31-9.62,1.82-13.06,0.4c1.13-0.5,2.3-0.92,3.44-1.41c1.15-0.49,2.3-0.96,3.47-1.42
				c2.34-0.9,4.7-1.8,7.08-2.72c2.35-0.98,4.66-2.1,6.95-3.3c2.27-1.24,4.55-2.49,6.61-4.22c-2.42,0.48-3.81,0.34-4.82,0.82
				c-1.98,0.94-3.94,1.91-5.89,2.92l-2.91,1.52l-2.96,1.41c-4.2,1.98-8.17,4.56-12.63,5.96c-2.62,0.88-5.3,1.6-7.99,2.25
				c-2.73,0.56-5.46,1.1-8.14,1.79c-4.27,1.2-8.57,2.41-12.86,3.61l0.12,0.67c1.43-0.04,3.04-0.27,4.26-0.08
				c1.42,0.23,2.5,0.83,3.74,1.26c-1.35,0.91-2.55,1.95-4.13,2.71c-1.12,0.54-2.75,0.67-4.13,1.04c-12.77,3.06-25.75,5.37-38.8,7.03
				c-13.32,1.62-26.71,2.9-40.22,2.81c-3.9-0.13-7.82-0.42-11.73-0.76c-3.9-0.46-7.78-1.08-11.66-1.59
				c-1.76-0.2-3.47-0.64-5.16-1.04c-1.69-0.41-3.36-0.81-4.98-1.21c2.81-0.66,5.21-1.23,7.6-1.79l-0.67-0.95
				c2,0.26,4.02,0.34,6.03,0.48l6.03,0.41c15.93,0.91,31.89,0.41,47.75-0.96l4.76-0.37c1.59-0.12,3.17-0.35,4.75-0.51
				c3.16-0.37,6.34-0.64,9.5-1.04l9.47-1.36c0.79-0.12,1.58-0.22,2.37-0.35l2.35-0.45l4.7-0.9c1.24-0.24,2.4-0.81,3.6-1.22
				c-3.02,0.28-6,0.59-8.96,0.91l-2.21,0.24l-2.22,0.15c-1.48,0.11-2.95,0.22-4.41,0.33c-5.85,0.59-11.69,0.75-17.49,1.22
				c-3.54,0.19-7.09,0.43-10.64,0.8l-2.67,0.27l-2.67,0.16c-1.79,0.09-3.57,0.18-5.35,0.27l-4.49,0.19l-4.49-0.01
				c-2.99-0.02-5.99,0.03-8.99-0.05c-5.98-0.31-11.98-0.46-17.92-1.17c-1.7-0.17-3.39-0.36-5.08-0.57c-1.7-0.18-3.36-0.56-5.04-0.84
				l-5.03-0.89c-1.67-0.3-3.36-0.52-5.02-0.88l-6.95-1.34l-3.48-0.65l-3.51-0.75c-4.73-1.05-9.69-2.24-14.87-3.46
				c-10.37-2.45-21.69-5.11-34.17-6.86c-5-0.7-10.24-1.24-15.45-1.55c-5.2-0.32-10.36-0.41-15.46-0.31
				c-10.19,0.21-20.09,1.24-29.57,2.9c-6.87,1.23-13.59,2.68-20.1,4.29c-6.49,1.63-12.83,3.37-19,5.19
				c-6.15,1.82-12.18,3.69-18.04,5.55l-17.52,5.56c-8.08,2.58-15.9,5.85-23.85,8.79c-2.53,0.94-5.06,1.94-7.65,2.71l-23.22,6.77
				l-22.62,6.84l-0.34-0.9c0.54-0.32,1.09-0.63,1.64-0.93c0.12-0.07,0.3-0.16,0.5-0.25l0.56-0.26l1.12-0.51
				c1.5-0.67,3.04-1.3,4.59-1.9c3.11-1.2,6.31-2.27,9.54-3.32c6.47-2.1,13.06-4.09,19.33-6.72c-6.75,1.81-13.4,3.59-19.99,5.35
				c-3.3,0.88-6.58,1.76-9.86,2.64c-3.18,0.84-6.95,1.89-8.96,2.33l-0.28-0.91c0.53-0.21,1.1-0.52,1.65-0.76l0.42-0.19l0.21-0.09
				l0.29-0.11c0.39-0.15,0.78-0.28,1.18-0.39c11.41-3.17,22.89-6.08,34.25-9.44c10.94-3.24,21.87-6.54,32.79-9.86l32.9-9.99
				c1.52-0.45,3.06-0.75,4.61-1.2c7.17-2.1,14.54-4.22,23.83-6.54c-2.7,0.33-3.88,0.4-5.06,0.63c-8.49,1.66-16.71,3.49-24.66,5.38
				c-6.82,1.61-13.64,3.22-20.46,4.83c-6.78,1.61-13.55,3.28-20.29,5.09c-14.61,3.92-29.15,8.36-43.7,12.68l-19.12,5.72
				c-2.26,0.64-4.23,1.07-5.74,1.31c-0.19,0.03-0.4,0.08-0.56,0.1l-0.46,0.05l-0.46,0.07c-0.15,0.02-0.23,0.01-0.34,0.02
				c-0.49,0.06-0.69,0.04-0.74,0.06c0,0.02,0.01-0.05,0,0.04l0,0.23l-0.01,0.46l-0.03,0.93c-0.03,0.62-0.07,1.25-0.12,1.89
				c-0.05,0.63-0.12,1.28-0.2,1.91c-0.03,0.53-0.06,1.05-0.12,1.59c-0.1,1.06-0.26,2.14-0.48,3.21c-0.04,0.25-0.13,0.58-0.15,0.77
				l-0.09,0.63c-0.07,0.42-0.15,0.84-0.24,1.26c-0.09,0.42-0.2,0.84-0.32,1.26l-0.19,0.63l-0.1,0.31l-0.05,0.23
				c-0.14,0.6-0.32,1.2-0.54,1.79c-0.11,0.29-0.23,0.58-0.36,0.87l-0.1,0.21l-0.04,0.13l-0.1,0.27c-0.14,0.36-0.3,0.71-0.48,1.05
				l-0.31,0.53c-0.04,0.08-0.08,0.16-0.12,0.24c-0.09,0.17-0.2,0.34-0.34,0.53l-0.11,0.14c-0.04,0.04,0,0-0.01,0.01
				c0.01-0.01,0.02-0.01,0.02-0.01c0.01,0,0,0.01-0.02,0.04l-0.01,0.01l0.06-0.07l0.12-0.13c0.08-0.08,0.16-0.15,0.24-0.22
				c0.16-0.14,0.31-0.25,0.46-0.34l0,0l0,0c0.26-0.2-2.24,1.71-1.18,0.9l0.01-0.01l0.02-0.01l0.03-0.03l0.07-0.05l0.13-0.09
				l0.26-0.17c0.31-0.22,0.56-0.35,0.92-0.55c1.51-0.84,4.15-2.01,8.48-3.15l0.01,0c-1.89,0.5,16.53-4.37,8.73-2.31l0.01-0.02
				l0.02-0.03l0.03-0.07l0.07-0.14l0.13-0.27l0.27-0.55c0.04-0.09,0.11-0.18,0.11-0.28l-0.01-0.3l-0.01-0.6
				c-0.02-0.8-0.04-1.6-0.02-2.41c0-1.61,0.06-3.25,0.17-4.91c0.16-3.18,0.65-7.72,0.31-9.11c-0.64-2.42-0.63-5.51-0.39-8.96
				c0.07-1.7,0.26-3.53,0.41-5.36c0.11-1.81,0.32-3.72,0.41-5.56c0.45-8.07,0.19-15.48-0.34-22.11c-0.54-6.65-1.33-12.5-2.04-17.74
				l-1.01-7.44l-0.87-6.7c-0.65-4.31-1.46-8.58-3.86-13.17c-0.96-1.83-2.22-3.73-3.83-5.54c-1.62-1.8-3.54-3.55-5.69-5.01
				c-2.15-1.47-4.48-2.68-6.85-3.61c-2.36-0.94-4.74-1.66-7.12-2.2c-2.37-0.55-4.74-0.92-7.11-1.2c-2.37-0.25-4.77-0.34-7.15-0.53
				c-1.19-0.12-2.4-0.08-3.61-0.08l-3.63,0c-0.61,0.01-1.21-0.02-1.82,0.02l-1.84,0.13l-3.67,0.25c-1.89,0.07-3.77,0.33-5.63,0.45
				c-1.87,0.15-3.73,0.21-5.62,0.54c0.92-0.6,1.83-1.13,2.71-1.48c0.88-0.34,1.75-0.59,2.61-0.74l4.69-0.82
				c1.55-0.19,3.1-0.32,4.66-0.48c3.12-0.4,6.17-0.38,9.25-0.47c1.52-0.08,3.01,0.01,4.49,0.08l4.47,0.22
				c2.96,0.22,5.9,0.64,8.86,1.28c2.96,0.65,5.92,1.55,8.84,2.83c1.45,0.64,2.89,1.37,4.27,2.21c1.39,0.82,2.71,1.75,3.92,2.76
				c3.73,3.01,6.29,6.57,7.92,9.78c1.65,3.26,2.58,6.31,3.34,9.31l4.45,20.1c1.17,5.51,2.45,11.72,3.26,18.87
				c0.81,7.13,1.17,15.26,0.27,24.22c-0.16,1.59-0.31,3.19-0.47,4.78c-0.19,1.6-0.39,3.21-0.59,4.82c-0.43,3.23-0.87,6.44-1.12,9.61
				c-0.26,3.18-0.43,6.35-0.53,9.53c-0.03,0.8-0.05,1.59-0.06,2.39l-0.03,1.2c-0.19,0.37-0.42,0.73-0.63,1.1
				c-5.15,1.47-10.34,2.94-15.6,4.44c-0.43,0.13-0.9,0.3-1.31,0.44c-0.36,0.11-0.72,0.24-1.08,0.37c-0.47,0.19-0.93,0.37-1.41,0.56
				c-0.4,0.16-0.87,0.39-1.23,0.56c-0.32,0.14-0.64,0.31-0.97,0.5c-0.31,0.18-0.47,0.25-0.72,0.42l-0.5,0.33l-0.2,0.15l-0.03,0.02
				l-0.01,0.01c0.53-0.4-1.18,0.9,1.18-0.9l0,0l0,0l0,0l-0.01,0.01l-0.04,0.03l-0.09,0.06c-0.24,0.16-0.49,0.39-0.73,0.66
				c0.03-0.03,0.03-0.05,0.03-0.05s-0.01,0-0.02,0.01c0.01-0.01-0.04,0.04,0.01-0.02l0.12-0.15c0.15-0.2,0.27-0.39,0.36-0.57
				l0.07-0.13l0.03-0.06l0.09-0.14c0.12-0.2,0.23-0.4,0.33-0.59c0.2-0.39,0.36-0.79,0.49-1.17c0.23-0.52,0.51-1.19,0.69-1.78
				c0.1-0.3,0.18-0.6,0.26-0.9l0.11-0.45l0.19-0.61c0.25-0.82,0.44-1.64,0.59-2.45l0.13-0.76c0.03-0.25,0.06-0.5,0.15-0.85
				c0.13-0.65,0.25-1.29,0.34-1.94s0.17-1.29,0.22-1.92l0.07-0.96c0-0.29,0.09-0.75,0.12-1.11c0.17-1.55,0.26-3.09,0.27-4.61
				l-0.01-1.14l0.05-1.17c0.02,0,0.04,0.01,0.05,0.02c-0.01,0.08,0.33,0.06,0.6,0.11c0.11,0.04,0.4-0.01,0.59,0
				c0.23-0.01,0.39,0.03,0.7-0.02c0.56-0.06,1.09-0.07,1.8-0.19c0.63-0.07,1.4-0.22,2.15-0.36c0.36-0.06,0.79-0.17,1.2-0.26
				c0.42-0.1,0.81-0.17,1.25-0.29l1.32-0.35l0.79-0.22l0.96-0.28c8.74-2.56,17.36-5.6,26.05-8.36l38.49-12.15
				c10.21-3.23,20.43-6.47,30.65-9.71c10.35-3.26,21.37-6.57,32.99-9.36c16.57-3.94,34.7-6.17,53.99-6.35
				c2.6,0.01,5.16-0.05,7.8,0.08c2.63,0.11,5.23,0.16,7.9,0.41c5.3,0.37,10.63,0.99,15.68,1.78c10.1,1.59,19.34,3.75,27.81,5.81
				c6.91,1.68,13.34,3.22,19.37,4.5c3.01,0.63,5.88,1.23,8.72,1.66l8.54,1.45c2.77,0.41,5.56,0.68,8.34,1.01l4.17,0.47l4.19,0.29
				l0.07-0.36c-1.61-0.31-3.22-0.53-4.82-0.89c-1.59-0.36-3.19-0.72-4.79-1.08c-3.19-0.72-6.4-1.37-9.58-2.3
				c0.82-0.85,1.38-1.43,2.09-2.16c-2.31-0.52-4.62-1.03-6.93-1.55c-2.3-0.48-4.59-1.05-7-1.68c-5.15-1.37-10.28-2.73-15.4-4.09
				c-10.94-2.89-23.44-6.09-37.73-8l0-0.68c1.4-0.04,2.85-0.25,4.23-0.09c14.37,1.5,27.02,4.11,37.94,6.28
				c5.47,1.09,10.55,2.1,15.23,2.91c2.34,0.39,4.63,0.68,6.94,1.04l3.45,0.52c1.15,0.18,2.3,0.36,3.46,0.46
				c2.78,0.29,5.56,0.73,8.33,1.24c1.38,0.28,2.78,0.49,4.17,0.7c1.39,0.23,2.78,0.46,4.16,0.69c1.72,0.29,3.44,0.63,5.16,0.95
				l5.18,0.8l5.2,0.83c1.73,0.3,3.49,0.4,5.24,0.59l4.64,0.42c1.55,0.13,3.1,0.29,4.66,0.31c3.12,0.09,6.24,0.15,9.37,0.16
				c1.78,0.01,3.89-0.89,5.27-1.67c2.25-1.29,4.01-2.84,6.24-4.5c-2.74-0.26-5.82-0.8-8.95-0.78c-1.85,0.05-3.71-0.05-5.56-0.09
				l-5.56-0.11c-0.93-0.02-1.85,0-2.78-0.05l-2.78-0.16l-5.54-0.3c-0.68-0.04-1.4,0.22-2.1,0.21c-2.13-0.04-4.25-0.21-6.37-0.3
				c-2.12-0.12-4.25-0.19-6.37-0.33l-6.34-0.64l-3.17-0.33l-1.58-0.17l-1.57-0.26c-4.99-0.84-9.88-2.11-14.78-3.29
				c-1.78-0.39-3.59-0.62-5.42-0.84c-1.85-0.24-3.69-0.54-5.64-0.99c-7.08-1.65-15.11-3.81-24.17-5.93
				c-9.06-2.11-19.26-4.19-30.58-5.36c-1.66-0.17-3.38-0.3-5.07-0.44c-1.7-0.13-3.41-0.19-5.11-0.28c-1.7-0.07-3.42-0.17-5.1-0.18
				l-5.03-0.01l-2.51,0.01l-2.47,0.09l-4.93,0.22c-3.25,0.2-6.45,0.48-9.65,0.78c-12.66,1.33-24.53,3.6-35.71,6.15
				c-6.47,1.49-12.79,2.98-18.84,4.53c-6.1,1.53-11.94,3.11-17.61,4.74l-38.57,11.39l-38.24,11.4c-8.41,2.52-16.68,5.5-25.09,8.05
				c-0.43,0.13-0.86,0.25-1.29,0.38l-0.32,0.09l-0.19,0.05l-0.38,0.09c-0.5,0.1-1.05,0.24-1.48,0.27c-0.45,0.05-0.93,0.1-1.34,0.1
				c-0.39-0.01-0.78-0.04-1.17-0.08c-0.66-0.15-1.32-0.34-1.69-0.72l-0.32-0.26c-0.07-0.11-0.11-0.23-0.16-0.35l-0.14-0.36
				l-0.07-0.18c0.06,0.51,0.12,1.03,0.18,1.55c-0.06-0.54-0.13-1.08-0.19-1.62l-0.02-0.22l0-0.01l0.01-0.02l0.02-0.04l0.06-0.13
				c0.06-0.09,0.02-0.11,0.17-0.22c0.11-0.1,0.22-0.19,0.31-0.3c0.05-0.05,0.09-0.11,0.14-0.17c0.07-0.07,0.13-0.15,0.2-0.24
				c0.18-0.24,0.34-0.65,0.42-1.07c0.11-0.43,0.18-0.9,0.06-1.19c-0.12-0.32-0.31-0.63-0.52-0.94c-0.19-0.32-0.4-0.63-0.63-0.92
				c-0.23-0.29-0.51-0.54-0.62-0.83l-0.22-0.38c-0.07-0.11-0.16-0.21-0.14-0.34l0-0.09l0.14,0.99l0.3,2.46
				c0.08,0.84,0.16,1.68,0.24,2.51l0.11,1.26l0.13,1.11c0.17,1.49,0.29,3,0.38,4.51c0.04,0.76,0.08,1.51,0.1,2.27l0.03,1.13
				l0.07,0.98c0.08,1.3,0.11,2.6,0.11,3.88c0,0.64-0.01,1.28-0.03,1.91l-0.04,0.94l0,0.8c0.01,2.09-0.14,4.09-0.37,5.91
				c-0.07,1.34-0.2,2.54-0.38,3.65c-0.09,0.55-0.19,1.08-0.3,1.58c-0.1,0.49-0.12,0.79-0.19,1.18c-0.12,0.72-0.27,1.37-0.43,1.98
				c-0.09,0.31-0.17,0.6-0.25,0.88c-0.05,0.14-0.09,0.28-0.13,0.42l-0.07,0.3c-0.19,0.79-0.43,1.51-0.75,2.29
				c-0.07,0.18-0.19,0.42-0.24,0.56c-0.04,0.12-0.09,0.26-0.14,0.4c-0.11,0.27-0.24,0.57-0.41,0.9c-0.43,0.74-0.45,0.85-0.66,1.17
				l-0.16,0.23c-0.04,0.06-0.17,0.21-0.12,0.16c0.02-0.02,0.02-0.02,0.02-0.02l-0.02,0.03c0.14-0.16,0.28-0.29,0.42-0.41
				c0.14-0.12,0.27-0.22,0.41-0.3l0.02-0.02l0.01-0.01l0.01,0l0,0l0,0c-0.53,0.4,1.18-0.9-1.18,0.9l0,0l0.06-0.05l0.11-0.09
				l0.22-0.15c0.11-0.07,0.22-0.14,0.33-0.22c0.16-0.1,0.33-0.2,0.51-0.3c0.19-0.1,0.52-0.3,0.77-0.42c0.3-0.14,0.59-0.28,0.87-0.42
				c0.38-0.18,0.8-0.36,1.2-0.51c0.47-0.2,0.97-0.4,1.33-0.52l1.08-0.36c0.41-0.14,0.81-0.27,1.2-0.39c0.4-0.11,0.79-0.22,1.19-0.33
				l0.72-0.21c13.66-3.62,27.33-7.25,41.03-10.88l0.05-0.25c0.4-0.42,0.8-0.83,1.18-1.23c0.26-0.19,0.2-0.43,0.27-0.64
				c0.05-0.22,0.09-0.43,0.13-0.65c0.18-0.86,0.35-1.67,0.5-2.44c0.35-1.6,0.65-3,0.91-4.23c0.27-1.32,0.5-2.44,0.7-3.43
				c0.19-1.02,0.33-1.92,0.44-2.73c0.19-1.61,0.21-2.83,0.03-3.86c-0.19-1.02-0.54-1.86-1.07-2.68c-1.66,5.82-2.92,11.43-3.89,17.46
				c-1.01-2.78-2.14-4.58-2.55-8.25c-0.12-1.03,0.01-3.16,0.33-5.36c0.31-2.2,0.84-4.49,1.3-5.74c3.1-8.37,6.15-16.92,8.14-25.04
				c0.26-1.02,0.6-2.09,0.79-3.07l0.65-2.99c0.42-1.98,0.92-4.05,1.2-5.94l0.96-5.81l0.65-5.58c0.19-1.41,0.12-2.8,0.07-4.53
				c-0.04-0.86-0.07-1.79-0.12-2.81c-0.05-1-0.15-2-0.23-3.14c-2.39,2.96-4.05,5.98-6.03,7.07c-1.79,1.01-3.46-0.35-5.15-2.34
				c-0.87-0.93-1.7-2.12-2.55-3.23c-0.87-1.05-1.71-2.2-2.55-3.13c-0.36-0.38-0.69-1.46-0.97-2.73c-0.12-0.62-0.25-1.27-0.37-1.9
				c-0.11-0.62-0.2-1.21-0.26-1.73c-0.1-0.88,0.82-2.46,1.43-2.35c2.55,0.48,2.51-3.06,2.62-6.49l0.09-1.65l0.13-1.52
				c0.1-1.01,0.21-1.99,0.33-2.98c0.24-1.94,0.5-3.72,0.65-5.61c0.08-0.98,0.15-1.92,0.2-2.96c0.04-1.02,0.08-2.12,0.13-3.38
				c-2.56,0.29-4.21,0.52-5.87,0.67c-2.61,0.24-4.98-0.96-7.39-3.46c-1.24-1.26-2.52-2.85-3.95-4.73c-1.47-1.98-3.04-4.09-4.79-6.44
				c-2.04-2.76-3.89-5.42-5.59-7.78c-3.21-4.51-8.12-6.82-12.24-5.97c-0.75,0.15-1.4,0.36-2.6,0.72c-2.4-2.36-4.46-4.21-6.85-6.25
				c-7.22-0.19-11.01,3.2-19.55,1.25c-0.43,0.13-0.83,0.26-1.22,0.4c-0.39,0.16-0.77,0.32-1.13,0.47c-0.72,0.31-1.4,0.61-2.04,0.88
				c-1.3,0.55-2.52,0.99-3.97,1.25c-0.88,0.15-1.76,0.29-2.64,0.44c-0.9,0.18-1.81,0.41-2.73,0.61c-1.84,0.4-3.69,0.81-5.58,1.22
				c-0.47,0.1-0.95,0.21-1.42,0.31c-0.48,0.14-0.97,0.28-1.46,0.41c-0.97,0.28-1.95,0.56-2.94,0.84c-1.98,0.59-3.98,1.1-6.04,1.82
				c-2.13-0.71-4.72-1.43-7.34-2.24c-2.64-0.67-5.32-1.41-7.56-2.36c-1.36-0.62-3.09-0.79-5.02-0.9c-1.94-0.06-4.08-0.06-6.37,0.22
				c-2.3,0.3-4.71,0.69-7.14,1.08l-1.82,0.29l-1.84,0.39c-1.22,0.26-2.44,0.5-3.63,0.72c-6.58,6.96-6.41,8.55-0.43,8.16
				c-1.66,0.88-3.27,1.76-4.85,2.69c-1.58,0.96-3.13,1.84-4.68,2.54c-0.95,0.43-1.93,0.89-2.92,1.38c-0.99,0.48-1.99,0.98-3,1.57
				c-2.02,1.13-4.04,2.26-6,3.27c-0.98,0.51-1.95,0.96-2.89,1.42c-0.94,0.47-1.87,0.9-2.76,1.26c-1.79,0.72-3.46,1.16-4.96,1.21
				c-0.95,0.04-1.87,0.15-2.78,0.45c-0.91,0.3-1.82,0.71-2.76,1.23c-1.89,1.04-3.91,2.5-6.35,4.38
				c-11.06,8.8-21.95,18.38-32.07,28.23c-5.49,5.31-10.88,9.86-16.35,13.85l-1.02,0.74l-0.49,0.36l-0.29,0.18l-1.17,0.7
				c-0.78,0.45-1.57,0.89-2.34,1.29c-1.53,0.79-3.06,1.5-4.56,2.16c-5.28,2.28-6.52,2.99-6.86,7.1c-0.1,1.18-0.5,2.3-1.22,3.38
				c-0.71,1.05-1.73,2.02-3.11,2.96c-0.89,0.61-1.77,1.21-2.63,1.8c-0.84,0.59-1.63,1.21-2.35,1.87c-1.42,1.31-2.46,2.69-2.89,4.53
				c-0.06,0.27-0.83,0.7-1.05,1.04c-0.69,1.09-1.93,2.51-1.81,3.26c0.58,3.67,0.38,3.83-4.59,6.48c-0.91,0.46-2.05,1.2-2.98,1.97
				c-0.93,0.73-1.65,1.46-1.76,2.02c-0.37,1.81-1.11,3.01-2.21,3.71c-1.1,0.7-2.59,1.14-4.4,1.23c-3.79,0.38-4.79,1.66-4.48,4.66
				c0.82-0.33,1.63-0.67,2.45-1.03c0.83-0.37,1.78-0.91,2.66-1.36c1.8-0.88,3.64-2.03,5.52-2.97c0.95-0.52,1.92-1.05,2.91-1.53
				c1.01-0.47,2.03-0.95,3.06-1.43c1.05-0.47,2.13-0.88,3.25-1.26c1.13-0.42,2.29-0.79,3.5-1.1c-4.22,3.61-7.92,6.16-11.25,8.92
				c-1.17,0.91-2.33,1.89-3.5,2.78l-3.51,2.61l-3.28,2.24c-1.12,0.7-2.28,1.36-3.44,2.04c-4.68,2.58-9.77,4.52-14.94,5.36
				c-4.91,0.8-9.6,1.7-13.96,1.9c-4.34,0.2-8.3-0.02-11.81-0.71c-0.83-0.24-1.68-0.43-2.56-0.6c-0.77-0.31-1.57-0.58-2.39-0.82
				c-0.76-0.33-1.47-0.71-2.25-1.02c-0.75-0.32-1.19-0.61-1.55-0.81c-0.22-0.13-0.35-0.23-0.4-0.28c-0.03-0.02-0.02-0.02-0.02-0.02
				l0,0l-0.26,0.27l-0.63,0.64c-0.4,0.41-0.77,0.79-1.18,1.18l-1.19,1.11c-3.04,2.83-5.88,4.79-7.85,5.87
				c-0.43,0.26-1.01,0.52-1.32,0.68c-0.19,0.09-0.4,0.18-0.59,0.25c-0.13,0.06-0.28,0.12-0.42,0.18l-0.23,0.08l-0.03,0.01l-0.01,0
				c-0.27,0.1,2.33-0.83,1.23-0.44l0,0l0,0l0,0l-0.01,0l-0.05,0.02l-0.08,0.03l-0.05,0.01c-0.03,0.01,0.08-0.02,0.11-0.03
				c0.19-0.05,0.36-0.07,0.51-0.09l0.11-0.01l0.28-0.04c0.2-0.03,0.4-0.05,0.6-0.06s0.38-0.02,0.57-0.02l0.27,0l0.47-0.02
				c0.62-0.02,1.22,0,1.8,0.05c0.31,0.05,1.03,0.06,1.57,0.11c0.57,0.05,1.13,0.12,1.68,0.21c0.29,0.04,0.51,0.1,0.85,0.15
				l1.08,0.15c0.72,0.12,1.42,0.25,2.11,0.42c1.14,0.32,3.35,0.74,4.68,1.17c0-0.01-0.06,0.04-0.03-0.02
				c0.02-0.05,0.03-0.09,0.04-0.14c0.08-0.42,0.47-1.57,1.21-3.09c0.73-1.52,1.85-3.46,3.2-5.6c0.32-0.52,0.69-1.08,1.07-1.65
				l0.56-0.85l0.69-1l2.85-4.08l2.18-3.16l2.21-3.13c1.48-2.08,2.94-4.18,4.52-6.2c6.52-8.5,13.49-16.66,20.42-24.83
				c1.86-2.15,3.18-4.75,4.81-7.1L675.18,460.92z M836.69,553.62l-0.91,0.62c-0.06-0.11-0.15-0.34-0.19-0.36l-0.13-0.09l-0.27-0.18
				l-0.52-0.33c-0.32-0.22-0.57-0.43-0.62-0.72c-0.34-2.11-0.12-4.33-0.02-6.22c0.04-0.67,0.08-1.31,0.14-1.91
				c0.06-0.6,0.12-1.17,0.05-1.74c-0.07-0.55-0.3-1.15-0.88-1.52c-0.57-0.38-1.42-0.43-2.2-0.28c-0.66,0.12-1.29,0.31-1.9,0.55
				l1.08-2.38c0.99-0.59,2.06-1.14,3.16-1.43c1.1-0.32,2.21-0.22,2.86,0.25c0.66,0.46,0.87,1.1,0.96,1.75
				c0.08,0.66,0.01,1.36-0.03,2.15c-0.1,1.83-0.2,3.65-0.3,5.48l-0.19,3.15C836.71,551.48,836.62,552.58,836.69,553.62z
				 M1097.92,567.89c-13.26,3.05-28.25,7.66-45.21,12.41c-17,4.74-34.11,8.91-51.38,12.26c16.87-5.44,33.75-10.86,50.74-15.7
				c8.47-2.42,16.51-4.53,24.17-6.11C1083.9,569.19,1091.17,568.16,1097.92,567.89z M813.46,535.46c-1.07,0.98-2.11,1.96-3.14,2.94
				l-1.52,1.46l-0.75,0.73l-0.38,0.37l-1.34,1.17c-7.42,6.49-15.26,13.33-23.87,20.27c-7.17,5.78-14.96,11.47-23.38,17.02
				c-1.22,0.81-2.6,1.42-3.96,1.87c7.48-5.53,14.49-11.07,21.13-16.51c6.61-5.43,12.88-10.75,18.9-15.88l13.11-11.14
				c1.78-1.48,3.58-2.92,5.4-4.32l0.36,0.68C813.84,534.58,813.72,535.22,813.46,535.46z M960.32,467.73
				c-0.42-9.3-2.25-17.11-3.76-24.02l-0.65-3c-0.21-1.01-0.44-1.9-0.65-2.86c-0.42-1.95-0.85-3.65-1.26-5.47l-0.62-2.53l-0.31-1.26
				l-0.31-1.18l-0.61-2.35l-0.6-2.2c-0.2-0.72,0.06-1.99,0.35-2.56c0.12-0.27,1.03,0.19,1.32,0.81c1.82,3.75,3.72,8.2,5.42,13.61
				c1.69,5.41,3.2,11.77,3.99,19.23c0.8,7.44,0.87,15.99-0.31,25.31c-0.21,2.28-0.69,4.71-1.09,7.09c-0.35,2.37-0.97,4.83-1.48,7.25
				c-0.5,2.42-1.17,4.88-1.7,7.27c-0.55,2.4-1,4.75-1.41,7.08l-0.7,0.28c0.4-3.4,0.99-6.88,1.69-10.42
				c0.37-1.77,0.63-3.53,0.95-5.29l0.45-2.64c0.15-0.88,0.22-1.73,0.34-2.59c0.2-1.71,0.46-3.46,0.6-5.14l0.34-4.98
				c0.08-0.84,0.06-1.62,0.07-2.42l0.02-2.38l0.01-2.37L960.32,467.73z M878.25,426.69c0.86-0.2,1.74-0.34,2.62-0.46
				c0.88-0.13,1.76-0.25,2.64-0.38c1.75-0.24,3.47-0.42,5.07-0.31c3.88,0.22,7.44,1.26,10.88,2.95c0.42,0.2,0.41,1.12,0.13,1.12
				c-1.36-0.01-2.96,0.04-4.37-0.14c-2.98-0.42-5.97-0.46-8.94-0.3c-1.48,0.06-2.96,0.24-4.44,0.41c-1.48,0.17-2.95,0.3-4.43,0.51
				c-6.98,1.03-13.89,2.78-20.65,4.9c-1.56,0.53-3.02,0.61-4.53,0.89l0.18-1.02C860.75,431.15,869.44,428.33,878.25,426.69z
				 M940.78,537.49c-0.88,0.27-1.76,0.54-2.64,0.81c-0.85,0.27-1.68,0.51-2.51,0.73c-0.84,0.24-1.66,0.44-2.48,0.62
				c-0.83,0.19-1.64,0.34-2.44,0.44c-5.57,0.83-10.81,0.31-13.95-0.65c-0.3-0.11-0.6-0.2-0.91-0.28c-0.23-0.13-0.46-0.24-0.7-0.34
				c-0.27-0.07-0.39-0.24-0.57-0.33c-0.17-0.11-0.37-0.18-0.45-0.32c-0.11-0.12-0.25-0.2-0.36-0.3c-0.07-0.14-0.16-0.25-0.26-0.34
				c-0.13-0.05-0.15-0.27-0.25-0.38c-0.08-0.13-0.21-0.22-0.25-0.36c-0.25-0.46-0.54-1.22-0.81-2.47c-0.02-0.02,0-0.13,0.02-0.23
				l0.04-0.3l0.09-0.6l-0.11-1.26c-0.07-0.84-0.1-1.7-0.14-2.55c-0.06-1.71-0.02-3.44,0.05-5.18c0.16-3.7,0.63-7.49,0.97-11.24
				c0.33-3.74,0.59-7.45,0.79-11.06c0.03,4.12-0.09,8.43-0.37,12.83c-0.31,4.41-0.57,8.82-0.35,13.13c0.05,1.08,0.14,2.15,0.23,3.22
				l0.18,1.59c0.06,0.27-0.04,0.51-0.06,0.77c-0.03,0.23-0.1,0.58-0.04,0.59c0.21,0.68,0.42,1.15,0.58,1.45
				c0.19,0.31,0.21,0.45,0.42,0.61c0.04,0.05,0.06,0.1,0.08,0.17c0.04,0.04,0.09,0.05,0.12,0.09c0.04,0.04,0.06,0.08,0.08,0.14
				c0.01,0.07,0.11,0.06,0.14,0.11c0.32,0.33,1.11,0.85,2.64,1.3c1.5,0.46,3.68,0.74,6.11,0.82c2.44,0.09,5.16,0,8.02-0.22
				c1.44-0.14,2.9-0.26,4.4-0.44c0.74-0.07,1.51-0.18,2.27-0.27l1.14-0.14L940.78,537.49z M878.57,580.54l-0.16,1.35
				c-1.45-1.13-2.88-2.3-4.27-3.51c-1.37-1.22-2.59-2.53-3.84-3.86c-1.23-1.35-2.44-2.66-3.55-4.16c-0.56-0.74-1.11-1.48-1.65-2.23
				c-0.51-0.75-1.01-1.5-1.49-2.26c-1-1.54-1.82-3.03-2.65-4.58c-0.79-1.51-1.51-3.03-2.16-4.53c-0.61-1.45-1.23-2.99-1.7-4.38
				l-0.72-2.14l-0.31-1.02l-0.13-0.39l-0.11-0.32l-0.08-0.21l-0.14-0.38l-0.25-0.76c-0.15-0.51-0.27-1.01-0.38-1.52
				c-0.21-1.01-0.37-2.01-0.53-2.97c-0.31-1.77,0.62-3.2,3.25-5.74c-0.12,3.21-0.27,6.28,0.11,9.24c0.04,0.37,0.11,0.74,0.18,1.1
				c0.09,0.42,0.09,0.48,0.4,1.67c0.94,3.43,2.19,7.07,3.97,10.83c1.79,3.77,4.1,7.63,6.87,11.2c1.39,1.72,2.85,3.4,4.37,5.01
				c0.74,0.82,1.57,1.58,2.41,2.33C876.84,579.08,877.7,579.81,878.57,580.54z M1047.76,560.02c1.99-1.67,11.53-4.97,20.67-7.34
				c2.31-0.62,4.55-1.11,6.73-1.59c2.15-0.44,4.17-0.8,6-1.09c3.59-0.49,6.34-0.66,7.39-0.28
				C1075.76,552.22,1062.18,555.95,1047.76,560.02z M822.47,535c1.2-3.47,4.24-5.37,5.29-3.19
				C825.46,535.62,823.48,536.68,822.47,535z M775.56,492.41c0.82-2.39,6.17-8,12.41-13.33c1.56-1.31,3.16-2.64,4.75-3.85
				c1.6-1.21,3.18-2.35,4.66-3.37c3.01-1.98,5.63-3.52,7.42-4.1C794.09,475.93,784.97,483.97,775.56,492.41z M813.64,542.16
				c-0.19-3,3.4-5.86,5.02-3.9C816.86,539.55,815.28,540.8,813.64,542.16z M1142.18,550.52c8.2,1.48,17.45,3.8,27.9,6.28
				C1159.13,556.08,1149.97,553.86,1142.18,550.52z M816.09,529.65c-2.03,1.73-3.96,3.5-5.87,5.18c-0.33,0.29-0.91,0.11-1.4,0.17
				c0.14-0.53,0.17-1.29,0.48-1.57c2.13-1.9,4.37-3.68,6.66-5.34c0.33-0.24,0.72-0.16,1.07-0.23l0.09,0.66
				C816.78,528.9,816.45,529.35,816.09,529.65z M837.58,529.86c-0.83-0.09-1.67-0.04-2.51,0.08c-0.42,0.06-0.85,0.13-1.29,0.19
				c-0.43,0.09-0.87,0.18-1.33,0.28c0.68-1.04,1.45-1.85,2.2-2.43c0.75-0.57,1.49-0.87,2.08-0.95
				C837.93,526.9,838.48,527.98,837.58,529.86z M800.23,412.52c1.3-1.4,3.29-2.85,5.57-4.39c2.28-1.52,4.84-3.12,7.3-4.29
				c2.46-1.22,4.82-2.3,6.67-2.95c1.85-0.59,3.2-0.84,3.67-0.6c-3.95,1.7-7.85,3.8-11.71,5.74c-0.96,0.47-1.93,1.02-2.89,1.56
				l-2.88,1.62l-2.87,1.62l-1.43,0.81L800.23,412.52z M945.28,532.65c-1.93,0.59-3.84,1.17-5.72,1.74
				c-0.87,0.26-1.73,0.51-2.58,0.77c-0.82,0.25-1.62,0.45-2.42,0.67c-3.18,0.84-6.21,1.46-8.99,1.81l-0.08-0.75
				c2.76-0.22,5.8-0.72,9-1.43c0.8-0.18,1.6-0.35,2.43-0.57c0.86-0.22,1.73-0.45,2.61-0.67
				C941.42,533.69,943.34,533.17,945.28,532.65z M703.79,486.92l-0.44-1.08l4.18-2.53l4.25-2.7l0.35,0.84l-4.2,2.82L703.79,486.92z
				 M1082.97,491.64l0.08,0.65c-1.91,0.35-3.8,0.75-5.67,1.16c-1.88,0.4-3.76,0.81-5.61,1.26l-0.13-0.64
				c1.85-0.45,3.74-0.86,5.63-1.26C1079.16,492.39,1081.05,492,1082.97,491.64z"/>
			<path class="st0" d="M947.3,469.01c4.82,5.25,16.91,1.99,26.29,1.93c2.22-0.02,4.39,0.03,7.76,0.05
				c-6.22,2.46-11.25,4.45-16.27,6.44l-0.05,0.83c2.82-0.27,5.65-0.54,8.24-0.79c-9.89,3.39-20,6.93-30.18,10.29
				c-3.7,1.22-7.61,2.17-11.37,2.87c-1.44,0.27-3.75-0.23-3.89-0.88c-0.57-2.64-0.5-5.45-0.51-8.24c0-0.38,0.85-0.99,1.45-1.46
				c3.55-2.76,5.47-6.35,12.86-7.14C942.77,472.79,944.69,470.85,947.3,469.01z"/>
			<path class="st0" d="M675.18,460.92c5.6-7.1,11.37-14.08,17.24-20.89c-0.29-0.52-1.02-0.97-0.75-1.45
				c2.21-3.89,5.45-5.26,9.62-7.24c-7.05,11.87-17.63,19.95-26.14,29.6L675.18,460.92z"/>
		</g>
	</g>
</g>
</svg>
